<?xml version="1.0" encoding="utf-8"?>
<!-- Generator: Adobe Illustrator 16.0.0, SVG Export Plug-In . SVG Version: 6.00 Build 0)  -->
<!DOCTYPE svg PUBLIC "-//W3C//DTD SVG 1.1//EN" "http://www.w3.org/Graphics/SVG/1.1/DTD/svg11.dtd">
<svg version="1.1" id="Layer_1" xmlns="http://www.w3.org/2000/svg" xmlns:xlink="http://www.w3.org/1999/xlink" x="0px" y="0px"
	 width="50px" height="50px" viewBox="0 0 50 50" enable-background="new 0 0 50 50" xml:space="preserve">
<rect x="-2487" y="-18" fill="#FFFFFF" width="2776" height="88"/>
<path fill="#010101" d="M2.73,39.808c-0.518-0.321-0.666-0.782-0.566-1.468c0.192-0.277,0.474-0.479,0.812-0.549
	c0.066-0.012,0.131-0.025,0.197-0.027c1.593-0.071,3.176-0.383,4.772-0.325c0.333,0.013,0.662-0.047,1.062-0.079
	c0.093,0.045,0.246,0.122,0.355,0.175c0.156,0.216,0.171,0.42,0.174,0.631c0.005,0.866,0.005,0.866-0.231,1.316
	c-0.085,0.029-0.179,0.088-0.277,0.09C6.908,39.639,4.789,39.827,2.73,39.808"/>
<path fill="#010101" d="M12.07,39.808c-0.516-0.321-0.667-0.782-0.564-1.468c0.193-0.277,0.472-0.479,0.813-0.549
	c0.063-0.012,0.13-0.025,0.196-0.027c1.592-0.071,3.176-0.383,4.773-0.325c0.328,0.013,0.663-0.047,1.061-0.079
	c0.092,0.045,0.243,0.122,0.356,0.175c0.153,0.216,0.17,0.42,0.17,0.631c0.007,0.866,0.007,0.866-0.23,1.316
	c-0.083,0.029-0.177,0.088-0.274,0.09C16.248,39.639,14.132,39.827,12.07,39.808"/>
<path fill="#010101" d="M21.851,39.736c-0.517-0.321-0.669-0.782-0.566-1.467c0.195-0.275,0.472-0.479,0.813-0.548
	c0.063-0.014,0.132-0.027,0.199-0.029c1.59-0.07,3.173-0.381,4.771-0.322c0.33,0.011,0.662-0.048,1.061-0.079
	c0.092,0.045,0.245,0.12,0.354,0.173c0.155,0.216,0.172,0.418,0.172,0.632c0.007,0.865,0.007,0.865-0.229,1.315
	c-0.084,0.03-0.18,0.089-0.276,0.091C26.031,39.567,23.911,39.757,21.851,39.736"/>
<path fill="#010101" d="M31.271,39.736c-0.518-0.321-0.666-0.782-0.566-1.467c0.195-0.275,0.475-0.479,0.812-0.548
	c0.068-0.014,0.133-0.027,0.197-0.029c1.592-0.07,3.176-0.381,4.773-0.322c0.332,0.011,0.662,0.188,1.061,0.155
	c0.093,0.046,0.247,0.121,0.355,0.174c0.154,0.216,0.172,0.418,0.175,0.634c0.004,0.864,0.004,0.864-0.23,1.313
	c-0.087,0.029-0.181,0.09-0.278,0.094C35.45,39.804,33.33,39.757,31.271,39.736"/>
<path fill="#010101" d="M40.441,39.736c-0.518-0.321-0.668-0.782-0.567-1.467c0.195-0.275,0.474-0.479,0.812-0.548
	c0.068-0.014,0.133-0.027,0.199-0.029c1.592-0.07,3.174-0.381,4.771-0.322c0.334,0.011,0.663-0.048,1.062-0.079
	c0.092,0.045,0.246,0.12,0.357,0.173c0.154,0.216,0.169,0.418,0.171,0.632c0.004,0.865,0.004,0.865-0.229,1.315
	c-0.084,0.03-0.179,0.089-0.276,0.091C44.62,39.567,42.501,39.757,40.441,39.736"/>
<path fill="#FBB041" d="M27.025,20.701c-0.045-0.005-0.088-0.01-0.133-0.016c0-0.208,0.016-0.416-0.006-0.621
	c-0.146-1.562-0.205-3.139-0.477-4.678c-0.225-1.287-1.35-1.376-2.357-1.18c-0.549,0.104-1.41,0.535-1.471,0.923
	c-0.516,3.302-1.234,6.603-0.812,9.981c0.133,1.052,1.432,2.153,2.545,2.176c1.105,0.022,2.004-0.696,2.186-1.917
	C26.734,23.822,26.857,22.257,27.025,20.701 M17.561,21.612c0.184-2.617,0.297-4.755,0.51-6.883c0.055-0.54,0.307-1.176,0.686-1.548
	c0.926-0.927,1.855-1.992,3.008-2.528c2.445-1.138,7.51-0.265,8.322,3.613c0.436,2.077,0.479,4.25,0.576,6.383
	c0.068,1.481-0.172,2.98-0.082,4.462c0.15,2.505-1.123,4.334-3.818,5.422c-2.676,1.076-5.117,0.924-7.264-1.045
	c-0.572-0.522-1.076-1.326-1.211-2.072C17.914,25.349,17.752,23.239,17.561,21.612"/>
</svg>
