<?xml version="1.0" encoding="utf-8"?>
<!-- Generator: Adobe Illustrator 16.0.0, SVG Export Plug-In . SVG Version: 6.00 Build 0)  -->
<!DOCTYPE svg PUBLIC "-//W3C//DTD SVG 1.1//EN" "http://www.w3.org/Graphics/SVG/1.1/DTD/svg11.dtd">
<svg version="1.1" id="Layer_1" xmlns="http://www.w3.org/2000/svg" xmlns:xlink="http://www.w3.org/1999/xlink" x="0px" y="0px"
	 width="50px" height="50px" viewBox="0 0 50 50" enable-background="new 0 0 50 50" xml:space="preserve">
<rect x="-1857" y="-18" fill="#FFFFFF" width="2776" height="88"/>
<path fill="#010101" d="M39.058,40.602c-0.561-0.396-0.725-0.963-0.613-1.81c0.211-0.34,0.513-0.591,0.886-0.676
	c0.068-0.015,0.141-0.032,0.213-0.034c1.733-0.087,3.453-0.47,5.193-0.399c0.358,0.017,0.722-0.058,1.154-0.097
	c0.101,0.057,0.265,0.149,0.385,0.217c0.17,0.262,0.188,0.514,0.188,0.776c0.009,1.067,0.009,1.067-0.251,1.62
	c-0.09,0.038-0.193,0.11-0.299,0.113C43.607,40.392,41.302,40.625,39.058,40.602"/>
<path fill="#010101" d="M29.377,40.16c-0.56-0.397-0.725-0.963-0.613-1.811c0.21-0.341,0.513-0.589,0.886-0.674
	c0.071-0.018,0.142-0.033,0.213-0.038c1.732-0.087,3.453-0.468,5.193-0.397c0.358,0.016,0.72-0.059,1.154-0.096
	c0.101,0.057,0.268,0.149,0.385,0.215c0.168,0.263,0.188,0.515,0.188,0.777c0.008,1.068,0.008,1.068-0.249,1.622
	c-0.093,0.036-0.196,0.109-0.302,0.111C33.927,39.95,31.623,40.186,29.377,40.16"/>
<path fill="#010101" d="M19.812,40.16c-0.562-0.397-0.726-0.963-0.618-1.811c0.213-0.341,0.518-0.589,0.886-0.674
	c0.074-0.018,0.144-0.033,0.216-0.038c1.731-0.087,3.453-0.468,5.191-0.397c0.363,0.016,0.722-0.059,1.153-0.096
	c0.103,0.057,0.27,0.149,0.388,0.215c0.168,0.263,0.188,0.515,0.189,0.777c0.005,1.068,0.005,1.068-0.25,1.622
	c-0.094,0.036-0.197,0.109-0.304,0.111C24.358,39.95,22.054,40.186,19.812,40.16"/>
<path fill="#010101" d="M9.188,40.16c-0.562-0.397-0.727-0.963-0.618-1.811c0.212-0.341,0.517-0.589,0.887-0.674
	c0.072-0.018,0.142-0.033,0.213-0.038c1.731-0.087,3.454-0.468,5.194-0.397c0.361,0.016,0.72-0.059,1.154-0.096
	c0.101,0.057,0.268,0.149,0.386,0.215c0.17,0.263,0.187,0.515,0.188,0.777c0.006,1.068,0.006,1.068-0.25,1.622
	c-0.093,0.036-0.196,0.109-0.304,0.111C13.734,39.95,11.429,40.186,9.188,40.16"/>
<path fill="#010101" d="M3.488,39.921c-0.029-0.365-0.052-0.714-0.076-1.002c0.395-0.707,0.854-1.162,1.504-1.25
	c0.438,0.03,0.713,0.275,0.957,0.694c0.178,0.735,0.133,1.458-0.488,2.021C4.729,40.638,4.135,40.557,3.488,39.921"/>
<path fill="#FBB041" d="M22.626,15.643c-0.936,0.379-1.664,0.678-2.396,0.964c-0.832,0.322-1.355,0.053-1.656-0.771
	c-0.338-0.908-0.314-1.851,0.049-2.678c0.225-0.511,0.805-0.954,1.324-1.226c1.475-0.76,3-1.412,4.506-2.11
	c0.178-0.082,0.352-0.182,0.525-0.279c1.541-0.845,2.457-0.098,2.711,1.413c0.338,2.039,0.25,4.102,0.076,6.171
	c-0.158,1.935-0.098,3.886-0.1,5.831c0,2.068,0.033,4.135,0.068,6.203c0.008,0.663-0.109,1.284-0.641,1.72
	c-0.184,0.145-0.504,0.229-0.732,0.185c-0.648-0.128-1.279-0.352-1.922-0.51c-1.195-0.283-1.592-0.706-1.615-1.975
	c-0.01-0.809,0.146-1.619,0.178-2.43c0.049-1.291,0.098-2.585,0.074-3.878c-0.02-1.7-0.088-3.399-0.168-5.101
	C22.88,16.708,22.737,16.251,22.626,15.643"/>
</svg>
