<?xml version="1.0" encoding="utf-8"?>
<!-- Generator: Adobe Illustrator 16.0.0, SVG Export Plug-In . SVG Version: 6.00 Build 0)  -->
<!DOCTYPE svg PUBLIC "-//W3C//DTD SVG 1.1//EN" "http://www.w3.org/Graphics/SVG/1.1/DTD/svg11.dtd">
<svg version="1.1" id="Layer_1" xmlns="http://www.w3.org/2000/svg" xmlns:xlink="http://www.w3.org/1999/xlink" x="0px" y="0px"
	 width="50px" height="50px" viewBox="0 0 50 50" enable-background="new 0 0 50 50" xml:space="preserve">
<rect x="-1927" y="-18" fill="#FFFFFF" width="2776" height="88"/>
<path fill="#010101" d="M37.576,39.358c-0.646-0.401-0.833-0.978-0.709-1.834c0.243-0.345,0.594-0.597,1.017-0.686
	c0.083-0.015,0.165-0.032,0.247-0.035c1.988-0.087,3.966-0.476,5.962-0.402c0.415,0.014,0.828-0.06,1.325-0.101
	c0.115,0.06,0.308,0.153,0.446,0.219c0.194,0.269,0.212,0.521,0.215,0.788c0.006,1.081,0.006,1.081-0.288,1.644
	c-0.104,0.037-0.223,0.11-0.344,0.113C42.796,39.146,40.15,39.384,37.576,39.358"/>
<path fill="#010101" d="M26.204,39.358c-0.644-0.401-0.833-0.978-0.705-1.834c0.241-0.345,0.59-0.597,1.017-0.686
	c0.083-0.015,0.163-0.032,0.245-0.035c1.988-0.087,3.966-0.476,5.963-0.402c0.413,0.014,0.827-0.06,1.324-0.101
	c0.115,0.06,0.307,0.153,0.444,0.219c0.192,0.269,0.214,0.521,0.214,0.788c0.009,1.081,0.009,1.081-0.287,1.644
	c-0.104,0.037-0.222,0.11-0.345,0.113C31.427,39.146,28.778,39.384,26.204,39.358"/>
<path fill="#010101" d="M14.963,39.358c-0.645-0.401-0.834-0.978-0.707-1.834c0.243-0.345,0.591-0.597,1.018-0.686
	c0.083-0.015,0.163-0.032,0.245-0.035c1.988-0.087,3.966-0.476,5.964-0.402c0.412,0.014,0.826-0.06,1.325-0.101
	c0.115,0.06,0.305,0.153,0.442,0.219c0.193,0.269,0.216,0.521,0.216,0.788c0.009,1.081,0.009,1.081-0.289,1.644
	c-0.103,0.037-0.222,0.11-0.343,0.113C20.185,39.146,17.538,39.384,14.963,39.358"/>
<path fill="#010101" d="M3.778,39.118c-0.032-0.373-0.06-0.726-0.086-1.015c0.451-0.72,0.979-1.18,1.726-1.268
	c0.506,0.029,0.82,0.278,1.103,0.7c0.203,0.749,0.15,1.479-0.563,2.051C5.208,39.842,4.523,39.761,3.778,39.118"/>
<path fill="#010101" d="M9.079,39.118c-0.03-0.373-0.058-0.726-0.084-1.015c0.451-0.72,0.983-1.18,1.729-1.268
	c0.503,0.029,0.817,0.278,1.098,0.7c0.204,0.749,0.15,1.479-0.559,2.051C10.511,39.842,9.826,39.761,9.079,39.118"/>
<path fill="#FBB041" d="M27.39,28.17c1.4,0.421,2.629,0.304,3.855,0.229c0.863-0.051,1.34,0.258,1.32,1.076
	c-0.012,0.616-0.119,1.295-0.406,1.821c-0.461,0.85-1.338,1.05-2.246,0.838c-0.902-0.211-1.777-0.239-2.686-0.028
	c-0.734,0.172-1.465,0.033-2.217-0.033c-1.238-0.102-2.506,0.109-3.764,0.182c-0.578,0.033-1.197,0.189-1.732,0.054
	c-1.02-0.256-1.34-1.608-0.521-2.238c0.633-0.495,0.98-1.131,1.381-1.761c0.852-1.327,1.715-2.653,2.537-4
	c0.826-1.352,1.598-2.732,2.412-4.092c0.309-0.509,0.609-1.037,1.002-1.479c0.572-0.64,0.713-1.4,0.725-2.188
	c0.01-0.615-0.148-1.208-0.906-1.346c-0.037-0.008-0.072-0.036-0.104-0.057c-0.611-0.359-1.242-0.909-1.961-0.373
	c-0.742,0.555-0.986,1.439-0.984,2.325c0.004,1.075-0.373,1.505-1.377,1.194c-0.656-0.206-1.264-0.401-1.959-0.196
	c-0.205,0.058-0.467-0.071-0.693-0.13c-0.861-0.219-1.129-0.668-0.764-1.479c0.371-0.827,0.924-1.579,1.26-2.416
	c0.418-1.021,1.23-1.645,2.029-2.266c0.416-0.321,0.979-0.464,1.5-0.632c1.697-0.549,3.381-1.218,5.221-0.728
	c1.135,0.302,2.129,0.841,2.912,1.729c0.367,0.414,0.75,0.826,1.041,1.291c0.686,1.089,0.734,2.289,0.471,3.52
	c-0.205,0.957-0.363,1.924-0.615,2.866c-0.107,0.403-0.379,0.769-0.602,1.132c-0.646,1.043-1.338,2.062-1.947,3.127
	C28.833,25.403,28.157,26.73,27.39,28.17"/>
</svg>
