<?xml version="1.0" encoding="utf-8"?>
<!-- Generator: Adobe Illustrator 16.0.0, SVG Export Plug-In . SVG Version: 6.00 Build 0)  -->
<!DOCTYPE svg PUBLIC "-//W3C//DTD SVG 1.1//EN" "http://www.w3.org/Graphics/SVG/1.1/DTD/svg11.dtd">
<svg version="1.1" id="Layer_1" xmlns="http://www.w3.org/2000/svg" xmlns:xlink="http://www.w3.org/1999/xlink" x="0px" y="0px"
	 width="50px" height="50px" viewBox="0 0 50 50" enable-background="new 0 0 50 50" xml:space="preserve">
<rect x="-1997" y="-18" fill="#FFFFFF" width="2776" height="88"/>
<path fill="#010101" d="M35.598,39.962c-0.721-0.446-0.93-1.091-0.791-2.045c0.271-0.386,0.662-0.668,1.135-0.765
	c0.092-0.019,0.184-0.038,0.275-0.041c2.219-0.096,4.426-0.529,6.654-0.45c0.463,0.017,0.924-0.066,1.479-0.109
	c0.129,0.063,0.344,0.169,0.496,0.241c0.215,0.302,0.238,0.583,0.242,0.88c0.006,1.207,0.006,1.207-0.322,1.836
	c-0.117,0.04-0.25,0.122-0.387,0.125C41.424,39.727,38.467,39.991,35.598,39.962"/>
<path fill="#010101" d="M23.051,39.962c-0.723-0.446-0.93-1.091-0.791-2.045c0.271-0.386,0.66-0.668,1.135-0.765
	c0.092-0.019,0.182-0.038,0.273-0.041c2.221-0.096,4.426-0.529,6.654-0.45c0.463,0.017,0.924,0.262,1.479,0.219
	c0.129,0.062,0.344,0.169,0.496,0.244c0.219,0.298,0.238,0.58,0.242,0.88c0.006,1.207,0.006,1.207-0.32,1.833
	c-0.121,0.043-0.254,0.125-0.389,0.128C28.877,40.056,25.924,39.991,23.051,39.962"/>
<path fill="#010101" d="M5.008,39.693c-0.037-0.416-0.068-0.807-0.098-1.13c0.506-0.804,1.098-1.319,1.928-1.416
	c0.562,0.032,0.914,0.311,1.229,0.78c0.227,0.837,0.168,1.652-0.625,2.289C6.6,40.504,5.836,40.411,5.008,39.693"/>
<path fill="#010101" d="M10.887,39.693c-0.033-0.416-0.064-0.807-0.094-1.13c0.502-0.804,1.096-1.319,1.924-1.416
	c0.566,0.032,0.918,0.311,1.23,0.78c0.229,0.837,0.168,1.652-0.627,2.289C12.482,40.504,11.721,40.411,10.887,39.693"/>
<path fill="#010101" d="M16.701,39.693c-0.037-0.416-0.066-0.807-0.098-1.13c0.506-0.804,1.098-1.319,1.928-1.416
	c0.562,0.032,0.918,0.311,1.227,0.78c0.232,0.837,0.17,1.652-0.623,2.289C18.293,40.504,17.529,40.411,16.701,39.693"/>
<path fill="#FBB041" d="M22.146,14.286c-1.488-0.246-2.689-0.459-3.893-0.641c-1.162-0.176-1.381-0.403-1.385-1.548
	c0-0.038-0.004-0.08,0-0.12c0.025-0.452-0.107-1.038,0.125-1.33c0.316-0.4,0.885-0.714,1.395-0.826
	c0.764-0.162,1.586-0.258,2.346-0.132c1.973,0.321,3.928,0.526,5.939,0.331c0.885-0.087,1.818,0.135,2.711,0.306
	c0.816,0.153,1.031,0.93,0.533,1.625c-0.848,1.188-1.773,2.287-2.936,3.205c-0.566,0.444-0.928,1.158-1.414,1.79
	c0.234,0.254,0.381,0.43,0.539,0.59c1.068,1.098,2.338,2.061,3.145,3.32c0.768,1.189,0.697,1.431,1.145,2.806
	c0.086,0.26,0.248,1.864,0.186,2.175c-0.115,0.574-0.199,1.159-0.334,1.727c-0.215,0.919-0.764,1.645-1.434,2.273
	c-0.625,0.589-1.58,0.963-2.17,1.581c-1.012,0.46-3.211,1.009-4.922,0.532c-1.848-0.511-2.521-0.509-3.861-1.872
	c-0.713-0.723-1.381-1.519-1.43-2.648c-0.016-0.385-0.215-0.759-0.277-1.145c-0.195-1.16,0.568-2.109,1.725-2.181
	c1.211-0.072,2.244,0.346,2.838,1.393c0.422,0.755,1.16,1.244,1.799,1.409c1.074,0.284,2.844-0.86,2.807-2.005
	c-0.01-0.244-0.328-1.63-0.508-1.791c-0.719-0.646-1.369-0.98-2.406-0.697c-0.303,0.084-1.078,0.348-1.389,0.351
	c-0.395,0.003-0.729,0.202-0.93-0.256c-0.02-0.034-1.611-1.288-1.479-2.185c0.145-0.968,0.691-1.912,1.211-2.774
	C20.473,16.477,21.275,15.495,22.146,14.286"/>
</svg>
