<?xml version="1.0" encoding="utf-8"?>
<!-- Generator: Adobe Illustrator 16.0.0, SVG Export Plug-In . SVG Version: 6.00 Build 0)  -->
<!DOCTYPE svg PUBLIC "-//W3C//DTD SVG 1.1//EN" "http://www.w3.org/Graphics/SVG/1.1/DTD/svg11.dtd">
<svg version="1.1" id="Layer_1" xmlns="http://www.w3.org/2000/svg" xmlns:xlink="http://www.w3.org/1999/xlink" x="0px" y="0px"
	 width="50px" height="50px" viewBox="0 0 50 50" enable-background="new 0 0 50 50" xml:space="preserve">
<rect x="-2067" y="-18" fill="#FFFFFF" width="2776" height="88"/>
<path fill="#010101" d="M32.115,39.215c-0.721-0.449-0.93-1.093-0.791-2.048c0.271-0.388,0.662-0.668,1.135-0.765
	c0.092-0.018,0.182-0.036,0.275-0.039c2.219-0.098,4.426-0.533,6.654-0.451c0.463,0.018,0.924-0.066,1.479-0.11
	c0.129,0.063,0.344,0.167,0.498,0.243c0.215,0.3,0.236,0.583,0.24,0.881c0.006,1.208,0.006,1.208-0.322,1.833
	c-0.115,0.041-0.248,0.125-0.385,0.128C37.939,38.977,34.986,39.241,32.115,39.215"/>
<path fill="#010101" d="M8.49,38.945c-0.035-0.416-0.066-0.809-0.096-1.132c0.504-0.804,1.096-1.318,1.928-1.416
	c0.562,0.035,0.914,0.312,1.229,0.782c0.227,0.835,0.166,1.65-0.629,2.289C10.084,39.754,9.322,39.664,8.49,38.945"/>
<path fill="#010101" d="M14.312,38.945c-0.033-0.416-0.066-0.809-0.094-1.132c0.506-0.804,1.098-1.318,1.928-1.416
	c0.562,0.035,0.914,0.312,1.227,0.782c0.229,0.835,0.168,1.65-0.625,2.289C15.908,39.754,15.145,39.664,14.312,38.945"/>
<path fill="#010101" d="M19.98,38.945c-0.033-0.416-0.066-0.809-0.096-1.132c0.504-0.804,1.096-1.318,1.926-1.416
	c0.564,0.035,0.918,0.312,1.23,0.782c0.227,0.835,0.168,1.65-0.627,2.289C21.576,39.754,20.811,39.664,19.98,38.945"/>
<path fill="#010101" d="M25.766,38.945c-0.037-0.416-0.066-0.809-0.096-1.132c0.504-0.804,1.096-1.318,1.926-1.416
	c0.566,0.035,0.918,0.312,1.23,0.782c0.229,0.835,0.168,1.65-0.627,2.289C27.363,39.754,26.596,39.664,25.766,38.945"/>
<path fill="#FBB041" d="M21.744,24.712c1.146,0.069,2.219,0.135,3.338,0.204c0.172-2.844,0.334-5.499,0.498-8.158
	c-0.148-0.03-0.303-0.055-0.457-0.087C24.016,19.313,22.906,21.954,21.744,24.712 M29.613,29.159
	c-0.037,3.373-0.184,3.724-1.545,3.816c-1.916,0.131-2.312-0.396-2.846-3.863c-1.918-0.127-3.861-0.274-5.811-0.371
	c-1.922-0.1-2.322-0.411-2.176-2.349c0.086-1.134,0.387-2.297,0.811-3.357c1.174-2.943,2.504-5.821,3.689-8.757
	c1.254-3.111,2.383-3.922,5.758-3.896c1.355,0.008,2.193,0.634,2.207,1.982c0.033,3.354-0.08,6.713-0.109,10.065
	c-0.01,1.075-0.574,2.405,1.295,2.669c0.287,0.038,0.684,0.968,0.625,1.428c-0.102,0.77-0.473,1.524-0.854,2.219
	C30.527,28.979,30.021,29.008,29.613,29.159"/>
</svg>
