<?xml version="1.0" encoding="utf-8"?>
<!-- Generator: Adobe Illustrator 16.0.0, SVG Export Plug-In . SVG Version: 6.00 Build 0)  -->
<!DOCTYPE svg PUBLIC "-//W3C//DTD SVG 1.1//EN" "http://www.w3.org/Graphics/SVG/1.1/DTD/svg11.dtd">
<svg version="1.1" id="Layer_1" xmlns="http://www.w3.org/2000/svg" xmlns:xlink="http://www.w3.org/1999/xlink" x="0px" y="0px"
	 width="50px" height="50px" viewBox="0 0 50 50" enable-background="new 0 0 50 50" xml:space="preserve">
<rect x="-2137" y="-18" fill="#FFFFFF" width="2776" height="88"/>
<path fill="#010101" d="M11.609,41.264c-0.033-0.416-0.066-0.809-0.096-1.132c0.504-0.804,1.094-1.317,1.926-1.415
	c0.564,0.031,0.918,0.312,1.23,0.781c0.227,0.836,0.168,1.652-0.629,2.289C13.203,42.072,12.439,41.979,11.609,41.264"/>
<path fill="#010101" d="M17.594,41.264c-0.033-0.416-0.066-0.809-0.096-1.132c0.504-0.804,1.094-1.317,1.926-1.415
	c0.564,0.031,0.918,0.312,1.229,0.781c0.229,0.836,0.17,1.652-0.627,2.289C19.188,42.072,18.424,41.979,17.594,41.264"/>
<path fill="#010101" d="M23.5,41.264c-0.033-0.416-0.066-0.809-0.094-1.132c0.504-0.804,1.096-1.317,1.926-1.415
	c0.564,0.031,0.918,0.312,1.229,0.781c0.229,0.836,0.168,1.652-0.627,2.289C25.096,42.072,24.33,41.979,23.5,41.264"/>
<path fill="#010101" d="M34.979,41.264c-0.033-0.416-0.066-0.809-0.094-1.132c0.504-0.804,1.094-1.317,1.926-1.415
	c0.564,0.031,0.916,0.312,1.23,0.781c0.227,0.836,0.166,1.652-0.629,2.289C36.574,42.072,35.811,41.979,34.979,41.264"/>
<path fill="#010101" d="M29.061,41.264c-0.033-0.416-0.064-0.809-0.094-1.132c0.504-0.804,1.094-1.317,1.926-1.415
	c0.564,0.031,0.916,0.312,1.23,0.781c0.227,0.836,0.166,1.652-0.627,2.289C30.656,42.072,29.895,41.979,29.061,41.264"/>
<path fill="#FBB041" d="M24.479,12.578v4.62c0.528-0.079,0.859-0.125,1.193-0.183c1.544-0.274,2.833,0.262,4.13,1.077
	c1.346,0.845,2.245,2.075,2.985,3.357c0.938,1.623,0.91,3.464,0.389,5.272c-0.647,2.261-2.42,3.485-4.294,4.615
	c-0.473,0.289-0.979,0.601-1.507,0.717c-2.655,0.586-5.049,0.072-7.024-1.901c-0.449-0.453-0.866-0.942-1.309-1.406
	c-0.775-0.818-0.647-1.746-0.296-2.665c0.278-0.726,1.405-1.377,2.261-1.223c0.646,0.111,1.412-0.216,1.938,0.43
	c0.266,0.32,0.584,0.616,0.783,0.977c0.623,1.188,2.193,1.523,3.135,0.542c0.852-0.885,1.424-1.948,1.195-3.267
	c-0.293-1.658-1.992-2.661-3.619-2.175c-0.981,0.291-1.806,0.704-2.018,1.758c-0.775,0.254-1.454,0.478-2.201,0.084
	c-1.138-0.593-1.672-1.778-1.396-3.023c0.264-1.165,0.506-2.344,0.6-3.529c0.165-2.073,0.201-4.151,0.285-6.23
	c0.062-1.461,0.435-1.783,1.878-1.853c2.884-0.134,5.774-0.307,8.655-0.494c1.538-0.102,2.105,0.348,2.283,1.885
	c0.053,0.511,0.184,1.019,0.236,1.53c0.088,0.963-0.46,1.644-1.424,1.553c-1.748-0.16-3.518,0.061-5.25-0.362
	C25.602,12.568,25.074,12.615,24.479,12.578"/>
</svg>
