<?xml version="1.0" encoding="utf-8"?>
<!-- Generator: Adobe Illustrator 16.0.0, SVG Export Plug-In . SVG Version: 6.00 Build 0)  -->
<!DOCTYPE svg PUBLIC "-//W3C//DTD SVG 1.1//EN" "http://www.w3.org/Graphics/SVG/1.1/DTD/svg11.dtd">
<svg version="1.1" id="Layer_1" xmlns="http://www.w3.org/2000/svg" xmlns:xlink="http://www.w3.org/1999/xlink" x="0px" y="0px"
	 width="50px" height="50px" viewBox="0 0 50 50" enable-background="new 0 0 50 50" xml:space="preserve">
<rect x="-2207" y="-18" fill="#FFFFFF" width="2776" height="88"/>
<path fill="#010101" d="M20.967,38.117c-0.037-0.417-0.066-0.811-0.1-1.132c0.508-0.805,1.098-1.32,1.93-1.416
	c0.561,0.031,0.918,0.312,1.227,0.782c0.23,0.835,0.17,1.651-0.625,2.288C22.561,38.924,21.795,38.831,20.967,38.117"/>
<path fill="#010101" d="M27.211,38.117c-0.033-0.417-0.066-0.811-0.096-1.132c0.506-0.805,1.094-1.32,1.928-1.416
	c0.564,0.031,0.916,0.312,1.229,0.782c0.227,0.835,0.168,1.651-0.627,2.288C28.807,38.924,28.043,38.831,27.211,38.117"/>
<path fill="#010101" d="M38.904,38.117c-0.033-0.417-0.07-0.811-0.096-1.132c0.506-0.805,1.096-1.32,1.928-1.416
	c0.564,0.031,0.916,0.312,1.229,0.782c0.227,0.835,0.168,1.651-0.627,2.288C40.5,38.924,39.734,38.831,38.904,38.117"/>
<path fill="#010101" d="M33.166,38.117c-0.035-0.417-0.066-0.811-0.094-1.132c0.504-0.805,1.094-1.32,1.926-1.416
	c0.564,0.031,0.916,0.312,1.229,0.782c0.229,0.835,0.168,1.651-0.627,2.288C34.764,38.924,33.998,38.831,33.166,38.117"/>
<path fill="#010101" d="M8.748,38.885c-0.719-0.449-0.93-1.093-0.787-2.045c0.27-0.388,0.658-0.668,1.135-0.766
	c0.088-0.018,0.182-0.038,0.273-0.041c2.219-0.097,4.426-0.53,6.656-0.451c0.459,0.018,0.924-0.066,1.479-0.11
	c0.129,0.062,0.34,0.17,0.494,0.244c0.217,0.298,0.24,0.582,0.24,0.88c0.01,1.207,0.01,1.207-0.322,1.833
	c-0.117,0.043-0.248,0.125-0.385,0.128C14.58,38.646,11.621,38.911,8.748,38.885"/>
<path fill="#FBB041" d="M21.861,25.564c-0.033,0.298,0.258,1.089,0.258,1.316c0,1.122,0.893,0.911,2.059,1.058
	c0.975,0.123,1.822-0.919,2.055-1.824c0.307-1.203,0.033-1.781-1.096-2.264c-0.33-0.142-0.664-0.288-1.004-0.406
	c-0.904-0.318-1.311-0.077-1.982,0.804C22.146,24.516,21.822,25.365,21.861,25.564 M25.008,19.395
	c2.35,0.783,4.287,1.864,5.174,4.059c0.545,1.35,0.561,2.858,0.109,4.326c-0.816,2.64-2.428,3.796-5.113,4.338
	c-1.266,0.257-2.646,0.362-3.818-0.097c-1.412-0.55-2.48-1.603-3.477-2.691c-0.84-0.921-0.941-2.111-0.902-3.325
	c0.074-2.478,1.162-4.631,2.223-6.768c0.721-1.451,1.648-2.804,2.518-4.179c0.518-0.829,1.029-1.674,1.656-2.412
	c0.486-0.57,1.125-1.033,1.764-1.446c0.234-0.151,0.666-0.071,0.979,0.013c0.441,0.106,0.814-0.051,1.248,0.09
	c0.205,0.062,0.541,0.124,0.67,0.024c0.582-0.442,0.914,0.461,1.381,0.687C28.062,14.957,26.139,16.487,25.008,19.395"/>
</svg>
