<?xml version="1.0" encoding="utf-8"?>
<!-- Generator: Adobe Illustrator 16.0.0, SVG Export Plug-In . SVG Version: 6.00 Build 0)  -->
<!DOCTYPE svg PUBLIC "-//W3C//DTD SVG 1.1//EN" "http://www.w3.org/Graphics/SVG/1.1/DTD/svg11.dtd">
<svg version="1.1" id="Layer_1" xmlns="http://www.w3.org/2000/svg" xmlns:xlink="http://www.w3.org/1999/xlink" x="0px" y="0px"
	 width="50px" height="50px" viewBox="0 0 50 50" enable-background="new 0 0 50 50" xml:space="preserve">
<rect x="-2277" y="-18" fill="#FFFFFF" width="2776" height="88"/>
<path fill="#010101" d="M30.407,39.521c-0.037-0.412-0.066-0.807-0.1-1.132c0.508-0.801,1.098-1.315,1.93-1.415
	c0.561,0.034,0.914,0.312,1.227,0.785c0.229,0.832,0.17,1.648-0.625,2.285C31.997,40.332,31.233,40.24,30.407,39.521"/>
<path fill="#010101" d="M36.366,39.521c-0.035-0.412-0.066-0.807-0.098-1.132c0.508-0.801,1.098-1.315,1.93-1.415
	c0.561,0.034,0.918,0.312,1.227,0.785c0.23,0.832,0.17,1.648-0.625,2.285C37.962,40.332,37.198,40.24,36.366,39.521"/>
<path fill="#010101" d="M42.249,39.521c-0.033-0.412-0.066-0.807-0.094-1.132c0.502-0.801,1.094-1.315,1.926-1.415
	c0.564,0.034,0.916,0.312,1.23,0.785c0.227,0.832,0.166,1.648-0.629,2.285C43.847,40.332,43.083,40.24,42.249,39.521"/>
<path fill="#010101" d="M5.403,40.293c-0.719-0.449-0.93-1.091-0.787-2.048c0.271-0.385,0.658-0.669,1.135-0.765
	c0.088-0.018,0.18-0.036,0.273-0.039c2.221-0.098,4.424-0.53,6.656-0.451c0.461,0.018,0.92-0.066,1.479-0.11
	c0.125,0.063,0.34,0.17,0.496,0.244c0.215,0.298,0.234,0.582,0.238,0.88c0.01,1.207,0.01,1.207-0.322,1.833
	c-0.115,0.043-0.246,0.125-0.383,0.128C11.231,40.055,8.278,40.319,5.403,40.293"/>
<path fill="#010101" d="M18.188,40.293c-0.719-0.449-0.93-1.091-0.789-2.048c0.271-0.385,0.66-0.669,1.135-0.765
	c0.09-0.018,0.184-0.036,0.275-0.039c2.219-0.098,4.426-0.53,6.654-0.451c0.461,0.018,0.924-0.066,1.479-0.11
	c0.131,0.063,0.342,0.17,0.498,0.244c0.213,0.298,0.238,0.582,0.238,0.88c0.008,1.207,0.008,1.207-0.322,1.833
	c-0.115,0.043-0.248,0.125-0.383,0.128C24.017,40.055,21.06,40.319,18.188,40.293"/>
<path fill="#FBB041" d="M23.21,9.782c2.002,0,4.004,0.007,6.004-0.003c0.814-0.005,2.143-0.282,2.637,0.406
	c0.311,0.437-0.252,1.312-0.352,1.927c-0.461,2.898-1.822,5.439-2.971,8.067c-1.232,2.83-2.609,5.603-3.406,8.604
	c-0.172,0.659-0.5,1.224-1.055,1.577c-0.322,0.201-0.857,0.403-1.119,0.267c-0.588-0.311-1.16-0.286-1.764-0.295
	c-1.361-0.022-1.762-0.694-1.213-1.92c0.73-1.631,1.396-3.292,2.115-4.925c0.781-1.764,1.596-3.516,2.396-5.27
	c0.41-0.903,0.834-1.798,1.238-2.7c0.094-0.209,0.145-0.44,0.18-0.664c0.094-0.616-0.139-0.973-0.74-1.055
	c-0.373-0.054-0.764-0.038-1.145-0.01c-1.102,0.086-2.191,0.204-3.289,0.294c-0.975,0.078-1.592-0.61-1.408-1.565
	c0.098-0.519,0.201-1.045,0.367-1.547c0.076-0.233,0.27-0.478,0.48-0.611C21.097,9.757,21.919,9.587,23.21,9.782"/>
</svg>
