<?xml version="1.0" encoding="utf-8"?>
<!-- Generator: Adobe Illustrator 16.0.0, SVG Export Plug-In . SVG Version: 6.00 Build 0)  -->
<!DOCTYPE svg PUBLIC "-//W3C//DTD SVG 1.1//EN" "http://www.w3.org/Graphics/SVG/1.1/DTD/svg11.dtd">
<svg version="1.1" id="Layer_1" xmlns="http://www.w3.org/2000/svg" xmlns:xlink="http://www.w3.org/1999/xlink" x="0px" y="0px"
	 width="50px" height="50px" viewBox="0 0 50 50" enable-background="new 0 0 50 50" xml:space="preserve">
<rect x="-2347" y="-18" fill="#FFFFFF" width="2776" height="88"/>
<path fill="#010101" d="M37.114,39.006c-0.028-0.339-0.054-0.66-0.077-0.922c0.409-0.654,0.891-1.073,1.568-1.152
	c0.46,0.026,0.746,0.253,1.001,0.637c0.187,0.68,0.137,1.344-0.511,1.862C38.415,39.663,37.791,39.589,37.114,39.006"/>
<path fill="#010101" d="M42.145,39.006c-0.027-0.339-0.055-0.66-0.078-0.922c0.411-0.654,0.893-1.073,1.568-1.152
	c0.46,0.026,0.748,0.253,1.002,0.637c0.187,0.68,0.137,1.344-0.512,1.862C43.443,39.663,42.819,39.589,42.145,39.006"/>
<path fill="#010101" d="M6.059,39.631c-0.585-0.365-0.757-0.89-0.643-1.667c0.221-0.316,0.538-0.544,0.923-0.623
	c0.075-0.014,0.147-0.029,0.226-0.032c1.807-0.079,3.603-0.434,5.419-0.367c0.376,0.015,0.751-0.053,1.202-0.09
	c0.105,0.052,0.28,0.136,0.406,0.198c0.175,0.244,0.192,0.475,0.195,0.718c0.006,0.983,0.006,0.983-0.262,1.492
	c-0.096,0.033-0.204,0.102-0.314,0.104C10.804,39.438,8.398,39.652,6.059,39.631"/>
<path fill="#010101" d="M16.756,39.631c-0.586-0.365-0.76-0.89-0.643-1.667c0.221-0.316,0.535-0.544,0.924-0.623
	c0.076-0.014,0.149-0.029,0.224-0.032c1.808-0.079,3.604-0.434,5.419-0.367c0.375,0.015,0.752-0.053,1.204-0.09
	c0.104,0.052,0.278,0.136,0.404,0.198c0.175,0.244,0.194,0.475,0.194,0.718c0.008,0.983,0.008,0.983-0.26,1.492
	c-0.096,0.033-0.203,0.102-0.313,0.104C21.502,39.438,19.097,39.652,16.756,39.631"/>
<path fill="#010101" d="M27.168,39.631c-0.586-0.365-0.757-0.89-0.644-1.667c0.221-0.316,0.539-0.544,0.924-0.623
	c0.075-0.014,0.147-0.029,0.223-0.032c1.809-0.079,3.604-0.434,5.421-0.367c0.377,0.015,0.752-0.053,1.203-0.09
	c0.105,0.052,0.281,0.136,0.404,0.198c0.176,0.244,0.194,0.475,0.196,0.718c0.006,0.983,0.006,0.983-0.26,1.492
	c-0.099,0.033-0.206,0.102-0.316,0.104C31.913,39.438,29.506,39.652,27.168,39.631"/>
<path fill="#FBB041" d="M24.746,13.774c-1.441-0.03-2.408,0.979-2.486,2.602c-0.055,0.977,1.012,2.019,2.08,2.048
	c1.025,0.025,2.246-1.505,2.326-2.921C26.719,14.554,25.877,13.796,24.746,13.774 M22.295,23.793
	c-0.09,0.675-0.277,1.462-0.295,2.255c-0.023,1.553,1.299,2.506,2.771,2.071c1.834-0.552,2.717-2.614,1.887-4.392
	C25.24,23.313,23.834,22.778,22.295,23.793 M30.486,15.785c0.209,1.652-0.104,2.979-1.33,3.976
	c-0.389,0.311-0.348,0.605-0.076,0.979c0.508,0.692,1.035,1.383,1.445,2.133c0.625,1.142,0.854,2.363,0.408,3.649
	c-0.127,0.361-0.205,0.738-0.287,1.111c-0.318,1.602-1.51,2.515-2.73,3.382c-0.262,0.185-0.648,0.227-0.986,0.254
	c-1.178,0.099-2.352,0.18-3.529,0.229c-2.162,0.092-3.58-1.173-4.736-2.767c-0.51-0.698-0.861-1.528-1.184-2.339
	c-0.635-1.591,0.006-3.285,1.15-4.292c0.201-0.174,0.428-0.322,0.605-0.515c0.516-0.558,0.443-0.753-0.182-1.214
	c-0.381-0.273-0.756-0.646-0.967-1.059c-1.324-2.566-0.678-5.949,1.922-7.248c0.779-0.392,1.496-0.915,2.285-1.279
	c1.678-0.764,3.375-0.327,5.035,0.082c1.02,0.253,1.549,1.195,2.17,1.932C30.244,13.678,30.83,14.684,30.486,15.785"/>
</svg>
