<?xml version="1.0" encoding="utf-8"?>
<!-- Generator: Adobe Illustrator 16.0.0, SVG Export Plug-In . SVG Version: 6.00 Build 0)  -->
<!DOCTYPE svg PUBLIC "-//W3C//DTD SVG 1.1//EN" "http://www.w3.org/Graphics/SVG/1.1/DTD/svg11.dtd">
<svg version="1.1" id="Layer_1" xmlns="http://www.w3.org/2000/svg" xmlns:xlink="http://www.w3.org/1999/xlink" x="0px" y="0px"
	 width="50px" height="50px" viewBox="0 0 50 50" enable-background="new 0 0 50 50" xml:space="preserve">
<rect x="-2417" y="-18" fill="#FFFFFF" width="2776" height="88"/>
<path fill="#010101" d="M43.818,39.734c-0.028-0.327-0.051-0.638-0.077-0.891c0.399-0.633,0.863-1.036,1.518-1.113
	c0.442,0.026,0.722,0.244,0.964,0.615c0.182,0.656,0.135,1.299-0.489,1.8C45.072,40.368,44.473,40.298,43.818,39.734"/>
<path fill="#010101" d="M4.336,40.415c-0.564-0.352-0.73-0.858-0.618-1.608c0.212-0.305,0.518-0.525,0.892-0.603
	c0.071-0.015,0.144-0.028,0.216-0.031c1.745-0.077,3.48-0.418,5.234-0.355c0.361,0.016,0.727-0.053,1.163-0.085
	c0.102,0.051,0.268,0.132,0.389,0.191c0.17,0.236,0.188,0.456,0.188,0.692c0.008,0.949,0.008,0.949-0.253,1.442
	c-0.091,0.031-0.195,0.097-0.301,0.1C8.923,40.229,6.596,40.437,4.336,40.415"/>
<path fill="#010101" d="M13.828,40.339c-0.567-0.352-0.73-0.858-0.621-1.609c0.213-0.303,0.52-0.525,0.893-0.602
	c0.072-0.014,0.143-0.028,0.215-0.032c1.746-0.076,3.48-0.417,5.234-0.354c0.363,0.013,0.725-0.053,1.163-0.087
	c0.1,0.049,0.271,0.134,0.389,0.192c0.171,0.235,0.188,0.456,0.19,0.691c0.006,0.949,0.006,0.949-0.252,1.441
	c-0.094,0.033-0.198,0.098-0.305,0.101C18.409,40.152,16.087,40.361,13.828,40.339"/>
<path fill="#010101" d="M24.158,40.339c-0.564-0.352-0.73-0.858-0.62-1.609c0.215-0.303,0.519-0.525,0.893-0.602
	c0.07-0.014,0.14-0.028,0.216-0.032c1.746-0.076,3.481-0.417,5.234-0.354c0.361,0.013,0.725-0.053,1.162-0.087
	c0.104,0.049,0.269,0.134,0.392,0.192c0.167,0.235,0.187,0.456,0.187,0.691c0.007,0.949,0.007,0.949-0.251,1.441
	c-0.093,0.033-0.196,0.098-0.303,0.101C28.739,40.152,26.415,40.361,24.158,40.339"/>
<path fill="#010101" d="M34.212,40.339c-0.563-0.352-0.731-0.858-0.618-1.609c0.213-0.303,0.517-0.525,0.892-0.602
	c0.07-0.014,0.143-0.028,0.216-0.032c1.745-0.076,3.48-0.417,5.233-0.354c0.361,0.013,0.727-0.053,1.163-0.087
	c0.102,0.049,0.268,0.134,0.391,0.192c0.168,0.235,0.188,0.456,0.188,0.691c0.009,0.949,0.009,0.949-0.252,1.441
	c-0.093,0.033-0.195,0.098-0.303,0.101C38.795,40.152,36.47,40.361,34.212,40.339"/>
<path fill="#FBB041" d="M27.033,16.767c-0.006-0.01-1.078-0.741-1.195-0.785c-1.479-0.583-4.002,0.051-3.99,2.22
	c0.002,1.245,0.951,2.043,2.029,2.62c0.488,0.262,1.744,0.072,2.246-0.697c0.262-0.391,0.602-1.357,0.752-1.817
	C27.027,17.821,26.848,17.476,27.033,16.767 M23.932,24.992c-0.408-0.221-1.463-0.832-1.779-0.927
	c-1.012-0.312-1.756-1.047-2.633-1.555c-1.16-0.67-1.551-1.689-1.912-2.82c-0.293-0.917-0.18-1.833,0.055-2.709
	c0.713-2.643,2.455-4.336,5.051-5.146c0.43-0.134,0.902-0.187,1.359-0.188c0.777-0.003,1.564,0.055,2.344,0.103
	c0.305,0.016,0.66-0.025,0.898,0.116c1.514,0.914,3.201,1.661,3.898,3.496c0.107,0.281,0.186,0.584,0.199,0.883
	c0.115,3.175-0.59,6.113-2.414,8.771c-0.82,1.193-1.422,2.531-2.211,3.751c-0.701,1.085-1.457,2.15-2.301,3.125
	c-0.574,0.66-1.307,1.198-2.336,0.842c-0.385-0.136-0.832-0.095-1.25-0.151c-1.393-0.189-1.824-1.111-1.105-2.32
	c0.664-1.106,1.834-2.059,2.639-3.084C22.982,26.489,23.518,25.831,23.932,24.992"/>
</svg>
