<?xml version="1.0" encoding="utf-8"?>
<!-- Generator: Adobe Illustrator 16.0.0, SVG Export Plug-In . SVG Version: 6.00 Build 0)  -->
<!DOCTYPE svg PUBLIC "-//W3C//DTD SVG 1.1//EN" "http://www.w3.org/Graphics/SVG/1.1/DTD/svg11.dtd">
<svg version="1.1" id="Layer_1" xmlns="http://www.w3.org/2000/svg" xmlns:xlink="http://www.w3.org/1999/xlink" x="0px" y="0px"
	 width="50px" height="50px" viewBox="0 0 50 50" enable-background="new 0 0 50 50" xml:space="preserve">
<rect x="-37" y="-18" fill="#FFFFFF" width="2776" height="88"/>
<path fill="#010101" d="M24.307,40.58c-0.72-0.451-0.932-1.093-0.787-2.047c0.27-0.387,0.658-0.668,1.132-0.766
	c0.091-0.016,0.182-0.036,0.274-0.039c2.221-0.097,4.428-0.531,6.657-0.453c0.462,0.02,0.924-0.065,1.479-0.109
	c0.129,0.062,0.343,0.17,0.496,0.244c0.214,0.298,0.239,0.581,0.242,0.881c0.006,1.206,0.006,1.206-0.323,1.832
	c-0.118,0.042-0.25,0.126-0.384,0.129C30.136,40.342,27.182,40.606,24.307,40.58"/>
<path fill="#010101" d="M17.453,40.236c-0.035-0.415-0.066-0.809-0.095-1.132c0.505-0.804,1.096-1.318,1.928-1.416
	c0.563,0.033,0.917,0.312,1.228,0.784c0.228,0.834,0.168,1.65-0.626,2.287C19.048,41.047,18.285,40.955,17.453,40.236"/>
<path fill="#FBB041" d="M32.874,29.516c-0.091,0.739-0.396,1.165-0.95,1.489c-0.852,0.194-1.754,0.4-2.626,0.603
	c-0.81-0.117-1.286-0.592-1.631-1.245c-0.438-0.833-0.762-1.701-0.964-2.623c-0.214-0.987-0.444-1.976-1.004-2.797
	c-1.624-0.407-1.947-0.403-3.803,0.059c-0.438,0.678-0.633,1.492-0.681,2.359c-0.04,0.702-0.027,1.409-0.121,2.103
	c-0.059,0.445-0.271,0.872-0.387,1.224c-0.247,0.125-0.385,0.249-0.525,0.256c-0.542,0.024-1.086-0.004-1.628,0.031
	c-0.457,0.033-0.912,0.129-1.268,0.18c-0.568-0.226-0.904-0.523-1.087-1.237c0.142-1.819,0.865-3.734,1.203-5.73
	c0.347-2.068,0.923-4.102,1.417-6.149c0.473-1.969,0.966-3.933,1.462-5.939c0.203-0.282,0.433-0.596,0.657-0.903
	c0.134-0.529,0.27-1.052,0.387-1.514c1.007-0.576,1.007-0.576,3.766-0.591c0.169,0.169,0.46,0.346,0.593,0.604
	c0.671,1.315,1.369,2.609,1.747,4.07c0.646,2.491,1.423,4.938,2.468,7.304C31.097,23.775,32.062,26.578,32.874,29.516
	 M22.997,19.848c1.85,0.167,1.85,0.167,2.521-0.2c0-0.077,0.009-0.154-0.003-0.231c-0.25-1.935-0.97-3.762-1.293-5.684
	c-0.03-0.175-0.24-0.373-0.59-0.121c-0.291,1.842-0.591,3.758-0.89,5.677c-0.011,0.074,0.018,0.159,0.045,0.23
	C22.814,19.583,22.862,19.643,22.997,19.848"/>
</svg>
