<?xml version="1.0" encoding="utf-8"?>
<!-- Generator: Adobe Illustrator 16.0.0, SVG Export Plug-In . SVG Version: 6.00 Build 0)  -->
<!DOCTYPE svg PUBLIC "-//W3C//DTD SVG 1.1//EN" "http://www.w3.org/Graphics/SVG/1.1/DTD/svg11.dtd">
<svg version="1.1" id="Layer_1" xmlns="http://www.w3.org/2000/svg" xmlns:xlink="http://www.w3.org/1999/xlink" x="0px" y="0px"
	 width="50px" height="50px" viewBox="0 0 50 50" enable-background="new 0 0 50 50" xml:space="preserve">
<rect x="-107" y="-18" fill="#FFFFFF" width="2776" height="88"/>
<path fill="#010101" d="M10.328,39.744c-0.735-0.448-0.949-1.091-0.804-2.046c0.276-0.387,0.672-0.667,1.158-0.764
	c0.088-0.017,0.182-0.037,0.277-0.041c2.263-0.098,4.513-0.531,6.786-0.45c0.47,0.016,0.941-0.068,1.507-0.11
	c0.133,0.062,0.348,0.168,0.506,0.242c0.217,0.3,0.243,0.584,0.245,0.88c0.006,1.208,0.006,1.208-0.328,1.835
	c-0.121,0.041-0.255,0.123-0.393,0.126C16.268,39.508,13.256,39.772,10.328,39.744"/>
<path fill="#010101" d="M24.295,38.975c-0.036-0.413-0.066-0.807-0.095-1.13c0.505-0.804,1.096-1.319,1.927-1.416
	c0.563,0.033,0.917,0.311,1.228,0.783c0.228,0.834,0.168,1.651-0.626,2.286C25.89,39.785,25.126,39.693,24.295,38.975"/>
<path fill="#010101" d="M30.645,38.975c-0.035-0.413-0.067-0.807-0.095-1.13c0.505-0.804,1.096-1.319,1.928-1.416
	c0.563,0.033,0.917,0.311,1.228,0.783c0.228,0.834,0.168,1.651-0.625,2.286C32.241,39.785,31.475,39.693,30.645,38.975"/>
<path fill="#010101" d="M37.342,38.975c-0.035-0.413-0.068-0.807-0.094-1.13c0.505-0.804,1.095-1.319,1.927-1.416
	c0.563,0.033,0.917,0.311,1.228,0.783c0.228,0.834,0.168,1.651-0.626,2.286C38.938,39.785,38.172,39.693,37.342,38.975"/>
<path fill="#FBB041" d="M16.604,13.298c0.302-1.313,1.141-1.976,2.193-2.395c1.474-0.587,3-0.801,4.668-0.541
	c0.209,0.09,0.497,0.207,0.779,0.339c2.423,1.127,3.448,3.271,4.055,5.678c0.256,1.006,0.058,2.021-0.426,2.948
	c-0.211,0.406-0.5,0.777-0.783,1.211c0.124,0.183,0.226,0.394,0.381,0.542c0.626,0.581,1.322,1.097,1.895,1.725
	c1.245,1.353,1.782,2.9,1.058,4.716c-0.144,0.359-0.275,0.723-0.406,1.072c-1.922,1.914-4.346,2.702-6.652,3.311
	c-1.976-0.234-3.75-0.447-5.521-0.659c-0.246-0.234-0.465-0.447-0.638-0.608c-0.475-1.091-0.594-2.169-0.661-3.262
	c-0.067-1.086-0.112-2.172-0.192-3.255c-0.081-1.166,0.006-2.32,0.09-3.487c0.154-2.092,0.116-4.199,0.154-6.299
	C16.608,13.942,16.604,13.556,16.604,13.298 M26.681,26.826c0.215-0.464,0.189-0.927-0.056-1.34
	c-0.602-1.011-1.336-1.888-2.498-2.316c-0.847,0-1.693-0.006-2.539,0.01c-0.139,0.003-0.276,0.107-0.416,0.167
	c-0.286,0.202-0.323,0.513-0.336,0.82c-0.044,1.002-0.078,2.002-0.091,3.002c-0.001,0.125,0.146,0.25,0.259,0.425
	c0.487,0.098,1.012,0.201,1.388,0.277c1.077-0.115,1.997-0.208,2.917-0.31C25.866,27.502,26.351,27.299,26.681,26.826 M20.211,14.31
	c-0.232,1.25-0.191,2.637-0.125,4.024c0.012,0.214,0.15,0.423,0.25,0.685c1.576,0.113,2.888-0.276,3.793-1.719
	c0.032-0.84-0.01-1.681-0.223-2.516c-0.66-0.706-1.408-1.213-2.419-1.155C21.014,13.653,20.562,13.737,20.211,14.31"/>
</svg>
