<?xml version="1.0" encoding="utf-8"?>
<!-- Generator: Adobe Illustrator 16.0.0, SVG Export Plug-In . SVG Version: 6.00 Build 0)  -->
<!DOCTYPE svg PUBLIC "-//W3C//DTD SVG 1.1//EN" "http://www.w3.org/Graphics/SVG/1.1/DTD/svg11.dtd">
<svg version="1.1" id="Layer_1" xmlns="http://www.w3.org/2000/svg" xmlns:xlink="http://www.w3.org/1999/xlink" x="0px" y="0px"
	 width="960px" height="560px" viewBox="0 0 960 560" enable-background="new 0 0 960 560" xml:space="preserve">
<g opacity="0.2">
	<g>
		<path fill="#FFFFFF" d="M234.708,62.793c0.504,0.407,0.856,0.751,1.271,0.987c0.142,0.08,0.45-0.122,0.716-0.206
			C236.241,62.849,235.787,62.439,234.708,62.793 M250.981,76.583c0.446,0.683-0.387,1.632,0.819,2.098
			c0.456,0.179,0.81,0.259,1.183,0.079c0.197-0.091,0.427-0.571,0.352-0.711c-0.181-0.328-0.497-0.617-0.825-0.817
			C252.116,76.99,251.65,76.859,250.981,76.583 M257.641,70.145c0.296,0.223,0.559,0.441,0.841,0.624
			c0.392,0.259,0.771,0.559,1.207,0.717c0.616,0.221,0.861-0.162,0.855-0.741c-0.009-0.622-0.775-1.47-1.399-1.574
			C258.355,69.042,257.949,69.503,257.641,70.145 M238.102,64.373c-0.013-0.012-0.025-0.024-0.041-0.037
			c-0.458,0.458-0.939,0.9-1.37,1.382c-0.838,0.938-0.764,1.407,0.07,2.124c1.013,0.875,1.942,1.836,2.913,2.756
			c0.875,0.835,1.738,1.686,2.645,2.491c1.032,0.907,2.114,1.76,3.162,2.652c0.683,0.581,1.328,1.202,2.03,1.757
			c0.134,0.107,0.541,0.082,0.668-0.038c1.474-1.402,2.952-2.798,4.354-4.266c0.932-0.973,1.707-2.089,2.618-3.08
			c1.09-1.187,2.258-2.303,3.375-3.468c0.137-0.142,0.278-0.454,0.216-0.587c-0.232-0.508-0.469-1.058-0.853-1.441
			c-0.959-0.97-2.002-1.857-3.01-2.776c-0.267-0.242-0.542-0.473-0.79-0.731c-1.575-1.626-3.117-3.286-4.728-4.872
			c-0.508-0.501-1.177-0.86-1.82-1.189c-0.2-0.104-0.647,0.015-0.838,0.188c-0.759,0.683-1.478,1.412-2.184,2.153
			c-1.386,1.453-2.763,2.917-4.127,4.392C239.611,62.631,238.865,63.51,238.102,64.373 M237.655,62.416
			c2.155-2.156,4.27-4.272,6.34-6.341c-0.74-1.78-0.921-1.927-2.095-1.716c0.198,0.525,0.051,1.157,0.749,1.47
			c0.202,0.096,0.181,0.641,0.261,0.971c-1.333,0.466-1.831,0.231-2.216-0.954c-0.056-0.175-0.124-0.339-0.192-0.506
			c-0.533-1.336,0.398-2.987,1.859-3.066c0.414-0.026,1.077,0.008,1.401,0.687c0.292,0.615,0.899,1.078,1.418,1.557
			c0.051,0.045,0.547-0.227,0.666-0.443c0.563-1.027,1.357-1.169,2.235-0.449c0.588,0.479,1.311,0.796,1.938,1.233
			c0.454,0.321,0.88,0.691,1.262,1.091c0.704,0.739,1.314,1.569,2.049,2.273c1.562,1.484,3.179,2.912,4.778,4.36
			c0.609,0.549,1.29,1.035,1.835,1.642c0.413,0.461,0.77,1.035,0.942,1.626c0.083,0.288-0.29,0.75-0.507,1.101
			c-0.134,0.218-0.365,0.379-0.593,0.607c0.488,0.489,0.861,1.027,1.38,1.344c0.982,0.609,1.131,1.588,1.285,2.59
			c0.021,0.134-0.079,0.309-0.156,0.444c-0.497,0.913-2.697,1.773-3.598,0.805c-0.404-0.436-0.985-0.696-1.435-1.095
			c-0.185-0.162-0.235-0.471-0.411-0.853c-0.349,0.324-0.857,0.687-1.23,1.16c-0.776,0.982-1.328,2.137-2.522,2.769
			c-0.359,0.193-0.614,0.616,0.021,0.952c0.498,0.261,0.928,0.658,1.338,1.044c0.782,0.748,0.88,1.433,0.417,2.445
			c-0.388,0.85-1.284,1.334-2.236,1.366c-1.183,0.033-2.025-0.546-2.754-1.316c-0.327-0.348-0.547-0.159-0.881-0.067
			c-0.503,0.138-1.034,0.134-1.55,0.208c-1.545,0.22-1.91-1.119-2.633-1.961c-0.855-0.993-1.738-1.907-2.847-2.672
			c-1.381-0.955-2.53-2.241-3.76-3.405c-1.011-0.956-1.975-1.958-3.002-2.895c-0.216-0.198-0.607-0.264-0.928-0.271
			c-0.643-0.016-0.893-0.25-0.667-0.861c0.156-0.414,0.443-0.792,0.718-1.15c0.661-0.864,0.665-0.847-0.08-1.551
			c-0.836-0.791-1.146-1.759-0.755-2.919c0.349-1.046,1.021-1.288,2.012-0.854C236.362,61.186,237.277,61.437,237.655,62.416"/>
		<path fill="#FFFFFF" d="M251.942,68.701c-2.283,2.531-6.443,2.285-7.814-0.593c-0.398-0.835-0.62-1.894-0.513-2.822
			c0.181-1.556,1.868-2.911,3.492-3.22c1.582-0.297,2.975,0.213,4.072,1.117c0.832,0.683,1.542,1.63,1.642,2.91
			C252.918,67.299,252.287,68.138,251.942,68.701"/>
	</g>
	<g>
		<path fill="#FFFFFF" d="M450.051,440.091c0.503,0.405,0.856,0.751,1.271,0.986c0.142,0.079,0.449-0.123,0.716-0.205
			C451.583,440.146,451.128,439.736,450.051,440.091 M466.323,453.879c0.445,0.684-0.388,1.633,0.819,2.099
			c0.457,0.18,0.811,0.258,1.183,0.079c0.198-0.092,0.427-0.572,0.353-0.712c-0.181-0.326-0.497-0.616-0.825-0.815
			C467.457,454.287,466.992,454.155,466.323,453.879 M472.983,447.441c0.296,0.223,0.559,0.441,0.841,0.624
			c0.393,0.259,0.772,0.559,1.206,0.718c0.616,0.22,0.862-0.163,0.856-0.741c-0.01-0.621-0.775-1.47-1.399-1.575
			C473.697,446.34,473.292,446.8,472.983,447.441 M453.444,441.671c-0.013-0.014-0.026-0.025-0.042-0.038
			c-0.458,0.458-0.939,0.899-1.369,1.382c-0.838,0.938-0.764,1.408,0.07,2.124c1.013,0.875,1.942,1.837,2.913,2.758
			c0.875,0.834,1.738,1.686,2.645,2.489c1.031,0.908,2.113,1.761,3.162,2.652c0.683,0.581,1.328,1.203,2.03,1.758
			c0.135,0.106,0.54,0.083,0.668-0.038c1.474-1.401,2.952-2.798,4.354-4.266c0.933-0.973,1.707-2.089,2.619-3.079
			c1.089-1.187,2.258-2.304,3.375-3.47c0.137-0.142,0.277-0.453,0.215-0.587c-0.232-0.508-0.469-1.057-0.852-1.44
			c-0.961-0.971-2.003-1.857-3.011-2.777c-0.267-0.241-0.542-0.472-0.79-0.73c-1.574-1.627-3.116-3.286-4.728-4.873
			c-0.508-0.501-1.178-0.859-1.821-1.188c-0.199-0.104-0.646,0.015-0.838,0.188c-0.759,0.683-1.478,1.412-2.183,2.152
			c-1.386,1.452-2.763,2.917-4.128,4.393C454.952,439.928,454.207,440.807,453.444,441.671 M452.997,439.713
			c2.155-2.157,4.271-4.271,6.34-6.341c-0.739-1.78-0.921-1.929-2.095-1.716c0.198,0.524,0.051,1.155,0.749,1.47
			c0.202,0.096,0.181,0.642,0.259,0.971c-1.332,0.466-1.83,0.23-2.215-0.955c-0.056-0.173-0.124-0.338-0.193-0.505
			c-0.532-1.336,0.398-2.988,1.858-3.066c0.414-0.025,1.077,0.008,1.402,0.687c0.292,0.616,0.899,1.078,1.418,1.557
			c0.05,0.046,0.547-0.227,0.665-0.441c0.563-1.028,1.358-1.17,2.235-0.449c0.589,0.479,1.311,0.795,1.939,1.232
			c0.454,0.321,0.879,0.691,1.262,1.092c0.704,0.739,1.314,1.568,2.048,2.272c1.562,1.485,3.18,2.913,4.78,4.36
			c0.609,0.551,1.288,1.034,1.834,1.643c0.413,0.461,0.77,1.035,0.942,1.626c0.083,0.288-0.29,0.749-0.507,1.1
			c-0.134,0.219-0.364,0.381-0.592,0.608c0.488,0.489,0.862,1.026,1.38,1.344c0.983,0.609,1.131,1.588,1.285,2.591
			c0.02,0.134-0.078,0.308-0.156,0.443c-0.497,0.912-2.698,1.773-3.599,0.804c-0.403-0.436-0.984-0.696-1.434-1.094
			c-0.185-0.161-0.235-0.471-0.41-0.853c-0.349,0.323-0.857,0.688-1.229,1.159c-0.777,0.982-1.328,2.139-2.522,2.77
			c-0.359,0.193-0.614,0.615,0.021,0.951c0.497,0.26,0.928,0.657,1.337,1.044c0.783,0.748,0.881,1.434,0.417,2.445
			c-0.387,0.85-1.283,1.334-2.235,1.365c-1.185,0.033-2.026-0.545-2.754-1.315c-0.328-0.348-0.547-0.158-0.882-0.066
			c-0.503,0.137-1.033,0.133-1.55,0.208c-1.545,0.219-1.91-1.12-2.632-1.961c-0.856-0.993-1.739-1.908-2.847-2.673
			c-1.381-0.955-2.53-2.241-3.76-3.405c-1.012-0.955-1.976-1.959-3.002-2.896c-0.216-0.197-0.607-0.263-0.928-0.271
			c-0.643-0.017-0.893-0.25-0.667-0.861c0.156-0.413,0.444-0.792,0.718-1.149c0.661-0.865,0.665-0.849-0.08-1.553
			c-0.835-0.79-1.145-1.758-0.755-2.918c0.35-1.047,1.022-1.289,2.012-0.855C451.705,438.482,452.619,438.734,452.997,439.713"/>
		<path fill="#FFFFFF" d="M467.283,445.999c-2.283,2.53-6.443,2.284-7.813-0.594c-0.399-0.835-0.622-1.895-0.514-2.823
			c0.181-1.555,1.868-2.911,3.492-3.219c1.582-0.297,2.974,0.212,4.072,1.117c0.832,0.682,1.542,1.63,1.642,2.91
			C468.26,444.596,467.629,445.436,467.283,445.999"/>
	</g>
	<g>
		<path fill="#FFFFFF" d="M422.764,286.253c0.503,0.405,0.856,0.751,1.271,0.986c0.142,0.079,0.449-0.123,0.716-0.205
			C424.295,286.309,423.841,285.898,422.764,286.253 M439.036,300.041c0.445,0.684-0.388,1.633,0.819,2.099
			c0.456,0.18,0.811,0.258,1.182,0.079c0.198-0.092,0.428-0.572,0.354-0.712c-0.182-0.326-0.497-0.616-0.826-0.815
			C440.169,300.449,439.705,300.317,439.036,300.041 M445.696,293.604c0.296,0.223,0.56,0.441,0.841,0.624
			c0.393,0.259,0.771,0.559,1.206,0.718c0.616,0.22,0.862-0.163,0.856-0.741c-0.01-0.621-0.775-1.47-1.399-1.575
			C446.41,292.502,446.004,292.962,445.696,293.604 M426.157,287.833c-0.013-0.014-0.026-0.025-0.042-0.038
			c-0.458,0.458-0.939,0.899-1.369,1.382c-0.838,0.938-0.764,1.408,0.07,2.124c1.013,0.875,1.942,1.837,2.913,2.758
			c0.875,0.834,1.738,1.686,2.645,2.489c1.031,0.908,2.113,1.761,3.162,2.652c0.683,0.581,1.328,1.203,2.03,1.758
			c0.135,0.106,0.54,0.083,0.668-0.038c1.474-1.401,2.952-2.798,4.354-4.266c0.934-0.973,1.707-2.089,2.619-3.079
			c1.089-1.187,2.258-2.304,3.374-3.47c0.137-0.142,0.277-0.453,0.216-0.587c-0.232-0.508-0.47-1.057-0.852-1.44
			c-0.961-0.971-2.004-1.857-3.012-2.777c-0.266-0.241-0.542-0.472-0.789-0.73c-1.574-1.627-3.116-3.286-4.728-4.873
			c-0.508-0.501-1.178-0.859-1.821-1.188c-0.199-0.104-0.646,0.015-0.838,0.188c-0.759,0.683-1.478,1.412-2.183,2.152
			c-1.386,1.452-2.763,2.917-4.128,4.393C427.665,286.09,426.92,286.969,426.157,287.833 M425.709,285.875
			c2.155-2.157,4.271-4.271,6.34-6.341c-0.739-1.78-0.921-1.929-2.095-1.716c0.198,0.524,0.051,1.155,0.749,1.47
			c0.202,0.096,0.181,0.642,0.259,0.971c-1.332,0.466-1.83,0.23-2.215-0.955c-0.056-0.173-0.124-0.338-0.193-0.505
			c-0.532-1.336,0.398-2.988,1.858-3.066c0.414-0.025,1.077,0.008,1.402,0.687c0.292,0.616,0.899,1.078,1.418,1.557
			c0.05,0.046,0.547-0.227,0.665-0.441c0.563-1.028,1.358-1.17,2.235-0.449c0.589,0.479,1.311,0.795,1.939,1.232
			c0.454,0.321,0.879,0.691,1.262,1.092c0.704,0.739,1.313,1.568,2.048,2.272c1.562,1.485,3.18,2.913,4.779,4.36
			c0.609,0.551,1.289,1.034,1.835,1.643c0.413,0.461,0.771,1.035,0.942,1.626c0.083,0.288-0.291,0.749-0.508,1.1
			c-0.135,0.219-0.363,0.381-0.592,0.608c0.488,0.489,0.861,1.026,1.379,1.344c0.984,0.609,1.131,1.588,1.285,2.591
			c0.02,0.134-0.078,0.308-0.156,0.443c-0.496,0.912-2.697,1.773-3.598,0.804c-0.404-0.436-0.984-0.696-1.435-1.094
			c-0.185-0.161-0.235-0.471-0.41-0.853c-0.349,0.323-0.856,0.688-1.229,1.159c-0.777,0.982-1.328,2.139-2.522,2.77
			c-0.359,0.193-0.614,0.615,0.021,0.951c0.498,0.26,0.928,0.657,1.338,1.044c0.783,0.748,0.881,1.434,0.417,2.445
			c-0.388,0.85-1.283,1.334-2.235,1.365c-1.184,0.033-2.026-0.545-2.754-1.315c-0.328-0.348-0.547-0.158-0.882-0.066
			c-0.503,0.137-1.033,0.133-1.55,0.208c-1.545,0.219-1.91-1.12-2.632-1.961c-0.856-0.993-1.739-1.908-2.847-2.673
			c-1.381-0.955-2.53-2.241-3.76-3.405c-1.012-0.955-1.976-1.959-3.002-2.896c-0.216-0.197-0.607-0.263-0.928-0.271
			c-0.643-0.017-0.893-0.25-0.667-0.861c0.156-0.413,0.444-0.792,0.718-1.149c0.661-0.865,0.665-0.849-0.08-1.553
			c-0.835-0.79-1.145-1.758-0.755-2.918c0.35-1.047,1.022-1.289,2.012-0.855C424.417,284.645,425.332,284.896,425.709,285.875"/>
		<path fill="#FFFFFF" d="M439.996,292.161c-2.282,2.53-6.442,2.284-7.812-0.594c-0.399-0.835-0.622-1.895-0.514-2.823
			c0.181-1.555,1.868-2.911,3.492-3.219c1.582-0.297,2.974,0.212,4.073,1.117c0.832,0.682,1.541,1.63,1.641,2.91
			C440.973,290.758,440.341,291.598,439.996,292.161"/>
	</g>
	<path fill="#FFFFFF" d="M773.733,459.231c0.376,0.305,0.634,0.559,0.938,0.734c0.104,0.062,0.325-0.083,0.521-0.139
		C774.851,459.295,774.513,458.986,773.733,459.231 M785.756,469.476c0.337,0.505-0.262,1.187,0.625,1.541
		c0.333,0.134,0.591,0.2,0.86,0.075c0.143-0.067,0.306-0.417,0.246-0.518c-0.132-0.24-0.369-0.452-0.607-0.603
		C786.589,469.787,786.247,469.688,785.756,469.476 M790.527,464.869c0.218,0.168,0.411,0.33,0.621,0.468
		c0.287,0.191,0.565,0.416,0.887,0.537c0.453,0.167,0.623-0.108,0.613-0.529c-0.014-0.455-0.579-1.082-1.039-1.162
		C791.034,464.078,790.745,464.408,790.527,464.869 M776.229,460.427c-0.012-0.012-0.022-0.021-0.032-0.028
		c-0.331,0.328-0.675,0.641-0.984,0.985c-0.596,0.676-0.537,1.022,0.08,1.555c0.749,0.646,1.436,1.361,2.153,2.045
		c0.652,0.614,1.29,1.249,1.961,1.844c0.761,0.671,1.56,1.309,2.335,1.971c0.505,0.433,0.982,0.89,1.498,1.303
		c0.102,0.078,0.397,0.07,0.489-0.021c1.053-1,2.115-2,3.117-3.049c0.668-0.699,1.217-1.503,1.866-2.21
		c0.778-0.854,1.619-1.654,2.416-2.486c0.099-0.102,0.198-0.33,0.15-0.425c-0.176-0.371-0.355-0.775-0.64-1.062
		c-0.711-0.716-1.481-1.373-2.227-2.057c-0.196-0.18-0.399-0.354-0.583-0.542c-1.167-1.207-2.312-2.431-3.502-3.609
		c-0.379-0.371-0.87-0.637-1.344-0.888c-0.147-0.079-0.468,0-0.605,0.125c-0.545,0.488-1.062,1.012-1.563,1.541
		c-0.993,1.046-1.979,2.095-2.954,3.152C777.303,459.175,776.77,459.807,776.229,460.427 M775.875,458.995
		c1.544-1.545,3.056-3.057,4.538-4.543c-0.558-1.3-0.695-1.412-1.548-1.271c0.153,0.383,0.054,0.837,0.564,1.079
		c0.146,0.069,0.139,0.467,0.2,0.708c-0.961,0.323-1.328,0.146-1.624-0.722c-0.042-0.128-0.096-0.248-0.146-0.37
		c-0.403-0.982,0.254-2.173,1.316-2.21c0.3-0.013,0.786,0.02,1.028,0.52c0.222,0.45,0.671,0.795,1.053,1.15
		c0.038,0.032,0.397-0.16,0.479-0.312c0.396-0.742,0.975-0.838,1.623-0.305c0.434,0.358,0.963,0.596,1.425,0.925
		c0.333,0.236,0.648,0.512,0.933,0.808c0.521,0.55,0.979,1.16,1.52,1.682c1.159,1.104,2.354,2.162,3.535,3.235
		c0.45,0.409,0.949,0.771,1.358,1.221c0.304,0.338,0.571,0.762,0.703,1.195c0.062,0.208-0.199,0.54-0.354,0.795
		c-0.096,0.154-0.26,0.271-0.426,0.438c0.364,0.357,0.642,0.754,1.021,0.995c0.725,0.453,0.845,1.17,0.97,1.899
		c0.017,0.1-0.054,0.224-0.107,0.324c-0.35,0.654-1.945,1.258-2.612,0.536c-0.3-0.32-0.723-0.516-1.057-0.812
		c-0.138-0.12-0.18-0.345-0.313-0.624c-0.246,0.229-0.615,0.488-0.879,0.828c-0.554,0.704-0.94,1.537-1.802,1.981
		c-0.262,0.139-0.441,0.442,0.028,0.696c0.363,0.195,0.683,0.491,0.988,0.778c0.577,0.554,0.657,1.054,0.328,1.786
		c-0.272,0.612-0.915,0.954-1.606,0.967c-0.862,0.008-1.485-0.426-2.025-0.996c-0.239-0.253-0.399-0.12-0.641-0.057
		c-0.365,0.091-0.749,0.083-1.129,0.132c-1.12,0.138-1.402-0.837-1.939-1.461c-0.637-0.733-1.29-1.411-2.106-1.982
		c-1.017-0.712-1.87-1.662-2.778-2.526c-0.749-0.708-1.464-1.45-2.224-2.146c-0.157-0.146-0.445-0.196-0.679-0.207
		c-0.472-0.021-0.653-0.192-0.499-0.639c0.107-0.3,0.315-0.57,0.509-0.829c0.474-0.62,0.474-0.606-0.076-1.128
		c-0.621-0.586-0.854-1.299-0.587-2.136c0.242-0.758,0.729-0.925,1.458-0.595C774.92,458.083,775.587,458.278,775.875,458.995"/>
	<path fill="#FFFFFF" d="M786.358,463.751c-1.632,1.811-4.663,1.583-5.7-0.532c-0.295-0.614-0.475-1.385-0.407-2.059
		c0.116-1.133,1.324-2.1,2.507-2.303c1.145-0.2,2.165,0.191,2.976,0.861c0.613,0.509,1.143,1.209,1.234,2.141
		C787.05,462.738,786.604,463.346,786.358,463.751"/>
	<path fill="#FFFFFF" d="M127.798,475.47c0.297-0.328,0.386-0.411,0.45-0.503c0.754-1.113,1.521-2.22,2.242-3.352
		c0.079-0.126-0.063-0.567-0.176-0.593c-0.439-0.1-0.974-0.257-1.349-0.087c-0.663,0.3-1.237,0.815-1.841,1.258
		c-0.053,0.037-0.083,0.175-0.066,0.25C127.281,473.38,127.515,474.312,127.798,475.47 M145.216,490.48
		c0.883,0.917,2.041,0.537,3.033,0.396c0.509-0.076,1.01-0.871,1.382-1.424c0.106-0.158-0.171-0.746-0.427-0.917
		c-0.692-0.457-1.355-0.886-1.21-1.811c-0.689,0.786-1.243,1.607-1.975,2.202C145.44,489.394,145.216,489.864,145.216,490.48
		 M133.623,472.733c-0.043-0.053-0.083-0.106-0.125-0.156c-0.752,0.258-1.678,0.331-2.211,0.832
		c-0.598,0.554-0.858,1.485-1.222,2.273c-0.234,0.513-0.452,1.041-0.578,1.582c-0.217,0.944-0.549,1.924-0.484,2.844
		c0.094,1.259,0.329,2.562,0.838,3.68c0.849,1.867,2.126,3.475,3.861,4.611c0.783,0.512,1.664,0.899,2.549,1.232
		c0.705,0.267,1.472,0.434,2.236,0.516c0.476,0.051,0.989-0.128,1.485-0.211c0.722-0.121,1.493-0.125,2.152-0.414
		c0.639-0.282,1.172-0.844,1.741-1.298c0.438-0.354,0.902-0.692,1.273-1.104c1.246-1.389,1.73-3.147,2.505-4.771
		c0.771-1.617,0.555-3.216,0.158-4.698c-0.548-2.031-1.595-3.864-2.866-5.563c-0.702-0.933-1.492-1.605-2.612-1.827
		c-1.063-0.213-2.159-0.337-3.253-0.383c-0.657-0.029-1.334,0.242-1.998,0.246c-1.998,0.024-2.88,0.653-3.407,2.53
		C133.657,472.681,133.638,472.705,133.623,472.733 M127.779,476.943c-1.345-0.374-2.208-1.153-2.683-2.372
		c-0.283-0.733-0.423-1.434,0.075-2.17c0.188-0.274,0.421-0.574,0.468-0.879c0.226-1.486,1.411-1.748,2.531-2.239
		c1.308-0.579,2.342-0.312,3.493,0.282c0.793,0.412,1.749,0.038,2.522-0.474c1.471-0.967,3.087-1,4.693-1.004
		c1.015-0.004,2.024,0.162,3.03,0.304c0.511,0.069,1.053,0.167,1.493,0.403c1.062,0.582,2.362,0.829,2.991,2.057
		c0.844,1.658,1.786,3.261,2.605,4.931c0.432,0.886,0.698,1.861,1.023,2.807c0.05,0.149,0.002,0.333,0.002,0.504
		c-0.004,2.065-0.529,4.039-1.393,5.946c-0.072,0.157-0.104,0.332-0.083,0.262c0.516,0.32,0.998,0.513,1.339,0.851
		c0.576,0.562,1.067,1.21,1.584,1.83c0.689,0.817,0.644,1.53-0.043,2.454c-0.426,0.574-0.521,1.295-1.307,1.729
		c-1.099,0.604-4.091,0.982-5.081,0.357c-0.334-0.213-0.607-0.521-0.946-0.724c-0.84-0.518-1.766-0.134-2.657-0.067
		c-0.411,0.033-0.829,0.075-1.231,0.171c-2.211,0.532-3.941-0.651-5.859-1.257c-2.168-0.684-3.471-2.324-4.841-3.865
		c-0.712-0.799-1.045-1.957-1.468-2.991c-0.413-1.002-0.899-2.031-1.022-3.101c-0.105-0.912,0.248-1.907,0.424-2.865
		C127.485,477.568,127.627,477.323,127.779,476.943"/>
	<path fill="#FFFFFF" d="M162.043,468.482c-0.116-0.037-0.586-0.032-0.722-0.249c-0.295-0.47-0.454-1.046-0.615-1.595
		c-0.391-1.354-0.698-2.736-1.151-4.068c-0.157-0.464-0.754-0.754-0.939-1.221c-0.427-1.065-1.545-1.453-2.123-2.29
		c-0.771-1.121-1.951-1.599-2.988-2.28c-1.495-0.984-3.048-1.934-4.899-2.217c-2.068-0.316-4.148-0.574-6.213-0.911
		c-0.392-0.067-0.807-0.31-1.067-0.601c-0.12-0.134,0.079-0.595,0.203-0.883c0.055-0.124,0.292-0.271,0.43-0.263
		c1.678,0.093,3.379,0.084,5.021,0.354c1.635,0.271,3.249,0.725,4.796,1.288c0.954,0.344,1.762,1.049,2.638,1.589
		c0.365,0.222,0.761,0.401,1.1,0.654c0.803,0.601,1.599,1.204,2.354,1.856c0.644,0.555,1.2,1.209,1.844,1.762
		c1.687,1.458,2.138,3.549,2.711,5.58c0.094,0.328,0.144,0.684,0.293,0.983C163.14,466.829,163.089,467.608,162.043,468.482"/>
	<path fill="#FFFFFF" d="M142.736,457.452c2.234-0.595,4.11-0.021,5.841,0.771c1.501,0.688,2.764,1.831,4.215,2.64
		c1.509,0.837,2.323,2.262,3.274,3.569c0.807,1.107,0.933,2.469,0.652,3.839c-0.054,0.268-0.588,0.671-0.846,0.642
		c-0.326-0.033-0.849-0.421-0.853-0.688c-0.046-2.81-1.419-4.726-3.703-6.107c-0.94-0.569-1.719-1.428-2.71-1.87
		c-1.407-0.628-2.942-0.986-4.417-1.47c-0.358-0.117-0.757-0.213-1.027-0.445C142.939,458.14,142.875,457.762,142.736,457.452"/>
	<path fill="#FFFFFF" d="M143.22,464.194c0.566-1.468,0.851-1.571,2.029-1.429c1.939,0.237,3.566,1.12,5.105,2.148
		c0.555,0.375,0.742,1.295,1.307,1.624c0.874,0.5,0.734,1.37,0.976,2.091c0.143,0.421,0.371,1.133-0.404,1.32
		c-0.873,0.213-1.577-0.297-1.717-1.033c-0.26-1.345-0.919-2.461-2.142-3.081c-1.121-0.566-2.298-1.024-3.486-1.449
		C144.393,464.211,143.811,464.257,143.22,464.194"/>
	<path fill="#FFFFFF" d="M141.196,483.716c-0.919,0.895-2.011,0.694-3.007,0.423c-2.355-0.641-3.605-2.618-3.267-5.112
		c0.127-0.942,0.744-1.612,1.644-2.003c0.498-0.213,0.988-0.441,1.474-0.683c0.912-0.454,2.858,0.017,3.601,0.861
		c0.908,1.037,1.484,2.198,1.117,3.669C142.494,481.927,142.144,482.961,141.196,483.716"/>
	<g>
		<path fill="#FFFFFF" d="M870.812,179.918c-0.142-0.293-0.176-0.375-0.222-0.445c-0.527-0.825-1.053-1.656-1.605-2.463
			c-0.062-0.087-0.376-0.123-0.416-0.059c-0.163,0.264-0.386,0.569-0.363,0.867c0.038,0.525,0.237,1.054,0.373,1.582
			c0.015,0.048,0.097,0.105,0.148,0.118C869.37,179.645,870.014,179.767,870.812,179.918 M884.284,172.845
			c0.781-0.312,0.803-1.188,0.94-1.881c0.07-0.358-0.317-0.923-0.583-1.329c-0.076-0.116-0.513-0.108-0.679,0.014
			c-0.449,0.32-0.871,0.632-1.424,0.262c0.341,0.687,0.732,1.292,0.944,1.949C883.651,172.379,883.891,172.663,884.284,172.845
			 M870.409,175.275c-0.046,0.011-0.088,0.024-0.13,0.036c-0.008,0.571-0.172,1.205,0.02,1.704c0.218,0.553,0.751,0.999,1.163,1.474
			c0.27,0.303,0.559,0.603,0.87,0.845c0.546,0.42,1.091,0.926,1.688,1.152c0.814,0.309,1.697,0.539,2.522,0.529
			c1.374-0.008,2.68-0.381,3.797-1.19c0.499-0.364,0.95-0.833,1.362-1.316c0.327-0.388,0.606-0.845,0.832-1.324
			c0.143-0.298,0.15-0.691,0.208-1.041c0.086-0.512,0.26-1.022,0.226-1.54c-0.029-0.505-0.264-1.021-0.421-1.529
			c-0.122-0.391-0.23-0.798-0.408-1.164c-0.593-1.23-1.6-2.067-2.448-3.054c-0.847-0.982-1.907-1.309-2.936-1.483
			c-1.412-0.238-2.811-0.085-4.173,0.256c-0.749,0.186-1.358,0.511-1.754,1.181c-0.379,0.641-0.707,1.326-0.986,2.034
			c-0.166,0.424-0.149,0.948-0.3,1.388c-0.438,1.324-0.241,2.091,0.825,2.99C870.383,175.235,870.393,175.257,870.409,175.275
			 M871.741,180.364c-0.545,0.777-1.236,1.118-2.115,1.07c-0.529-0.028-1.003-0.14-1.358-0.685
			c-0.134-0.206-0.266-0.446-0.449-0.567c-0.891-0.587-0.783-1.444-0.841-2.327c-0.065-1.033,0.342-1.638,0.979-2.219
			c0.441-0.406,0.424-1.145,0.274-1.804c-0.274-1.254,0.075-2.329,0.437-3.386c0.23-0.673,0.563-1.29,0.885-1.909
			c0.162-0.318,0.344-0.647,0.596-0.864c0.611-0.532,1.064-1.316,1.985-1.37c1.24-0.071,2.469-0.221,3.709-0.269
			c0.663-0.026,1.342,0.085,2.011,0.147c0.11,0.013,0.214,0.1,0.322,0.148c1.308,0.61,2.431,1.534,3.443,2.666
			c0.084,0.093,0.188,0.166,0.146,0.131c0.319-0.246,0.553-0.505,0.845-0.633c0.483-0.212,1.009-0.346,1.521-0.505
			c0.675-0.209,1.116,0.025,1.541,0.751c0.266,0.449,0.699,0.725,0.795,1.366c0.135,0.901-0.31,2.99-0.929,3.457
			c-0.213,0.158-0.471,0.25-0.679,0.41c-0.518,0.401-0.487,1.124-0.646,1.734c-0.075,0.279-0.146,0.566-0.173,0.862
			c-0.168,1.612-1.312,2.408-2.134,3.489c-0.925,1.233-2.261,1.608-3.553,2.059c-0.665,0.235-1.473,0.115-2.224,0.089
			c-0.73-0.024-1.489-0.004-2.196-0.239c-0.605-0.198-1.15-0.722-1.718-1.117C872.064,180.741,871.945,180.574,871.741,180.364"/>
		<path fill="#FFFFFF" d="M874.202,155.288c-0.046,0.065-0.154,0.377-0.319,0.401c-0.368,0.059-0.768-0.004-1.151-0.062
			c-0.944-0.14-1.889-0.343-2.836-0.436c-0.327-0.035-0.649,0.276-0.984,0.263c-0.777-0.035-1.276,0.59-1.938,0.724
			c-0.883,0.18-1.458,0.817-2.125,1.302c-0.965,0.695-1.917,1.44-2.519,2.578c-0.675,1.269-1.311,2.564-1.993,3.826
			c-0.13,0.242-0.38,0.441-0.625,0.529c-0.108,0.04-0.36-0.229-0.512-0.396c-0.068-0.071-0.104-0.271-0.068-0.36
			c0.441-1.078,0.825-2.2,1.37-3.204c0.542-1,1.201-1.929,1.908-2.784c0.438-0.526,1.066-0.854,1.605-1.271
			c0.226-0.176,0.43-0.385,0.667-0.533c0.562-0.354,1.129-0.699,1.712-1.008c0.499-0.26,1.036-0.438,1.536-0.696
			c1.308-0.687,2.732-0.37,4.148-0.15c0.229,0.036,0.467,0.106,0.69,0.096C873.407,154.083,873.891,154.345,874.202,155.288"/>
		<path fill="#FFFFFF" d="M862.817,164.775c0.134-1.648,0.925-2.714,1.819-3.621c0.779-0.788,1.792-1.286,2.633-2.005
			c0.875-0.747,1.965-0.867,3.01-1.111c0.883-0.206,1.775,0.112,2.576,0.7c0.156,0.113,0.288,0.583,0.21,0.745
			c-0.092,0.205-0.457,0.432-0.629,0.358c-1.79-0.793-3.312-0.449-4.71,0.647c-0.573,0.453-1.298,0.715-1.802,1.236
			c-0.717,0.744-1.296,1.652-1.938,2.483c-0.153,0.2-0.303,0.438-0.517,0.545C863.297,164.845,863.043,164.775,862.817,164.775"/>
		<path fill="#FFFFFF" d="M867.193,166.437c-0.795-0.803-0.799-1.02-0.438-1.757c0.587-1.207,1.521-2.022,2.524-2.731
			c0.362-0.257,0.987-0.113,1.324-0.388c0.516-0.429,1.037-0.08,1.546-0.03c0.3,0.03,0.799,0.088,0.745,0.655
			c-0.067,0.641-0.551,0.953-1.047,0.83c-0.91-0.223-1.77-0.119-2.438,0.506c-0.613,0.572-1.174,1.214-1.712,1.874
			C867.473,165.672,867.369,166.067,867.193,166.437"/>
		<path fill="#FFFFFF" d="M879.087,173.507c0.354,0.869-0.021,1.533-0.421,2.107c-0.941,1.366-2.477,1.606-3.98,0.65
			c-0.563-0.358-0.85-0.962-0.891-1.671c-0.021-0.39-0.055-0.782-0.097-1.173c-0.079-0.733,0.661-1.88,1.366-2.12
			c0.865-0.293,1.732-0.333,2.577,0.342C878.25,172.129,878.823,172.663,879.087,173.507"/>
	</g>
	<g>
		<path fill="#FFFFFF" d="M590.677,230.068c-0.142-0.293-0.176-0.375-0.222-0.445c-0.527-0.825-1.053-1.656-1.605-2.463
			c-0.062-0.087-0.376-0.123-0.416-0.059c-0.163,0.264-0.386,0.569-0.363,0.867c0.038,0.525,0.237,1.054,0.373,1.582
			c0.015,0.048,0.097,0.105,0.148,0.118C589.234,229.794,589.878,229.917,590.677,230.068 M604.148,222.995
			c0.781-0.312,0.803-1.188,0.94-1.881c0.07-0.358-0.317-0.923-0.583-1.329c-0.076-0.116-0.513-0.108-0.679,0.014
			c-0.449,0.32-0.871,0.632-1.424,0.262c0.341,0.687,0.732,1.292,0.944,1.949C603.516,222.528,603.755,222.812,604.148,222.995
			 M590.273,225.424c-0.046,0.011-0.088,0.024-0.13,0.036c-0.008,0.571-0.172,1.205,0.02,1.704c0.218,0.553,0.751,0.999,1.163,1.474
			c0.27,0.303,0.559,0.603,0.87,0.845c0.546,0.42,1.091,0.926,1.688,1.152c0.814,0.309,1.697,0.539,2.522,0.529
			c1.374-0.008,2.68-0.381,3.797-1.19c0.499-0.364,0.95-0.833,1.362-1.316c0.327-0.388,0.606-0.845,0.832-1.324
			c0.143-0.298,0.15-0.691,0.208-1.041c0.086-0.512,0.26-1.022,0.226-1.54c-0.029-0.505-0.264-1.021-0.421-1.529
			c-0.122-0.391-0.23-0.798-0.408-1.164c-0.593-1.23-1.6-2.067-2.448-3.054c-0.847-0.982-1.907-1.309-2.936-1.483
			c-1.412-0.238-2.811-0.085-4.173,0.256c-0.749,0.186-1.358,0.511-1.754,1.181c-0.379,0.641-0.707,1.326-0.986,2.034
			c-0.166,0.424-0.149,0.948-0.3,1.388c-0.438,1.324-0.241,2.091,0.825,2.99C590.247,225.384,590.257,225.406,590.273,225.424
			 M591.605,230.514c-0.545,0.777-1.236,1.118-2.115,1.07c-0.529-0.028-1.003-0.14-1.358-0.685
			c-0.134-0.206-0.266-0.446-0.449-0.567c-0.891-0.587-0.783-1.444-0.841-2.327c-0.065-1.033,0.342-1.638,0.979-2.219
			c0.441-0.406,0.424-1.145,0.274-1.804c-0.274-1.254,0.075-2.329,0.437-3.386c0.23-0.673,0.563-1.29,0.885-1.909
			c0.162-0.318,0.344-0.647,0.596-0.864c0.611-0.532,1.064-1.316,1.985-1.37c1.24-0.071,2.469-0.221,3.709-0.269
			c0.663-0.026,1.342,0.085,2.011,0.147c0.11,0.013,0.214,0.1,0.322,0.148c1.308,0.61,2.431,1.534,3.443,2.666
			c0.084,0.093,0.188,0.166,0.146,0.131c0.319-0.246,0.553-0.505,0.845-0.633c0.483-0.212,1.009-0.346,1.521-0.505
			c0.675-0.209,1.116,0.025,1.541,0.751c0.266,0.449,0.699,0.725,0.795,1.366c0.135,0.901-0.31,2.99-0.929,3.457
			c-0.213,0.158-0.471,0.25-0.679,0.41c-0.518,0.401-0.487,1.124-0.646,1.734c-0.075,0.279-0.146,0.566-0.173,0.862
			c-0.168,1.612-1.312,2.408-2.134,3.489c-0.925,1.233-2.261,1.608-3.553,2.059c-0.665,0.235-1.473,0.115-2.224,0.089
			c-0.73-0.024-1.489-0.004-2.196-0.239c-0.605-0.198-1.15-0.722-1.718-1.117C591.929,230.89,591.81,230.723,591.605,230.514"/>
		<path fill="#FFFFFF" d="M594.066,205.438c-0.046,0.065-0.154,0.377-0.319,0.401c-0.368,0.059-0.768-0.004-1.151-0.062
			c-0.944-0.14-1.889-0.343-2.836-0.436c-0.327-0.035-0.649,0.276-0.984,0.263c-0.777-0.035-1.276,0.59-1.938,0.724
			c-0.883,0.18-1.458,0.817-2.125,1.302c-0.965,0.695-1.917,1.44-2.519,2.578c-0.675,1.269-1.311,2.564-1.993,3.826
			c-0.13,0.242-0.38,0.441-0.625,0.529c-0.108,0.04-0.36-0.229-0.512-0.396c-0.068-0.071-0.104-0.271-0.068-0.36
			c0.441-1.078,0.825-2.2,1.37-3.204c0.542-1,1.201-1.929,1.908-2.784c0.438-0.526,1.066-0.854,1.605-1.271
			c0.226-0.176,0.43-0.385,0.667-0.533c0.562-0.354,1.129-0.699,1.712-1.008c0.499-0.26,1.036-0.438,1.536-0.696
			c1.308-0.687,2.732-0.37,4.148-0.15c0.229,0.036,0.467,0.106,0.69,0.096C593.271,204.233,593.755,204.495,594.066,205.438"/>
		<path fill="#FFFFFF" d="M582.682,214.925c0.134-1.648,0.925-2.714,1.819-3.621c0.779-0.788,1.792-1.286,2.633-2.005
			c0.875-0.747,1.965-0.867,3.01-1.111c0.883-0.206,1.775,0.112,2.576,0.7c0.156,0.113,0.288,0.583,0.21,0.745
			c-0.092,0.205-0.457,0.432-0.629,0.358c-1.79-0.793-3.312-0.449-4.71,0.647c-0.573,0.453-1.298,0.715-1.802,1.236
			c-0.717,0.744-1.296,1.652-1.938,2.483c-0.153,0.2-0.303,0.438-0.517,0.545C583.161,214.995,582.907,214.925,582.682,214.925"/>
		<path fill="#FFFFFF" d="M587.058,216.586c-0.795-0.803-0.799-1.02-0.438-1.757c0.587-1.207,1.521-2.022,2.524-2.731
			c0.362-0.257,0.987-0.113,1.324-0.388c0.516-0.429,1.037-0.08,1.546-0.03c0.3,0.03,0.799,0.088,0.745,0.655
			c-0.067,0.641-0.551,0.953-1.047,0.83c-0.91-0.223-1.77-0.119-2.438,0.506c-0.613,0.572-1.174,1.214-1.712,1.874
			C587.337,215.821,587.233,216.217,587.058,216.586"/>
		<path fill="#FFFFFF" d="M598.951,223.657c0.354,0.869-0.021,1.533-0.421,2.107c-0.941,1.366-2.477,1.606-3.98,0.65
			c-0.563-0.358-0.85-0.962-0.891-1.671c-0.021-0.39-0.055-0.782-0.097-1.173c-0.079-0.733,0.661-1.88,1.366-2.12
			c0.865-0.293,1.732-0.333,2.577,0.342C598.114,222.279,598.688,222.812,598.951,223.657"/>
	</g>
	<g>
		<path fill="#FFFFFF" d="M231.342,344.948c-0.142-0.293-0.176-0.375-0.222-0.445c-0.527-0.824-1.053-1.656-1.605-2.463
			c-0.062-0.088-0.376-0.123-0.416-0.06c-0.163,0.264-0.386,0.569-0.363,0.866c0.038,0.525,0.237,1.055,0.373,1.582
			c0.015,0.049,0.097,0.105,0.148,0.118C229.899,344.675,230.543,344.797,231.342,344.948 M244.813,337.875
			c0.781-0.312,0.803-1.188,0.94-1.882c0.07-0.357-0.317-0.922-0.583-1.328c-0.076-0.117-0.513-0.108-0.679,0.014
			c-0.449,0.319-0.871,0.632-1.424,0.262c0.341,0.687,0.732,1.292,0.944,1.949C244.181,337.409,244.42,337.692,244.813,337.875
			 M230.938,340.305c-0.046,0.011-0.088,0.024-0.13,0.036c-0.008,0.571-0.172,1.205,0.02,1.703c0.218,0.554,0.751,0.999,1.163,1.475
			c0.27,0.303,0.559,0.604,0.87,0.845c0.546,0.421,1.091,0.926,1.688,1.152c0.814,0.309,1.697,0.538,2.522,0.529
			c1.374-0.008,2.68-0.382,3.797-1.19c0.499-0.364,0.95-0.833,1.362-1.316c0.327-0.387,0.606-0.845,0.832-1.324
			c0.143-0.297,0.15-0.691,0.208-1.041c0.086-0.512,0.26-1.021,0.226-1.539c-0.029-0.506-0.264-1.021-0.421-1.529
			c-0.122-0.391-0.23-0.798-0.408-1.164c-0.593-1.23-1.6-2.067-2.448-3.055c-0.847-0.982-1.907-1.309-2.936-1.482
			c-1.412-0.238-2.811-0.085-4.173,0.256c-0.749,0.186-1.358,0.512-1.754,1.182c-0.379,0.641-0.707,1.326-0.986,2.033
			c-0.166,0.424-0.149,0.948-0.3,1.389c-0.438,1.324-0.241,2.092,0.825,2.99C230.912,340.265,230.922,340.286,230.938,340.305
			 M232.271,345.394c-0.545,0.777-1.236,1.119-2.115,1.07c-0.529-0.027-1.003-0.139-1.358-0.685
			c-0.134-0.206-0.266-0.446-0.449-0.567c-0.891-0.587-0.783-1.443-0.841-2.326c-0.065-1.033,0.342-1.639,0.979-2.219
			c0.441-0.406,0.424-1.145,0.274-1.805c-0.274-1.254,0.075-2.328,0.437-3.385c0.23-0.674,0.563-1.291,0.885-1.91
			c0.162-0.318,0.344-0.646,0.596-0.863c0.611-0.532,1.064-1.316,1.985-1.37c1.24-0.071,2.469-0.221,3.709-0.269
			c0.663-0.026,1.342,0.086,2.011,0.147c0.11,0.013,0.214,0.101,0.322,0.147c1.308,0.611,2.431,1.535,3.443,2.666
			c0.084,0.093,0.188,0.166,0.146,0.131c0.319-0.246,0.553-0.506,0.845-0.633c0.483-0.213,1.009-0.346,1.521-0.506
			c0.675-0.209,1.116,0.025,1.541,0.751c0.266,0.449,0.699,0.726,0.795,1.366c0.135,0.9-0.31,2.99-0.929,3.457
			c-0.213,0.157-0.471,0.249-0.679,0.41c-0.518,0.4-0.487,1.123-0.646,1.733c-0.075,0.279-0.146,0.565-0.173,0.862
			c-0.168,1.611-1.312,2.407-2.134,3.488c-0.925,1.234-2.261,1.608-3.553,2.06c-0.665,0.235-1.473,0.114-2.224,0.089
			c-0.73-0.023-1.489-0.004-2.196-0.238c-0.605-0.198-1.15-0.723-1.718-1.117C232.594,345.771,232.475,345.604,232.271,345.394"/>
		<path fill="#FFFFFF" d="M234.731,320.318c-0.046,0.064-0.154,0.377-0.319,0.4c-0.368,0.06-0.768-0.004-1.151-0.062
			c-0.944-0.14-1.889-0.343-2.836-0.436c-0.327-0.034-0.649,0.276-0.984,0.263c-0.777-0.035-1.276,0.59-1.938,0.725
			c-0.883,0.18-1.458,0.816-2.125,1.302c-0.965,0.695-1.917,1.439-2.519,2.578c-0.675,1.269-1.311,2.564-1.993,3.825
			c-0.13,0.241-0.38,0.441-0.625,0.529c-0.108,0.04-0.36-0.229-0.512-0.396c-0.068-0.07-0.104-0.271-0.068-0.36
			c0.441-1.077,0.825-2.2,1.37-3.204c0.542-0.999,1.201-1.928,1.908-2.783c0.438-0.526,1.066-0.854,1.605-1.272
			c0.226-0.176,0.43-0.385,0.667-0.533c0.562-0.354,1.129-0.699,1.712-1.008c0.499-0.26,1.036-0.438,1.536-0.695
			c1.308-0.688,2.732-0.369,4.148-0.15c0.229,0.037,0.467,0.106,0.69,0.096C233.937,319.113,234.42,319.375,234.731,320.318"/>
		<path fill="#FFFFFF" d="M223.347,329.806c0.134-1.648,0.925-2.715,1.819-3.621c0.779-0.789,1.792-1.286,2.633-2.006
			c0.875-0.747,1.965-0.867,3.01-1.111c0.883-0.205,1.775,0.112,2.576,0.701c0.156,0.112,0.288,0.583,0.21,0.744
			c-0.092,0.205-0.457,0.433-0.629,0.359c-1.79-0.793-3.312-0.449-4.71,0.646c-0.573,0.453-1.298,0.715-1.802,1.236
			c-0.717,0.744-1.296,1.652-1.938,2.482c-0.153,0.2-0.303,0.438-0.517,0.546C223.826,329.875,223.572,329.806,223.347,329.806"/>
		<path fill="#FFFFFF" d="M227.723,331.467c-0.795-0.804-0.799-1.02-0.438-1.757c0.587-1.207,1.521-2.021,2.524-2.73
			c0.362-0.258,0.987-0.113,1.324-0.389c0.516-0.429,1.037-0.08,1.546-0.029c0.3,0.029,0.799,0.088,0.745,0.654
			c-0.067,0.642-0.551,0.953-1.047,0.83c-0.91-0.223-1.77-0.119-2.438,0.507c-0.613,0.572-1.174,1.214-1.712,1.874
			C228.002,330.702,227.898,331.097,227.723,331.467"/>
		<path fill="#FFFFFF" d="M239.616,338.537c0.354,0.868-0.021,1.532-0.421,2.106c-0.941,1.367-2.477,1.606-3.98,0.65
			c-0.563-0.357-0.85-0.961-0.891-1.67c-0.021-0.391-0.055-0.782-0.097-1.174c-0.079-0.732,0.661-1.881,1.366-2.12
			c0.865-0.294,1.732-0.333,2.577,0.342C238.779,337.159,239.353,337.692,239.616,338.537"/>
	</g>
	<path fill="#FFFFFF" d="M64.049,156.378c-0.303,0.372-0.559,0.629-0.734,0.937c-0.059,0.104,0.083,0.325,0.141,0.519
		C63.989,157.495,64.294,157.157,64.049,156.378 M53.805,168.4c-0.502,0.333-1.183-0.263-1.539,0.622
		c-0.134,0.332-0.198,0.593-0.072,0.864c0.065,0.14,0.413,0.302,0.513,0.246c0.244-0.137,0.457-0.37,0.605-0.611
		C53.494,169.231,53.596,168.892,53.805,168.4 M58.413,173.172c-0.167,0.218-0.329,0.409-0.467,0.621
		c-0.191,0.287-0.416,0.565-0.535,0.887c-0.169,0.449,0.107,0.624,0.529,0.612c0.452-0.015,1.081-0.582,1.162-1.038
		C59.206,173.678,58.875,173.387,58.413,173.172 M62.855,158.869c0.01-0.008,0.019-0.021,0.027-0.032
		c-0.328-0.327-0.641-0.672-0.987-0.981c-0.672-0.599-1.017-0.539-1.55,0.08c-0.647,0.745-1.362,1.436-2.044,2.153
		c-0.618,0.649-1.249,1.287-1.843,1.961c-0.674,0.759-1.31,1.558-1.973,2.331c-0.43,0.506-0.891,0.982-1.304,1.499
		c-0.079,0.1-0.069,0.398,0.021,0.49c1,1.055,2,2.112,3.05,3.118c0.698,0.665,1.502,1.214,2.211,1.868
		c0.851,0.779,1.65,1.616,2.484,2.413c0.103,0.098,0.328,0.198,0.426,0.153c0.372-0.177,0.775-0.354,1.06-0.637
		c0.72-0.712,1.377-1.485,2.061-2.232c0.179-0.192,0.352-0.397,0.541-0.581c1.205-1.167,2.431-2.311,3.607-3.503
		c0.37-0.375,0.64-0.867,0.889-1.341c0.077-0.146-0.001-0.47-0.126-0.608c-0.488-0.545-1.01-1.058-1.541-1.564
		c-1.043-0.991-2.092-1.976-3.149-2.95C64.107,159.948,63.476,159.415,62.855,158.869 M64.288,158.519
		c1.544,1.543,3.058,3.057,4.542,4.539c1.303-0.562,1.413-0.695,1.273-1.549c-0.385,0.152-0.84,0.055-1.079,0.562
		c-0.071,0.15-0.47,0.142-0.71,0.204c-0.323-0.963-0.146-1.33,0.722-1.624c0.126-0.044,0.248-0.096,0.371-0.146
		c0.98-0.403,2.17,0.25,2.211,1.312c0.013,0.303-0.021,0.787-0.521,1.032c-0.452,0.216-0.794,0.668-1.148,1.052
		c-0.037,0.035,0.157,0.393,0.311,0.477c0.741,0.399,0.835,0.979,0.301,1.625c-0.358,0.432-0.596,0.965-0.924,1.424
		c-0.237,0.335-0.513,0.652-0.809,0.935c-0.548,0.52-1.161,0.975-1.679,1.52c-1.103,1.158-2.163,2.351-3.235,3.533
		c-0.41,0.451-0.772,0.952-1.222,1.36c-0.338,0.304-0.76,0.57-1.196,0.703c-0.208,0.063-0.542-0.202-0.793-0.354
		c-0.157-0.096-0.272-0.263-0.437-0.425c-0.361,0.358-0.756,0.639-0.996,1.021c-0.455,0.725-1.17,0.845-1.902,0.969
		c-0.098,0.018-0.221-0.052-0.321-0.107c-0.657-0.352-1.258-1.944-0.54-2.61c0.32-0.303,0.518-0.729,0.812-1.062
		c0.122-0.136,0.348-0.176,0.627-0.309c-0.232-0.25-0.49-0.616-0.829-0.88c-0.706-0.555-1.54-0.94-1.985-1.804
		c-0.134-0.259-0.442-0.439-0.694,0.028c-0.196,0.365-0.49,0.684-0.777,0.985c-0.555,0.582-1.054,0.658-1.787,0.333
		c-0.612-0.27-0.955-0.916-0.966-1.608c-0.01-0.862,0.423-1.485,0.993-2.023c0.256-0.241,0.122-0.398,0.058-0.642
		c-0.091-0.364-0.083-0.751-0.132-1.128c-0.14-1.122,0.836-1.4,1.459-1.938c0.735-0.637,1.412-1.292,1.983-2.107
		c0.714-1.019,1.663-1.874,2.526-2.782c0.708-0.747,1.452-1.462,2.147-2.219c0.145-0.163,0.196-0.449,0.207-0.683
		c0.021-0.466,0.193-0.653,0.637-0.495c0.298,0.108,0.571,0.312,0.829,0.507c0.62,0.473,0.608,0.475,1.127-0.076
		c0.589-0.619,1.299-0.857,2.136-0.585c0.757,0.242,0.926,0.725,0.597,1.452C65.201,157.563,65.004,158.232,64.288,158.519"/>
	<path fill="#FFFFFF" d="M59.533,169.001c-1.812-1.63-1.582-4.662,0.531-5.698c0.612-0.3,1.386-0.475,2.06-0.408
		c1.13,0.112,2.098,1.324,2.301,2.503c0.199,1.148-0.193,2.169-0.862,2.979c-0.507,0.614-1.207,1.143-2.141,1.23
		C60.544,169.695,59.938,169.245,59.533,169.001"/>
	<path fill="#FFFFFF" d="M711.221,312.719c-0.303,0.371-0.559,0.629-0.733,0.937c-0.06,0.104,0.083,0.325,0.142,0.519
		C711.161,313.835,711.467,313.497,711.221,312.719 M700.977,324.74c-0.502,0.334-1.184-0.263-1.539,0.622
		c-0.135,0.331-0.197,0.593-0.072,0.864c0.065,0.139,0.413,0.301,0.514,0.245c0.244-0.137,0.457-0.37,0.605-0.611
		C700.666,325.57,700.768,325.231,700.977,324.74 M705.584,329.512c-0.166,0.218-0.328,0.409-0.467,0.621
		c-0.191,0.287-0.416,0.565-0.535,0.887c-0.169,0.449,0.107,0.624,0.529,0.612c0.451-0.015,1.08-0.582,1.161-1.038
		C706.378,330.018,706.047,329.727,705.584,329.512 M710.027,315.209c0.01-0.008,0.02-0.021,0.027-0.031
		c-0.328-0.327-0.641-0.673-0.986-0.981c-0.672-0.599-1.018-0.539-1.551,0.08c-0.647,0.745-1.361,1.437-2.045,2.153
		c-0.617,0.648-1.248,1.286-1.843,1.961c-0.674,0.76-1.31,1.559-1.974,2.331c-0.43,0.507-0.891,0.982-1.304,1.499
		c-0.079,0.1-0.069,0.398,0.021,0.49c0.999,1.055,2,2.112,3.05,3.117c0.698,0.666,1.502,1.215,2.211,1.868
		c0.852,0.778,1.65,1.616,2.484,2.413c0.103,0.098,0.328,0.197,0.426,0.152c0.371-0.177,0.775-0.354,1.06-0.637
		c0.72-0.713,1.378-1.485,2.061-2.232c0.179-0.191,0.352-0.397,0.541-0.581c1.204-1.167,2.431-2.312,3.607-3.503
		c0.37-0.376,0.64-0.867,0.889-1.342c0.077-0.146-0.001-0.471-0.126-0.607c-0.488-0.546-1.01-1.059-1.541-1.564
		c-1.043-0.99-2.092-1.976-3.148-2.95C711.279,316.287,710.647,315.754,710.027,315.209 M711.459,314.858
		c1.545,1.543,3.059,3.058,4.542,4.539c1.304-0.562,1.413-0.695,1.272-1.549c-0.385,0.152-0.84,0.055-1.078,0.562
		c-0.07,0.15-0.47,0.143-0.71,0.204c-0.323-0.964-0.146-1.33,0.722-1.624c0.127-0.043,0.248-0.096,0.371-0.146
		c0.98-0.403,2.17,0.249,2.211,1.312c0.014,0.304-0.021,0.786-0.52,1.032c-0.452,0.216-0.795,0.668-1.148,1.052
		c-0.037,0.035,0.157,0.393,0.311,0.477c0.741,0.399,0.836,0.979,0.302,1.626c-0.358,0.432-0.597,0.965-0.924,1.424
		c-0.237,0.336-0.513,0.652-0.809,0.935c-0.548,0.52-1.161,0.975-1.679,1.521c-1.104,1.158-2.163,2.35-3.235,3.533
		c-0.409,0.451-0.772,0.951-1.222,1.359c-0.338,0.304-0.761,0.57-1.196,0.703c-0.208,0.062-0.542-0.201-0.793-0.354
		c-0.157-0.096-0.272-0.263-0.437-0.426c-0.361,0.359-0.756,0.64-0.996,1.021c-0.455,0.725-1.17,0.845-1.902,0.969
		c-0.098,0.018-0.221-0.053-0.321-0.107c-0.657-0.352-1.258-1.944-0.54-2.61c0.32-0.303,0.519-0.729,0.812-1.062
		c0.122-0.136,0.348-0.176,0.627-0.309c-0.232-0.25-0.49-0.616-0.828-0.88c-0.707-0.556-1.54-0.94-1.985-1.804
		c-0.134-0.26-0.442-0.439-0.694,0.028c-0.195,0.365-0.49,0.685-0.777,0.985c-0.555,0.582-1.053,0.658-1.786,0.332
		c-0.612-0.27-0.955-0.915-0.966-1.607c-0.01-0.862,0.423-1.486,0.993-2.023c0.256-0.241,0.122-0.398,0.058-0.643
		c-0.091-0.363-0.082-0.751-0.131-1.129c-0.141-1.121,0.836-1.4,1.459-1.938c0.735-0.637,1.412-1.291,1.982-2.106
		c0.715-1.019,1.664-1.874,2.527-2.782c0.707-0.747,1.451-1.463,2.146-2.219c0.145-0.163,0.196-0.449,0.207-0.684
		c0.021-0.467,0.193-0.653,0.637-0.495c0.299,0.108,0.572,0.312,0.83,0.507c0.619,0.474,0.607,0.476,1.127-0.076
		c0.59-0.619,1.299-0.856,2.137-0.584c0.757,0.241,0.926,0.725,0.597,1.451C712.373,313.902,712.176,314.572,711.459,314.858"/>
	<path fill="#FFFFFF" d="M706.705,325.342c-1.812-1.631-1.582-4.662,0.53-5.699c0.612-0.299,1.386-0.475,2.06-0.407
		c1.131,0.112,2.099,1.324,2.302,2.503c0.199,1.148-0.192,2.169-0.862,2.979c-0.508,0.614-1.207,1.144-2.141,1.23
		C707.716,326.035,707.109,325.585,706.705,325.342"/>
	<path fill="#FFFFFF" d="M714.175,148.322c-0.304,0.371-0.56,0.628-0.733,0.937c-0.06,0.104,0.082,0.324,0.14,0.518
		C714.114,149.438,714.42,149.101,714.175,148.322 M703.931,160.343c-0.504,0.333-1.185-0.262-1.54,0.623
		c-0.134,0.332-0.198,0.593-0.072,0.864c0.066,0.14,0.413,0.302,0.514,0.246c0.243-0.137,0.457-0.371,0.604-0.612
		C703.619,161.174,703.721,160.834,703.931,160.343 M708.538,165.115c-0.168,0.218-0.329,0.411-0.468,0.621
		c-0.191,0.288-0.415,0.566-0.535,0.887c-0.17,0.45,0.108,0.625,0.529,0.613c0.451-0.016,1.081-0.582,1.16-1.038
		C709.331,165.622,708.999,165.331,708.538,165.115 M712.98,150.812c0.01-0.008,0.02-0.02,0.027-0.031
		c-0.327-0.327-0.641-0.672-0.986-0.981c-0.671-0.6-1.017-0.539-1.55,0.079c-0.647,0.745-1.362,1.437-2.046,2.153
		c-0.617,0.649-1.248,1.287-1.843,1.961c-0.674,0.76-1.311,1.559-1.974,2.332c-0.43,0.506-0.891,0.982-1.305,1.499
		c-0.077,0.1-0.067,0.397,0.022,0.489c1.001,1.055,1.999,2.113,3.05,3.118c0.699,0.665,1.502,1.214,2.211,1.869
		c0.851,0.778,1.649,1.616,2.484,2.413c0.103,0.098,0.328,0.198,0.426,0.153c0.371-0.178,0.775-0.354,1.061-0.637
		c0.719-0.713,1.376-1.485,2.06-2.233c0.18-0.191,0.352-0.397,0.541-0.581c1.204-1.166,2.431-2.31,3.607-3.503
		c0.371-0.375,0.641-0.866,0.889-1.34c0.077-0.146-0.002-0.471-0.126-0.609c-0.487-0.545-1.009-1.057-1.54-1.563
		c-1.045-0.992-2.091-1.976-3.149-2.95C714.232,151.891,713.602,151.357,712.98,150.812 M714.412,150.462
		c1.544,1.543,3.058,3.056,4.542,4.538c1.304-0.562,1.414-0.695,1.272-1.548c-0.384,0.152-0.839,0.054-1.079,0.561
		c-0.069,0.15-0.469,0.142-0.709,0.205c-0.323-0.963-0.146-1.33,0.724-1.624c0.125-0.044,0.247-0.096,0.369-0.146
		c0.98-0.404,2.171,0.25,2.211,1.312c0.014,0.304-0.02,0.787-0.52,1.032c-0.451,0.217-0.795,0.669-1.148,1.053
		c-0.036,0.034,0.158,0.393,0.312,0.476c0.741,0.4,0.835,0.979,0.302,1.625c-0.359,0.432-0.597,0.965-0.925,1.425
		c-0.237,0.334-0.513,0.652-0.809,0.935c-0.548,0.519-1.16,0.975-1.68,1.52c-1.103,1.157-2.161,2.35-3.233,3.533
		c-0.41,0.451-0.773,0.952-1.223,1.359c-0.338,0.303-0.761,0.571-1.196,0.704c-0.208,0.063-0.541-0.203-0.793-0.354
		c-0.158-0.096-0.271-0.261-0.436-0.424c-0.361,0.358-0.757,0.639-0.997,1.02c-0.455,0.725-1.17,0.846-1.903,0.969
		c-0.096,0.019-0.22-0.052-0.319-0.106c-0.657-0.351-1.258-1.945-0.541-2.61c0.321-0.302,0.52-0.729,0.812-1.062
		c0.122-0.135,0.348-0.175,0.627-0.308c-0.231-0.25-0.491-0.617-0.828-0.881c-0.707-0.554-1.54-0.939-1.985-1.803
		c-0.134-0.26-0.441-0.439-0.693,0.029c-0.195,0.364-0.491,0.684-0.777,0.986c-0.555,0.581-1.054,0.657-1.787,0.333
		c-0.611-0.271-0.955-0.916-0.965-1.609c-0.012-0.863,0.422-1.485,0.993-2.023c0.255-0.241,0.121-0.398,0.058-0.642
		c-0.092-0.365-0.084-0.752-0.132-1.128c-0.14-1.122,0.837-1.401,1.46-1.938c0.735-0.637,1.41-1.29,1.981-2.107
		c0.715-1.018,1.664-1.874,2.526-2.781c0.709-0.748,1.452-1.462,2.147-2.22c0.146-0.162,0.197-0.449,0.207-0.682
		c0.021-0.466,0.194-0.654,0.638-0.495c0.298,0.108,0.571,0.312,0.829,0.507c0.621,0.472,0.608,0.475,1.128-0.077
		c0.589-0.618,1.298-0.855,2.135-0.585c0.758,0.242,0.927,0.725,0.598,1.453C715.325,149.507,715.129,150.175,714.412,150.462"/>
	<path fill="#FFFFFF" d="M709.658,160.944c-1.813-1.63-1.582-4.661,0.529-5.698c0.613-0.299,1.387-0.474,2.062-0.408
		c1.131,0.113,2.097,1.324,2.301,2.503c0.2,1.149-0.193,2.169-0.862,2.98c-0.508,0.613-1.207,1.143-2.14,1.23
		C710.669,161.64,710.062,161.189,709.658,160.944"/>
	<g>
		<path fill="#FFFFFF" d="M824.807,293.543c0.286,0.74,0.563,1.69,1.035,2.56c0.153,0.296,0.778,0.496,1.206,0.533
			c0.942,0.08,1.892,0.03,2.836,0.03c0.999,0,2.003-0.005,3.006,0c0.642,0,0.879-0.335,0.825-0.858
			c-0.108-1.116-0.204-2.232-0.37-3.34c-0.171-1.128-0.551-2.249-0.604-3.385c-0.055-1.263-0.523-2.267-1.517-3.132
			c-1.651-1.445-4.238-0.8-4.929,1.183c-0.363,1.041-1.045,1.944-0.933,3.161C825.454,291.273,825.045,292.285,824.807,293.543
			 M826.87,298.368c-0.529-0.047-1.089-0.009-1.574-0.158c-0.308-0.097-0.735-0.479-0.721-0.717c0.034-0.62-0.43-0.982-0.634-1.466
			c-0.395-0.933-0.702-1.956-0.725-2.947c-0.028-1.329,0.096-2.694,0.434-3.985c0.291-1.115,0.902-2.186,1.504-3.215
			c0.415-0.712,1.041-1.329,1.594-1.97c0.56-0.657,1.366-0.436,2.1-0.433c2.74,0.029,5.393,2.165,5.67,4.485
			c0.287,2.397,0.663,4.779,1.03,7.166c0.07,0.457,0.366,0.887,0.454,1.341c0.111,0.611,0.207,1.225-0.897,1.231
			c-0.673,0.005-1.078,0.255-0.872,1.133c0.365,1.579,0.437,3.216,0.637,4.826c0.054,0.438,0.188,0.876,0.182,1.309
			c0,0.379-0.023,0.828-0.25,1.111c-0.266,0.328-0.744,0.67-1.156,0.704c-0.487,0.041-1.062-1.017-0.851-1.462
			c0.18-0.38,0.218-0.688,0.126-1.133c-0.271-1.349-0.384-2.732-0.495-4.105c-0.055-0.6,0.042-1.208,0.079-1.953
			c-0.916,0-1.837-0.084-2.72,0.046c-0.282,0.041-0.604,0.629-0.667,0.999c-0.104,0.646,0.006,1.319-0.017,1.979
			c-0.042,1.562-0.169,3.118-0.136,4.68c0.013,0.858,0.302,1.717,0.416,2.582c0.046,0.371-0.088,0.754-0.076,1.137
			c0.021,0.972,0.104,1.939,0.109,2.916c0.002,0.415-0.014,0.877-0.203,1.236c-0.294,0.558-1.021,0.606-1.301,0.049
			c-0.354-0.695-0.698-1.523-0.603-2.252c0.212-1.612-0.218-3.16-0.246-4.743c-0.025-1.395,0.204-2.79,0.224-4.185
			c0.026-1.425-0.065-2.849-0.104-4.272C827.078,298.321,826.974,298.343,826.87,298.368"/>
		<path fill="#FFFFFF" d="M839.069,285.973c-0.208-1.516,0.867-2.258,1.682-3.115c0.156-0.163,0.436-0.32,0.443-0.491
			c0.046-0.783,0.785-0.779,1.307-0.924c0.214-0.059,0.774,0.249,0.803,0.44c0.072,0.412,0.072,0.995-0.2,1.271
			c-0.872,0.882-1.861,1.681-2.852,2.459C839.986,285.822,839.537,285.838,839.069,285.973"/>
		<path fill="#FFFFFF" d="M819.791,286.022c-1.208-0.304-2.232-0.559-3.261-0.82c-0.372-0.093-0.733-0.208-1.103-0.305
			c-0.596-0.154-0.768-0.479-0.567-1.009c0.212-0.569,0.633-0.602,1.166-0.44c1.295,0.405,2.603,0.782,3.881,1.229
			c0.354,0.125,0.613,0.471,0.913,0.716C820.453,285.619,820.085,285.844,819.791,286.022"/>
		<path fill="#FFFFFF" d="M833.077,275.971c0.062,0.812,0.158,1.624,0.172,2.439c0.002,0.23-0.195,0.583-0.396,0.654
			c-0.191,0.067-0.608-0.096-0.755-0.271c-0.3-0.358-0.611-0.769-0.69-1.198c-0.15-0.8-0.178-1.628-0.162-2.44
			c0.004-0.208,0.35-0.517,0.604-0.584c0.287-0.075,0.812-0.032,0.94,0.142c0.264,0.346,0.321,0.816,0.467,1.229
			C833.195,275.949,833.138,275.957,833.077,275.971"/>
		<path fill="#FFFFFF" d="M821.266,274.912c0.315,0.259,0.657,0.417,0.791,0.667c0.457,0.887,0.879,1.795,1.24,2.719
			c0.132,0.337,0.058,0.745,0.078,1.12c-0.462-0.196-1.049-0.292-1.364-0.607c-0.508-0.509-0.929-1.134-1.229-1.771
			c-0.226-0.478-0.254-1.048-0.254-1.578C820.528,275.308,820.928,275.15,821.266,274.912"/>
	</g>
	<g>
		<path fill="#FFFFFF" d="M570.224,517.121c0.285,0.74,0.562,1.691,1.034,2.56c0.153,0.296,0.779,0.497,1.206,0.533
			c0.943,0.08,1.892,0.03,2.837,0.03c0.998,0,2.003-0.005,3.006,0c0.641,0,0.879-0.334,0.824-0.857
			c-0.107-1.117-0.203-2.233-0.369-3.341c-0.172-1.128-0.552-2.249-0.605-3.385c-0.054-1.262-0.523-2.267-1.516-3.132
			c-1.652-1.444-4.238-0.8-4.93,1.183c-0.363,1.042-1.044,1.944-0.933,3.162C570.87,514.852,570.461,515.864,570.224,517.121
			 M572.286,521.947c-0.529-0.047-1.088-0.01-1.573-0.159c-0.308-0.096-0.735-0.479-0.722-0.716c0.034-0.62-0.429-0.982-0.633-1.466
			c-0.396-0.933-0.703-1.957-0.725-2.947c-0.028-1.329,0.096-2.694,0.433-3.985c0.292-1.116,0.903-2.187,1.504-3.215
			c0.416-0.712,1.041-1.329,1.594-1.971c0.56-0.657,1.366-0.436,2.1-0.433c2.74,0.029,5.393,2.165,5.67,4.485
			c0.288,2.397,0.664,4.779,1.031,7.166c0.069,0.458,0.365,0.887,0.453,1.342c0.112,0.611,0.208,1.224-0.896,1.23
			c-0.674,0.006-1.079,0.255-0.873,1.133c0.365,1.579,0.438,3.216,0.637,4.826c0.055,0.438,0.188,0.876,0.183,1.309
			c0,0.38-0.024,0.829-0.25,1.111c-0.266,0.329-0.745,0.67-1.156,0.704c-0.487,0.041-1.062-1.017-0.852-1.462
			c0.181-0.379,0.218-0.687,0.126-1.133c-0.271-1.349-0.383-2.731-0.495-4.105c-0.054-0.6,0.042-1.208,0.08-1.953
			c-0.917,0-1.838-0.084-2.721,0.046c-0.281,0.041-0.603,0.63-0.667,0.999c-0.104,0.646,0.006,1.32-0.016,1.979
			c-0.042,1.561-0.17,3.117-0.136,4.68c0.012,0.857,0.302,1.717,0.415,2.581c0.046,0.372-0.088,0.754-0.076,1.137
			c0.022,0.972,0.104,1.94,0.11,2.916c0.002,0.415-0.014,0.878-0.204,1.236c-0.293,0.559-1.021,0.607-1.3,0.049
			c-0.354-0.695-0.699-1.522-0.604-2.252c0.212-1.611-0.218-3.16-0.245-4.742c-0.026-1.396,0.203-2.791,0.224-4.186
			c0.025-1.424-0.066-2.849-0.104-4.272C572.494,521.9,572.391,521.921,572.286,521.947"/>
		<path fill="#FFFFFF" d="M584.486,509.551c-0.208-1.515,0.866-2.257,1.682-3.115c0.155-0.162,0.436-0.32,0.443-0.491
			c0.046-0.782,0.784-0.778,1.306-0.924c0.214-0.059,0.775,0.249,0.803,0.44c0.072,0.413,0.072,0.996-0.199,1.271
			c-0.873,0.882-1.861,1.681-2.853,2.46C585.402,509.4,584.953,509.417,584.486,509.551"/>
		<path fill="#FFFFFF" d="M565.208,509.601c-1.208-0.304-2.233-0.559-3.262-0.82c-0.371-0.093-0.733-0.207-1.103-0.304
			c-0.595-0.155-0.767-0.479-0.567-1.009c0.212-0.569,0.634-0.603,1.167-0.44c1.294,0.404,2.603,0.781,3.881,1.229
			c0.354,0.124,0.612,0.47,0.912,0.716C565.869,509.197,565.502,509.422,565.208,509.601"/>
		<path fill="#FFFFFF" d="M578.494,499.549c0.062,0.812,0.157,1.624,0.172,2.44c0.002,0.229-0.196,0.582-0.396,0.653
			c-0.192,0.067-0.609-0.096-0.755-0.271c-0.3-0.358-0.611-0.769-0.691-1.198c-0.149-0.8-0.178-1.628-0.162-2.439
			c0.004-0.209,0.35-0.518,0.604-0.584c0.288-0.075,0.812-0.032,0.94,0.142c0.264,0.346,0.322,0.815,0.468,1.229
			C578.611,499.527,578.554,499.535,578.494,499.549"/>
		<path fill="#FFFFFF" d="M566.682,498.49c0.316,0.259,0.657,0.418,0.791,0.668c0.458,0.887,0.879,1.794,1.24,2.719
			c0.132,0.337,0.059,0.745,0.078,1.119c-0.461-0.195-1.049-0.291-1.364-0.606c-0.507-0.51-0.929-1.134-1.229-1.771
			c-0.226-0.479-0.253-1.049-0.253-1.578C565.945,498.886,566.345,498.729,566.682,498.49"/>
	</g>
	<g>
		<path fill="#FFFFFF" d="M440.033,48.428c-0.002,0.723-0.081,1.623,0.033,2.516c0.032,0.302,0.498,0.68,0.848,0.852
			c0.775,0.379,1.597,0.65,2.4,0.963c0.848,0.33,1.703,0.658,2.553,0.994c0.544,0.211,0.857,0.007,0.984-0.456
			c0.278-0.985,0.565-1.964,0.791-2.96c0.227-1.015,0.274-2.092,0.604-3.075c0.372-1.09,0.305-2.099-0.252-3.161
			c-0.926-1.773-3.336-2.081-4.578-0.625c-0.653,0.765-1.53,1.307-1.838,2.378C441.333,46.713,440.65,47.438,440.033,48.428
			 M440.19,53.208c-0.434-0.214-0.92-0.368-1.283-0.655c-0.23-0.183-0.467-0.649-0.376-0.846c0.233-0.516-0.04-0.977-0.053-1.454
			c-0.028-0.923,0.05-1.895,0.359-2.743c0.415-1.139,0.972-2.257,1.685-3.243c0.617-0.852,1.49-1.559,2.34-2.233
			c0.588-0.467,1.323-0.785,2.005-1.147c0.692-0.374,1.304,0.082,1.926,0.326c2.318,0.931,3.865,3.622,3.333,5.684
			c-0.547,2.131-1.015,4.279-1.492,6.427c-0.092,0.412,0.017,0.874-0.059,1.29c-0.106,0.556-0.228,1.108-1.168,0.749
			c-0.575-0.218-1.001-0.141-1.116,0.673c-0.212,1.462-0.691,2.876-1.054,4.31c-0.098,0.39-0.129,0.806-0.277,1.172
			c-0.125,0.323-0.295,0.696-0.58,0.861c-0.334,0.192-0.854,0.323-1.215,0.216c-0.428-0.126-0.567-1.214-0.24-1.523
			c0.278-0.262,0.412-0.511,0.481-0.92c0.215-1.236,0.578-2.447,0.937-3.651c0.152-0.527,0.435-1.012,0.713-1.632
			c-0.778-0.303-1.533-0.679-2.326-0.86c-0.252-0.058-0.72,0.336-0.897,0.628c-0.301,0.515-0.431,1.124-0.667,1.676
			c-0.552,1.312-1.175,2.592-1.663,3.93c-0.273,0.732-0.311,1.558-0.5,2.33c-0.084,0.332-0.324,0.612-0.44,0.94
			c-0.302,0.833-0.552,1.683-0.87,2.513c-0.136,0.354-0.302,0.741-0.583,0.983c-0.434,0.378-1.067,0.179-1.12-0.388
			c-0.071-0.708-0.091-1.524,0.231-2.112c0.712-1.298,0.859-2.756,1.359-4.109c0.438-1.194,1.095-2.304,1.573-3.481
			c0.492-1.201,0.885-2.442,1.323-3.663C440.382,53.238,440.288,53.221,440.19,53.208"/>
		<path fill="#FFFFFF" d="M454.65,46.712c0.324-1.355,1.482-1.631,2.458-2.09c0.186-0.086,0.476-0.128,0.539-0.271
			c0.298-0.649,0.924-0.402,1.415-0.353c0.201,0.021,0.576,0.468,0.536,0.64c-0.075,0.375-0.268,0.87-0.59,1.014
			c-1.033,0.46-2.136,0.812-3.236,1.146C455.479,46.887,455.091,46.752,454.65,46.712"/>
		<path fill="#FFFFFF" d="M438.259,40.382c-0.926-0.657-1.712-1.212-2.499-1.774c-0.285-0.202-0.555-0.418-0.836-0.623
			c-0.454-0.329-0.493-0.66-0.148-1.044c0.368-0.414,0.738-0.302,1.137,0.011c0.965,0.771,1.953,1.524,2.89,2.327
			c0.26,0.222,0.365,0.601,0.539,0.91C438.954,40.258,438.568,40.327,438.259,40.382"/>
		<path fill="#FFFFFF" d="M452.866,36.235c-0.216,0.71-0.403,1.431-0.661,2.13c-0.074,0.196-0.359,0.43-0.552,0.424
			c-0.186-0.007-0.486-0.283-0.551-0.48c-0.136-0.403-0.265-0.855-0.191-1.247c0.137-0.729,0.388-1.441,0.669-2.125
			c0.072-0.176,0.468-0.324,0.705-0.297c0.27,0.031,0.701,0.241,0.752,0.431c0.11,0.381,0.004,0.799-0.009,1.198
			C452.973,36.256,452.922,36.244,452.866,36.235"/>
		<path fill="#FFFFFF" d="M443.183,31.432c0.184,0.324,0.42,0.572,0.451,0.829c0.096,0.905,0.154,1.814,0.155,2.719
			c0.001,0.33-0.196,0.652-0.304,0.977c-0.327-0.318-0.794-0.594-0.958-0.966c-0.262-0.601-0.414-1.271-0.458-1.91
			c-0.034-0.481,0.131-0.975,0.306-1.424C442.426,31.524,442.818,31.523,443.183,31.432"/>
	</g>
	<g>
		<path fill="#FFFFFF" d="M198.063,165.232c0.283,0.737,0.562,1.69,1.03,2.561c0.157,0.292,0.779,0.496,1.21,0.531
			c0.938,0.081,1.89,0.027,2.836,0.027c1,0,2.001-0.002,3.004,0c0.642,0,0.88-0.329,0.827-0.858
			c-0.108-1.112-0.204-2.228-0.373-3.335c-0.171-1.133-0.551-2.253-0.602-3.386c-0.058-1.265-0.527-2.265-1.516-3.131
			c-1.656-1.449-4.24-0.804-4.932,1.181c-0.362,1.043-1.047,1.942-0.931,3.163C198.707,162.959,198.3,163.972,198.063,165.232
			 M200.123,170.058c-0.526-0.046-1.084-0.012-1.57-0.162c-0.309-0.096-0.736-0.479-0.724-0.712
			c0.034-0.624-0.428-0.982-0.633-1.465c-0.396-0.934-0.702-1.958-0.725-2.949c-0.03-1.327,0.096-2.693,0.433-3.984
			c0.292-1.121,0.904-2.186,1.505-3.219c0.417-0.712,1.041-1.324,1.593-1.969c0.561-0.659,1.369-0.438,2.102-0.43
			c2.74,0.027,5.392,2.165,5.671,4.482c0.289,2.397,0.659,4.784,1.028,7.168c0.07,0.458,0.367,0.885,0.453,1.342
			c0.112,0.611,0.208,1.219-0.894,1.23c-0.676,0.004-1.079,0.255-0.876,1.129c0.369,1.583,0.438,3.219,0.638,4.831
			c0.055,0.437,0.188,0.871,0.185,1.308c-0.002,0.376-0.024,0.828-0.25,1.109c-0.265,0.329-0.745,0.672-1.157,0.706
			c-0.488,0.036-1.06-1.017-0.852-1.462c0.179-0.384,0.218-0.687,0.128-1.132c-0.271-1.354-0.383-2.734-0.499-4.106
			c-0.051-0.6,0.045-1.209,0.082-1.957c-0.915,0-1.835-0.083-2.718,0.047c-0.287,0.044-0.606,0.629-0.666,0.999
			c-0.105,0.645,0.002,1.32-0.018,1.981c-0.042,1.558-0.171,3.119-0.14,4.676c0.014,0.863,0.306,1.715,0.418,2.583
			c0.046,0.371-0.085,0.757-0.077,1.136c0.022,0.973,0.104,1.944,0.11,2.919c0.004,0.417-0.013,0.876-0.204,1.238
			c-0.292,0.555-1.021,0.605-1.301,0.049c-0.353-0.7-0.697-1.528-0.601-2.254c0.211-1.612-0.217-3.164-0.248-4.742
			c-0.025-1.394,0.203-2.791,0.226-4.188c0.024-1.424-0.065-2.848-0.104-4.272C200.332,170.011,200.227,170.034,200.123,170.058"/>
		<path fill="#FFFFFF" d="M212.326,157.661c-0.211-1.516,0.863-2.255,1.68-3.116c0.156-0.164,0.433-0.321,0.443-0.493
			c0.045-0.778,0.784-0.775,1.307-0.922c0.213-0.061,0.771,0.25,0.804,0.441c0.069,0.415,0.067,0.993-0.203,1.267
			c-0.873,0.887-1.859,1.688-2.852,2.464C213.24,157.513,212.789,157.529,212.326,157.661"/>
		<path fill="#FFFFFF" d="M193.045,157.713c-1.206-0.305-2.234-0.562-3.262-0.821c-0.369-0.096-0.732-0.209-1.102-0.305
			c-0.597-0.152-0.766-0.478-0.568-1.011c0.213-0.565,0.636-0.603,1.167-0.437c1.296,0.402,2.603,0.778,3.88,1.229
			c0.354,0.125,0.612,0.47,0.912,0.716C193.706,157.306,193.34,157.533,193.045,157.713"/>
		<path fill="#FFFFFF" d="M206.333,147.656c0.063,0.817,0.16,1.628,0.171,2.445c0.001,0.229-0.195,0.578-0.397,0.651
			c-0.191,0.069-0.606-0.094-0.753-0.268c-0.301-0.358-0.612-0.775-0.691-1.2c-0.148-0.803-0.181-1.63-0.162-2.442
			c0.004-0.207,0.35-0.514,0.601-0.58c0.29-0.076,0.814-0.034,0.943,0.139c0.261,0.346,0.322,0.814,0.464,1.23
			C206.45,147.64,206.39,147.648,206.333,147.656"/>
		<path fill="#FFFFFF" d="M194.518,146.604c0.315,0.258,0.661,0.416,0.792,0.666c0.46,0.887,0.879,1.793,1.243,2.718
			c0.132,0.337,0.057,0.743,0.076,1.118c-0.462-0.192-1.046-0.293-1.361-0.607c-0.512-0.511-0.929-1.134-1.23-1.77
			c-0.226-0.478-0.256-1.048-0.256-1.576C193.78,146.995,194.183,146.839,194.518,146.604"/>
	</g>
	<path fill="#FFFFFF" d="M907.503,46.423c-0.755,0.354-0.789,0.474-0.313,1.007c0.071,0.08,0.113,0.175,0.176,0.254
		c0.216,0.279,0.392,0.748,0.669,0.783c0.26,0.033,0.613-0.441,0.963-0.616c0.591-0.298,0.511-0.667,0.291-1.039
		C908.896,46.165,908.302,46.046,907.503,46.423 M906.276,50.746c0.118,0.251,0.3,0.631,0.472,1.016
		c0.388,0.844,0.763,1.694,1.158,2.536c0.128,0.275,0.308,0.343,0.729,0.269c1.735-0.298,3.189-1.261,4.745-1.965
		c1.328-0.597,2.582-1.371,3.927-1.896c0.767-0.298,0.675-0.579,0.453-1.019c-0.319-0.631-0.627-1.266-0.99-1.872
		c-0.3-0.5-0.642-0.983-1.021-1.428c-0.12-0.142-0.466-0.242-0.644-0.18c-0.954,0.337-1.903,0.7-2.824,1.117
		c-0.667,0.299-1.286,0.704-1.934,1.053c-0.239,0.133-0.511,0.219-0.753,0.359C908.523,49.375,907.453,50.032,906.276,50.746
		 M908.801,55.999c0.791,1.57,1.67,2.979,2.224,4.511c0.479,1.312,1.013,2.571,1.77,3.74c0.088,0.138,0.333,0.325,0.429,0.288
		c1.155-0.465,2.295-0.966,3.436-1.46c1.301-0.559,2.603-1.114,3.896-1.686c0.609-0.27,1.225-0.541,1.8-0.873
		c0.166-0.096,0.338-0.469,0.276-0.619c-0.264-0.635-0.613-1.232-0.921-1.849c-0.476-0.946-0.949-1.89-1.4-2.844
		c-0.516-1.096-0.986-2.212-1.514-3.301c-0.23-0.466-0.575-0.462-1.067-0.1c-0.259,0.188-0.524,0.384-0.816,0.506
		c-0.975,0.396-1.97,0.726-2.93,1.14c-0.929,0.399-1.83,0.867-2.736,1.315C910.409,55.177,909.584,55.601,908.801,55.999
		 M911.646,46.2c-0.749-0.855-0.657-1.181,0.467-1.749c0.452-0.227,0.923-0.423,1.378-0.647c0.494-0.244,0.873-0.146,1.057,0.277
		c0.238,0.545,0.676,0.681,1.274,0.556c0.711-0.146,1.045,0.141,1.307,0.708c0.425,0.903,1.001,1.734,1.474,2.614
		c0.676,1.26,1.36,2.517,1.968,3.81c0.392,0.842,0.653,1.743,0.982,2.618c0.25,0.659,0.499,1.322,0.773,1.975
		c0.06,0.14,0.226,0.229,0.325,0.358c0.184,0.238,0.503,0.471,0.503,0.733c0.004,0.688,0.472,1.098,0.802,1.599
		c0.203,0.32,0.453,0.641,0.539,1.001c0.052,0.181-0.15,0.537-0.344,0.672c-1.424,1-2.97,1.781-4.594,2.418
		c-0.825,0.326-1.674,0.585-2.486,0.946c-0.699,0.312-1.353,0.746-2.044,1.083c-0.847,0.41-1.72,0.77-2.574,1.157
		c-0.507,0.233-1.162-0.162-1.141-0.695c0.034-0.943-0.453-1.686-0.917-2.439c-0.09-0.155-0.182-0.317-0.253-0.48
		c-0.441-1.055-0.883-2.11-1.316-3.168c-0.523-1.27-0.987-2.572-1.576-3.813c-0.505-1.068-1.181-2.057-1.733-3.107
		c-0.283-0.535-0.587-1.007-0.642-1.726c-0.065-0.897,0.412-1.035,0.975-1.333c0.665-0.352,0.699-0.585,0.267-1.076
		c-0.691-0.773-0.907-1.712-0.032-2.809c0.042-0.052,0.096-0.102,0.157-0.132c0.657-0.292,1.324-0.568,1.981-0.875
		c0.653-0.304,1.636,0.374,2.077,0.958c0.15,0.192,0.246,0.423,0.384,0.625C910.962,46.685,911.279,46.659,911.646,46.2"/>
	<path fill="#FFFFFF" d="M104.03,266.301c-0.749,0.354-0.786,0.475-0.308,1.008c0.067,0.078,0.11,0.175,0.172,0.254
		c0.218,0.278,0.39,0.745,0.672,0.777c0.257,0.038,0.611-0.44,0.961-0.615c0.593-0.296,0.514-0.662,0.291-1.037
		C105.43,266.038,104.83,265.921,104.03,266.301 M102.81,270.623c0.118,0.249,0.298,0.628,0.472,1.011
		c0.385,0.847,0.76,1.695,1.155,2.541c0.13,0.274,0.307,0.341,0.729,0.266c1.737-0.294,3.189-1.261,4.748-1.964
		c1.326-0.596,2.579-1.37,3.926-1.896c0.767-0.3,0.674-0.579,0.452-1.021c-0.319-0.629-0.629-1.266-0.991-1.869
		c-0.299-0.505-0.639-0.983-1.021-1.429c-0.116-0.142-0.461-0.246-0.644-0.179c-0.953,0.338-1.903,0.699-2.825,1.112
		c-0.665,0.303-1.283,0.708-1.928,1.056c-0.244,0.134-0.515,0.218-0.753,0.359C105.051,269.253,103.981,269.911,102.81,270.623
		 M105.332,275.874c0.792,1.569,1.668,2.98,2.226,4.514c0.477,1.312,1.01,2.569,1.768,3.739c0.087,0.137,0.333,0.325,0.429,0.286
		c1.154-0.467,2.293-0.97,3.436-1.461c1.298-0.562,2.6-1.116,3.894-1.686c0.61-0.268,1.227-0.537,1.8-0.871
		c0.168-0.096,0.336-0.471,0.275-0.62c-0.26-0.633-0.612-1.233-0.919-1.85c-0.472-0.945-0.949-1.892-1.4-2.843
		c-0.516-1.097-0.985-2.211-1.514-3.303c-0.228-0.468-0.575-0.463-1.065-0.1c-0.258,0.19-0.527,0.387-0.819,0.507
		c-0.972,0.396-1.967,0.726-2.932,1.142c-0.927,0.399-1.827,0.866-2.735,1.312C106.941,275.052,106.115,275.479,105.332,275.874
		 M108.178,266.075c-0.753-0.854-0.662-1.183,0.464-1.749c0.455-0.225,0.923-0.424,1.379-0.645c0.494-0.245,0.874-0.151,1.058,0.273
		c0.234,0.547,0.671,0.684,1.272,0.558c0.714-0.145,1.044,0.143,1.309,0.709c0.423,0.899,0.998,1.732,1.471,2.616
		c0.676,1.257,1.358,2.514,1.966,3.806c0.395,0.844,0.653,1.743,0.982,2.617c0.249,0.663,0.5,1.325,0.775,1.975
		c0.059,0.142,0.227,0.233,0.325,0.357c0.185,0.242,0.503,0.476,0.505,0.734c0.004,0.687,0.471,1.098,0.797,1.603
		c0.208,0.32,0.454,0.641,0.544,0.998c0.047,0.186-0.151,0.538-0.348,0.677c-1.422,0.998-2.971,1.781-4.592,2.419
		c-0.826,0.32-1.677,0.582-2.484,0.945c-0.703,0.312-1.353,0.745-2.046,1.082c-0.846,0.409-1.719,0.771-2.573,1.157
		c-0.509,0.234-1.159-0.162-1.141-0.695c0.032-0.946-0.456-1.686-0.915-2.44c-0.093-0.157-0.183-0.316-0.253-0.481
		c-0.443-1.055-0.885-2.107-1.32-3.165c-0.524-1.271-0.985-2.574-1.576-3.815c-0.505-1.07-1.181-2.057-1.733-3.106
		c-0.282-0.536-0.588-1.006-0.642-1.729c-0.066-0.895,0.414-1.031,0.976-1.33c0.665-0.351,0.7-0.584,0.265-1.075
		c-0.69-0.775-0.908-1.712-0.032-2.812c0.04-0.049,0.096-0.1,0.155-0.129c0.662-0.296,1.329-0.57,1.982-0.875
		c0.654-0.307,1.641,0.372,2.082,0.955c0.147,0.194,0.243,0.425,0.379,0.627C107.493,266.563,107.809,266.534,108.178,266.075"/>
	<path fill="#FFFFFF" d="M356.5,148.154c-0.734-0.384-0.853-0.34-0.99,0.362c-0.021,0.101-0.073,0.194-0.099,0.291
		c-0.09,0.341-0.358,0.761-0.214,1.005c0.125,0.228,0.72,0.221,1.07,0.395c0.594,0.294,0.838,0.011,1.002-0.394
		C357.554,149.111,357.286,148.562,356.5,148.154 M352.317,149.789c-0.127,0.244-0.321,0.617-0.521,0.986
		c-0.443,0.818-0.893,1.629-1.329,2.454c-0.14,0.27-0.086,0.451,0.228,0.742c1.283,1.208,2.93,1.782,4.431,2.601
		c1.275,0.698,2.649,1.23,3.881,1.987c0.702,0.43,0.869,0.188,1.087-0.255c0.309-0.634,0.629-1.266,0.892-1.918
		c0.222-0.543,0.399-1.103,0.523-1.677c0.042-0.178-0.083-0.517-0.246-0.621c-0.845-0.556-1.706-1.096-2.592-1.582
		c-0.643-0.347-1.339-0.596-2.005-0.9c-0.254-0.113-0.484-0.279-0.741-0.383C354.763,150.75,353.592,150.293,352.317,149.789
		 M349.652,154.969c-0.774,1.578-1.37,3.129-2.256,4.499c-0.758,1.172-1.439,2.356-1.915,3.666
		c-0.057,0.152-0.058,0.462,0.031,0.515c1.069,0.638,2.157,1.243,3.239,1.858c1.231,0.695,2.459,1.399,3.693,2.087
		c0.582,0.325,1.169,0.654,1.781,0.91c0.178,0.077,0.578-0.016,0.66-0.155c0.348-0.589,0.614-1.232,0.92-1.849
		c0.469-0.947,0.936-1.898,1.422-2.832c0.563-1.074,1.168-2.12,1.72-3.201c0.236-0.464,0.022-0.738-0.563-0.91
		c-0.308-0.091-0.626-0.187-0.899-0.348c-0.902-0.536-1.766-1.131-2.679-1.648c-0.878-0.499-1.793-0.934-2.696-1.389
		C351.279,155.756,350.44,155.355,349.652,154.969 M359.184,151.325c0.226-1.116,0.543-1.241,1.674-0.686
		c0.454,0.227,0.896,0.48,1.347,0.711c0.494,0.246,0.648,0.605,0.42,1.008c-0.294,0.517-0.14,0.947,0.323,1.351
		c0.546,0.482,0.517,0.919,0.225,1.472c-0.462,0.88-0.779,1.841-1.199,2.752c-0.594,1.298-1.185,2.6-1.848,3.864
		c-0.435,0.824-0.996,1.573-1.494,2.363c-0.379,0.599-0.754,1.199-1.106,1.81c-0.078,0.132-0.049,0.322-0.089,0.475
		c-0.081,0.294-0.076,0.688-0.28,0.846c-0.545,0.417-0.591,1.038-0.797,1.603c-0.13,0.359-0.237,0.749-0.468,1.036
		c-0.12,0.149-0.52,0.204-0.75,0.131c-1.654-0.531-3.213-1.293-4.7-2.202c-0.754-0.465-1.476-0.985-2.253-1.41
		c-0.674-0.372-1.411-0.629-2.098-0.979c-0.837-0.428-1.652-0.905-2.476-1.354c-0.494-0.265-0.57-1.022-0.134-1.329
		c0.774-0.546,1.069-1.381,1.394-2.202c0.069-0.169,0.142-0.337,0.231-0.493c0.574-0.99,1.146-1.978,1.727-2.963
		c0.697-1.186,1.458-2.339,2.091-3.559c0.549-1.048,0.927-2.183,1.431-3.256c0.257-0.549,0.447-1.076,0.991-1.555
		c0.674-0.592,1.072-0.292,1.65-0.024c0.681,0.319,0.888,0.206,1.017-0.438c0.201-1.019,0.817-1.757,2.223-1.722
		c0.062,0.002,0.137,0.016,0.196,0.046c0.635,0.349,1.257,0.715,1.894,1.053c0.639,0.336,0.693,1.533,0.495,2.236
		c-0.066,0.235-0.192,0.451-0.271,0.681C358.381,151.074,358.595,151.308,359.184,151.325"/>
	<path fill="#FFFFFF" d="M293.317,498.67c-0.749,0.354-0.786,0.475-0.308,1.008c0.067,0.079,0.11,0.175,0.172,0.255
		c0.218,0.277,0.391,0.745,0.673,0.777c0.257,0.037,0.611-0.44,0.96-0.615c0.593-0.296,0.514-0.662,0.291-1.038
		C294.717,498.408,294.118,498.291,293.317,498.67 M292.097,502.992c0.118,0.25,0.298,0.629,0.472,1.011
		c0.385,0.847,0.761,1.696,1.155,2.542c0.13,0.274,0.307,0.34,0.729,0.266c1.737-0.295,3.189-1.262,4.748-1.965
		c1.326-0.595,2.579-1.37,3.926-1.896c0.766-0.299,0.673-0.579,0.452-1.021c-0.319-0.628-0.629-1.265-0.991-1.868
		c-0.298-0.505-0.639-0.983-1.021-1.429c-0.116-0.143-0.462-0.246-0.644-0.18c-0.953,0.338-1.903,0.699-2.825,1.113
		c-0.665,0.303-1.283,0.708-1.929,1.056c-0.244,0.134-0.515,0.218-0.753,0.359C294.339,501.622,293.269,502.28,292.097,502.992
		 M294.619,508.243c0.792,1.57,1.669,2.981,2.226,4.514c0.478,1.312,1.01,2.57,1.768,3.739c0.087,0.137,0.333,0.326,0.43,0.287
		c1.154-0.467,2.292-0.97,3.436-1.461c1.298-0.562,2.6-1.117,3.894-1.687c0.61-0.268,1.227-0.537,1.8-0.87
		c0.169-0.097,0.336-0.471,0.275-0.62c-0.26-0.634-0.612-1.233-0.919-1.85c-0.472-0.946-0.949-1.892-1.4-2.844
		c-0.517-1.097-0.985-2.211-1.514-3.302c-0.228-0.468-0.575-0.463-1.065-0.101c-0.258,0.191-0.527,0.388-0.819,0.508
		c-0.972,0.396-1.968,0.725-2.932,1.142c-0.927,0.399-1.827,0.865-2.735,1.311C296.228,507.422,295.403,507.848,294.619,508.243
		 M297.465,498.444c-0.753-0.853-0.662-1.182,0.464-1.748c0.455-0.225,0.923-0.425,1.38-0.646c0.494-0.244,0.874-0.15,1.058,0.273
		c0.234,0.548,0.671,0.685,1.272,0.559c0.715-0.145,1.044,0.142,1.309,0.709c0.423,0.898,0.999,1.731,1.471,2.615
		c0.677,1.258,1.358,2.514,1.966,3.806c0.395,0.845,0.654,1.744,0.983,2.618c0.249,0.663,0.5,1.325,0.775,1.974
		c0.058,0.143,0.226,0.234,0.325,0.358c0.185,0.242,0.502,0.475,0.505,0.733c0.004,0.688,0.472,1.099,0.797,1.603
		c0.208,0.321,0.454,0.642,0.544,0.999c0.047,0.185-0.151,0.537-0.348,0.676c-1.422,0.999-2.97,1.782-4.592,2.419
		c-0.826,0.32-1.677,0.582-2.484,0.946c-0.704,0.312-1.353,0.744-2.047,1.082c-0.846,0.408-1.719,0.771-2.573,1.156
		c-0.509,0.235-1.16-0.161-1.141-0.694c0.032-0.946-0.456-1.687-0.914-2.441c-0.094-0.156-0.183-0.315-0.254-0.481
		c-0.443-1.055-0.885-2.106-1.32-3.164c-0.524-1.271-0.984-2.575-1.575-3.816c-0.505-1.069-1.182-2.056-1.733-3.105
		c-0.282-0.536-0.587-1.007-0.642-1.729c-0.066-0.896,0.414-1.032,0.977-1.33c0.665-0.351,0.699-0.585,0.265-1.076
		c-0.691-0.774-0.909-1.712-0.032-2.811c0.04-0.05,0.096-0.101,0.155-0.129c0.662-0.296,1.329-0.57,1.983-0.875
		c0.654-0.307,1.64,0.371,2.081,0.954c0.147,0.195,0.243,0.425,0.379,0.628C296.78,498.933,297.096,498.904,297.465,498.444"/>
	<path fill="#FFFFFF" d="M926.038,398.259c-0.354-0.751-0.476-0.786-1.009-0.311c-0.076,0.069-0.172,0.111-0.254,0.173
		c-0.279,0.217-0.745,0.392-0.781,0.672c-0.031,0.257,0.441,0.61,0.617,0.96c0.296,0.594,0.665,0.516,1.039,0.292
		C926.298,399.656,926.415,399.059,926.038,398.259 M921.718,397.035c-0.254,0.118-0.634,0.3-1.017,0.473
		c-0.845,0.385-1.694,0.76-2.537,1.155c-0.275,0.13-0.343,0.309-0.268,0.729c0.298,1.737,1.263,3.189,1.966,4.747
		c0.595,1.329,1.37,2.581,1.894,3.929c0.299,0.764,0.583,0.672,1.021,0.452c0.631-0.32,1.267-0.629,1.871-0.991
		c0.502-0.3,0.982-0.642,1.431-1.021c0.14-0.118,0.241-0.464,0.178-0.645c-0.338-0.955-0.699-1.903-1.115-2.824
		c-0.301-0.666-0.707-1.284-1.057-1.932c-0.132-0.242-0.217-0.513-0.357-0.751C923.086,399.279,922.429,398.209,921.718,397.035
		 M916.463,399.558c-1.568,0.792-2.979,1.671-4.51,2.227c-1.312,0.476-2.573,1.009-3.739,1.768c-0.138,0.087-0.327,0.335-0.29,0.43
		c0.466,1.154,0.969,2.293,1.461,3.434c0.562,1.3,1.116,2.603,1.688,3.898c0.268,0.607,0.539,1.225,0.873,1.798
		c0.096,0.168,0.467,0.337,0.617,0.275c0.635-0.26,1.231-0.613,1.849-0.921c0.945-0.472,1.89-0.948,2.845-1.397
		c1.097-0.518,2.211-0.988,3.299-1.517c0.468-0.228,0.466-0.575,0.103-1.066c-0.192-0.258-0.386-0.524-0.506-0.814
		c-0.397-0.975-0.727-1.971-1.142-2.933c-0.4-0.929-0.867-1.827-1.314-2.736C917.283,401.167,916.86,400.343,916.463,399.558
		 M926.262,402.403c0.854-0.751,1.18-0.659,1.747,0.466c0.229,0.453,0.426,0.925,0.649,1.38c0.244,0.493,0.147,0.872-0.277,1.058
		c-0.546,0.234-0.68,0.672-0.558,1.272c0.147,0.714-0.14,1.045-0.707,1.31c-0.9,0.423-1.731,0.996-2.614,1.472
		c-1.259,0.675-2.517,1.357-3.809,1.965c-0.841,0.394-1.746,0.653-2.619,0.983c-0.661,0.249-1.32,0.499-1.973,0.774
		c-0.143,0.058-0.232,0.226-0.359,0.324c-0.238,0.186-0.474,0.505-0.731,0.505c-0.689,0.004-1.099,0.472-1.602,0.799
		c-0.32,0.206-0.64,0.453-1.001,0.543c-0.182,0.048-0.537-0.151-0.673-0.348c-1.001-1.422-1.782-2.969-2.419-4.593
		c-0.323-0.824-0.587-1.674-0.946-2.483c-0.312-0.702-0.745-1.354-1.083-2.047c-0.409-0.845-0.771-1.718-1.156-2.572
		c-0.233-0.509,0.159-1.161,0.695-1.142c0.942,0.032,1.686-0.457,2.438-0.914c0.157-0.094,0.317-0.184,0.483-0.254
		c1.055-0.443,2.109-0.886,3.165-1.318c1.271-0.524,2.573-0.986,3.813-1.577c1.068-0.505,2.059-1.179,3.107-1.732
		c0.535-0.281,1.009-0.589,1.726-0.642c0.899-0.067,1.035,0.411,1.335,0.976c0.351,0.665,0.583,0.697,1.072,0.265
		c0.774-0.69,1.714-0.907,2.81-0.033c0.053,0.042,0.104,0.097,0.13,0.158c0.296,0.658,0.571,1.326,0.877,1.982
		c0.306,0.654-0.371,1.639-0.956,2.08c-0.194,0.147-0.426,0.243-0.628,0.382C925.776,401.72,925.804,402.036,926.262,402.403"/>
	<path fill="#FFFFFF" d="M614.966,27.453c-0.354-0.751-0.476-0.786-1.009-0.311c-0.076,0.069-0.172,0.111-0.254,0.173
		c-0.279,0.217-0.745,0.392-0.781,0.672c-0.031,0.257,0.441,0.61,0.617,0.96c0.296,0.594,0.665,0.516,1.039,0.292
		C615.226,28.85,615.343,28.252,614.966,27.453 M610.646,26.229c-0.254,0.118-0.634,0.3-1.017,0.473
		c-0.845,0.385-1.694,0.76-2.537,1.155c-0.275,0.13-0.343,0.309-0.268,0.729c0.298,1.737,1.263,3.189,1.966,4.747
		c0.595,1.329,1.37,2.581,1.894,3.929c0.299,0.764,0.583,0.672,1.021,0.452c0.631-0.32,1.267-0.629,1.871-0.991
		c0.502-0.3,0.982-0.642,1.431-1.021c0.14-0.118,0.241-0.464,0.178-0.645c-0.338-0.955-0.699-1.903-1.115-2.824
		c-0.301-0.666-0.707-1.284-1.057-1.932c-0.132-0.242-0.217-0.513-0.357-0.751C612.014,28.473,611.356,27.403,610.646,26.229
		 M605.391,28.751c-1.568,0.792-2.979,1.671-4.51,2.227c-1.312,0.476-2.573,1.009-3.739,1.768c-0.138,0.087-0.327,0.335-0.29,0.43
		c0.466,1.154,0.969,2.293,1.461,3.434c0.562,1.3,1.116,2.603,1.688,3.898c0.268,0.607,0.539,1.225,0.873,1.798
		c0.096,0.168,0.467,0.337,0.617,0.275c0.635-0.26,1.231-0.613,1.849-0.921c0.945-0.472,1.89-0.948,2.845-1.397
		c1.097-0.518,2.211-0.988,3.299-1.517c0.468-0.228,0.466-0.575,0.103-1.066c-0.192-0.258-0.386-0.524-0.506-0.814
		c-0.397-0.975-0.727-1.971-1.142-2.933c-0.4-0.929-0.867-1.827-1.314-2.736C606.211,30.361,605.788,29.537,605.391,28.751
		 M615.189,31.597c0.854-0.751,1.18-0.659,1.747,0.466c0.229,0.453,0.426,0.925,0.649,1.38c0.244,0.493,0.147,0.872-0.277,1.058
		c-0.546,0.234-0.68,0.672-0.558,1.272c0.147,0.714-0.14,1.045-0.707,1.31c-0.9,0.423-1.731,0.996-2.614,1.472
		c-1.259,0.675-2.517,1.357-3.809,1.965c-0.841,0.394-1.746,0.653-2.619,0.983c-0.661,0.249-1.32,0.499-1.973,0.774
		c-0.143,0.058-0.232,0.226-0.359,0.324c-0.238,0.186-0.474,0.505-0.731,0.505c-0.689,0.004-1.099,0.472-1.602,0.799
		c-0.32,0.206-0.64,0.453-1.001,0.543c-0.182,0.048-0.537-0.151-0.673-0.348c-1.001-1.422-1.782-2.969-2.419-4.593
		c-0.323-0.824-0.587-1.674-0.946-2.483c-0.312-0.702-0.745-1.354-1.083-2.047c-0.409-0.845-0.771-1.718-1.156-2.572
		c-0.233-0.509,0.159-1.161,0.695-1.142c0.942,0.032,1.686-0.457,2.438-0.914c0.157-0.094,0.317-0.184,0.483-0.254
		c1.055-0.443,2.109-0.886,3.165-1.318c1.271-0.524,2.573-0.986,3.813-1.577c1.068-0.505,2.059-1.179,3.107-1.732
		c0.535-0.281,1.009-0.589,1.726-0.642c0.899-0.067,1.035,0.411,1.335,0.976c0.351,0.665,0.583,0.697,1.072,0.265
		c0.774-0.69,1.714-0.907,2.81-0.033c0.053,0.042,0.104,0.097,0.13,0.158c0.296,0.658,0.571,1.326,0.877,1.982
		c0.306,0.654-0.371,1.639-0.956,2.08c-0.194,0.147-0.426,0.243-0.628,0.382C614.704,30.914,614.731,31.23,615.189,31.597"/>
	<path fill="#FFFFFF" d="M662.035,439.453c0.05,0.828,0.146,0.907,0.818,0.662c0.096-0.034,0.2-0.037,0.302-0.063
		c0.34-0.096,0.839-0.083,0.977-0.333c0.126-0.229-0.182-0.732-0.212-1.123c-0.054-0.659-0.425-0.725-0.858-0.655
		C662.322,438.059,661.983,438.569,662.035,439.453 M665.586,442.205c0.277-0.017,0.697-0.041,1.117-0.062
		c0.929-0.038,1.855-0.066,2.786-0.117c0.304-0.017,0.431-0.157,0.522-0.574c0.376-1.723,0.021-3.43-0.046-5.139
		c-0.058-1.456-0.303-2.906-0.285-4.355c0.01-0.82-0.284-0.841-0.775-0.794c-0.705,0.054-1.412,0.106-2.106,0.216
		c-0.579,0.086-1.154,0.226-1.708,0.407c-0.176,0.059-0.396,0.341-0.407,0.533c-0.046,1.008-0.064,2.028-0.026,3.036
		c0.034,0.728,0.176,1.453,0.258,2.182c0.034,0.278,0.008,0.562,0.05,0.832C665.159,439.61,665.362,440.848,665.586,442.205
		 M671.4,441.834c1.752-0.15,3.39-0.432,5.021-0.374c1.39,0.047,2.76,0.024,4.126-0.238c0.158-0.032,0.43-0.19,0.43-0.291
		c0-1.244-0.04-2.49-0.072-3.731c-0.032-1.416-0.058-2.831-0.1-4.242c-0.021-0.67-0.042-1.341-0.134-1.999
		c-0.028-0.19-0.312-0.486-0.474-0.486c-0.683,0.003-1.37,0.108-2.057,0.162c-1.059,0.083-2.111,0.171-3.162,0.229
		c-1.21,0.07-2.423,0.087-3.629,0.171c-0.518,0.038-0.647,0.359-0.493,0.949c0.079,0.308,0.163,0.634,0.163,0.95
		c0.004,1.045-0.063,2.095-0.038,3.143c0.022,1.012,0.116,2.021,0.192,3.027C671.24,440.031,671.328,440.955,671.4,441.834
		 M663.383,435.521c-1.074,0.38-1.344,0.171-1.447-1.082c-0.042-0.508-0.047-1.016-0.084-1.524c-0.042-0.55,0.191-0.861,0.652-0.874
		c0.596-0.018,0.883-0.37,0.991-0.975c0.134-0.716,0.521-0.915,1.146-0.95c0.994-0.053,1.981-0.274,2.976-0.383
		c1.422-0.153,2.845-0.316,4.269-0.395c0.929-0.051,1.867,0.045,2.794,0.07c0.709,0.017,1.416,0.029,2.123,0.017
		c0.156,0,0.302-0.121,0.456-0.166c0.287-0.084,0.623-0.287,0.868-0.193c0.64,0.256,1.192-0.023,1.784-0.136
		c0.375-0.076,0.761-0.185,1.132-0.134c0.184,0.026,0.438,0.342,0.491,0.579c0.396,1.69,0.542,3.419,0.52,5.16
		c-0.008,0.886-0.082,1.776-0.048,2.659c0.024,0.768,0.182,1.533,0.231,2.303c0.068,0.938,0.076,1.883,0.112,2.82
		c0.025,0.562-0.581,1.015-1.07,0.794c-0.865-0.382-1.736-0.208-2.606-0.062c-0.178,0.023-0.362,0.05-0.546,0.054
		c-1.141,0.016-2.285,0.029-3.425,0.037c-1.376,0.009-2.757-0.053-4.127,0.03c-1.179,0.07-2.349,0.324-3.531,0.445
		c-0.601,0.062-1.154,0.165-1.841-0.055c-0.854-0.275-0.804-0.767-0.867-1.403c-0.078-0.749-0.281-0.866-0.896-0.646
		c-0.981,0.346-1.93,0.195-2.621-1.024c-0.029-0.058-0.058-0.129-0.063-0.191c-0.024-0.725-0.028-1.448-0.066-2.17
		c-0.042-0.721,0.959-1.378,1.662-1.569c0.237-0.062,0.487-0.067,0.729-0.116C663.575,436.338,663.671,436.037,663.383,435.521"/>
	<path fill="#FFFFFF" d="M52.392,375.941c-0.004-0.012-0.01-0.021-0.014-0.029c-0.114,0.074-0.224,0.155-0.342,0.229
		c-0.437,0.274-0.603,0.604-0.179,1.021c0.203,0.199,0.519,0.328,0.631,0.561c0.295,0.609,0.699,0.451,1.099,0.21
		c0.345-0.21,0.68-0.463,0.959-0.758c0.795-0.825,1.679-1.471,2.797-1.82c0.312-0.095,0.755-0.512,0.739-0.763
		c-0.021-0.42-0.324-0.85-0.574-1.236c-0.177-0.275-0.906-0.299-1.146-0.104c-0.503,0.408-0.987,0.85-1.525,1.208
		C54.044,374.983,53.209,375.45,52.392,375.941 M59.35,373.989c0.419,0.952,0.012,1.66-0.987,1.997
		c-0.938,0.317-1.81,0.759-2.548,1.45c-0.847,0.799-1.731,1.558-2.702,2.423c-0.287-0.171-0.68-0.365-1.033-0.615
		c-0.371-0.264-1.083-0.029-1.398,0.471c-0.079,0.123-0.25,0.2-0.391,0.283c-0.115,0.062-0.286,0.066-0.362,0.152
		c-0.418,0.472-0.842,0.938-1.2,1.45c-0.118,0.166-0.112,0.482-0.059,0.708c0.213,0.875,0.772,1.545,1.344,2.219
		c0.73,0.854,1.424,1.744,2.096,2.644c0.157,0.213,0.222,0.547,0.213,0.821c-0.007,0.154-0.256,0.43-0.386,0.425
		c-0.279-0.013-0.687-0.087-0.808-0.284c-0.842-1.344-1.791-2.609-2.75-3.867c-0.397-0.521-0.693-1.116-1.083-1.641
		c-0.388-0.528,0.044-1.083-0.117-1.607c-0.01-0.033,0.058-0.1,0.102-0.134c0.704-0.507,1.424-0.989,2.112-1.524
		c0.511-0.395,0.98-0.853,1.501-1.311c-0.281-0.357-0.59-0.679-0.813-1.054c-0.096-0.162-0.117-0.533-0.007-0.628
		c0.328-0.3,0.735-0.514,1.111-0.764c0.211-0.146,0.416-0.295,0.629-0.436c1.098-0.726,2.198-1.446,3.292-2.179
		c0.094-0.059,0.168-0.153,0.23-0.245c0.742-1.133,2.066-1.271,2.973-0.305c0.204,0.217,0.37,0.334,0.688,0.1
		c0.739-0.545,1.518-1.036,2.287-1.544c0.525-0.351,1.064-0.675,1.589-1.023c0.207-0.142,0.402-0.31,0.575-0.491
		c0.836-0.875,1.645-0.713,2.395,0.152c0.985,1.125,1.763,2.403,2.46,3.731c0.26,0.491,0.669,0.907,0.968,1.386
		c0.136,0.222,0.243,0.504,0.226,0.755c-0.015,0.228-0.2,0.624-0.334,0.631c-0.289,0.026-0.732-0.062-0.868-0.265
		c-0.641-0.961-1.201-1.979-1.793-2.973c-0.439-0.739-0.709-1.578-1.393-2.162c-0.328-0.278-0.58-0.491-1.048-0.153
		c-1.267,0.903-2.584,1.731-3.865,2.615C59.874,373.418,59.616,373.735,59.35,373.989"/>
	<path fill="#FFFFFF" d="M908.766,519.656c-0.005-0.012-0.013-0.021-0.017-0.029c-0.113,0.074-0.224,0.155-0.342,0.229
		c-0.437,0.275-0.601,0.604-0.178,1.021c0.202,0.2,0.518,0.329,0.63,0.562c0.295,0.609,0.701,0.45,1.098,0.21
		c0.346-0.21,0.682-0.464,0.961-0.758c0.795-0.825,1.68-1.472,2.797-1.821c0.312-0.095,0.755-0.511,0.74-0.762
		c-0.021-0.42-0.325-0.85-0.575-1.236c-0.176-0.275-0.904-0.3-1.146-0.104c-0.503,0.408-0.986,0.85-1.523,1.208
		C910.417,518.698,909.582,519.165,908.766,519.656 M915.722,517.704c0.42,0.952,0.012,1.66-0.986,1.997
		c-0.939,0.317-1.812,0.759-2.549,1.45c-0.847,0.799-1.731,1.558-2.702,2.423c-0.288-0.171-0.68-0.366-1.033-0.615
		c-0.371-0.264-1.082-0.029-1.397,0.47c-0.08,0.124-0.25,0.201-0.392,0.284c-0.116,0.062-0.286,0.066-0.361,0.152
		c-0.42,0.472-0.843,0.938-1.201,1.45c-0.117,0.166-0.111,0.482-0.058,0.708c0.214,0.875,0.771,1.545,1.345,2.219
		c0.729,0.854,1.424,1.744,2.095,2.644c0.158,0.213,0.222,0.546,0.214,0.821c-0.008,0.154-0.258,0.429-0.388,0.424
		c-0.277-0.012-0.687-0.087-0.807-0.283c-0.843-1.345-1.792-2.609-2.75-3.868c-0.397-0.521-0.693-1.115-1.085-1.64
		c-0.388-0.528,0.046-1.083-0.116-1.607c-0.01-0.033,0.059-0.101,0.103-0.134c0.703-0.508,1.424-0.99,2.111-1.524
		c0.511-0.396,0.98-0.853,1.502-1.311c-0.282-0.358-0.59-0.679-0.813-1.054c-0.096-0.162-0.118-0.533-0.008-0.629
		c0.329-0.299,0.735-0.513,1.11-0.763c0.212-0.146,0.416-0.296,0.629-0.437c1.099-0.725,2.199-1.446,3.292-2.178
		c0.094-0.059,0.17-0.154,0.231-0.246c0.741-1.132,2.065-1.27,2.972-0.305c0.204,0.217,0.372,0.335,0.689,0.101
		c0.739-0.546,1.518-1.037,2.287-1.544c0.523-0.351,1.062-0.676,1.588-1.023c0.208-0.143,0.403-0.31,0.575-0.492
		c0.837-0.874,1.644-0.713,2.395,0.153c0.984,1.124,1.764,2.402,2.461,3.73c0.26,0.492,0.669,0.908,0.967,1.387
		c0.136,0.222,0.243,0.504,0.228,0.755c-0.017,0.228-0.202,0.624-0.336,0.631c-0.287,0.026-0.73-0.062-0.866-0.265
		c-0.642-0.962-1.203-1.979-1.794-2.973c-0.439-0.739-0.709-1.578-1.393-2.162c-0.329-0.278-0.581-0.491-1.048-0.154
		c-1.267,0.904-2.585,1.732-3.865,2.616C916.245,517.133,915.987,517.45,915.722,517.704"/>
	<path fill="#FFFFFF" d="M575.563,340.778c-0.005-0.012-0.013-0.021-0.017-0.029c-0.113,0.074-0.224,0.155-0.342,0.229
		c-0.437,0.275-0.601,0.604-0.178,1.021c0.202,0.2,0.518,0.329,0.63,0.562c0.295,0.609,0.701,0.45,1.098,0.21
		c0.346-0.21,0.682-0.464,0.961-0.758c0.795-0.825,1.68-1.472,2.797-1.821c0.312-0.095,0.755-0.511,0.74-0.762
		c-0.021-0.42-0.325-0.85-0.575-1.236c-0.176-0.275-0.904-0.3-1.146-0.104c-0.503,0.408-0.986,0.85-1.523,1.208
		C577.215,339.82,576.38,340.287,575.563,340.778 M582.52,338.826c0.42,0.952,0.012,1.66-0.986,1.997
		c-0.939,0.317-1.812,0.759-2.549,1.45c-0.847,0.799-1.731,1.558-2.702,2.423c-0.288-0.171-0.68-0.366-1.033-0.615
		c-0.371-0.264-1.082-0.029-1.397,0.47c-0.08,0.124-0.25,0.201-0.392,0.284c-0.116,0.062-0.286,0.066-0.361,0.152
		c-0.42,0.472-0.843,0.938-1.201,1.45c-0.117,0.166-0.111,0.482-0.058,0.708c0.214,0.875,0.771,1.545,1.345,2.219
		c0.729,0.854,1.424,1.744,2.095,2.644c0.158,0.213,0.222,0.546,0.214,0.821c-0.008,0.154-0.258,0.429-0.388,0.424
		c-0.277-0.012-0.687-0.087-0.807-0.283c-0.843-1.345-1.792-2.609-2.75-3.868c-0.397-0.521-0.693-1.115-1.085-1.64
		c-0.388-0.528,0.046-1.083-0.116-1.607c-0.01-0.033,0.059-0.101,0.103-0.134c0.703-0.508,1.424-0.99,2.111-1.524
		c0.511-0.396,0.98-0.853,1.502-1.311c-0.282-0.358-0.59-0.679-0.813-1.054c-0.096-0.162-0.118-0.533-0.008-0.629
		c0.329-0.299,0.735-0.513,1.11-0.763c0.212-0.146,0.416-0.296,0.629-0.437c1.099-0.725,2.199-1.446,3.292-2.178
		c0.094-0.059,0.17-0.154,0.231-0.246c0.741-1.132,2.065-1.27,2.972-0.305c0.204,0.217,0.372,0.335,0.689,0.101
		c0.739-0.546,1.518-1.037,2.287-1.544c0.523-0.351,1.062-0.676,1.588-1.023c0.208-0.143,0.403-0.31,0.575-0.492
		c0.837-0.874,1.644-0.713,2.395,0.153c0.984,1.124,1.764,2.402,2.461,3.73c0.26,0.492,0.669,0.908,0.967,1.387
		c0.136,0.222,0.243,0.504,0.228,0.755c-0.017,0.228-0.202,0.624-0.336,0.631c-0.287,0.026-0.73-0.062-0.866-0.265
		c-0.642-0.962-1.203-1.979-1.794-2.973c-0.439-0.739-0.709-1.578-1.393-2.162c-0.329-0.278-0.581-0.491-1.048-0.154
		c-1.267,0.904-2.585,1.732-3.865,2.616C583.043,338.255,582.785,338.572,582.52,338.826"/>
	<path fill="#FFFFFF" d="M94.111,25.056c-0.004-0.011-0.01-0.02-0.015-0.028c-0.113,0.078-0.224,0.155-0.341,0.229
		c-0.437,0.275-0.602,0.604-0.179,1.023c0.203,0.196,0.519,0.325,0.631,0.559c0.295,0.611,0.7,0.45,1.099,0.208
		c0.345-0.208,0.68-0.462,0.959-0.756c0.796-0.825,1.681-1.472,2.797-1.821c0.311-0.096,0.755-0.513,0.739-0.761
		c-0.021-0.421-0.324-0.851-0.574-1.236c-0.177-0.274-0.905-0.299-1.146-0.106c-0.503,0.408-0.988,0.849-1.524,1.208
		C95.764,24.1,94.928,24.567,94.111,25.056 M101.068,23.103c0.419,0.956,0.013,1.666-0.987,2.001
		c-0.935,0.316-1.81,0.757-2.548,1.45c-0.846,0.798-1.731,1.556-2.702,2.422c-0.287-0.171-0.679-0.367-1.033-0.616
		c-0.371-0.262-1.083-0.026-1.398,0.47c-0.079,0.127-0.25,0.203-0.39,0.283c-0.115,0.064-0.286,0.068-0.363,0.156
		c-0.418,0.469-0.842,0.936-1.2,1.448c-0.118,0.169-0.111,0.483-0.059,0.708c0.214,0.875,0.772,1.545,1.344,2.22
		c0.731,0.853,1.425,1.744,2.096,2.644c0.157,0.215,0.222,0.548,0.213,0.82c-0.007,0.155-0.256,0.429-0.386,0.425
		c-0.278-0.012-0.687-0.088-0.807-0.284c-0.842-1.344-1.792-2.608-2.751-3.869c-0.396-0.519-0.693-1.114-1.083-1.64
		c-0.387-0.529,0.044-1.083-0.116-1.608c-0.011-0.031,0.057-0.1,0.102-0.131c0.703-0.508,1.424-0.994,2.111-1.526
		c0.511-0.396,0.98-0.852,1.502-1.311c-0.282-0.357-0.591-0.679-0.814-1.055c-0.096-0.162-0.115-0.531-0.006-0.628
		c0.328-0.299,0.736-0.514,1.11-0.762c0.212-0.144,0.416-0.295,0.629-0.438c1.098-0.724,2.198-1.446,3.292-2.175
		c0.093-0.061,0.169-0.157,0.23-0.25c0.742-1.131,2.066-1.266,2.974-0.3c0.203,0.212,0.37,0.331,0.687,0.1
		c0.741-0.547,1.518-1.039,2.287-1.547c0.525-0.35,1.064-0.674,1.589-1.024c0.207-0.141,0.403-0.308,0.576-0.492
		c0.836-0.874,1.644-0.712,2.394,0.152c0.985,1.129,1.763,2.405,2.46,3.731c0.26,0.496,0.669,0.911,0.968,1.389
		c0.137,0.221,0.244,0.504,0.227,0.754c-0.015,0.229-0.2,0.625-0.334,0.633c-0.288,0.024-0.732-0.063-0.868-0.268
		c-0.641-0.961-1.2-1.978-1.792-2.972c-0.439-0.737-0.71-1.578-1.393-2.161c-0.329-0.279-0.58-0.489-1.048-0.154
		c-1.267,0.903-2.584,1.732-3.866,2.615C101.593,22.537,101.335,22.851,101.068,23.103"/>
	<path fill="#FFFFFF" d="M744.986,45.875c0.011-0.009,0.013-0.013,0.022-0.023c-0.114-0.082-0.226-0.157-0.334-0.24
		c-0.407-0.319-0.774-0.361-1.021,0.179c-0.119,0.259-0.128,0.598-0.312,0.783c-0.476,0.487-0.184,0.812,0.178,1.104
		c0.317,0.253,0.671,0.481,1.037,0.645c1.05,0.465,1.963,1.073,2.67,2.003c0.2,0.262,0.741,0.537,0.971,0.437
		c0.388-0.167,0.691-0.595,0.967-0.962c0.193-0.262-0.03-0.953-0.294-1.114c-0.557-0.334-1.136-0.636-1.655-1.021
		C746.449,47.101,745.728,46.473,744.986,45.875 M749.201,51.746c-0.753,0.721-1.556,0.581-2.219-0.246
		c-0.617-0.771-1.328-1.441-2.233-1.896c-1.041-0.523-2.054-1.095-3.202-1.71c0.062-0.33,0.114-0.766,0.23-1.184
		c0.115-0.437-0.346-1.029-0.925-1.15c-0.146-0.032-0.273-0.169-0.396-0.274c-0.1-0.084-0.162-0.246-0.271-0.287
		c-0.582-0.23-1.167-0.47-1.768-0.632c-0.2-0.053-0.498,0.06-0.689,0.187c-0.749,0.502-1.19,1.253-1.624,2.023
		c-0.557,0.979-1.152,1.935-1.773,2.873c-0.146,0.221-0.432,0.396-0.695,0.479c-0.149,0.05-0.491-0.092-0.527-0.218
		c-0.088-0.266-0.155-0.673-0.014-0.855c0.979-1.249,1.84-2.575,2.694-3.908c0.354-0.55,0.812-1.033,1.175-1.579
		c0.361-0.545,1.028-0.329,1.47-0.659c0.024-0.019,0.107,0.02,0.158,0.052c0.717,0.487,1.42,1,2.152,1.462
		c0.55,0.345,1.137,0.629,1.75,0.961c0.235-0.382,0.438-0.785,0.711-1.124c0.116-0.146,0.457-0.292,0.587-0.221
		c0.396,0.204,0.737,0.515,1.099,0.783c0.204,0.148,0.418,0.292,0.621,0.441c1.057,0.783,2.115,1.57,3.172,2.351
		c0.088,0.064,0.206,0.104,0.313,0.128c1.316,0.312,1.899,1.508,1.303,2.692c-0.132,0.263-0.192,0.463,0.138,0.679
		c0.767,0.507,1.5,1.075,2.236,1.62c0.508,0.375,0.999,0.77,1.507,1.14c0.205,0.15,0.425,0.276,0.659,0.375
		c1.106,0.488,1.228,1.3,0.675,2.303c-0.726,1.311-1.654,2.477-2.667,3.589c-0.373,0.412-0.625,0.941-0.973,1.382
		c-0.155,0.204-0.391,0.401-0.629,0.471c-0.22,0.062-0.655,0.024-0.711-0.101c-0.118-0.263-0.189-0.708-0.044-0.904
		c0.679-0.933,1.446-1.807,2.179-2.703c0.542-0.666,1.24-1.207,1.553-2.046c0.149-0.403,0.264-0.714-0.212-1.042
		c-1.282-0.876-2.511-1.834-3.781-2.733C749.914,52.043,749.53,51.908,749.201,51.746"/>
	<path fill="#FFFFFF" d="M343.758,382.024c0.009-0.009,0.012-0.013,0.021-0.023c-0.113-0.081-0.226-0.156-0.333-0.239
		c-0.408-0.319-0.775-0.361-1.021,0.179c-0.121,0.259-0.129,0.599-0.312,0.783c-0.476,0.487-0.184,0.812,0.179,1.104
		c0.318,0.254,0.671,0.481,1.037,0.645c1.05,0.466,1.962,1.073,2.67,2.004c0.199,0.262,0.74,0.537,0.97,0.438
		c0.387-0.167,0.691-0.596,0.967-0.963c0.195-0.262-0.03-0.953-0.293-1.113c-0.557-0.335-1.136-0.637-1.657-1.021
		C345.22,383.25,344.499,382.623,343.758,382.024 M347.972,387.896c-0.753,0.721-1.557,0.581-2.219-0.246
		c-0.617-0.771-1.329-1.44-2.233-1.896c-1.041-0.522-2.053-1.094-3.202-1.71c0.062-0.33,0.113-0.767,0.229-1.184
		c0.116-0.437-0.347-1.028-0.925-1.15c-0.146-0.032-0.274-0.169-0.396-0.273c-0.101-0.085-0.163-0.246-0.271-0.287
		c-0.582-0.23-1.167-0.47-1.769-0.632c-0.2-0.053-0.497,0.06-0.688,0.187c-0.749,0.502-1.19,1.253-1.624,2.023
		c-0.558,0.979-1.153,1.935-1.773,2.873c-0.146,0.221-0.433,0.396-0.695,0.479c-0.149,0.05-0.491-0.092-0.528-0.218
		c-0.088-0.266-0.155-0.673-0.013-0.854c0.978-1.25,1.839-2.576,2.694-3.908c0.354-0.55,0.812-1.032,1.173-1.579
		c0.362-0.545,1.03-0.328,1.47-0.659c0.025-0.019,0.108,0.021,0.158,0.053c0.717,0.487,1.421,0.999,2.153,1.462
		c0.55,0.344,1.138,0.629,1.75,0.96c0.236-0.382,0.437-0.784,0.712-1.123c0.116-0.146,0.458-0.292,0.586-0.221
		c0.396,0.204,0.737,0.516,1.1,0.783c0.204,0.147,0.417,0.291,0.62,0.441c1.058,0.782,2.115,1.569,3.173,2.351
		c0.088,0.063,0.205,0.104,0.312,0.128c1.316,0.312,1.899,1.508,1.303,2.692c-0.133,0.263-0.192,0.463,0.138,0.679
		c0.767,0.508,1.499,1.075,2.236,1.62c0.508,0.374,1,0.77,1.507,1.141c0.205,0.149,0.424,0.275,0.659,0.375
		c1.106,0.487,1.228,1.301,0.674,2.303c-0.725,1.312-1.654,2.477-2.665,3.59c-0.375,0.411-0.625,0.94-0.974,1.382
		c-0.155,0.204-0.391,0.401-0.629,0.472c-0.22,0.062-0.654,0.023-0.711-0.102c-0.118-0.263-0.189-0.708-0.043-0.903
		c0.679-0.933,1.445-1.807,2.178-2.702c0.542-0.666,1.242-1.208,1.553-2.047c0.15-0.402,0.263-0.714-0.213-1.041
		c-1.282-0.876-2.511-1.834-3.78-2.733C348.685,388.193,348.301,388.058,347.972,387.896"/>
	<path fill="#FFFFFF" d="M478.435,131.899c0-0.013-0.001-0.018-0.003-0.031c-0.137,0.028-0.268,0.059-0.401,0.08
		c-0.512,0.082-0.793,0.322-0.565,0.87c0.108,0.264,0.351,0.502,0.361,0.762c0.033,0.68,0.469,0.688,0.93,0.62
		c0.402-0.059,0.81-0.163,1.178-0.319c1.056-0.451,2.122-0.705,3.286-0.59c0.327,0.033,0.897-0.175,0.98-0.411
		c0.142-0.397,0.035-0.912-0.046-1.364c-0.059-0.321-0.718-0.628-1.015-0.544c-0.625,0.179-1.24,0.398-1.876,0.517
		C480.328,131.664,479.378,131.764,478.435,131.899 M485.604,132.813c0.015,1.042-0.635,1.536-1.691,1.457
		c-0.984-0.073-1.96-0.008-2.909,0.343c-1.091,0.406-2.199,0.759-3.433,1.18c-0.2-0.27-0.484-0.605-0.71-0.974
		c-0.241-0.382-0.989-0.447-1.472-0.107c-0.123,0.085-0.311,0.086-0.469,0.104c-0.131,0.016-0.291-0.049-0.396,0.003
		c-0.565,0.27-1.138,0.534-1.667,0.865c-0.175,0.11-0.295,0.404-0.332,0.63c-0.143,0.891,0.106,1.725,0.375,2.567
		c0.336,1.075,0.63,2.162,0.895,3.255c0.062,0.257-0.005,0.586-0.123,0.836c-0.065,0.143-0.402,0.297-0.519,0.238
		c-0.254-0.117-0.598-0.345-0.634-0.573c-0.25-1.567-0.633-3.102-1.026-4.635c-0.162-0.633-0.203-1.297-0.357-1.935
		c-0.152-0.637,0.461-0.978,0.519-1.525c0.003-0.031,0.088-0.065,0.146-0.08c0.845-0.193,1.699-0.36,2.537-0.58
		c0.626-0.169,1.235-0.405,1.895-0.627c-0.118-0.434-0.276-0.854-0.337-1.286c-0.027-0.185,0.098-0.535,0.237-0.58
		c0.419-0.151,0.88-0.189,1.322-0.271c0.247-0.049,0.498-0.107,0.747-0.154c1.292-0.241,2.59-0.48,3.881-0.721
		c0.106-0.021,0.216-0.08,0.307-0.142c1.125-0.751,2.398-0.364,2.859,0.879c0.102,0.276,0.208,0.457,0.591,0.362
		c0.895-0.216,1.808-0.365,2.709-0.534c0.62-0.117,1.245-0.208,1.861-0.326c0.249-0.048,0.491-0.124,0.724-0.227
		c1.11-0.478,1.789-0.013,2.146,1.075c0.466,1.424,0.686,2.898,0.812,4.396c0.046,0.554,0.262,1.099,0.349,1.654
		c0.043,0.252,0.026,0.56-0.084,0.782c-0.104,0.203-0.428,0.495-0.559,0.451c-0.273-0.092-0.646-0.344-0.69-0.584
		c-0.22-1.132-0.339-2.288-0.494-3.435c-0.119-0.85-0.039-1.731-0.441-2.531c-0.192-0.384-0.344-0.678-0.907-0.553
		c-1.515,0.342-3.053,0.589-4.575,0.905C486.307,132.495,485.945,132.684,485.604,132.813"/>
</g>
</svg>
