<?xml version="1.0" encoding="utf-8"?>
<!-- Generator: Adobe Illustrator 16.0.0, SVG Export Plug-In . SVG Version: 6.00 Build 0)  -->
<!DOCTYPE svg PUBLIC "-//W3C//DTD SVG 1.1//EN" "http://www.w3.org/Graphics/SVG/1.1/DTD/svg11.dtd">
<svg version="1.1" id="Layer_1" xmlns="http://www.w3.org/2000/svg" xmlns:xlink="http://www.w3.org/1999/xlink" x="0px" y="0px"
	 width="50px" height="50px" viewBox="0 0 50 50" enable-background="new 0 0 50 50" xml:space="preserve">
<rect x="-177" y="-18" fill="#FFFFFF" width="2776" height="88"/>
<path fill="#010101" d="M7.393,38.313c-0.716-0.446-0.925-1.09-0.785-2.043c0.27-0.39,0.656-0.669,1.13-0.765
	c0.089-0.021,0.181-0.038,0.273-0.043c2.211-0.096,4.41-0.531,6.629-0.452c0.458,0.02,0.918-0.064,1.472-0.107
	c0.127,0.063,0.339,0.169,0.493,0.243c0.217,0.3,0.237,0.583,0.239,0.881c0.008,1.206,0.008,1.206-0.322,1.837
	c-0.116,0.037-0.247,0.119-0.38,0.126C13.195,38.08,10.254,38.343,7.393,38.313"/>
<path fill="#010101" d="M20.543,37.547c-0.036-0.417-0.066-0.809-0.095-1.132c0.505-0.805,1.095-1.319,1.927-1.417
	c0.563,0.035,0.917,0.31,1.229,0.782c0.227,0.835,0.168,1.65-0.627,2.289C22.138,38.354,21.374,38.265,20.543,37.547"/>
<path fill="#010101" d="M28.224,38.247c-0.715-0.446-0.925-1.091-0.783-2.045c0.27-0.388,0.655-0.668,1.128-0.763
	c0.089-0.021,0.18-0.039,0.276-0.044c2.209-0.095,4.407-0.531,6.628-0.449c0.458,0.018,0.918-0.066,1.47-0.109
	c0.129,0.063,0.341,0.168,0.493,0.243c0.216,0.3,0.239,0.582,0.242,0.883c0.006,1.204,0.006,1.204-0.321,1.835
	c-0.12,0.038-0.249,0.12-0.385,0.126C34.03,38.013,31.087,38.277,28.224,38.247"/>
<path fill="#010101" d="M41.23,37.547c-0.035-0.417-0.067-0.809-0.095-1.132c0.505-0.805,1.096-1.319,1.927-1.417
	c0.563,0.035,0.917,0.31,1.229,0.782c0.228,0.835,0.168,1.65-0.626,2.289C42.825,38.354,42.061,38.265,41.23,37.547"/>
<path fill="#FBB041" d="M18.764,12.309c0.696-0.46,1.411-0.93,2.136-1.406c1.528-0.294,3.054-0.588,4.611-0.886
	c0.93,0.302,2.039,0.076,2.834,1.065c0.26,0.985,0.254,2.072,0.087,3.146c-0.043,0.279-0.285,0.528-0.386,0.703
	c-1.049,0.511-1.938,0.028-2.893-0.096c-0.723,0.131-1.488,0.268-2.343,0.421c-0.614,0.321-1.3,0.678-1.837,0.958
	c-1.069,0.9-1.014,2.053-1.264,3.09c0.325,1.362,0.131,2.844,1.181,4.117c0.625,0.502,1.353,1.085,2.092,1.675
	c0.983,0.309,1.979,0.375,3.131,0.131c0.35-0.205,0.818-0.475,1.287-0.75c0.565-0.158,1.078-0.12,1.506,0.476
	c0.165,1.012-0.123,2.086-0.066,3.03c-0.316,1.096-1.089,1.482-1.948,1.646c-0.759,0.143-1.546,0.141-2.321,0.164
	c-0.773,0.025-1.548,0.006-2.75,0.006c-2.158-0.537-3.971-2.188-5.322-4.37c-0.873-1.414-1.154-3.037-1.269-4.682
	c-0.096-1.35,0.149-2.602,0.742-3.841C17.012,14.743,16.964,14.721,18.764,12.309"/>
</svg>
