<?xml version="1.0" encoding="utf-8"?>
<!-- Generator: Adobe Illustrator 16.0.0, SVG Export Plug-In . SVG Version: 6.00 Build 0)  -->
<!DOCTYPE svg PUBLIC "-//W3C//DTD SVG 1.1//EN" "http://www.w3.org/Graphics/SVG/1.1/DTD/svg11.dtd">
<svg version="1.1" id="Layer_1" xmlns="http://www.w3.org/2000/svg" xmlns:xlink="http://www.w3.org/1999/xlink" x="0px" y="0px"
	 width="50px" height="50px" viewBox="0 0 50 50" enable-background="new 0 0 50 50" xml:space="preserve">
<rect x="-2697" y="-18" fill="#FFFFFF" width="2776" height="88"/>
<path fill="#010101" d="M22.795,38.508c-0.024-0.299-0.049-0.584-0.069-0.814c0.364-0.58,0.792-0.951,1.392-1.021
	c0.403,0.023,0.658,0.225,0.884,0.562c0.163,0.604,0.119,1.193-0.451,1.648C23.943,39.094,23.394,39.023,22.795,38.508"/>
<path fill="#010101" d="M26.984,38.566c-0.024-0.299-0.047-0.584-0.068-0.814c0.362-0.58,0.787-0.951,1.387-1.02
	c0.407,0.021,0.661,0.223,0.886,0.561c0.164,0.604,0.122,1.189-0.452,1.648C28.133,39.148,27.58,39.082,26.984,38.566"/>
<path fill="#010101" d="M40.733,38.857c-0.518-0.322-0.67-0.785-0.569-1.473c0.195-0.279,0.477-0.482,0.817-0.551
	c0.066-0.016,0.131-0.027,0.199-0.031c1.599-0.068,3.187-0.182,4.794-0.121c0.334,0.012,0.666-0.047,1.064-0.078
	c0.095,0.047,0.249,0.121,0.359,0.176c0.155,0.215,0.172,0.418,0.174,0.631c0.004,0.873,0.004,0.873-0.23,1.322
	c-0.087,0.031-0.183,0.092-0.28,0.094C44.932,38.891,42.803,38.879,40.733,38.857"/>
<path fill="#010101" d="M31.408,39.119c-0.518-0.322-0.67-0.785-0.567-1.473c0.195-0.279,0.474-0.48,0.817-0.553
	c0.064-0.012,0.132-0.027,0.197-0.027c1.601-0.072,3.189-0.383,4.796-0.326c0.332,0.014,0.666-0.047,1.065-0.08
	c0.094,0.047,0.246,0.125,0.357,0.178c0.155,0.215,0.172,0.418,0.172,0.633c0.008,0.871,0.008,0.871-0.23,1.322
	c-0.085,0.029-0.18,0.09-0.277,0.09C35.609,38.951,33.48,39.139,31.408,39.119"/>
<path fill="#010101" d="M14.071,39.059c-0.521-0.32-0.671-0.783-0.57-1.471c0.195-0.279,0.477-0.482,0.818-0.553
	c0.067-0.014,0.131-0.025,0.198-0.029c1.598-0.07,3.188-0.381,4.794-0.324c0.334,0.012,0.415,0.207,0.815,0.176
	c0.094,0.045,0.244,0.121,0.359,0.176c0.156,0.213,0.17,0.416,0.172,0.631c0.005,0.871,0.005,0.871-0.231,1.324
	c-0.087,0.027-0.179,0.086-0.275,0.092C18.02,39.145,16.141,39.082,14.071,39.059"/>
<path fill="#010101" d="M4.939,39.059c-0.517-0.32-0.67-0.783-0.568-1.471c0.197-0.279,0.476-0.482,0.817-0.553
	c0.065-0.014,0.134-0.025,0.198-0.029c1.6-0.07,2.939-0.145,4.545-0.088c0.334,0.014,0.663-0.049,1.065-0.078
	c0.095,0.045,0.247,0.121,0.356,0.176c0.156,0.213,0.172,0.418,0.174,0.633c0.007,0.871,0.007,0.871-0.232,1.322
	c-0.084,0.029-0.18,0.088-0.275,0.092C8.887,39.127,7.008,39.082,4.939,39.059"/>
<path fill="#FBB041" d="M22.726,26.646c0.041-0.133,0.726-1.715,0.829-2.04c0.253-0.761,0.515-1.517,0.771-2.276
	c0.268-0.816,1.091-1.548,1.81-1.574c0.476-0.018,0.81,0.178,1.178,0.548c0.876,0.897,1.021,1.739,0.309,2.812
	c-0.395,0.589-1.186,2.565-1.469,3.231c-0.331,0.758-0.975,1.182-1.729,1.139C23.682,28.438,22.741,27.534,22.726,26.646"/>
</svg>
