<?xml version="1.0" encoding="utf-8"?>
<!-- Generator: Adobe Illustrator 16.0.0, SVG Export Plug-In . SVG Version: 6.00 Build 0)  -->
<!DOCTYPE svg PUBLIC "-//W3C//DTD SVG 1.1//EN" "http://www.w3.org/Graphics/SVG/1.1/DTD/svg11.dtd">
<svg version="1.1" id="Layer_1" xmlns="http://www.w3.org/2000/svg" xmlns:xlink="http://www.w3.org/1999/xlink" x="0px" y="0px"
	 width="288.229px" height="136px" viewBox="0 0 288.229 136" enable-background="new 0 0 288.229 136" xml:space="preserve">
<g>
	<g>
		<path fill="#FFFFFF" d="M27.686,82.051c-5.844-2.577-10.504-11.742-10.61-20.877c-0.062-4.998,1.255-14.047,10.748-18.513
			c11.488-5.399,16.59-1.123,16.807-0.934c-0.113-0.102-0.164-0.159-0.164-0.159l9.301-9.148c-0.535-0.545-3.492-3.336-8.958-4.739
			c-4.666-1.192-12.365-1.606-22.535,3.169C10.509,36.386,3.859,47.494,4.026,61.332c0.172,14.294,7.903,28.033,18.386,32.66
			c7.587,3.345,14.19,4.563,19.776,4.563c14.481,0,22.166-8.171,22.602-8.646l-9.637-8.798
			C55.067,81.203,46.139,90.193,27.686,82.051"/>
		<path fill="#FFFFFF" d="M118.222,48.038c0-0.594,0.003-1.191,0.01-1.777c0.026-3.504,0.059-7.129-0.514-10.892l-12.899,1.959
			c0.412,2.743,0.389,5.693,0.366,8.823c-0.007,0.619-0.013,1.237-0.013,1.855c-0.007,2.396,0.124,4.976,0.261,7.709
			c0.454,9.11,1.017,20.449-3.923,25.336c-2.222,2.197-5.884,3.216-9.794,2.726c-4.063-0.507-7.514-2.514-9.231-5.364
			c-1.383-2.291-3.858-10.777,1.183-22.371c5.36-12.301,7.754-28.162,1.045-35.874c-4.527-5.199-16.007-6.567-23.471-0.465
			l8.257,10.098c1.716-1.401,4.433-1.196,5.554-0.773c1.107,2.156,1.598,10.45-3.345,21.808
			c-6.106,14.026-4.603,27.339-0.404,34.308c3.773,6.255,10.793,10.584,18.79,11.584c1.209,0.153,2.406,0.228,3.59,0.228
			c6.596,0,12.655-2.33,16.997-6.621c9.09-8.986,8.362-23.557,7.784-35.268C118.339,52.508,118.215,50.097,118.222,48.038"/>
		<path fill="#FFFFFF" d="M140.837,49.348l0.014-0.8c0.124-6.47,0.261-13.599-0.754-20.481c6.447-1.613,17.059-3.027,20.413,3.895
			c1.548,3.184,2.63,7.897,1.064,11.563c-1.058,2.466-3.361,4.358-6.85,5.639L140.837,49.348z M173.565,48.663
			c2.801-6.543,2.313-14.909-1.312-22.39c-8.243-17.017-30.385-13.502-42.168-8.75l-5.38,2.18l1.528,5.597
			c1.877,6.87,1.722,15.071,1.572,23.006l-0.036,2.135c-0.075,4.384-0.15,8.913,1.33,13.893c0.294,0.98,0.611,1.967,0.927,2.962
			c0.863,2.692,1.677,5.234,1.986,7.617c0.177,1.394-0.633,3.274-1.574,5.45c-0.258,0.596-0.516,1.193-0.761,1.797
			c-2.463,6.037-2.655,12.191-0.565,18.288l12.345-4.227c-1.081-3.157-0.99-5.974,0.3-9.127c0.21-0.521,0.435-1.04,0.658-1.553
			c1.417-3.276,3.178-7.345,2.537-12.307c-0.46-3.553-1.495-6.786-2.496-9.911c-0.097-0.322-0.202-0.638-0.303-0.949l3.445-0.044
			l24.553,30.052l10.102-8.256l-19.169-23.471C168.455,57.42,171.934,52.47,173.565,48.663"/>
		<path fill="#FFFFFF" d="M212.545,73.986c-0.025-3.295-0.268-8.193-2.046-12.694c-0.89-2.231-2.171-4.012-3.196-5.442
			c-0.727-1.017-1.357-1.893-1.65-2.618c-0.692-1.753-0.308-4.222,0.141-7.077c0.349-2.226,0.745-4.758,0.653-7.444l7.782-0.738
			l-1.227-12.987l-28.962,2.739l1.231,12.991l8.131-0.771c-0.043,1.242-0.261,2.653-0.503,4.186
			c-0.615,3.948-1.386,8.853,0.634,13.924c0.882,2.222,2.158,3.995,3.184,5.421c0.727,1.016,1.36,1.894,1.65,2.626
			c0.979,2.463,1.108,5.734,1.124,7.979c0.029,3.591-0.519,7.002-1.588,10.02l-6.627-0.169l-0.332,13.038l29.072,0.747l0.336-13.047
			l-8.983-0.22C212.165,81.121,212.565,77.604,212.545,73.986"/>
		<path fill="#FFFFFF" d="M269.738,75.904c-1.676,5.086-6.304,7.663-13.752,7.663c-0.338,0-0.677-0.003-1.02-0.017
			c-7.093-0.232-16.687-8.646-16.245-23.827c0.156-5.295,2.016-14.589,3.707-16.836c0.301-0.401,0.605-0.81,0.904-1.212
			c2.83-3.828,4.613-6.034,8.188-7.014c3.62-0.987,7.447-1.558,10.493-1.558c2.603,0,5.462,0.629,6.21,1.819
			c2.254,3.574,3.597,8.12,2.845,12.561c-0.827,4.915-4.939,9.617-3.587,15.666c0.392,1.744,0.895,3.361,1.343,4.792
			C269.958,71.565,270.509,73.571,269.738,75.904 M281.276,64.049c-0.404-1.303-0.79-2.532-1.062-3.746
			c-0.796-3.549,3.033-6.553,3.723-10.643c0.901-5.333-0.301-12.064-3.27-18.651c-1.766-3.915-5.421-10.949-18.653-10.949
			c-5.698,0-11.181,1.268-13.938,2.022c-8.104,2.211-12.048,7.542-15.222,11.825c-0.287,0.379-0.562,0.755-0.846,1.128
			c-4.849,6.444-6.224,20.812-6.325,24.309c-0.513,17.441,10.372,36.647,28.854,37.246c0.484,0.013,0.971,0.022,1.448,0.022
			c13.131,0,22.657-6.053,26.146-16.609C284.252,73.567,282.601,68.289,281.276,64.049"/>
	</g>
	<g>
		<polygon fill="#FFFFFF" points="49.022,123.225 53.364,123.183 53.387,125.807 45.798,125.871 45.686,112.524 48.931,112.492 		
			"/>
		<polygon fill="#FFFFFF" points="58.911,115.546 59.266,118.247 63.63,117.682 63.968,120.274 59.604,120.845 59.964,123.581 
			64.328,123.008 64.669,125.607 57.087,126.601 55.354,113.37 62.935,112.374 63.275,114.977 		"/>
		<polygon fill="#FFFFFF" points="72.01,116.589 72.098,127.312 68.853,127.342 68.761,116.614 65.681,116.637 65.658,114.024 
			75.056,113.941 75.076,116.559 		"/>
		<polygon fill="#FFFFFF" points="80.305,114.256 78.868,118.485 76.868,118.02 77.715,113.651 		"/>
		<g>
			<path fill="#FFFFFF" d="M82.248,121.332l3.154,0.355c-0.012,0.094-0.021,0.17-0.03,0.23c-0.032,0.271,0.043,0.514,0.215,0.733
				c0.298,0.376,0.705,0.594,1.223,0.649c0.428,0.051,0.791-0.035,1.092-0.252c0.237-0.172,0.367-0.389,0.398-0.656
				c0.038-0.334-0.112-0.637-0.441-0.904c-0.206-0.177-0.646-0.429-1.312-0.745c-1.218-0.603-2.126-1.222-2.724-1.869
				c-0.695-0.748-0.979-1.705-0.852-2.878c0.143-1.3,0.702-2.268,1.666-2.911c0.946-0.63,2.077-0.875,3.397-0.727
				c1.283,0.144,2.303,0.61,3.069,1.396c0.771,0.792,1.177,1.9,1.205,3.313l-3.282-0.366c0-0.898-0.444-1.398-1.33-1.499
				c-0.474-0.053-0.833,0.035-1.091,0.252c-0.202,0.178-0.317,0.392-0.35,0.649c-0.046,0.398,0.121,0.742,0.507,1.035
				c0.187,0.138,0.666,0.418,1.443,0.819c1.305,0.657,2.193,1.261,2.679,1.817c0.671,0.761,0.945,1.687,0.824,2.789
				c-0.164,1.444-0.855,2.477-2.062,3.093c-0.919,0.462-1.977,0.624-3.163,0.49c-0.943-0.108-1.754-0.372-2.438-0.809
				c-0.685-0.432-1.182-1.004-1.495-1.706C82.255,122.978,82.151,122.216,82.248,121.332"/>
			<path fill="#FFFFFF" d="M108.873,118.098l6.739-0.893c0.048,0.285,0.084,0.525,0.11,0.725c0.278,2.125-0.219,3.966-1.493,5.502
				c-1.191,1.427-2.717,2.268-4.585,2.515c-0.961,0.131-1.899,0.068-2.813-0.177c-0.919-0.239-1.748-0.656-2.486-1.237
				c-1.417-1.117-2.254-2.627-2.505-4.535c-0.262-1.997,0.202-3.749,1.386-5.263c1.139-1.433,2.661-2.279,4.563-2.537
				c1.414-0.189,2.772,0.013,4.065,0.616c0.653,0.298,1.262,0.717,1.822,1.256l-2.164,2.22c-0.954-0.911-2.023-1.29-3.215-1.132
				c-1.352,0.18-2.296,0.861-2.833,2.04c-0.361,0.779-0.485,1.58-0.379,2.393c0.161,1.232,0.752,2.182,1.758,2.842
				c0.797,0.503,1.666,0.697,2.617,0.568c0.974-0.126,1.76-0.585,2.362-1.365c0.303-0.382,0.51-0.836,0.626-1.366l-3.23,0.43
				L108.873,118.098z"/>
		</g>
		<polygon fill="#FFFFFF" points="121.181,116.137 120.986,118.857 125.376,119.169 125.189,121.781 120.804,121.463 
			120.604,124.219 124.997,124.532 124.811,127.149 117.183,126.601 118.134,113.288 125.755,113.833 125.572,116.444 		"/>
		<polygon fill="#FFFFFF" points="134.223,115.102 134.471,125.827 131.227,125.903 130.972,115.176 127.895,115.248 
			127.832,112.629 137.231,112.406 137.29,115.026 		"/>
		<g>
			<g>
				<path fill="#FFFFFF" d="M156.528,120.819l1.899,2.274c-0.705,0.593-1.358,1.01-1.965,1.274
					c-0.926,0.399-1.936,0.596-3.036,0.586c-2.045-0.013-3.672-0.702-4.88-2.058c-0.579-0.634-1.02-1.386-1.329-2.243
					c-0.304-0.856-0.453-1.736-0.45-2.656c0.013-1.08,0.225-2.097,0.649-3.059c0.427-0.952,1.012-1.755,1.757-2.393
					c1.169-0.992,2.649-1.479,4.439-1.465c1.156,0.013,2.206,0.24,3.146,0.685c0.585,0.28,1.219,0.739,1.898,1.386l-2.088,2.143
					c-0.914-0.798-1.868-1.202-2.857-1.209c-1.121-0.013-2.02,0.366-2.698,1.124c-0.631,0.713-0.951,1.62-0.957,2.721
					c-0.007,0.628,0.106,1.216,0.329,1.756c0.225,0.544,0.542,0.998,0.951,1.361c0.685,0.601,1.524,0.901,2.512,0.908
					c0.548,0.006,1.064-0.094,1.552-0.292C155.789,121.494,156.168,121.218,156.528,120.819"/>
				<path fill="#FFFFFF" d="M164.501,113.164l-0.385,7.765c-0.043,0.945,0.071,1.64,0.347,2.079c0.343,0.532,0.881,0.818,1.61,0.856
					c0.375,0.018,0.725-0.048,1.058-0.194c0.33-0.152,0.575-0.35,0.739-0.608c0.237-0.392,0.383-1.035,0.427-1.927l0.386-7.765
					l3.241,0.16l-0.376,7.627c-0.096,1.951-0.631,3.405-1.607,4.357c-0.473,0.475-1.059,0.822-1.753,1.06
					c-0.69,0.23-1.436,0.329-2.231,0.291c-0.834-0.043-1.602-0.232-2.307-0.556c-0.703-0.326-1.281-0.758-1.729-1.311
					c-0.484-0.587-0.79-1.254-0.92-1.999c-0.125-0.725-0.161-1.512-0.118-2.372l0.379-7.629L164.501,113.164z"/>
				<path fill="#FFFFFF" d="M178.228,118.149l1.036-0.104c0.592-0.065,1.056-0.232,1.376-0.526c0.434-0.379,0.609-0.882,0.548-1.51
					c-0.056-0.528-0.262-0.939-0.613-1.247c-0.376-0.333-0.866-0.473-1.477-0.406l-1.242,0.128L178.228,118.149z M178.414,119.966
					l0.529,5.138l-3.233,0.33l-1.362-13.27l4.315-0.451c1.901-0.195,3.308,0.062,4.233,0.759c0.896,0.68,1.411,1.687,1.548,3.027
					c0.212,2.042-0.516,3.482-2.169,4.316l3.438,4.594l-3.861,0.396L178.414,119.966z"/>
			</g>
			<polygon fill="#FFFFFF" points="192.072,112.469 191.376,125.797 188.137,125.633 188.833,112.301 			"/>
			<g>
				<path fill="#FFFFFF" d="M201.389,114.406c-1.098,0.01-2.012,0.446-2.757,1.31c-0.623,0.725-0.934,1.62-0.928,2.68
					c0.014,1.146,0.402,2.089,1.17,2.825c0.752,0.725,1.634,1.077,2.643,1.073c1.101-0.013,2.025-0.437,2.767-1.277
					c0.647-0.728,0.975-1.636,0.963-2.727c-0.013-1.189-0.43-2.16-1.257-2.912C203.274,114.722,202.408,114.405,201.389,114.406
					 M201.618,111.399c0.979-0.01,1.905,0.174,2.786,0.543c0.872,0.378,1.644,0.921,2.31,1.633c1.199,1.274,1.803,2.81,1.816,4.609
					c0.01,1.029-0.192,2.011-0.599,2.943c-0.411,0.94-0.992,1.746-1.74,2.421c-1.274,1.145-2.804,1.718-4.593,1.731
					c-1.033,0.007-2.025-0.186-2.974-0.594c-0.942-0.395-1.76-0.965-2.44-1.712c-1.178-1.269-1.77-2.792-1.78-4.563
					c-0.007-0.954,0.177-1.87,0.553-2.748c0.386-0.879,0.932-1.666,1.644-2.358C197.903,112.053,199.576,111.419,201.618,111.399"/>
				<path fill="#FFFFFF" d="M214.303,113.187l0.517,7.756c0.062,0.947,0.261,1.626,0.581,2.032c0.401,0.488,0.967,0.712,1.701,0.662
					c0.373-0.03,0.712-0.131,1.025-0.313c0.311-0.188,0.534-0.417,0.665-0.694c0.192-0.419,0.261-1.072,0.198-1.961l-0.509-7.755
					l3.242-0.214l0.5,7.613c0.131,1.956-0.235,3.46-1.091,4.511c-0.414,0.529-0.957,0.946-1.616,1.259
					c-0.666,0.312-1.39,0.495-2.186,0.541c-0.83,0.061-1.617-0.033-2.355-0.276c-0.734-0.246-1.362-0.612-1.872-1.103
					c-0.545-0.529-0.927-1.153-1.144-1.878c-0.199-0.706-0.33-1.486-0.389-2.347l-0.5-7.619L214.303,113.187z"/>
				<path fill="#FFFFFF" d="M224.667,119.625l3.164,0.331c-0.012,0.088-0.031,0.172-0.037,0.235
					c-0.031,0.262,0.043,0.51,0.222,0.729c0.301,0.377,0.71,0.584,1.226,0.64c0.431,0.043,0.791-0.043,1.092-0.26
					c0.234-0.172,0.364-0.392,0.395-0.652c0.032-0.346-0.111-0.644-0.447-0.905c-0.209-0.178-0.65-0.427-1.317-0.74
					c-1.225-0.594-2.139-1.209-2.739-1.85c-0.699-0.745-0.984-1.704-0.867-2.875c0.138-1.29,0.688-2.27,1.647-2.926
					c0.939-0.634,2.07-0.882,3.395-0.742c1.28,0.134,2.306,0.596,3.077,1.376c0.777,0.79,1.185,1.891,1.225,3.306l-3.286-0.343
					c-0.005-0.901-0.449-1.398-1.339-1.491c-0.472-0.054-0.834,0.034-1.088,0.262c-0.204,0.175-0.317,0.395-0.342,0.646
					c-0.047,0.399,0.125,0.742,0.51,1.029c0.187,0.145,0.671,0.415,1.448,0.809c1.312,0.65,2.201,1.251,2.692,1.797
					c0.672,0.763,0.95,1.688,0.836,2.787c-0.153,1.453-0.833,2.481-2.036,3.107c-0.92,0.474-1.97,0.638-3.158,0.515
					c-0.944-0.096-1.757-0.363-2.443-0.795c-0.684-0.432-1.187-0.995-1.504-1.696C224.682,121.269,224.573,120.501,224.667,119.625"
					/>
				<path fill="#FFFFFF" d="M239.874,112.002l0.073,8.731l-2.962,0.025l-0.074-8.735L239.874,112.002z M238.512,122.291
					c0.491,0,0.896,0.162,1.212,0.497c0.301,0.326,0.454,0.715,0.461,1.172c0.006,0.542-0.187,0.975-0.568,1.312
					c-0.294,0.258-0.656,0.389-1.104,0.389c-0.513,0.005-0.927-0.162-1.244-0.498c-0.301-0.32-0.454-0.719-0.46-1.184
					c-0.006-0.52,0.185-0.959,0.566-1.297C237.663,122.425,238.045,122.294,238.512,122.291"/>
			</g>
		</g>
	</g>
</g>
</svg>
