<?xml version="1.0" encoding="utf-8"?>
<!-- Generator: Adobe Illustrator 16.0.0, SVG Export Plug-In . SVG Version: 6.00 Build 0)  -->
<!DOCTYPE svg PUBLIC "-//W3C//DTD SVG 1.1//EN" "http://www.w3.org/Graphics/SVG/1.1/DTD/svg11.dtd">
<svg version="1.1" id="Layer_1" xmlns="http://www.w3.org/2000/svg" xmlns:xlink="http://www.w3.org/1999/xlink" x="0px" y="0px"
	 width="162px" height="109px" viewBox="0 0 162 109" enable-background="new 0 0 162 109" xml:space="preserve">
<g>
	<defs>
		<rect id="SVGID_61_" width="162" height="109"/>
	</defs>
	<clipPath id="SVGID_2_">
		<use xlink:href="#SVGID_61_"  overflow="visible"/>
	</clipPath>
	<g clip-path="url(#SVGID_2_)">
		<g>
			<path fill="#FFFFFF" d="M81.786,31.887c0.258-3.499-7.205-11.521-9.488-13.93c-4.058-4.275-9.061-7.465-14.651-9.27
				C40.696,3.209,16.332,7.116,8.2,27.484c-6.439,16.132,3.117,34.515,15.312,43.273c-0.443-0.322-10.119,25.733-10.854,28.625
				c-2.706,10.643-3.682,22.111-0.484,32.741c2.484,8.243,8.426,15.726,16.627,18.657c18.139,6.477,44.213,0,44.213,0
				S81.774,32.051,81.786,31.887"/>
			<path fill="#FAAF42" d="M25.318,72.086c-1.004,1.721-9.71,24.9-10.463,27.862c-3.037,11.947-3.208,22.548-0.51,31.517
				c2.479,8.225,8.165,14.643,15.216,17.158c5.104,1.825,11.418,2.746,18.767,2.746c9.877,0,18.981-1.695,22.554-2.451
				c1.067-14.487,8.633-117.052,8.643-117.203c0.066-0.907-1.701-4.625-8.867-12.178c-3.801-4.007-8.539-7.007-13.701-8.674
				c-4.328-1.396-9.142-2.134-13.924-2.134c-15.594,0-27.826,7.329-32.729,19.608c-5.85,14.655,2.79,32.13,14.523,40.557h0.002
				C24.829,68.895,25.127,72.414,25.318,72.086 M48.328,155.944L48.328,155.944c-7.866,0-14.689-1.013-20.28-3.01
				c-8.401-2.999-15.145-10.527-18.041-20.145c-2.941-9.778-2.789-21.206,0.456-33.976c0.413-1.635,3.113-9.103,5.565-15.633
				c2.289-6.096,3.641-9.67,4.574-11.76C4.565,58.853,1.081,39.195,6.097,26.633C11.716,12.554,25.522,4.156,43.032,4.156
				c5.245,0,10.54,0.813,15.309,2.35c5.877,1.902,11.27,5.314,15.596,9.871c10.455,11.021,10.205,14.409,10.112,15.679
				c-0.018,0.234-8.771,118.895-8.771,118.895l-0.123,1.653l-1.597,0.395C73.076,153.122,61.55,155.944,48.328,155.944"/>
			<path fill="#FAAF42" d="M110.72,45.454c-5.865,0-9.365-1.831-9.365-4.898V28.663c0-4.736,3.512-8.588,7.82-8.588h3.088
				c4.312,0,7.821,3.852,7.821,8.588v11.893C120.084,43.623,116.581,45.454,110.72,45.454"/>
			<path fill="#FFFFFF" d="M112.262,17.787h-3.085c-5.562,0-10.088,4.878-10.088,10.87v11.898c0,1.685,0.838,7.181,11.63,7.181
				s11.63-5.496,11.63-7.181V28.657C122.349,22.665,117.823,17.787,112.262,17.787 M112.262,22.362c3.065,0,5.554,2.818,5.554,6.295
				v11.898c0,1.737-3.55,2.609-7.097,2.609s-7.097-0.872-7.097-2.609V28.657c0-3.477,2.487-6.295,5.555-6.295H112.262z"/>
			<path fill="#FAAF42" d="M64.933,44.155c-3.906,0-8.077-0.948-8.077-3.6V28.657c0-4.014,2.931-7.285,6.534-7.285h3.085
				c3.604,0,6.535,3.271,6.535,7.285v11.898C73.01,43.207,68.837,44.155,64.933,44.155"/>
			<path fill="#FFFFFF" d="M66.475,20.385h-3.087c-4.143,0-7.516,3.711-7.516,8.272v11.898c0,2.873,3.388,4.587,9.059,4.587
				c5.673,0,9.059-1.714,9.059-4.587V28.657C73.989,24.096,70.618,20.385,66.475,20.385 M66.475,22.362
				c3.065,0,5.552,2.818,5.552,6.295v11.898c0,1.737-3.547,2.609-7.096,2.609c-3.546,0-7.094-0.872-7.094-2.609V28.657
				c0-3.477,2.483-6.295,5.551-6.295H66.475z"/>
			<path fill="#FAAF42" d="M120.003,42.484c-3.347-3.803-12.266-5.979-24.47-5.979c-19.026,0-40.547,5.443-44.278,11.203
				c-8.925,13.768-19.514,92.217-10.148,109.586c3.484,6.466,18.307,10.324,39.65,10.324c26.545,0,51.535-5.718,55.321-10.635
				C143.839,146.901,130.919,54.874,120.003,42.484"/>
			<path fill="#FFFFFF" d="M80.757,167.619c-21.346,0-36.166-3.858-39.651-10.324c-9.365-17.375,1.226-95.818,10.15-109.586
				c3.731-5.756,25.251-11.203,44.278-11.203c12.204,0,21.121,2.181,24.47,5.979c10.914,12.386,23.834,104.417,16.073,114.498
				C132.292,161.905,107.302,167.619,80.757,167.619 M123.394,39.447c-5.471-6.213-18.171-7.514-27.859-7.514
				c-19.062,0-42.93,5.333-48.075,13.273c-8.938,13.791-21.331,93.877-10.34,114.272c5.964,11.062,29.9,12.717,43.638,12.717
				c23.835,0,53.191-4.985,58.902-12.406C149.677,146.771,134.383,51.922,123.394,39.447"/>
		</g>
		<polygon fill="#231F20" points="102.136,67.493 100.442,65.246 101.647,64.327 103.339,66.572 		"/>
		<polygon fill="#231F20" points="108.239,64.583 107.399,61.893 108.839,61.438 109.681,64.129 		"/>
		
			<rect x="114.879" y="61.142" transform="matrix(0.9842 0.177 -0.177 0.9842 12.8936 -19.4748)" fill="#231F20" width="1.512" height="2.82"/>
		<polygon fill="#231F20" points="122.402,66.379 120.995,65.819 122.024,63.195 123.433,63.757 		"/>
		<g>
			<path fill="#FFFFFF" d="M130.335,81.191c0,9.672-7.775,17.511-17.369,17.511c-9.592,0-17.368-7.839-17.368-17.511
				c0-9.676,7.776-17.514,17.368-17.514C122.56,63.678,130.335,71.516,130.335,81.191"/>
		</g>
		<polygon fill="#231F20" points="55.024,67.493 53.332,65.246 54.537,64.327 56.228,66.572 		"/>
		<polygon fill="#231F20" points="61.128,64.583 60.286,61.893 61.728,61.438 62.569,64.129 		"/>
		
			<rect x="67.767" y="61.142" transform="matrix(0.9842 0.177 -0.177 0.9842 12.1501 -11.1383)" fill="#231F20" width="1.512" height="2.82"/>
		<polygon fill="#231F20" points="75.29,66.379 73.884,65.819 74.917,63.195 76.321,63.757 		"/>
		<path fill="#FFFFFF" d="M83.224,81.191c0,9.672-7.774,17.511-17.368,17.511c-9.593,0-17.368-7.839-17.368-17.511
			c0-9.676,7.775-17.514,17.368-17.514C75.449,63.678,83.224,71.516,83.224,81.191"/>
		<path fill="#231F20" d="M75.995,86.651c0,4.194-3.371,7.59-7.527,7.59c-4.154,0-7.526-3.396-7.526-7.59
			c0-4.192,3.372-7.589,7.526-7.589C72.624,79.062,75.995,82.459,75.995,86.651"/>
		<path fill="#231F20" d="M118.302,86.941c0,4.191-3.371,7.59-7.526,7.59c-4.156,0-7.527-3.398-7.527-7.59
			c0-4.189,3.371-7.59,7.527-7.59C114.931,79.352,118.302,82.752,118.302,86.941"/>
		<path fill="#FFFFFF" d="M71.503,106.83c0,5.261,4.647,9.526,10.376,9.526c5.731,0,10.38-4.266,10.38-9.526
			c0-5.26-4.648-9.525-10.38-9.525C76.15,97.305,71.503,101.57,71.503,106.83"/>
		<path fill="#FFFFFF" d="M87.183,106.83c0,5.261,4.646,9.526,10.375,9.526c5.731,0,10.379-4.266,10.379-9.526
			c0-5.26-4.647-9.525-10.379-9.525C91.829,97.305,87.183,101.57,87.183,106.83"/>
		<path fill="#231F20" d="M81.88,97.305c1.824-1.495,16.041-1.369,17.293,0c1.25,1.362-4.514,9.525-8.648,9.525
			C86.394,106.83,80.056,98.798,81.88,97.305"/>
		<path fill="#FAAF42" stroke="#FFFFFF" stroke-width="4.5654" stroke-miterlimit="10" d="M29.115,102.248
			c6.331-5.159,22.827-6.054,27.772,0c4.946,6.055,5.137,12.903,3.234,16.708c-1.902,3.804-30.72,3.994-33.002,0.189
			C24.837,115.342,26.102,104.705,29.115,102.248z"/>
		<path fill="#FAAF42" stroke="#FFFFFF" stroke-width="4.5654" stroke-miterlimit="10" d="M122.423,101.248
			c6.33-5.159,22.826-6.054,27.772,0c4.946,6.055,5.136,12.903,3.233,16.708c-1.902,3.804-30.72,3.994-33.002,0.189
			C118.144,114.342,119.408,103.705,122.423,101.248z"/>
	</g>
</g>
</svg>
