<?xml version="1.0" encoding="utf-8"?>
<!-- Generator: Adobe Illustrator 16.0.0, SVG Export Plug-In . SVG Version: 6.00 Build 0)  -->
<!DOCTYPE svg PUBLIC "-//W3C//DTD SVG 1.1//EN" "http://www.w3.org/Graphics/SVG/1.1/DTD/svg11.dtd">
<svg version="1.1" id="Layer_1" xmlns="http://www.w3.org/2000/svg" xmlns:xlink="http://www.w3.org/1999/xlink" x="0px" y="0px"
	 width="50px" height="50px" viewBox="0 0 50 50" enable-background="new 0 0 50 50" xml:space="preserve">
<rect x="-247" y="-18" fill="#FFFFFF" width="2776" height="88"/>
<path fill="#010101" d="M14.232,40.459c-0.721-0.447-0.932-1.09-0.792-2.045c0.273-0.387,0.662-0.668,1.137-0.764
	c0.09-0.021,0.182-0.037,0.276-0.043c2.223-0.096,4.433-0.529,6.666-0.451c0.46,0.018,0.924-0.064,1.48-0.109
	c0.127,0.064,0.341,0.172,0.494,0.244c0.218,0.301,0.24,0.584,0.242,0.883c0.008,1.205,0.008,1.205-0.323,1.836
	c-0.118,0.037-0.25,0.119-0.384,0.125C20.067,40.225,17.108,40.492,14.232,40.459"/>
<path fill="#010101" d="M27.246,39.691c-0.036-0.416-0.068-0.807-0.096-1.131c0.505-0.805,1.096-1.318,1.927-1.416
	c0.563,0.033,0.917,0.309,1.229,0.781c0.228,0.836,0.168,1.65-0.626,2.289C28.839,40.498,28.075,40.408,27.246,39.691"/>
<path fill="#010101" d="M33.492,39.691c-0.036-0.416-0.068-0.807-0.095-1.131c0.505-0.805,1.096-1.318,1.927-1.416
	c0.563,0.033,0.917,0.309,1.228,0.781c0.228,0.836,0.168,1.65-0.626,2.289C35.087,40.498,34.322,40.408,33.492,39.691"/>
<path fill="#FBB041" d="M19.299,12.392c-0.208-0.44-0.345-0.718-0.468-1c-0.028-0.067-0.013-0.151-0.019-0.23
	c0.059-0.429,0.325-0.712,0.684-0.891c1.526-0.755,3.154-0.881,4.796-0.584c1.46,0.262,2.903,0.642,4,1.773
	c0.16,0.168,0.374,0.28,0.568,0.409c1.625,1.08,2.625,2.638,3.356,4.399c0.209,0.503,0.371,1.025,0.578,1.531
	c0.59,1.469,0.937,2.975,0.63,4.882c-0.071,0.214-0.253,0.726-0.424,1.244c-0.659,1.995-1.882,3.57-3.56,4.81
	c-1.651,1.217-3.516,2.014-5.396,2.781c-0.793,0.32-1.623,0.551-2.438,0.822c-0.832,0.279-1.664,0.371-2.515,0.016
	c-0.121-0.203-0.239-0.398-0.333-0.547c-0.088-0.654,0.443-1.041,0.591-2.061c0-0.848-0.001-2.17,0.001-3.496
	c0.003-1.558-0.006-3.119,0.023-4.681c0.031-1.556-0.064-3.105,0.018-4.664C19.468,15.427,19.34,13.94,19.299,12.392 M27.622,18.712
	c-0.621-1.623-1.774-2.813-3.381-3.584c-0.091-0.044-0.256,0.062-0.421,0.104c-0.018,0.215-0.066,0.445-0.047,0.669
	c0.306,3.302,0.653,6.6,0.93,9.907c0.005,0.067,0.083,0.129,0.126,0.189c0.325,0.112,0.601-0.037,0.855-0.194
	c0.765-0.467,1.151-1.229,1.513-1.954C27.851,21.006,27.851,21.006,27.622,18.712"/>
</svg>
