<?xml version="1.0" encoding="utf-8"?>
<!-- Generator: Adobe Illustrator 16.0.0, SVG Export Plug-In . SVG Version: 6.00 Build 0)  -->
<!DOCTYPE svg PUBLIC "-//W3C//DTD SVG 1.1//EN" "http://www.w3.org/Graphics/SVG/1.1/DTD/svg11.dtd">
<svg version="1.1" id="Layer_1" xmlns="http://www.w3.org/2000/svg" xmlns:xlink="http://www.w3.org/1999/xlink" x="0px" y="0px"
	 width="50px" height="50px" viewBox="0 0 50 50" enable-background="new 0 0 50 50" xml:space="preserve">
<rect x="-387" y="-18" fill="#FFFFFF" width="2776" height="88"/>
<path fill="#010101" d="M26.587,40.703c-0.721-0.448-0.932-1.09-0.788-2.045c0.27-0.388,0.659-0.668,1.133-0.765
	c0.09-0.021,0.18-0.036,0.274-0.042c2.219-0.095,4.428-0.53,6.657-0.451c0.462,0.018,0.924-0.064,1.479-0.108
	c0.129,0.064,0.341,0.168,0.494,0.244c0.216,0.298,0.241,0.583,0.242,0.881c0.008,1.206,0.008,1.206-0.322,1.835
	c-0.117,0.039-0.251,0.121-0.385,0.126C32.416,40.471,29.459,40.736,26.587,40.703"/>
<path fill="#010101" d="M13.345,39.936c-0.035-0.417-0.066-0.808-0.095-1.132c0.505-0.805,1.096-1.318,1.928-1.416
	c0.563,0.033,0.917,0.309,1.228,0.782c0.228,0.835,0.168,1.65-0.626,2.287C14.94,40.742,14.177,40.652,13.345,39.936"/>
<path fill="#010101" d="M19.89,39.936c-0.036-0.417-0.066-0.808-0.095-1.132c0.505-0.805,1.095-1.318,1.927-1.416
	c0.564,0.033,0.917,0.309,1.229,0.782c0.227,0.835,0.168,1.65-0.626,2.287C21.484,40.742,20.72,40.652,19.89,39.936"/>
<path fill="#010101" d="M38.906,39.936c-0.036-0.417-0.066-0.808-0.096-1.132c0.505-0.805,1.097-1.318,1.928-1.416
	c0.562,0.033,0.917,0.309,1.228,0.782c0.228,0.835,0.168,1.65-0.625,2.287C40.501,40.742,39.739,40.652,38.906,39.936"/>
<path fill="#FBB041" d="M28.632,17.658c0.23,0.287,0.417,0.523,0.581,0.729c-0.02,0.295,0.018,0.546-0.06,0.755
	c-0.379,1.013-0.607,2.08-1.062,3.112c-0.325,0.095-0.614,0.201-0.911,0.252c-0.92,0.157-1.85,0.271-2.768,0.437
	c-0.202,0.036-0.379,0.216-0.581,0.333c0.237,2.261,1.101,4.423,0.75,6.6c-0.26,0.572-0.636,0.837-1.105,0.959
	c-0.676,0.175-1.359,0.323-2,0.472c-0.463-0.012-0.779-0.205-1.07-0.702c-0.029-0.4-0.109-0.939-0.095-1.479
	c0.027-1.174-0.034-2.334-0.33-3.474c-0.077-0.304-0.124-0.612-0.154-0.919c-0.188-1.782-0.012-3.584-0.305-5.362
	c-0.281-1.696-0.291-3.407-0.288-5.123c0-0.688-0.157-1.38-0.263-2.253c0.139-0.344,0.351-0.84,0.551-1.319
	c1.343-0.958,2.807-1.392,4.412-1.381c1.245,0.008,2.487,0,3.748,0c0.393,0.129,0.614,0.426,0.761,0.911
	c-0.05,0.763-0.104,1.607-0.16,2.5c-0.187,0.224-0.377,0.457-0.548,0.665c-1.256,0.395-2.546,0.003-3.647,0.356
	c-0.366,0.259-0.484,0.536-0.504,0.857c-0.057,0.93,0.007,1.857,0.06,2.639c0.126,0.207,0.15,0.298,0.205,0.334
	c0.197,0.117,0.408,0.22,0.619,0.335C25.788,17.866,27.084,17.479,28.632,17.658"/>
</svg>
