<?xml version="1.0" encoding="utf-8"?>
<!-- Generator: Adobe Illustrator 16.0.0, SVG Export Plug-In . SVG Version: 6.00 Build 0)  -->
<!DOCTYPE svg PUBLIC "-//W3C//DTD SVG 1.1//EN" "http://www.w3.org/Graphics/SVG/1.1/DTD/svg11.dtd">
<svg version="1.1" id="Layer_1" xmlns="http://www.w3.org/2000/svg" xmlns:xlink="http://www.w3.org/1999/xlink" x="0px" y="0px"
	 width="50px" height="50px" viewBox="0 0 50 50" enable-background="new 0 0 50 50" xml:space="preserve">
<rect x="-2627" y="-18" fill="#FFFFFF" width="2776" height="88"/>
<path fill="#010101" d="M19.367,38.779c-0.027-0.347-0.055-0.676-0.079-0.943c0.422-0.671,0.915-1.102,1.607-1.181
	c0.471,0.025,0.765,0.259,1.024,0.651c0.191,0.697,0.141,1.378-0.522,1.907C20.698,39.452,20.059,39.375,19.367,38.779"/>
<path fill="#010101" d="M34.471,38.779c-0.028-0.347-0.056-0.676-0.08-0.943c0.42-0.671,0.914-1.102,1.605-1.181
	c0.471,0.025,0.766,0.259,1.026,0.651c0.19,0.697,0.141,1.378-0.524,1.907C35.799,39.452,35.161,39.375,34.471,38.779"/>
<path fill="#010101" d="M3.827,38.779c-0.028-0.347-0.058-0.676-0.078-0.943c0.42-0.671,0.912-1.102,1.606-1.181
	c0.471,0.025,0.766,0.259,1.024,0.651c0.19,0.697,0.14,1.378-0.523,1.907C5.158,39.452,4.52,39.375,3.827,38.779"/>
<path fill="#010101" d="M39.229,39.419c-0.602-0.374-0.773-0.91-0.658-1.705c0.225-0.322,0.553-0.558,0.946-0.639
	c0.077-0.015,0.15-0.031,0.229-0.034c1.851-0.08,3.691-0.441,5.552-0.376c0.386,0.015,0.769-0.056,1.232-0.092
	c0.107,0.053,0.287,0.142,0.418,0.202c0.177,0.249,0.195,0.487,0.196,0.734c0.007,1.007,0.007,1.007-0.267,1.53
	c-0.097,0.034-0.207,0.104-0.319,0.105C44.088,39.221,41.623,39.442,39.229,39.419"/>
<path fill="#010101" d="M24.89,39.419c-0.599-0.374-0.775-0.91-0.657-1.705c0.226-0.322,0.55-0.558,0.945-0.639
	c0.074-0.015,0.15-0.031,0.23-0.034c1.851-0.08,3.688-0.441,5.55-0.376c0.385,0.015,0.769-0.056,1.233-0.092
	c0.109,0.053,0.285,0.142,0.414,0.202c0.179,0.249,0.198,0.487,0.198,0.734c0.008,1.007,0.008,1.007-0.267,1.53
	c-0.099,0.034-0.209,0.104-0.321,0.105C29.751,39.221,27.286,39.442,24.89,39.419"/>
<path fill="#010101" d="M9.076,39.419c-0.6-0.374-0.775-0.91-0.658-1.705c0.227-0.322,0.551-0.558,0.944-0.639
	c0.077-0.015,0.153-0.031,0.228-0.034c1.853-0.08,3.693-0.441,5.553-0.376c0.386,0.015,0.77-0.056,1.232-0.092
	c0.107,0.053,0.287,0.142,0.416,0.202c0.181,0.249,0.197,0.487,0.2,0.734c0.005,1.007,0.005,1.007-0.269,1.53
	c-0.097,0.034-0.207,0.104-0.32,0.105C13.937,39.221,11.472,39.442,9.076,39.419"/>
<path fill="#FBB041" d="M22.058,25.156c0.006,0.047-0.033-0.172-0.055-0.393c-0.162-1.545,1.295-2.694,2.771-2.174
	c0.451,0.161,1.051,0.304,1.275,0.652c0.393,0.624,0.648,1.381,0.777,2.112c0.129,0.714-0.363,1.254-1.006,1.488
	c-0.635,0.234-1.326,0.406-1.998,0.437C22.597,27.335,22.03,26.686,22.058,25.156"/>
</svg>
