<?xml version="1.0" encoding="utf-8"?>
<!-- Generator: Adobe Illustrator 16.0.0, SVG Export Plug-In . SVG Version: 6.00 Build 0)  -->
<!DOCTYPE svg PUBLIC "-//W3C//DTD SVG 1.1//EN" "http://www.w3.org/Graphics/SVG/1.1/DTD/svg11.dtd">
<svg version="1.1" id="Layer_1" xmlns="http://www.w3.org/2000/svg" xmlns:xlink="http://www.w3.org/1999/xlink" x="0px" y="0px"
	 width="50px" height="50px" viewBox="0 0 50 50" enable-background="new 0 0 50 50" xml:space="preserve">
<rect x="-527" y="-18" fill="#FFFFFF" width="2776" height="88"/>
<path fill="#010101" d="M16.111,38.6c-0.036-0.416-0.066-0.81-0.095-1.132c0.505-0.804,1.096-1.319,1.928-1.415
	c0.562,0.031,0.917,0.311,1.228,0.782c0.228,0.835,0.167,1.651-0.626,2.287C17.707,39.407,16.943,39.315,16.111,38.6"/>
<path fill="#010101" d="M22.333,38.6c-0.036-0.416-0.068-0.81-0.096-1.132c0.505-0.804,1.097-1.319,1.928-1.415
	c0.562,0.031,0.917,0.311,1.228,0.782c0.228,0.835,0.167,1.651-0.626,2.287C23.928,39.407,23.162,39.315,22.333,38.6"/>
<path fill="#010101" d="M28.681,38.6c-0.036-0.416-0.066-0.81-0.095-1.132c0.505-0.804,1.096-1.319,1.928-1.415
	c0.563,0.031,0.917,0.311,1.228,0.782c0.228,0.835,0.168,1.651-0.627,2.287C30.274,39.407,29.511,39.315,28.681,38.6"/>
<path fill="#010101" d="M35.065,38.6c-0.036-0.416-0.068-0.81-0.095-1.132c0.505-0.804,1.096-1.319,1.927-1.415
	c0.563,0.031,0.917,0.311,1.229,0.782c0.228,0.835,0.168,1.651-0.626,2.287C36.66,39.407,35.896,39.315,35.065,38.6"/>
<path fill="#FBB041" d="M21.796,12.059c0.231,2.356-0.154,4.63,0.354,6.827c0.335,0.109,0.545,0.212,0.765,0.241
	c0.308,0.043,0.626,0.056,0.934,0.033c1.865-0.139,3.729-0.285,5.59-0.446c0.389-0.034,0.771-0.131,1.124-0.529
	c0.291-0.818,0.197-1.75-0.047-2.656c-0.329-1.242-0.127-2.464-0.113-3.602c0.904-0.821,1.76-1.304,2.86-1.181
	c0.725,0.078,1.377,0.286,1.808,1.185c0,0.523,0.006,1.221,0,1.921c-0.014,1.481-0.023,2.957,0.32,4.42
	c0.14,0.604,0.168,1.239,0.171,1.861c0.022,2.497,0.022,4.991,0.022,7.487c0,0.31-0.063,0.617-0.097,0.923
	c-0.936,1.294-2.155,1.75-3.635,1.404c-0.655-0.367-0.905-0.933-0.955-1.575c-0.055-0.698-0.031-1.402-0.037-2.104
	c-0.006-0.929,0.026-1.862-0.194-2.638c-0.302-0.403-0.604-0.465-0.92-0.441c-0.388,0.033-0.77,0.11-1.156,0.154
	c-1.397,0.161-2.797,0.235-4.191-0.049c-0.377-0.075-0.77-0.083-1.151-0.121c-0.211,0.148-0.395,0.279-0.576,0.41
	c-0.472,1.888,0.446,3.726,0.117,5.614c-0.323,0.893-1.026,1.28-1.942,1.416c-0.975,0.141-1.853-0.118-2.718-0.591
	c-0.623-0.482-0.952-1.181-1.188-1.862c0.039-1.778,0.088-3.486,0.113-5.197c0.015-1.171-0.082-2.328-0.205-3.496
	c-0.26-2.482-0.243-4.972,0.447-7.453C18.751,11.28,20.191,10.906,21.796,12.059"/>
</svg>
