<?xml version="1.0" encoding="utf-8"?>
<!-- Generator: Adobe Illustrator 16.0.0, SVG Export Plug-In . SVG Version: 6.00 Build 0)  -->
<!DOCTYPE svg PUBLIC "-//W3C//DTD SVG 1.1//EN" "http://www.w3.org/Graphics/SVG/1.1/DTD/svg11.dtd">
<svg version="1.1" id="Layer_1" xmlns="http://www.w3.org/2000/svg" xmlns:xlink="http://www.w3.org/1999/xlink" x="0px" y="0px"
	 width="50px" height="50px" viewBox="0 0 50 50" enable-background="new 0 0 50 50" xml:space="preserve">
<rect x="-597" y="-18" fill="#FFFFFF" width="2776" height="88"/>
<path fill="#010101" d="M21.14,40.421c-0.035-0.413-0.066-0.808-0.095-1.131c0.505-0.804,1.096-1.317,1.928-1.415
	c0.563,0.033,0.917,0.311,1.228,0.783c0.228,0.834,0.168,1.649-0.626,2.286C22.734,41.23,21.971,41.14,21.14,40.421"/>
<path fill="#010101" d="M27.301,40.421c-0.035-0.413-0.066-0.808-0.095-1.131c0.505-0.804,1.096-1.317,1.928-1.415
	c0.563,0.033,0.917,0.311,1.228,0.783c0.228,0.834,0.168,1.649-0.626,2.286C28.896,41.23,28.132,41.14,27.301,40.421"/>
<path fill="#FBB041" d="M21.374,14.117c-0.304-0.188-0.628-0.394-0.958-0.602c-0.546-0.734-0.363-1.66-0.662-2.273
	c0.046-0.344,0.04-0.508,0.094-0.65c0.492-1.329,0.894-1.642,2.187-1.681c0.698-0.015,1.395-0.002,2.237-0.002
	c0.071,0.031,0.288,0.121,0.468,0.195c0.733-0.021,1.436-0.082,2.134-0.062c0.654,0.019,1.214,0.274,1.661,0.989
	c0.086,0.623,0.187,1.391,0.292,2.162c-0.181,0.289-0.34,0.545-0.505,0.805c-0.557,0.144-1.084,0.279-1.592,0.41
	c-0.099,0.139-0.253,0.257-0.268,0.39c-0.127,1.322-0.163,2.645,0.099,3.961c0.312,1.545,0.154,3.115,0.208,4.673
	c0.066,1.875,0.397,3.72,0.565,5.58c0.011,0.141,0.144,0.27,0.267,0.495c0.542,0.065,1.145,0.145,1.735,0.221
	c0.16,0.222,0.29,0.408,0.444,0.624c-0.284,1.129-0.568,2.254-0.847,3.362c-0.186,0.194-0.34,0.361-0.573,0.604
	c-0.678,0.164-1.43,0.347-2.128,0.511c-0.605-0.115-1.143-0.214-1.731-0.328c-1.251,0.291-2.557,0.523-3.958,0.037
	c-0.897-1.018-1.262-2.199-0.849-3.464c0.563-0.712,1.294-0.816,1.916-1.117c0.074-0.134,0.209-0.27,0.209-0.407
	c0.01-2.729,0.017-5.462-0.009-8.195c-0.006-0.696-0.117-1.396-0.204-2.364C21.854,16.876,22.058,15.489,21.374,14.117"/>
</svg>
