<?xml version="1.0" encoding="utf-8"?>
<!-- Generator: Adobe Illustrator 16.0.0, SVG Export Plug-In . SVG Version: 6.00 Build 0)  -->
<!DOCTYPE svg PUBLIC "-//W3C//DTD SVG 1.1//EN" "http://www.w3.org/Graphics/SVG/1.1/DTD/svg11.dtd">
<svg version="1.1" id="Layer_1" xmlns="http://www.w3.org/2000/svg" xmlns:xlink="http://www.w3.org/1999/xlink" x="0px" y="0px"
	 width="50px" height="50px" viewBox="0 0 50 50" enable-background="new 0 0 50 50" xml:space="preserve">
<rect x="-667" y="-18" fill="#FFFFFF" width="2776" height="88"/>
<path fill="#010101" d="M9.865,41.224c-0.738-0.446-0.954-1.09-0.809-2.045c0.278-0.388,0.677-0.668,1.163-0.763
	c0.092-0.021,0.186-0.038,0.28-0.045c2.276-0.093,4.541-0.529,6.827-0.45c0.473,0.018,0.946-0.066,1.516-0.107
	c0.132,0.064,0.351,0.167,0.509,0.243c0.219,0.299,0.244,0.583,0.247,0.881c0.006,1.206,0.006,1.206-0.33,1.837
	c-0.121,0.037-0.257,0.119-0.396,0.126C15.841,40.991,12.812,41.256,9.865,41.224"/>
<path fill="#010101" d="M23.663,40.85c-0.736-0.448-0.953-1.089-0.807-2.043c0.277-0.39,0.674-0.669,1.163-0.767
	c0.091-0.02,0.185-0.036,0.28-0.041c2.275-0.094,4.541-0.252,6.827-0.173c0.473,0.019,0.946-0.063,1.516-0.107
	c0.132,0.063,0.35,0.169,0.507,0.243c0.222,0.298,0.245,0.581,0.247,0.883c0.008,1.204,0.008,1.204-0.33,1.831
	c-0.119,0.041-0.256,0.123-0.393,0.13C29.639,40.896,26.608,40.878,23.663,40.85"/>
<path fill="#010101" d="M37.263,40.872c-0.738-0.445-0.952-1.088-0.807-2.043c0.277-0.389,0.675-0.669,1.164-0.764
	c0.09-0.021,0.184-0.039,0.279-0.044c2.276-0.093,4.542-0.028,6.828,0.052c0.473,0.016,0.946-0.064,1.516-0.108
	c0.133,0.063,0.351,0.169,0.509,0.244c0.221,0.298,0.244,0.579,0.247,0.88c0.006,1.207,0.006,1.207-0.331,1.836
	c-0.12,0.04-0.257,0.122-0.394,0.127C43.242,41.143,40.209,40.904,37.263,40.872"/>
<path fill="#010101" d="M2.505,40.459c-0.036-0.417-0.066-0.811-0.096-1.132c0.505-0.805,1.096-1.32,1.927-1.416
	c0.563,0.031,0.917,0.311,1.229,0.782c0.227,0.835,0.168,1.648-0.627,2.287C4.1,41.266,3.336,41.173,2.505,40.459"/>
<path fill="#FBB041" d="M24.574,14.498c-0.904-0.23-1.837-0.195-2.77-0.152c-0.467,0.023-0.939,0.052-1.4-0.005
	c-0.285-0.035-0.553-0.226-0.736-0.306c-0.548-0.902-0.086-1.806-0.407-2.527c0.255-0.642,0.781-0.872,1.182-1.219
	c1.327-0.524,2.694-0.739,4.118-0.706c0.928,0.025,1.864-0.06,2.794-0.132c0.85-0.066,1.696-0.182,2.552-0.278
	c0.909,0.338,1.577,0.992,2.235,1.575c0.46,1.31,0.46,1.31,0.092,2.49c-0.83,0.92-2.307,0.446-3.146,1.5
	c0.549,3.735,0.168,7.547,0.226,11.393c-0.67,2.787-2.713,4.184-5.28,5.09c-1.456,0.189-2.933,0.117-4.41,0.023
	c-0.552-0.033-1.077-0.182-1.432-0.727c-0.286-0.564-0.186-1.18-0.014-1.781c0.3-1.041,0.631-2.076,0.954-3.138
	c0.205-0.085,0.409-0.17,0.68-0.283c0.48,0.375,0.96,0.753,1.451,1.138c0.225,0.02,0.456,0.043,0.659,0.061
	c0.806-0.246,1.377-0.767,1.927-1.347c0.721-1.149,1.005-2.45,1.064-3.773c0.091-2.02,0.055-4.045,0.065-6.071
	c0-0.152-0.059-0.304-0.092-0.453C24.787,14.747,24.686,14.63,24.574,14.498"/>
</svg>
