<?xml version="1.0" encoding="utf-8"?>
<!-- Generator: Adobe Illustrator 16.0.0, SVG Export Plug-In . SVG Version: 6.00 Build 0)  -->
<!DOCTYPE svg PUBLIC "-//W3C//DTD SVG 1.1//EN" "http://www.w3.org/Graphics/SVG/1.1/DTD/svg11.dtd">
<svg version="1.1" id="Layer_1" xmlns="http://www.w3.org/2000/svg" xmlns:xlink="http://www.w3.org/1999/xlink" x="0px" y="0px"
	 width="50px" height="50px" viewBox="0 0 50 50" enable-background="new 0 0 50 50" xml:space="preserve">
<rect x="-737" y="-18" fill="#FFFFFF" width="2776" height="88"/>
<path fill="#010101" d="M31.028,38.142c-0.716-0.446-0.925-1.09-0.783-2.045c0.268-0.388,0.654-0.667,1.125-0.763
	c0.088-0.022,0.18-0.038,0.272-0.044c2.205-0.095,4.399-0.251,6.611-0.172c0.458,0.017,0.917-0.065,1.469-0.109
	c0.127,0.063,0.337,0.17,0.493,0.244c0.213,0.299,0.237,0.582,0.237,0.882c0.009,1.206,0.009,1.206-0.319,1.835
	c-0.117,0.039-0.248,0.123-0.38,0.126C36.817,38.187,33.882,38.171,31.028,38.142"/>
<path fill="#010101" d="M10.368,38.42c-0.715-0.447-0.924-1.089-0.783-2.043c0.268-0.389,0.654-0.668,1.125-0.766
	c0.091-0.021,0.181-0.036,0.275-0.041c2.203-0.095,4.396-0.531,6.61-0.452c0.458,0.017,0.915-0.065,1.469-0.109
	c0.129,0.066,0.339,0.17,0.492,0.244c0.214,0.299,0.238,0.584,0.238,0.882c0.009,1.206,0.009,1.206-0.317,1.835
	c-0.119,0.039-0.25,0.123-0.384,0.126C16.158,38.186,13.22,38.45,10.368,38.42"/>
<path fill="#010101" d="M23.385,37.652c-0.036-0.414-0.066-0.809-0.095-1.13c0.505-0.805,1.096-1.318,1.927-1.417
	c0.563,0.032,0.917,0.311,1.228,0.783c0.228,0.835,0.168,1.65-0.626,2.286C24.98,38.461,24.216,38.37,23.385,37.652"/>
<path fill="#FBB041" d="M15.522,12.533c0.277-0.577,0.698-0.768,1.152-0.909c0.154-0.01,0.328-0.081,0.458-0.024
	c0.884,0.356,1.882,0.036,2.741,0.482c0.129,0.066,0.214,0.218,0.387,0.4c0.12,1.85-0.043,3.818,0.668,5.663
	c0.351,0.119,0.628-0.035,0.87-0.212c1.383-1.009,2.778-2.011,4.131-3.062c1.475-1.147,2.951-2.29,4.429-3.256
	c0.512-0.079,0.893-0.073,1.354,0.511c0.178,0.452,0.454,1.173,0.746,1.928c-0.17,0.28-0.274,0.602-0.496,0.793
	c-1.052,0.92-2.16,1.781-3.207,2.713c-1.164,1.032-2.289,2.107-3.416,3.176c-0.09,0.085-0.083,0.274-0.124,0.413
	c0.097,0.115,0.172,0.285,0.3,0.347c1.46,0.764,2.668,1.879,3.964,2.866c1.551,1.176,3.047,2.421,4.68,3.729
	c0.288,0.4,0.237,0.893-0.223,1.337c-0.222,0.216-0.46,0.418-0.77,0.698c-0.896,0.182-1.779,0.79-2.968,0.569
	c-1.025-0.379-1.854-1.234-2.704-2.018c-1.491-1.385-3.169-2.518-4.799-3.718c-0.245-0.18-0.538-0.309-0.825-0.425
	c-0.116-0.046-0.271,0.009-0.49,0.031c-0.118,1.358,0.646,2.536,0.797,3.755c0.021,0.687-0.301,1.106-0.758,1.447
	c-0.76,0.573-1.651,0.86-2.573,1.119c-0.158,0.337-0.321,0.675-0.497,1.048c-0.212,0.027-0.428,0.052-0.693,0.087
	c-0.27-0.665-0.531-1.304-0.755-1.86c0.177-2.279,0.247-4.451-0.288-6.602c-0.084-2.029-0.591-4.004-0.659-6.037
	c-0.046-1.397-0.289-2.787-0.43-4.184C15.495,13.036,15.522,12.724,15.522,12.533"/>
</svg>
