<?xml version="1.0" encoding="utf-8"?>
<!-- Generator: Adobe Illustrator 16.0.0, SVG Export Plug-In . SVG Version: 6.00 Build 0)  -->
<!DOCTYPE svg PUBLIC "-//W3C//DTD SVG 1.1//EN" "http://www.w3.org/Graphics/SVG/1.1/DTD/svg11.dtd">
<svg version="1.1" id="Layer_1" xmlns="http://www.w3.org/2000/svg" xmlns:xlink="http://www.w3.org/1999/xlink" x="0px" y="0px"
	 width="50px" height="50px" viewBox="0 0 50 50" enable-background="new 0 0 50 50" xml:space="preserve">
<rect x="-807" y="-18" fill="#FFFFFF" width="2776" height="88"/>
<path fill="#010101" d="M18.492,37.653c-0.706-0.446-0.911-1.091-0.772-2.045c0.264-0.389,0.644-0.668,1.111-0.763
	c0.086-0.023,0.177-0.039,0.27-0.044c2.174-0.093,4.336-0.531,6.52-0.452c0.451,0.019,0.902-0.063,1.448-0.105
	c0.125,0.062,0.334,0.168,0.484,0.24c0.211,0.302,0.234,0.584,0.237,0.883c0.006,1.205,0.006,1.205-0.314,1.837
	c-0.117,0.036-0.248,0.118-0.377,0.124C24.197,37.418,21.303,37.684,18.492,37.653"/>
<path fill="#010101" d="M11.373,36.886c-0.036-0.415-0.066-0.809-0.096-1.132c0.505-0.803,1.097-1.319,1.927-1.416
	c0.563,0.033,0.917,0.311,1.229,0.782c0.228,0.835,0.168,1.65-0.626,2.287C12.967,37.694,12.206,37.6,11.373,36.886"/>
<path fill="#010101" d="M31.069,36.886c-0.035-0.415-0.066-0.809-0.095-1.132c0.505-0.803,1.095-1.319,1.927-1.416
	c0.563,0.033,0.917,0.311,1.229,0.782c0.227,0.835,0.168,1.65-0.626,2.287C32.664,37.694,31.9,37.6,31.069,36.886"/>
<path fill="#010101" d="M37.547,36.886c-0.036-0.415-0.068-0.809-0.096-1.132c0.506-0.803,1.097-1.319,1.928-1.416
	c0.564,0.033,0.917,0.311,1.228,0.782c0.228,0.835,0.168,1.65-0.625,2.287C39.142,37.694,38.376,37.6,37.547,36.886"/>
<path fill="#FBB041" d="M23.527,13.229c0,0.306,0.013,0.698-0.003,1.087c-0.147,3.358-0.115,3.576,0.321,6.962
	c0.156,1.235,0.161,2.487,0.244,3.732c0.023,0.395,0.114,0.768,0.575,1.088c1.586,0.216,3.294,0.246,5.009,0.165
	c0.624-0.033,1.246-0.099,1.867-0.099c0.396,0.003,0.761,0.154,0.973,0.55c0.033,0.136,0.1,0.285,0.097,0.437
	c-0.013,0.697-0.043,1.391-0.073,2.187c-0.222,0.224-0.489,0.492-0.783,0.783c-0.415,0-0.802,0.028-1.186-0.006
	c-2.489-0.219-4.987-0.043-7.479-0.027c-0.621,0.008-1.254,0.04-1.867-0.036c-0.446-0.06-0.872-0.283-1.338-0.442
	c-0.095-0.326-0.217-0.615-0.255-0.91c-0.222-1.699-0.366-3.4-0.7-5.087c-0.257-1.297-0.278-2.646-0.017-3.958
	c0.375-1.871,0.214-3.706-0.168-5.542c-0.013-0.073,0.014-0.158,0.028-0.281c0.092-0.165,0.206-0.362,0.298-0.52
	c1.031-0.784,2.276-0.618,3.311-0.968C22.948,12.422,23.33,12.643,23.527,13.229"/>
</svg>
