<?xml version="1.0" encoding="utf-8"?>
<!-- Generator: Adobe Illustrator 16.0.0, SVG Export Plug-In . SVG Version: 6.00 Build 0)  -->
<!DOCTYPE svg PUBLIC "-//W3C//DTD SVG 1.1//EN" "http://www.w3.org/Graphics/SVG/1.1/DTD/svg11.dtd">
<svg version="1.1" id="Layer_1" xmlns="http://www.w3.org/2000/svg" xmlns:xlink="http://www.w3.org/1999/xlink" x="0px" y="0px"
	 width="50px" height="50px" viewBox="0 0 50 50" enable-background="new 0 0 50 50" xml:space="preserve">
<rect x="-877" y="-18" fill="#FFFFFF" width="2776" height="88"/>
<path fill="#010101" d="M27.678,38.203c-0.759-0.447-0.983-1.091-0.833-2.045c0.285-0.386,0.698-0.668,1.2-0.764
	c0.095-0.02,0.191-0.038,0.289-0.041c2.345-0.099,4.676-0.531,7.031-0.451c0.488,0.016,0.973-0.066,1.563-0.11
	c0.135,0.064,0.358,0.17,0.521,0.242c0.229,0.3,0.252,0.582,0.255,0.88c0.008,1.208,0.008,1.208-0.339,1.835
	c-0.126,0.041-0.267,0.123-0.405,0.126C33.835,37.967,30.713,38.231,27.678,38.203"/>
<path fill="#010101" d="M13.171,38.775c-0.76-0.449-0.982-1.091-0.833-2.045c0.286-0.388,0.698-0.668,1.2-0.766
	c0.094-0.018,0.191-0.038,0.289-0.041c2.343-0.097,4.676-0.529,7.032-0.451c0.485,0.018,0.973-0.066,1.562-0.11
	c0.136,0.064,0.358,0.171,0.522,0.244c0.228,0.298,0.251,0.582,0.253,0.88c0.008,1.208,0.008,1.208-0.337,1.833
	c-0.127,0.043-0.267,0.125-0.408,0.128C19.328,38.537,16.207,38.802,13.171,38.775"/>
<path fill="#FBB041" d="M31.446,11.223c0.545,0.188,0.724,0.647,1.019,1.002c0.245,0.297,0.533,0.559,0.729,0.76
	c0.144,0.889,0.259,1.657,0.392,2.422c0.329,1.924,0.737,3.833,0.688,5.799c0.368,1.597,0.293,3.255,0.667,4.857
	c0.298,1.291,0.264,2.623,0.2,3.738c-0.281,0.593-0.644,0.734-1.031,0.874c-0.394,0.119-0.727-0.174-1.104-0.221
	c-0.386-0.045-0.776-0.045-1.163-0.061c-0.4-0.025-0.771-0.106-1.075-0.517c-0.032-0.154-0.127-0.382-0.119-0.604
	c0.026-0.702,0.035-1.393-0.125-2.092c-0.229-0.998-0.177-1.996,0.029-3.015c0.328-1.62,0.159-3.26-0.032-4.887
	c-0.034-0.285-0.207-0.557-0.308-0.812c-0.163,0.026-0.267,0.018-0.314,0.06c-0.779,0.762-1.563,1.519-2.316,2.302
	c-1.079,1.122-2.125,2.277-3.199,3.401c-0.319,0.336-0.696,0.616-0.952,0.841c-0.508,0.189-0.883,0.211-1.255-0.018
	c-0.108-0.093-0.255-0.172-0.337-0.295c-0.262-0.391-0.493-0.796-0.739-1.191c-0.207-0.333-0.368-0.713-0.639-0.975
	c-1.138-1.081-1.995-2.391-3-3.583c-0.241-0.287-0.494-0.613-1.025-0.478c-0.184,1.064-0.147,2.156,0.125,3.218
	c0.179,0.687,0.297,1.379,0.284,2.079c-0.024,1.492,0.215,2.951,0.502,4.404c0.058,0.303,0.099,0.611,0.129,0.806
	c-0.076,0.539-0.312,0.858-0.689,1.01c-1.182,0.477-2.384,0.664-3.492,0.243c-0.515-0.426-0.636-0.88-0.646-1.354
	c-0.04-2.104-0.063-4.21-0.078-6.317c-0.004-1.093,0.081-2.187,0.034-3.274c-0.093-2.194,0.251-4.341,0.502-6.483
	c0.822-0.911,1.971-0.987,2.974-1.37c0.258-0.103,0.601,0.013,0.961,0.036c0.182,0.265,0.378,0.503,0.521,0.768
	c0.593,1.11,1.334,2.1,2.268,2.953c0.986,0.899,1.754,1.989,2.55,3.05c0.231,0.305,0.475,0.6,0.725,0.91
	c0.788-0.377,1.33-0.936,1.867-1.498c0.967-1.015,1.936-2.035,2.879-3.075c0.417-0.462,0.798-0.957,1.155-1.466
	c0.496-0.723,1.13-1.29,1.839-1.78C31.02,11.27,31.278,11.267,31.446,11.223"/>
</svg>
