<?xml version="1.0" encoding="utf-8"?>
<!-- Generator: Adobe Illustrator 16.0.0, SVG Export Plug-In . SVG Version: 6.00 Build 0)  -->
<!DOCTYPE svg PUBLIC "-//W3C//DTD SVG 1.1//EN" "http://www.w3.org/Graphics/SVG/1.1/DTD/svg11.dtd">
<svg version="1.1" id="Layer_1" xmlns="http://www.w3.org/2000/svg" xmlns:xlink="http://www.w3.org/1999/xlink" x="0px" y="0px"
	 width="465.022px" height="23.97px" viewBox="0 0 465.022 23.97" enable-background="new 0 0 465.022 23.97" xml:space="preserve">
<g>
	<path fill="#FFFFFF" d="M43.549,17.145c-1.963-1.16-2.541-2.821-2.154-5.285c0.741-1.006,1.805-1.732,3.103-1.982
		c0.246-0.041,0.496-0.096,0.746-0.107c6.066-0.25,12.098-1.375,18.188-1.166c1.262,0.041,2.521-0.172,4.042-0.279
		c0.35,0.16,0.93,0.434,1.346,0.631c0.594,0.768,0.655,1.5,0.666,2.273c0.021,3.119,0.021,3.119-0.878,4.743
		c-0.326,0.107-0.689,0.322-1.053,0.328C59.474,16.531,51.399,17.216,43.549,17.145"/>
	<path fill="#FFFFFF" d="M9.863,17.145c-1.969-1.16-2.541-2.821-2.151-5.285c0.738-1.006,1.802-1.732,3.1-1.982
		c0.241-0.041,0.494-0.096,0.747-0.107c6.063-0.25,12.097-1.375,18.188-1.166c1.259,0.041,2.521-0.172,4.041-0.279
		c0.35,0.16,0.93,0.434,1.35,0.631c0.588,0.768,0.651,1.5,0.654,2.273c0.025,3.119,0.025,3.119-0.87,4.743
		c-0.329,0.107-0.687,0.322-1.055,0.328C25.789,16.531,17.714,17.216,9.863,17.145"/>
	<path fill="#FFFFFF" d="M118.4,17.145c-1.878-1.16-2.426-2.821-2.054-5.285c0.704-1.006,1.722-1.732,2.955-1.982
		c0.235-0.041,0.474-0.096,0.713-0.107c5.791-0.25,11.544-1.375,17.358-1.166c1.201,0.041,2.401-0.172,3.848-0.279
		c0.336,0.16,0.887,0.434,1.29,0.631c0.562,0.768,0.62,1.5,0.628,2.273c0.021,3.119,0.021,3.119-0.836,4.743
		c-0.31,0.107-0.652,0.322-1.002,0.328C133.594,16.531,125.891,17.216,118.4,17.145"/>
	<path fill="#FFFFFF" d="M150.273,17.145c-1.878-1.16-2.426-2.821-2.054-5.285c0.707-1.006,1.722-1.732,2.955-1.982
		c0.235-0.041,0.474-0.096,0.716-0.107c5.788-0.25,11.541-1.375,17.355-1.166c1.201,0.041,2.401-0.172,3.853-0.279
		c0.334,0.16,0.882,0.434,1.285,0.631c0.567,0.768,0.628,1.5,0.631,2.273c0.021,3.119,0.021,3.119-0.839,4.743
		c-0.304,0.107-0.652,0.322-1.002,0.328C165.467,16.531,157.764,17.216,150.273,17.145"/>
	<path fill="#FFFFFF" d="M182.289,17.145c-1.873-1.16-2.419-2.821-2.05-5.285c0.703-1.006,1.718-1.732,2.954-1.982
		c0.232-0.041,0.471-0.096,0.715-0.107c5.786-0.25,11.539-1.375,17.354-1.166c1.201,0.041,2.404-0.172,3.853-0.279
		c0.335,0.16,0.89,0.434,1.288,0.631c0.562,0.768,0.625,1.5,0.631,2.273c0.016,3.119,0.016,3.119-0.841,4.743
		c-0.305,0.107-0.653,0.322-1.003,0.328C197.482,16.531,189.779,17.216,182.289,17.145"/>
	<path fill="#FFFFFF" d="M264.566,17.145c-1.828-1.16-2.357-2.821-2-5.285c0.684-1.006,1.672-1.732,2.875-1.982
		c0.227-0.041,0.459-0.096,0.695-0.107c5.619-0.25,11.213-1.375,16.855-1.166c1.168,0.041,2.334-0.172,3.744-0.279
		c0.328,0.16,0.869,0.434,1.256,0.631c0.541,0.768,0.607,1.5,0.607,2.273c0.023,3.119,0.023,3.119-0.811,4.743
		c-0.303,0.107-0.637,0.322-0.975,0.328C279.326,16.531,271.846,17.216,264.566,17.145"/>
	<path fill="#FFFFFF" d="M250.104,15.157c-0.096-1.072-0.178-2.09-0.25-2.923c1.309-2.084,2.84-3.41,4.988-3.666
		c1.457,0.082,2.367,0.803,3.178,2.023c0.59,2.16,0.434,4.273-1.619,5.922C254.223,17.252,252.246,17.014,250.104,15.157"/>
	<path fill="#FFFFFF" d="M294.443,15.157c-0.094-1.072-0.178-2.09-0.25-2.923c1.305-2.084,2.84-3.41,4.982-3.666
		c1.463,0.082,2.375,0.803,3.184,2.023c0.59,2.16,0.43,4.273-1.625,5.922C298.562,17.252,296.586,17.014,294.443,15.157"/>
	<path fill="#FFFFFF" d="M352.955,15.157c-0.096-1.072-0.172-2.09-0.25-2.923c1.303-2.084,2.84-3.41,4.982-3.666
		c1.463,0.082,2.375,0.803,3.184,2.023c0.59,2.16,0.434,4.273-1.619,5.922C357.074,17.252,355.104,17.014,352.955,15.157"/>
	<path fill="#FFFFFF" d="M364.936,15.157c-0.088-1.072-0.172-2.09-0.244-2.923c1.311-2.084,2.84-3.41,4.988-3.666
		c1.459,0.082,2.369,0.803,3.178,2.023c0.59,2.16,0.436,4.273-1.619,5.922C369.061,17.252,367.084,17.014,364.936,15.157"/>
	<path fill="#FFFFFF" d="M376.922,15.157c-0.088-1.072-0.172-2.09-0.242-2.923c1.303-2.084,2.838-3.41,4.98-3.666
		c1.465,0.082,2.375,0.803,3.184,2.023c0.59,2.16,0.43,4.273-1.623,5.922C381.047,17.252,379.072,17.014,376.922,15.157"/>
	<path fill="#FFFFFF" d="M451.182,15.163c-0.088-1.078-0.172-2.096-0.244-2.929c1.305-2.084,2.834-3.41,4.982-3.66
		c1.465,0.082,2.375,0.803,3.184,2.023c0.59,2.161,0.436,4.268-1.617,5.916C455.312,17.252,453.33,17.014,451.182,15.163"/>
</g>
</svg>
