<?xml version="1.0" encoding="utf-8"?>
<!-- Generator: Adobe Illustrator 16.0.0, SVG Export Plug-In . SVG Version: 6.00 Build 0)  -->
<!DOCTYPE svg PUBLIC "-//W3C//DTD SVG 1.1//EN" "http://www.w3.org/Graphics/SVG/1.1/DTD/svg11.dtd">
<svg version="1.1" id="Layer_1" xmlns="http://www.w3.org/2000/svg" xmlns:xlink="http://www.w3.org/1999/xlink" x="0px" y="0px"
	 width="385.512px" height="230px" viewBox="0 14.477 385.512 230" enable-background="new 0 14.477 385.512 230"
	 xml:space="preserve">
<rect x="0" fill="#FFFFFF" width="385.512" height="257.953"/>
<g>
	<text transform="matrix(1 0 0 1 81.0579 31.1045)" font-family="'NeuzeitGroT-Blac'" font-size="13">INTER</text>
	<text transform="matrix(1 0 0 1 113.6409 31.1045)" font-family="'NeuzeitGroT-Blac'" font-size="13">N</text>
	<text transform="matrix(1 0 0 1 122.6731 31.1045)" font-family="'NeuzeitGroT-Blac'" font-size="13">A</text>
	<text transform="matrix(1 0 0 1 130.6038 31.1045)" font-family="'NeuzeitGroT-Blac'" font-size="13">TIO</text>
	<text transform="matrix(1 0 0 1 150.5222 31.1045)" font-family="'NeuzeitGroT-Blac'" font-size="13">N</text>
	<text transform="matrix(1 0 0 1 159.5554 31.1045)" font-family="'NeuzeitGroT-Blac'" font-size="13">AL MORSE </text>
	<text transform="matrix(1 0 0 1 223.635 31.1045)" font-family="'NeuzeitGroT-Blac'" font-size="13">C</text>
	<text transform="matrix(1 0 0 1 231.6526 31.1045)" font-family="'NeuzeitGroT-Blac'" font-size="13">ODE </text>
	<text transform="matrix(1 0 0 1 259.9944 31.1045)" font-family="'NeuzeitGroT-Blac'" font-size="13">C</text>
	<text transform="matrix(1 0 0 1 268.2854 31.1045)" font-family="'NeuzeitGroT-Blac'" font-size="13">HA</text>
	<text transform="matrix(1 0 0 1 285.3792 31.1045)" font-family="'NeuzeitGroT-Blac'" font-size="13">R</text>
	<text transform="matrix(1 0 0 1 293.137 31.1045)" font-family="'NeuzeitGroT-Blac'" font-size="13">T</text>
	<text transform="matrix(1 0 0 1 25.6448 43.0049)" fill="#939598" font-family="'NeuzeitGroT-Blac'" font-size="6">D</text>
	<text transform="matrix(1 0 0 1 29.533 43.0049)" fill="#939598" font-family="'NeuzeitGroT-Blac'" font-size="6">O</text>
	<text transform="matrix(1 0 0 1 34.1038 43.0049)" fill="#939598" font-family="'NeuzeitGroT-Blac'" font-size="6">T </text>
	<text transform="matrix(1 0 0 1 38.7136 43.0049)" font-family="'AppleCasual'" font-size="6">–SHORT BEEP  </text>
	<text transform="matrix(1 0 0 1 79.8674 43.0049)" font-family="'NeuzeitGroT-Blac'" font-size="6"> </text>
	<text transform="matrix(1 0 0 1 81.6667 43.0049)" fill="#939598" font-family="'NeuzeitGroT-Blac'" font-size="6">D</text>
	<text transform="matrix(1 0 0 1 85.4641 43.0049)" fill="#939598" font-family="'NeuzeitGroT-Blac'" font-size="6">ASH </text>
	<text transform="matrix(1 0 0 1 98.366 43.0049)" font-family="'AppleCasual'" font-size="6">–LONGER BEEP   </text>
	<text transform="matrix(1 0 0 1 145.7048 43.0049)" fill="#939598" font-family="'NeuzeitGroT-Blac'" font-size="6">SHO</text>
	<text transform="matrix(1 0 0 1 157.5847 43.0049)" fill="#939598" font-family="'NeuzeitGroT-Blac'" font-size="6">R</text>
	<text transform="matrix(1 0 0 1 161.1653 43.0049)" fill="#939598" font-family="'NeuzeitGroT-Blac'" font-size="6">T </text>
	<text transform="matrix(1 0 0 1 165.7795 43.0049)" fill="#939598" font-family="'NeuzeitGroT-Blac'" font-size="6">P</text>
	<text transform="matrix(1 0 0 1 168.9587 43.0049)" fill="#939598" font-family="'NeuzeitGroT-Blac'" font-size="6">A</text>
	<text transform="matrix(1 0 0 1 172.7878 43.0049)" fill="#939598" font-family="'NeuzeitGroT-Blac'" font-size="6">USE </text>
	<text transform="matrix(1 0 0 1 184.3948 43.0049)" font-family="'AppleCasual'" font-size="6">–BETWEEN EVERY LETTER   </text>
	<text transform="matrix(1 0 0 1 260.6897 43.0049)" fill="#939598" font-family="'NeuzeitGroT-Blac'" font-size="6">L</text>
	<text transform="matrix(1 0 0 1 263.3147 43.0049)" fill="#939598" font-family="'NeuzeitGroT-Blac'" font-size="6">O</text>
	<text transform="matrix(1 0 0 1 267.9573 43.0049)" fill="#939598" font-family="'NeuzeitGroT-Blac'" font-size="6">N</text>
	<text transform="matrix(1 0 0 1 272.1702 43.0049)" fill="#939598" font-family="'NeuzeitGroT-Blac'" font-size="6">G </text>
	<text transform="matrix(1 0 0 1 278.5393 43.0049)" fill="#939598" font-family="'NeuzeitGroT-Blac'" font-size="6">P</text>
	<text transform="matrix(1 0 0 1 281.719 43.0049)" fill="#939598" font-family="'NeuzeitGroT-Blac'" font-size="6">A</text>
	<text transform="matrix(1 0 0 1 285.5471 43.0049)" fill="#939598" font-family="'NeuzeitGroT-Blac'" font-size="6">USE </text>
	<text transform="matrix(1 0 0 1 297.1467 43.0049)" font-family="'AppleCasual'" font-size="6">–BETWEEN EVERY WORD</text>
	<text transform="matrix(1 0 0 1 360.2229 43.0049)" font-family="'AppleCasual'" font-size="6">   </text>
	<text transform="matrix(1 0 0 1 363.0667 43.0049)" font-family="'AppleCasual'" font-size="6"> </text>
	<g>
		<path d="M72.609,102.101c-0.021-0.257-0.041-0.501-0.059-0.701c0.312-0.498,0.679-0.817,1.194-0.877
			c0.349,0.02,0.566,0.193,0.761,0.485c0.141,0.517,0.104,1.023-0.388,1.417C73.597,102.602,73.124,102.545,72.609,102.101"/>
		<path d="M76.463,102.101c-0.022-0.257-0.042-0.501-0.061-0.701c0.313-0.498,0.681-0.817,1.194-0.877
			c0.349,0.02,0.568,0.193,0.761,0.485c0.143,0.517,0.104,1.023-0.388,1.417C77.451,102.602,76.977,102.545,76.463,102.101"/>
		<path d="M80.396,102.101c-0.021-0.257-0.041-0.501-0.059-0.701c0.312-0.498,0.679-0.817,1.194-0.877
			c0.349,0.02,0.566,0.193,0.761,0.485c0.141,0.517,0.104,1.023-0.39,1.417C81.383,102.602,80.91,102.545,80.396,102.101"/>
		<path d="M84.351,102.101c-0.021-0.257-0.042-0.501-0.059-0.701c0.312-0.498,0.679-0.817,1.192-0.877
			c0.351,0.02,0.568,0.193,0.763,0.485c0.141,0.517,0.104,1.023-0.39,1.417C85.339,102.602,84.865,102.545,84.351,102.101"/>
		<path d="M190.314,237.4c-0.444-0.277-0.576-0.676-0.487-1.269c0.168-0.239,0.407-0.414,0.701-0.474
			c0.058-0.014,0.113-0.023,0.172-0.025c1.375-0.06,2.74-0.328,4.121-0.279c0.286,0.013,0.572-0.041,0.916-0.066
			c0.08,0.039,0.214,0.104,0.309,0.15c0.134,0.186,0.147,0.358,0.147,0.545c0.008,0.748,0.008,0.748-0.197,1.137
			c-0.073,0.025-0.155,0.076-0.239,0.079C193.924,237.254,192.094,237.418,190.314,237.4"/>
		<path d="M175.194,237.341c-0.444-0.278-0.574-0.676-0.487-1.268c0.168-0.239,0.407-0.413,0.703-0.474
			c0.056-0.013,0.111-0.022,0.17-0.024c1.375-0.062,2.74-0.329,4.123-0.28c0.284,0.012,0.57-0.041,0.916-0.068
			c0.078,0.039,0.213,0.105,0.307,0.151c0.134,0.185,0.146,0.36,0.149,0.545c0.005,0.748,0.005,0.748-0.198,1.136
			c-0.074,0.026-0.156,0.077-0.24,0.08C178.805,237.193,176.974,237.357,175.194,237.341"/>
		<path d="M182.853,203.118c-0.444-0.278-0.576-0.677-0.489-1.269c0.17-0.24,0.409-0.414,0.703-0.475
			c0.058-0.012,0.113-0.021,0.17-0.023c1.375-0.062,2.742-0.201,4.123-0.151c0.286,0.011,0.572,0.161,0.916,0.136
			c0.08,0.039,0.212,0.104,0.309,0.15c0.134,0.185,0.146,0.358,0.147,0.545c0.005,0.748,0.005,0.748-0.197,1.137
			c-0.072,0.025-0.154,0.077-0.238,0.079C186.463,203.303,184.633,203.135,182.853,203.118"/>
		<path d="M190.826,202.958c-0.445-0.278-0.575-0.676-0.488-1.269c0.168-0.238,0.409-0.414,0.703-0.475
			c0.056-0.011,0.11-0.021,0.17-0.023c1.375-0.062,2.543-0.041,3.923,0.009c0.286,0.011,0.572-0.041,0.917-0.068
			c0.079,0.039,0.211,0.104,0.307,0.151c0.135,0.184,0.146,0.359,0.148,0.545c0.006,0.748,0.006,0.748-0.199,1.136
			c-0.072,0.026-0.155,0.077-0.239,0.079C194.236,203.1,192.606,202.975,190.826,202.958"/>
		<path d="M190.405,168.414c-0.444-0.278-0.574-0.676-0.487-1.268c0.168-0.239,0.409-0.414,0.703-0.476
			c0.057-0.011,0.111-0.021,0.17-0.024c1.375-0.061,2.739-0.215,4.122-0.166c0.284,0.012,0.57-0.041,0.916-0.067
			c0.08,0.04,0.212,0.104,0.308,0.151c0.133,0.185,0.148,0.358,0.148,0.545c0.006,0.748,0.006,0.748-0.199,1.137
			c-0.072,0.025-0.154,0.076-0.238,0.078C194.015,168.38,192.186,168.432,190.405,168.414"/>
		<path d="M182.794,101.636c-0.446-0.278-0.576-0.676-0.489-1.267c0.168-0.24,0.409-0.414,0.703-0.474
			c0.056-0.011,0.112-0.023,0.17-0.025c1.375-0.06,2.743-0.156,4.124-0.106c0.286,0.01,0.572-0.042,0.916-0.068
			c0.08,0.039,0.211,0.104,0.307,0.151c0.135,0.184,0.148,0.36,0.149,0.544c0.005,0.749,0.005,0.749-0.199,1.137
			c-0.073,0.026-0.155,0.076-0.239,0.079C186.404,101.662,184.572,101.652,182.794,101.636"/>
		<path d="M251.049,137.249c-0.445-0.278-0.576-0.676-0.488-1.269c0.168-0.238,0.408-0.414,0.703-0.475
			c0.055-0.011,0.113-0.021,0.17-0.023c1.375-0.062,2.742-0.328,4.123-0.279c0.285,0.011,0.572-0.041,0.916-0.068
			c0.08,0.039,0.211,0.105,0.307,0.151c0.135,0.185,0.148,0.36,0.148,0.545c0.006,0.748,0.006,0.748-0.199,1.136
			c-0.07,0.026-0.152,0.077-0.236,0.079C254.66,137.102,252.83,137.266,251.049,137.249"/>
		<path d="M248.566,168.646c-0.445-0.277-0.574-0.676-0.488-1.269c0.168-0.237,0.408-0.413,0.701-0.476
			c0.059-0.01,0.113-0.021,0.172-0.023c1.375-0.061,2.74-0.328,4.121-0.277c0.287,0.01,0.572-0.041,0.916-0.068
			c0.08,0.04,0.215,0.105,0.311,0.15c0.133,0.186,0.146,0.359,0.146,0.545c0.006,0.748,0.006,0.748-0.197,1.137
			c-0.072,0.025-0.154,0.076-0.238,0.078C252.176,168.5,250.346,168.664,248.566,168.646"/>
		<path d="M247.217,201.982c-0.447-0.276-0.576-0.676-0.49-1.268c0.168-0.238,0.41-0.414,0.703-0.474
			c0.057-0.013,0.113-0.023,0.17-0.025c1.375-0.06,2.742-0.327,4.123-0.278c0.287,0.011,0.572-0.041,0.916-0.067
			c0.08,0.039,0.213,0.104,0.307,0.149c0.135,0.187,0.148,0.36,0.15,0.545c0.004,0.748,0.004,0.748-0.199,1.138
			c-0.072,0.024-0.154,0.075-0.238,0.077C250.826,201.837,248.994,202.001,247.217,201.982"/>
		<path d="M242.879,236.034c-0.447-0.278-0.576-0.677-0.49-1.269c0.168-0.24,0.41-0.414,0.703-0.475
			c0.057-0.012,0.113-0.021,0.17-0.023c1.375-0.062,2.742-0.33,4.123-0.279c0.287,0.011,0.572-0.041,0.916-0.068
			c0.08,0.039,0.213,0.104,0.309,0.15c0.135,0.186,0.146,0.361,0.148,0.546c0.004,0.748,0.004,0.748-0.199,1.136
			c-0.072,0.025-0.154,0.077-0.238,0.079C246.488,235.887,244.658,236.051,242.879,236.034"/>
		<path d="M283.473,72.783c-0.021-0.257-0.041-0.501-0.059-0.701c0.312-0.498,0.678-0.817,1.191-0.877
			c0.352,0.02,0.568,0.193,0.764,0.485c0.141,0.517,0.104,1.023-0.391,1.417C284.461,73.284,283.988,73.227,283.473,72.783"/>
		<path d="M309.756,201.896c-0.023-0.258-0.041-0.502-0.062-0.701c0.314-0.498,0.682-0.816,1.195-0.877
			c0.348,0.021,0.568,0.191,0.76,0.483c0.145,0.519,0.105,1.023-0.387,1.418C310.744,202.396,310.27,202.341,309.756,201.896"/>
		<path d="M272.428,235.5c-0.447-0.277-0.576-0.676-0.49-1.268c0.168-0.239,0.41-0.414,0.703-0.476
			c0.059-0.01,0.113-0.021,0.17-0.022c1.375-0.062,2.742-0.33,4.123-0.28c0.287,0.011,0.572-0.041,0.916-0.068
			c0.08,0.039,0.213,0.105,0.309,0.151c0.135,0.186,0.146,0.361,0.148,0.545c0.004,0.748,0.004,0.748-0.199,1.136
			c-0.072,0.026-0.154,0.077-0.238,0.079C276.037,235.354,274.207,235.518,272.428,235.5"/>
		<path d="M280.496,235.5c-0.445-0.277-0.576-0.676-0.488-1.268c0.168-0.239,0.408-0.414,0.703-0.476
			c0.055-0.01,0.113-0.021,0.17-0.022c1.375-0.062,2.742-0.33,4.123-0.28c0.285,0.011,0.572-0.041,0.916-0.068
			c0.08,0.039,0.211,0.105,0.307,0.151c0.133,0.186,0.148,0.361,0.148,0.545c0.006,0.748,0.006,0.748-0.199,1.136
			c-0.072,0.026-0.154,0.077-0.238,0.079C284.105,235.354,282.277,235.518,280.496,235.5"/>
		<path d="M288.943,235.439c-0.443-0.277-0.574-0.676-0.486-1.269c0.168-0.237,0.406-0.414,0.703-0.474
			c0.055-0.012,0.111-0.023,0.17-0.025c1.375-0.061,2.74-0.329,4.123-0.277c0.283,0.01,0.57-0.041,0.916-0.068
			c0.078,0.039,0.211,0.104,0.307,0.15c0.133,0.186,0.146,0.359,0.146,0.545c0.008,0.748,0.008,0.748-0.197,1.137
			c-0.072,0.025-0.154,0.076-0.238,0.078C292.555,235.293,290.723,235.457,288.943,235.439"/>
		<path d="M297.082,235.439c-0.447-0.277-0.576-0.676-0.49-1.269c0.168-0.237,0.41-0.414,0.703-0.474
			c0.057-0.012,0.113-0.023,0.17-0.025c1.375-0.061,2.742-0.329,4.123-0.277c0.287,0.01,0.572,0.162,0.916,0.135
			c0.08,0.039,0.213,0.104,0.307,0.15c0.133,0.186,0.148,0.359,0.15,0.547c0.004,0.746,0.004,0.746-0.199,1.135
			c-0.074,0.024-0.156,0.078-0.24,0.08C300.691,235.497,298.861,235.457,297.082,235.439"/>
		<path d="M305.002,235.439c-0.447-0.277-0.576-0.676-0.49-1.269c0.168-0.237,0.41-0.414,0.703-0.474
			c0.057-0.012,0.113-0.023,0.17-0.025c1.375-0.061,2.742-0.329,4.123-0.277c0.287,0.01,0.572-0.041,0.916-0.068
			c0.08,0.039,0.213,0.104,0.309,0.15c0.135,0.186,0.146,0.359,0.148,0.545c0.004,0.748,0.004,0.748-0.199,1.137
			c-0.072,0.025-0.154,0.076-0.238,0.078C308.611,235.293,306.781,235.457,305.002,235.439"/>
		<path d="M278.654,202.434c-0.443-0.276-0.574-0.677-0.486-1.268c0.168-0.24,0.408-0.414,0.703-0.475
			c0.057-0.012,0.111-0.022,0.17-0.024c1.375-0.062,2.742-0.329,4.123-0.28c0.283,0.012,0.57-0.041,0.916-0.066
			c0.08,0.039,0.211,0.104,0.307,0.15c0.133,0.187,0.148,0.359,0.148,0.545c0.006,0.748,0.006,0.748-0.199,1.137
			c-0.072,0.024-0.154,0.076-0.238,0.078C282.266,202.286,280.434,202.45,278.654,202.434"/>
		<path d="M286.131,202.373c-0.447-0.277-0.576-0.676-0.49-1.268c0.168-0.239,0.41-0.414,0.703-0.476
			c0.057-0.011,0.113-0.021,0.17-0.024c1.375-0.061,2.742-0.328,4.123-0.278c0.287,0.011,0.572-0.041,0.916-0.068
			c0.08,0.039,0.213,0.105,0.307,0.151c0.135,0.186,0.148,0.359,0.15,0.545c0.004,0.748,0.004,0.748-0.199,1.136
			c-0.074,0.026-0.156,0.077-0.24,0.079C289.74,202.227,287.91,202.391,286.131,202.373"/>
		<path d="M294.268,202.373c-0.443-0.277-0.576-0.676-0.488-1.268c0.17-0.239,0.408-0.414,0.703-0.476
			c0.057-0.011,0.111-0.021,0.17-0.024c1.375-0.061,2.742-0.328,4.123-0.278c0.285,0.011,0.57-0.041,0.916-0.068
			c0.08,0.039,0.211,0.105,0.309,0.151c0.133,0.186,0.146,0.359,0.146,0.545c0.006,0.748,0.006,0.748-0.197,1.136
			c-0.072,0.026-0.154,0.077-0.238,0.079C297.877,202.227,296.047,202.391,294.268,202.373"/>
		<path d="M302.188,202.373c-0.443-0.277-0.576-0.676-0.486-1.268c0.168-0.239,0.406-0.414,0.701-0.476
			c0.057-0.011,0.113-0.021,0.172-0.024c1.375-0.061,2.74-0.328,4.121-0.278c0.285,0.011,0.572-0.041,0.916-0.068
			c0.08,0.039,0.211,0.105,0.309,0.151c0.133,0.186,0.146,0.359,0.146,0.545c0.008,0.748,0.008,0.748-0.197,1.136
			c-0.072,0.026-0.154,0.077-0.238,0.079C305.799,202.227,303.967,202.391,302.188,202.373"/>
		<path d="M305.525,169.479c-0.021-0.258-0.041-0.502-0.059-0.701c0.312-0.498,0.678-0.815,1.193-0.877
			c0.35,0.021,0.566,0.192,0.762,0.484c0.141,0.518,0.104,1.022-0.389,1.417C306.514,169.979,306.041,169.922,305.525,169.479"/>
		<path d="M309.352,169.479c-0.021-0.258-0.043-0.502-0.059-0.701c0.312-0.498,0.678-0.815,1.191-0.877
			c0.352,0.021,0.568,0.192,0.764,0.484c0.141,0.518,0.104,1.022-0.391,1.417C310.34,169.979,309.865,169.922,309.352,169.479"/>
		<path d="M281.9,169.954c-0.443-0.278-0.574-0.677-0.486-1.269c0.168-0.24,0.406-0.414,0.699-0.475
			c0.059-0.011,0.113-0.021,0.174-0.023c1.375-0.062,2.738-0.33,4.123-0.279c0.283,0.011,0.568-0.041,0.912-0.068
			c0.08,0.039,0.215,0.104,0.311,0.15c0.133,0.186,0.146,0.361,0.146,0.546c0.008,0.748,0.008,0.748-0.197,1.136
			c-0.072,0.025-0.154,0.077-0.238,0.079C285.51,169.807,283.68,169.971,281.9,169.954"/>
		<path d="M290.037,169.954c-0.445-0.278-0.576-0.677-0.488-1.269c0.168-0.24,0.408-0.414,0.703-0.475
			c0.057-0.011,0.113-0.021,0.17-0.023c1.375-0.062,2.742-0.33,4.123-0.279c0.285,0.011,0.572-0.041,0.916-0.068
			c0.08,0.039,0.211,0.104,0.307,0.15c0.133,0.186,0.148,0.361,0.148,0.546c0.006,0.748,0.006,0.748-0.197,1.136
			c-0.074,0.025-0.156,0.077-0.24,0.079C293.648,169.807,291.818,169.971,290.037,169.954"/>
		<path d="M297.959,169.954c-0.447-0.278-0.576-0.677-0.49-1.269c0.168-0.24,0.41-0.414,0.703-0.475
			c0.057-0.011,0.113-0.021,0.17-0.023c1.375-0.062,2.742-0.33,4.123-0.279c0.287,0.011,0.572-0.041,0.916-0.068
			c0.08,0.039,0.213,0.104,0.307,0.15c0.133,0.186,0.148,0.361,0.15,0.546c0.004,0.748,0.004,0.748-0.199,1.136
			c-0.074,0.025-0.156,0.077-0.24,0.079C301.568,169.807,299.738,169.971,297.959,169.954"/>
		<path d="M299.27,136.771c-0.021-0.256-0.041-0.5-0.061-0.701c0.312-0.496,0.68-0.815,1.193-0.877
			c0.35,0.021,0.566,0.192,0.762,0.486c0.141,0.516,0.104,1.021-0.389,1.415C300.256,137.273,299.783,137.217,299.27,136.771"/>
		<path d="M342.453,136.555c-0.021-0.258-0.041-0.502-0.061-0.701c0.312-0.498,0.682-0.815,1.195-0.877
			c0.348,0.021,0.565,0.192,0.76,0.484c0.143,0.518,0.104,1.023-0.387,1.417C343.441,137.057,342.969,136.998,342.453,136.555"/>
		<path d="M346.055,136.605c-0.021-0.258-0.041-0.502-0.059-0.701c0.312-0.498,0.678-0.817,1.191-0.877
			c0.352,0.02,0.568,0.19,0.764,0.482c0.141,0.52,0.104,1.022-0.391,1.417C347.043,137.105,346.568,137.049,346.055,136.605"/>
		<path d="M302.963,136.771c-0.023-0.256-0.041-0.5-0.062-0.701c0.314-0.496,0.682-0.815,1.195-0.877
			c0.348,0.021,0.568,0.192,0.76,0.486c0.145,0.516,0.105,1.021-0.387,1.415C303.951,137.273,303.477,137.217,302.963,136.771"/>
		<path d="M306.607,136.771c-0.021-0.256-0.041-0.5-0.059-0.701c0.312-0.496,0.678-0.815,1.193-0.877
			c0.35,0.021,0.566,0.192,0.762,0.486c0.141,0.516,0.104,1.021-0.391,1.415C307.596,137.273,307.123,137.217,306.607,136.771"/>
		<path d="M283.781,137.249c-0.445-0.278-0.576-0.676-0.488-1.269c0.168-0.238,0.408-0.414,0.703-0.475
			c0.055-0.011,0.109-0.021,0.17-0.023c1.375-0.062,2.74-0.328,4.123-0.279c0.285,0.011,0.568-0.041,0.916-0.068
			c0.078,0.039,0.211,0.105,0.307,0.151c0.133,0.185,0.146,0.36,0.148,0.545c0.006,0.748,0.006,0.748-0.199,1.136
			c-0.072,0.026-0.154,0.077-0.238,0.079C287.391,137.102,285.561,137.266,283.781,137.249"/>
		<path d="M291.701,137.249c-0.445-0.278-0.576-0.676-0.488-1.269c0.168-0.238,0.408-0.414,0.703-0.475
			c0.055-0.011,0.111-0.021,0.17-0.023c1.375-0.062,2.742-0.328,4.123-0.279c0.285,0.011,0.57-0.041,0.916-0.068
			c0.08,0.039,0.211,0.105,0.307,0.151c0.133,0.185,0.148,0.36,0.148,0.545c0.006,0.748,0.006,0.748-0.199,1.136
			c-0.072,0.026-0.154,0.077-0.238,0.079C295.311,137.102,293.48,137.266,291.701,137.249"/>
		<path d="M339.217,102.974c-0.021-0.257-0.041-0.501-0.059-0.701c0.312-0.498,0.68-0.817,1.191-0.877
			c0.352,0.02,0.568,0.193,0.762,0.485c0.143,0.517,0.104,1.023-0.389,1.417C340.205,103.475,339.73,103.417,339.217,102.974"/>
		<path d="M350.434,102.974c-0.021-0.257-0.041-0.501-0.059-0.701c0.312-0.498,0.678-0.817,1.191-0.877
			c0.352,0.02,0.568,0.193,0.764,0.485c0.141,0.517,0.104,1.023-0.391,1.417C351.422,103.475,350.947,103.417,350.434,102.974"/>
		<path d="M327.674,102.974c-0.021-0.257-0.043-0.501-0.059-0.701c0.312-0.498,0.678-0.817,1.191-0.877
			c0.352,0.02,0.568,0.193,0.762,0.485c0.143,0.517,0.104,1.023-0.389,1.417C328.662,103.475,328.188,103.417,327.674,102.974"/>
		<path d="M289.721,103.146c-0.021-0.257-0.041-0.501-0.061-0.701c0.312-0.498,0.68-0.817,1.193-0.877
			c0.35,0.02,0.568,0.193,0.762,0.485c0.143,0.517,0.104,1.023-0.389,1.417C290.709,103.646,290.234,103.589,289.721,103.146"/>
		<path d="M293.59,103.146c-0.021-0.257-0.041-0.501-0.059-0.701c0.312-0.498,0.678-0.817,1.191-0.877
			c0.352,0.02,0.568,0.193,0.762,0.485c0.143,0.517,0.104,1.023-0.389,1.417C294.578,103.646,294.105,103.589,293.59,103.146"/>
		<path d="M300.834,103.146c-0.021-0.257-0.043-0.501-0.061-0.701c0.312-0.498,0.68-0.817,1.193-0.877
			c0.35,0.02,0.568,0.193,0.762,0.485c0.143,0.517,0.104,1.023-0.389,1.417C301.822,103.646,301.348,103.589,300.834,103.146"/>
		<path d="M297.279,103.146c-0.021-0.257-0.041-0.501-0.059-0.701c0.312-0.498,0.678-0.817,1.193-0.877
			c0.35,0.02,0.566,0.193,0.762,0.485c0.141,0.517,0.104,1.023-0.389,1.417C298.268,103.646,297.795,103.589,297.279,103.146"/>
		<path d="M287.18,72.783c-0.021-0.257-0.041-0.501-0.059-0.701c0.312-0.498,0.678-0.817,1.191-0.877
			c0.352,0.02,0.568,0.193,0.764,0.485c0.141,0.517,0.104,1.023-0.391,1.417C288.168,73.284,287.695,73.227,287.18,72.783"/>
		<path d="M290.84,72.783c-0.021-0.257-0.041-0.501-0.059-0.701c0.312-0.498,0.68-0.817,1.191-0.877
			c0.352,0.02,0.568,0.193,0.762,0.485c0.143,0.517,0.104,1.023-0.389,1.417C291.828,73.284,291.354,73.227,290.84,72.783"/>
		<path d="M355.439,71.785c-0.021-0.257-0.043-0.501-0.059-0.701c0.312-0.498,0.678-0.817,1.193-0.877
			c0.35,0.02,0.566,0.193,0.762,0.485c0.141,0.517,0.104,1.023-0.391,1.417C356.428,72.286,355.953,72.229,355.439,71.785"/>
		<path d="M352.238,71.785c-0.021-0.257-0.039-0.501-0.061-0.701c0.314-0.498,0.68-0.817,1.195-0.877
			c0.348,0.02,0.566,0.193,0.76,0.485c0.143,0.517,0.104,1.023-0.387,1.417C353.225,72.286,352.752,72.229,352.238,71.785"/>
		<path d="M333.014,71.785c-0.021-0.257-0.041-0.501-0.059-0.701c0.312-0.498,0.68-0.817,1.191-0.877
			c0.352,0.02,0.568,0.193,0.764,0.485c0.141,0.517,0.104,1.023-0.391,1.417C334.002,72.286,333.527,72.229,333.014,71.785"/>
		<path d="M329.193,71.785c-0.021-0.257-0.041-0.501-0.059-0.701c0.312-0.498,0.678-0.817,1.193-0.877
			c0.35,0.02,0.566,0.193,0.762,0.485c0.141,0.517,0.104,1.023-0.389,1.417C330.182,72.286,329.709,72.229,329.193,71.785"/>
		<path d="M297.951,72.783c-0.021-0.257-0.041-0.501-0.061-0.701c0.312-0.498,0.678-0.817,1.193-0.877
			c0.35,0.02,0.566,0.193,0.762,0.485c0.141,0.517,0.104,1.023-0.389,1.417C298.939,73.284,298.467,73.227,297.951,72.783"/>
		<path d="M294.285,72.783c-0.021-0.257-0.041-0.501-0.061-0.701c0.312-0.498,0.678-0.817,1.193-0.877
			c0.35,0.02,0.566,0.193,0.762,0.485c0.141,0.517,0.104,1.023-0.389,1.417C295.273,73.284,294.801,73.227,294.285,72.783"/>
		<path d="M228.242,235.867c-0.021-0.258-0.041-0.501-0.061-0.701c0.312-0.498,0.68-0.816,1.195-0.877
			c0.348,0.021,0.564,0.193,0.76,0.484c0.141,0.518,0.104,1.021-0.389,1.418C229.23,236.368,228.758,236.312,228.242,235.867"/>
		<path d="M231.85,235.867c-0.021-0.258-0.041-0.501-0.059-0.701c0.312-0.498,0.68-0.816,1.193-0.877
			c0.35,0.021,0.566,0.193,0.762,0.484c0.141,0.518,0.104,1.021-0.389,1.418C232.838,236.368,232.365,236.312,231.85,235.867"/>
		<path d="M235.361,235.867c-0.021-0.258-0.041-0.501-0.059-0.701c0.312-0.498,0.678-0.816,1.193-0.877
			c0.35,0.021,0.566,0.193,0.762,0.484c0.141,0.518,0.104,1.021-0.389,1.418C236.35,236.368,235.875,236.312,235.361,235.867"/>
		<path d="M238.945,235.867c-0.021-0.258-0.041-0.501-0.059-0.701c0.312-0.498,0.678-0.816,1.193-0.877
			c0.35,0.021,0.566,0.193,0.762,0.484c0.141,0.518,0.104,1.021-0.389,1.418C239.934,236.368,239.459,236.312,238.945,235.867"/>
		<path d="M239.443,201.982c-0.445-0.276-0.574-0.676-0.488-1.268c0.168-0.238,0.408-0.414,0.703-0.474
			c0.057-0.013,0.111-0.023,0.17-0.025c1.375-0.06,2.74-0.327,4.123-0.278c0.285,0.011,0.57,0.162,0.916,0.136
			c0.078,0.038,0.213,0.104,0.307,0.151c0.135,0.185,0.146,0.358,0.149,0.545c0.005,0.748,0.005,0.748-0.198,1.135
			c-0.074,0.027-0.156,0.078-0.24,0.08C243.053,202.041,241.223,202.001,239.443,201.982"/>
		<path d="M228.266,201.816c-0.021-0.258-0.043-0.5-0.061-0.7c0.312-0.498,0.68-0.817,1.193-0.877
			c0.35,0.02,0.566,0.192,0.762,0.483c0.141,0.519,0.104,1.022-0.389,1.418C229.252,202.318,228.779,202.261,228.266,201.816"/>
		<path d="M231.908,201.816c-0.021-0.258-0.041-0.5-0.061-0.7c0.312-0.498,0.68-0.817,1.193-0.877
			c0.35,0.02,0.566,0.192,0.762,0.483c0.141,0.519,0.104,1.022-0.389,1.418C232.896,202.318,232.424,202.261,231.908,201.816"/>
		<path d="M235.51,201.816c-0.023-0.258-0.041-0.5-0.061-0.7c0.312-0.498,0.68-0.817,1.193-0.877c0.35,0.02,0.568,0.192,0.76,0.483
			c0.145,0.519,0.105,1.022-0.387,1.418C236.496,202.318,236.023,202.261,235.51,201.816"/>
		<path d="M240.703,168.646c-0.445-0.277-0.576-0.676-0.488-1.269c0.168-0.237,0.408-0.413,0.703-0.476
			c0.057-0.01,0.113-0.021,0.17-0.023c1.375-0.061,2.742-0.328,4.123-0.277c0.285,0.01,0.572-0.041,0.916-0.068
			c0.08,0.04,0.211,0.105,0.307,0.15c0.133,0.186,0.148,0.359,0.148,0.545c0.006,0.748,0.006,0.748-0.199,1.137
			c-0.072,0.025-0.154,0.076-0.238,0.078C244.314,168.5,242.484,168.664,240.703,168.646"/>
		<path d="M232.93,168.646c-0.445-0.277-0.576-0.676-0.488-1.269c0.168-0.237,0.408-0.413,0.703-0.476
			c0.059-0.01,0.113-0.021,0.17-0.023c1.375-0.061,2.742-0.328,4.123-0.277c0.285,0.01,0.572-0.041,0.916-0.068
			c0.08,0.04,0.211,0.105,0.309,0.15c0.133,0.186,0.146,0.359,0.146,0.545c0.006,0.748,0.006,0.748-0.199,1.137
			c-0.07,0.025-0.152,0.076-0.236,0.078C236.541,168.5,234.711,168.664,232.93,168.646"/>
		<path d="M225.198,168.48c-0.021-0.258-0.041-0.502-0.061-0.701c0.312-0.498,0.678-0.816,1.193-0.877
			c0.35,0.021,0.566,0.191,0.762,0.483c0.141,0.519,0.104,1.022-0.389,1.419C226.186,168.98,225.713,168.925,225.198,168.48"/>
		<path d="M228.863,168.48c-0.021-0.258-0.039-0.502-0.059-0.701c0.312-0.498,0.68-0.816,1.195-0.877
			c0.348,0.021,0.564,0.191,0.76,0.483c0.141,0.519,0.104,1.022-0.387,1.419C229.852,168.98,229.379,168.925,228.863,168.48"/>
		<path d="M243.363,136.939c-0.443-0.278-0.574-0.676-0.486-1.27c0.168-0.238,0.408-0.413,0.703-0.475
			c0.057-0.012,0.111-0.021,0.17-0.024c1.375-0.062,2.742-0.328,4.123-0.278c0.285,0.012,0.57-0.041,0.916-0.067
			c0.08,0.04,0.213,0.104,0.307,0.151c0.133,0.184,0.148,0.358,0.148,0.545c0.006,0.748,0.006,0.748-0.197,1.136
			c-0.074,0.026-0.156,0.077-0.24,0.079C246.975,136.792,245.145,136.956,243.363,136.939"/>
		<path d="M235.768,136.939c-0.447-0.278-0.576-0.676-0.49-1.27c0.168-0.238,0.41-0.413,0.703-0.475
			c0.059-0.012,0.113-0.021,0.17-0.024c1.375-0.062,2.742-0.328,4.123-0.278c0.287,0.012,0.572-0.041,0.916-0.067
			c0.08,0.04,0.213,0.104,0.309,0.151c0.133,0.184,0.146,0.358,0.148,0.545c0.004,0.748,0.004,0.748-0.197,1.136
			c-0.074,0.026-0.156,0.077-0.24,0.079C239.377,136.792,237.547,136.956,235.768,136.939"/>
		<path d="M227.994,136.939c-0.447-0.278-0.576-0.676-0.49-1.27c0.168-0.238,0.41-0.413,0.703-0.475
			c0.057-0.012,0.111-0.021,0.17-0.024c1.375-0.062,2.742-0.328,4.123-0.278c0.287,0.012,0.572-0.041,0.916-0.067
			c0.08,0.04,0.213,0.104,0.307,0.151c0.135,0.184,0.148,0.358,0.15,0.545c0.004,0.748,0.004,0.748-0.199,1.136
			c-0.074,0.026-0.156,0.077-0.24,0.079C231.604,136.792,229.773,136.956,227.994,136.939"/>
		<path d="M188.459,134.68c-0.446-0.277-0.576-0.676-0.489-1.268c0.168-0.239,0.409-0.414,0.703-0.475
			c0.057-0.011,0.113-0.022,0.17-0.024c1.375-0.06,2.742-0.329,4.123-0.278c0.286,0.01,0.572-0.042,0.916-0.068
			c0.08,0.039,0.212,0.104,0.308,0.15c0.135,0.186,0.147,0.36,0.148,0.545c0.005,0.748,0.005,0.748-0.199,1.137
			c-0.072,0.025-0.154,0.076-0.238,0.078C192.069,134.532,190.239,134.695,188.459,134.68"/>
		<path d="M30.208,72.181c-0.446-0.279-0.577-0.676-0.488-1.267c0.167-0.24,0.408-0.414,0.702-0.474
			c0.056-0.011,0.112-0.023,0.17-0.025c1.376-0.06,2.743-0.329,4.124-0.28c0.286,0.011,0.572-0.041,0.916-0.068
			c0.08,0.039,0.212,0.105,0.307,0.151c0.133,0.184,0.148,0.36,0.15,0.545c0.004,0.748,0.004,0.748-0.2,1.136
			c-0.073,0.026-0.155,0.077-0.238,0.079C33.819,72.034,31.989,72.198,30.208,72.181"/>
		<path d="M25.962,71.969c-0.022-0.257-0.041-0.501-0.061-0.701c0.313-0.498,0.681-0.817,1.194-0.877
			c0.349,0.02,0.568,0.193,0.761,0.485c0.143,0.517,0.104,1.023-0.388,1.417C26.95,72.47,26.477,72.414,25.962,71.969"/>
		<path d="M78.776,71.183c-0.458-0.278-0.591-0.676-0.501-1.267c0.172-0.24,0.419-0.414,0.722-0.474
			c0.057-0.011,0.113-0.023,0.174-0.025c1.411-0.06,2.812-0.329,4.229-0.28c0.293,0.011,0.586-0.041,0.94-0.068
			c0.081,0.039,0.215,0.105,0.312,0.151c0.138,0.184,0.152,0.36,0.153,0.545c0.005,0.748,0.005,0.748-0.204,1.136
			c-0.076,0.026-0.159,0.077-0.244,0.079C82.479,71.036,80.602,71.2,78.776,71.183"/>
		<path d="M70.777,71.481c-0.458-0.278-0.591-0.676-0.501-1.267c0.174-0.24,0.419-0.414,0.722-0.474
			c0.057-0.01,0.113-0.023,0.175-0.025c1.41-0.06,2.812-0.329,4.229-0.28c0.293,0.011,0.821,0.163,1.176,0.136
			c0.082,0.039,0.217,0.105,0.313,0.151c0.136,0.185,0.151,0.36,0.153,0.545c0.004,0.748,0.004,0.748-0.204,1.136
			c-0.076,0.026-0.159,0.077-0.245,0.079C74.715,71.538,72.603,71.498,70.777,71.481"/>
		<path d="M134.638,69.772c-0.47-0.278-0.609-0.676-0.516-1.267c0.177-0.24,0.432-0.414,0.743-0.474
			c0.059-0.011,0.117-0.023,0.179-0.025c1.453-0.06,2.896-0.329,4.354-0.28c0.304,0.011,0.604-0.041,0.97-0.068
			c0.084,0.04,0.222,0.105,0.321,0.151c0.144,0.185,0.156,0.36,0.158,0.545c0.005,0.748,0.005,0.748-0.21,1.136
			c-0.078,0.026-0.165,0.077-0.251,0.079C138.452,69.625,136.518,69.789,134.638,69.772"/>
		<path d="M125.651,70.126c-0.471-0.278-0.607-0.676-0.516-1.267c0.177-0.24,0.432-0.414,0.743-0.474
			c0.058-0.011,0.118-0.023,0.179-0.025c1.452-0.06,2.897-0.329,4.356-0.28c0.301,0.011,0.603-0.041,0.968-0.068
			c0.084,0.04,0.222,0.105,0.323,0.151c0.141,0.185,0.154,0.361,0.155,0.545c0.007,0.748,0.007,0.748-0.209,1.136
			c-0.077,0.026-0.165,0.077-0.253,0.079C129.465,69.979,127.531,70.143,125.651,70.126"/>
		<path d="M86.37,70.707c-0.022-0.257-0.041-0.501-0.061-0.701c0.313-0.498,0.681-0.817,1.194-0.877
			c0.349,0.02,0.567,0.193,0.761,0.485c0.143,0.517,0.104,1.023-0.388,1.417C87.357,71.208,86.884,71.15,86.37,70.707"/>
		<path d="M127.877,101.449c-0.439-0.278-0.567-0.676-0.48-1.267c0.164-0.24,0.401-0.414,0.69-0.474
			c0.055-0.01,0.109-0.023,0.168-0.025c1.353-0.06,2.7-0.329,4.058-0.28c0.281,0.011,0.562-0.041,0.902-0.068
			c0.077,0.039,0.208,0.105,0.301,0.151c0.131,0.185,0.146,0.361,0.147,0.545c0.004,0.748,0.004,0.748-0.196,1.136
			c-0.072,0.026-0.153,0.077-0.235,0.079C131.431,101.302,129.63,101.466,127.877,101.449"/>
		<path d="M123.459,134.949c-0.449-0.277-0.581-0.676-0.492-1.268c0.169-0.24,0.412-0.414,0.708-0.475
			c0.056-0.014,0.113-0.021,0.171-0.023c1.386-0.062,2.764-0.33,4.157-0.281c0.287,0.013,0.575-0.041,0.922-0.066
			c0.08,0.039,0.212,0.104,0.308,0.15c0.137,0.186,0.149,0.361,0.15,0.545c0.006,0.748,0.006,0.748-0.199,1.137
			c-0.075,0.025-0.157,0.076-0.241,0.079C127.099,134.803,125.253,134.967,123.459,134.949"/>
		<path d="M131.447,134.949c-0.447-0.277-0.579-0.676-0.49-1.268c0.169-0.24,0.412-0.414,0.708-0.475
			c0.056-0.014,0.111-0.021,0.171-0.023c1.386-0.062,2.764-0.33,4.156-0.281c0.286,0.013,0.574-0.041,0.923-0.066
			c0.081,0.039,0.212,0.104,0.308,0.15c0.136,0.186,0.15,0.361,0.151,0.545c0.006,0.748,0.006,0.748-0.2,1.137
			c-0.074,0.025-0.157,0.076-0.241,0.079C135.086,134.803,133.241,134.967,131.447,134.949"/>
		<path d="M139.645,134.486c-0.449-0.278-0.58-0.676-0.492-1.269c0.169-0.239,0.412-0.413,0.708-0.475
			c0.058-0.013,0.113-0.021,0.173-0.024c1.386-0.061,2.764-0.328,4.154-0.279c0.288,0.012,0.576-0.041,0.923-0.067
			c0.081,0.039,0.215,0.104,0.31,0.151c0.135,0.185,0.148,0.359,0.15,0.545c0.006,0.748,0.006,0.748-0.199,1.136
			c-0.074,0.026-0.157,0.077-0.241,0.079C143.284,134.34,141.439,134.504,139.645,134.486"/>
		<path d="M128.38,170.803c-0.446-0.277-0.576-0.676-0.489-1.267c0.168-0.24,0.409-0.414,0.703-0.474
			c0.056-0.014,0.113-0.023,0.17-0.025c1.375-0.061,2.742-0.329,4.123-0.28c0.286,0.013,0.572-0.041,0.916-0.067
			c0.08,0.041,0.212,0.104,0.307,0.15c0.135,0.186,0.148,0.361,0.149,0.545c0.005,0.748,0.005,0.748-0.199,1.137
			c-0.073,0.025-0.155,0.076-0.239,0.08C131.99,170.656,130.16,170.82,128.38,170.803"/>
		<path d="M136.547,170.381c-0.445-0.277-0.576-0.676-0.488-1.268c0.168-0.239,0.408-0.413,0.702-0.475
			c0.056-0.011,0.113-0.021,0.171-0.025c1.375-0.059,2.646-0.168,4.027-0.118c0.286,0.011,0.569-0.041,0.915-0.068
			c0.08,0.039,0.211,0.104,0.307,0.151c0.133,0.186,0.148,0.359,0.149,0.545c0.005,0.748,0.005,0.748-0.199,1.136
			c-0.074,0.026-0.155,0.077-0.238,0.079C140.061,170.395,138.328,170.396,136.547,170.381"/>
		<path d="M135.668,100.973c-0.022-0.257-0.041-0.501-0.061-0.701c0.313-0.498,0.681-0.817,1.194-0.877
			c0.349,0.02,0.568,0.193,0.761,0.485c0.143,0.517,0.104,1.023-0.388,1.417C136.657,101.474,136.184,101.417,135.668,100.973"/>
		<path d="M180.91,134.318c-0.021-0.256-0.041-0.5-0.061-0.7c0.312-0.498,0.68-0.817,1.194-0.877
			c0.349,0.02,0.565,0.192,0.761,0.485c0.141,0.517,0.104,1.021-0.388,1.416C181.898,134.82,181.426,134.764,180.91,134.318"/>
		<path d="M224.061,136.771c-0.021-0.256-0.041-0.5-0.061-0.701c0.312-0.496,0.68-0.815,1.193-0.877
			c0.35,0.021,0.566,0.192,0.762,0.486c0.141,0.516,0.104,1.021-0.389,1.415C225.047,137.273,224.574,137.217,224.061,136.771"/>
		<path d="M184.299,134.318c-0.022-0.256-0.041-0.5-0.062-0.7c0.313-0.498,0.682-0.817,1.194-0.877
			c0.351,0.02,0.568,0.192,0.761,0.485c0.144,0.517,0.104,1.021-0.388,1.416C185.287,134.82,184.813,134.764,184.299,134.318"/>
		<path d="M344.992,72.088c-0.445-0.279-0.576-0.676-0.488-1.267c0.168-0.24,0.408-0.414,0.703-0.474
			c0.055-0.011,0.109-0.023,0.17-0.025c1.375-0.06,2.391-0.156,3.771-0.106c0.287,0.01,0.572-0.042,0.916-0.069
			c0.08,0.04,0.213,0.105,0.311,0.152c0.133,0.184,0.146,0.36,0.146,0.544c0.004,0.749,0.004,0.749-0.199,1.137
			c-0.07,0.026-0.152,0.076-0.236,0.078C348.252,72.114,346.771,72.105,344.992,72.088"/>
		<path d="M336.957,72.088c-0.445-0.279-0.576-0.676-0.488-1.267c0.168-0.24,0.408-0.414,0.703-0.474
			c0.055-0.011,0.111-0.023,0.17-0.025c1.375-0.06,2.742-0.156,4.123-0.106c0.285,0.01,0.57-0.042,0.916-0.069
			c0.08,0.04,0.211,0.105,0.307,0.152c0.133,0.184,0.148,0.36,0.148,0.544c0.006,0.749,0.006,0.749-0.199,1.137
			c-0.072,0.026-0.154,0.076-0.238,0.078C340.566,72.114,338.736,72.105,336.957,72.088"/>
		<path d="M353.969,103.45c-0.447-0.278-0.576-0.676-0.49-1.267c0.168-0.24,0.41-0.414,0.703-0.474
			c0.059-0.011,0.113-0.023,0.17-0.025c1.375-0.06,2.742-0.329,4.123-0.28c0.287,0.011,0.572-0.041,0.916-0.068
			c0.08,0.039,0.213,0.105,0.311,0.151c0.133,0.185,0.146,0.361,0.146,0.545c0.004,0.748,0.004,0.748-0.199,1.136
			c-0.07,0.026-0.152,0.077-0.236,0.079C357.578,103.303,355.748,103.467,353.969,103.45"/>
		<path d="M343.318,103.45c-0.443-0.278-0.574-0.676-0.486-1.267c0.168-0.24,0.406-0.414,0.703-0.474
			c0.055-0.011,0.109-0.023,0.17-0.025c1.375-0.06,2.738-0.329,4.123-0.28c0.283,0.011,0.568-0.041,0.916-0.068
			c0.078,0.039,0.211,0.105,0.307,0.151c0.133,0.185,0.146,0.361,0.146,0.545c0.008,0.748,0.008,0.748-0.197,1.136
			c-0.072,0.026-0.154,0.077-0.238,0.079C346.928,103.303,345.098,103.467,343.318,103.45"/>
		<path d="M357.877,136.855c-0.447-0.276-0.576-0.676-0.49-1.268c0.168-0.238,0.41-0.414,0.703-0.474
			c0.057-0.013,0.113-0.023,0.17-0.025c1.375-0.06,2.742-0.155,4.123-0.104c0.287,0.011,0.572-0.041,0.916-0.067
			c0.08,0.039,0.213,0.104,0.307,0.151c0.135,0.184,0.148,0.357,0.15,0.543c0.004,0.75,0.004,0.75-0.199,1.138
			c-0.074,0.026-0.156,0.077-0.24,0.079C361.486,136.883,359.656,136.874,357.877,136.855"/>
		<path d="M349.859,137.081c-0.443-0.278-0.574-0.677-0.486-1.267c0.168-0.24,0.406-0.414,0.703-0.477
			c0.055-0.011,0.111-0.021,0.17-0.023c1.375-0.062,2.74-0.328,4.123-0.279c0.283,0.011,0.57-0.041,0.916-0.068
			c0.078,0.039,0.211,0.105,0.307,0.151c0.133,0.185,0.146,0.36,0.146,0.545c0.008,0.748,0.008,0.748-0.197,1.136
			c-0.072,0.026-0.154,0.077-0.238,0.079C353.471,136.936,351.639,137.098,349.859,137.081"/>
		<path d="M334.953,137.029c-0.447-0.277-0.576-0.676-0.49-1.266c0.168-0.24,0.41-0.414,0.703-0.477
			c0.057-0.012,0.111-0.021,0.17-0.023c1.375-0.062,2.742-0.328,4.123-0.279c0.287,0.011,0.355,0.177,0.701,0.149
			c0.08,0.039,0.211,0.104,0.309,0.15c0.133,0.185,0.146,0.358,0.148,0.544c0.004,0.749,0.004,0.749-0.199,1.138
			c-0.074,0.025-0.154,0.075-0.238,0.079C338.348,137.102,336.732,137.047,334.953,137.029"/>
		<path d="M327.102,137.029c-0.443-0.277-0.576-0.676-0.488-1.266c0.17-0.24,0.408-0.414,0.703-0.477
			c0.057-0.012,0.113-0.021,0.17-0.023c1.375-0.062,2.527-0.125,3.908-0.076c0.285,0.012,0.57-0.041,0.916-0.067
			c0.08,0.039,0.211,0.104,0.307,0.151c0.135,0.184,0.146,0.358,0.148,0.545c0.006,0.748,0.006,0.748-0.199,1.136
			c-0.072,0.026-0.154,0.077-0.236,0.079C330.496,137.088,328.881,137.048,327.102,137.029"/>
		<path d="M331.572,103.45c-0.443-0.278-0.574-0.676-0.486-1.267c0.168-0.24,0.408-0.414,0.701-0.474
			c0.057-0.011,0.111-0.023,0.17-0.025c1.375-0.06,2.74-0.329,4.123-0.28c0.286,0.011,0.57-0.041,0.916-0.068
			c0.079,0.039,0.213,0.105,0.309,0.151c0.133,0.185,0.146,0.361,0.148,0.545c0.004,0.748,0.004,0.748-0.199,1.136
			c-0.072,0.026-0.154,0.077-0.238,0.079C335.182,103.303,333.352,103.467,331.572,103.45"/>
		<path d="M282.152,103.622c-0.443-0.278-0.574-0.676-0.486-1.267c0.168-0.24,0.407-0.414,0.703-0.474
			c0.055-0.011,0.111-0.023,0.17-0.025c1.375-0.06,2.74-0.329,4.123-0.28c0.283,0.011,0.57-0.041,0.916-0.068
			c0.079,0.039,0.211,0.105,0.307,0.151c0.133,0.185,0.148,0.361,0.148,0.545c0.006,0.748,0.006,0.748-0.199,1.136
			c-0.072,0.026-0.154,0.077-0.238,0.079C285.764,103.475,283.932,103.638,282.152,103.622"/>
		<path d="M233.252,101.544c-0.445-0.278-0.576-0.676-0.488-1.267c0.168-0.24,0.408-0.414,0.703-0.474
			c0.055-0.011,0.113-0.023,0.17-0.025c1.375-0.06,2.742-0.329,4.123-0.28c0.285,0.011,0.572-0.041,0.916-0.068
			c0.08,0.039,0.211,0.105,0.307,0.151c0.135,0.184,0.148,0.36,0.148,0.545c0.006,0.748,0.006,0.748-0.199,1.136
			c-0.072,0.026-0.154,0.077-0.238,0.079C236.863,101.397,235.031,101.56,233.252,101.544"/>
		<path d="M243.559,72.928c-0.443-0.278-0.576-0.676-0.488-1.267c0.17-0.24,0.408-0.414,0.703-0.474
			c0.057-0.01,0.113-0.023,0.17-0.025c1.375-0.06,2.742-0.329,4.123-0.279c0.285,0.01,0.572-0.042,0.916-0.069
			c0.08,0.04,0.211,0.105,0.309,0.151c0.133,0.185,0.146,0.361,0.146,0.545c0.006,0.748,0.006,0.748-0.197,1.137
			c-0.072,0.025-0.154,0.076-0.238,0.078C247.168,72.781,245.338,72.945,243.559,72.928"/>
		<path d="M235.768,73.259c-0.443-0.278-0.576-0.676-0.488-1.267c0.17-0.24,0.408-0.414,0.703-0.474
			c0.057-0.01,0.113-0.023,0.17-0.025c1.375-0.06,2.742-0.329,4.123-0.279c0.285,0.01,0.572-0.042,0.916-0.069
			c0.08,0.04,0.211,0.105,0.309,0.151c0.133,0.185,0.146,0.361,0.146,0.545c0.006,0.748,0.006,0.748-0.197,1.137
			c-0.072,0.025-0.154,0.076-0.238,0.078C239.377,73.112,237.547,73.276,235.768,73.259"/>
		<path d="M224.012,73.32c-0.447-0.278-0.576-0.676-0.49-1.267c0.168-0.24,0.41-0.414,0.703-0.474
			c0.059-0.011,0.113-0.023,0.17-0.025c1.375-0.06,2.742-0.329,4.123-0.28c0.287,0.011,0.572-0.041,0.916-0.068
			c0.08,0.039,0.213,0.105,0.309,0.151c0.135,0.184,0.146,0.36,0.148,0.545c0.004,0.748,0.004,0.748-0.199,1.136
			c-0.072,0.026-0.152,0.077-0.238,0.079C227.621,73.173,225.791,73.336,224.012,73.32"/>
		<path d="M225.449,101.481c-0.445-0.278-0.574-0.676-0.488-1.267c0.168-0.24,0.408-0.414,0.703-0.474
			c0.057-0.011,0.111-0.023,0.17-0.025c1.375-0.06,2.525-0.118,3.908-0.068c0.285,0.01,0.57-0.042,0.916-0.069
			c0.078,0.04,0.211,0.105,0.309,0.151c0.133,0.185,0.146,0.361,0.148,0.545c0.004,0.748,0.004,0.748-0.199,1.137
			c-0.074,0.025-0.154,0.076-0.238,0.078C228.846,101.545,227.229,101.499,225.449,101.481"/>
		<path d="M241.076,101.068c-0.021-0.257-0.041-0.501-0.061-0.701c0.312-0.498,0.678-0.817,1.193-0.877
			c0.35,0.02,0.566,0.193,0.762,0.485c0.141,0.517,0.104,1.023-0.389,1.417C242.064,101.569,241.592,101.512,241.076,101.068"/>
		<path d="M244.547,101.068c-0.021-0.257-0.041-0.501-0.061-0.701c0.312-0.498,0.682-0.817,1.193-0.877
			c0.352,0.02,0.568,0.193,0.762,0.485c0.143,0.517,0.104,1.023-0.389,1.417C245.535,101.569,245.062,101.512,244.547,101.068"/>
		<path d="M183.087,168.111c-0.022-0.258-0.042-0.502-0.062-0.701c0.313-0.498,0.681-0.817,1.194-0.877
			c0.349,0.02,0.567,0.193,0.761,0.484c0.143,0.518,0.104,1.021-0.388,1.418C184.074,168.611,183.601,168.555,183.087,168.111"/>
		<path d="M179.313,167.99c-0.021-0.258-0.041-0.501-0.06-0.701c0.312-0.498,0.68-0.816,1.192-0.877
			c0.351,0.02,0.568,0.191,0.763,0.484c0.142,0.518,0.104,1.021-0.39,1.416C180.301,168.491,179.828,168.434,179.313,167.99"/>
		<path d="M178.851,202.77c-0.021-0.256-0.041-0.5-0.06-0.701c0.312-0.498,0.68-0.815,1.193-0.877
			c0.351,0.021,0.567,0.193,0.762,0.485c0.142,0.517,0.104,1.022-0.389,1.417C179.839,203.271,179.365,203.214,178.851,202.77"/>
		<path d="M186.524,168.111c-0.021-0.258-0.042-0.502-0.059-0.701c0.312-0.498,0.679-0.817,1.193-0.877
			c0.35,0.02,0.566,0.193,0.761,0.484c0.142,0.518,0.104,1.021-0.39,1.418C187.513,168.611,187.038,168.555,186.524,168.111"/>
		<path d="M180.454,72.783c-0.022-0.257-0.041-0.501-0.062-0.701c0.314-0.498,0.682-0.817,1.195-0.877
			c0.349,0.02,0.566,0.193,0.76,0.485c0.144,0.517,0.104,1.023-0.387,1.417C181.442,73.284,180.969,73.227,180.454,72.783"/>
		<path d="M184.143,72.783c-0.021-0.257-0.041-0.501-0.06-0.701c0.312-0.498,0.68-0.817,1.192-0.877
			c0.351,0.02,0.568,0.193,0.763,0.485c0.142,0.517,0.104,1.023-0.39,1.417C185.13,73.284,184.657,73.227,184.143,72.783"/>
		<path d="M231.684,72.783c-0.021-0.257-0.043-0.501-0.061-0.701c0.312-0.498,0.68-0.817,1.193-0.877
			c0.35,0.02,0.568,0.193,0.762,0.485c0.143,0.517,0.104,1.023-0.389,1.417C232.672,73.284,232.198,73.227,231.684,72.783"/>
		<path d="M187.874,72.783c-0.021-0.257-0.041-0.501-0.061-0.701c0.312-0.498,0.681-0.817,1.194-0.877
			c0.349,0.02,0.567,0.193,0.761,0.485c0.143,0.517,0.104,1.023-0.389,1.417C188.862,73.284,188.39,73.227,187.874,72.783"/>
		<path d="M22.439,103.338c-0.455-0.278-0.588-0.676-0.498-1.267c0.171-0.24,0.416-0.414,0.719-0.474
			c0.055-0.01,0.111-0.023,0.172-0.025c1.4-0.06,2.796-0.329,4.204-0.279c0.291,0.01,0.583-0.042,0.934-0.069
			c0.082,0.04,0.215,0.105,0.313,0.151c0.135,0.185,0.149,0.361,0.15,0.545c0.004,0.748,0.004,0.748-0.203,1.136
			c-0.075,0.026-0.158,0.077-0.243,0.079C26.119,103.191,24.253,103.355,22.439,103.338"/>
		<path d="M31.092,102.862c-0.022-0.257-0.041-0.501-0.059-0.701c0.312-0.498,0.679-0.817,1.192-0.877
			c0.351,0.02,0.568,0.193,0.761,0.485c0.143,0.517,0.104,1.023-0.388,1.417C32.08,103.363,31.607,103.306,31.092,102.862"/>
		<path d="M23.451,133.427c-0.443-0.276-0.573-0.675-0.486-1.266c0.167-0.241,0.406-0.414,0.7-0.474
			c0.055-0.014,0.11-0.023,0.169-0.026c1.37-0.06,2.73-0.329,4.105-0.28c0.284,0.012,0.569-0.04,0.912-0.066
			c0.079,0.039,0.21,0.104,0.307,0.15c0.135,0.186,0.146,0.361,0.146,0.546c0.005,0.747,0.005,0.747-0.199,1.138
			c-0.07,0.023-0.151,0.074-0.234,0.078C27.046,133.282,25.224,133.445,23.451,133.427"/>
		<path d="M31.598,132.952c-0.021-0.259-0.041-0.501-0.059-0.701c0.312-0.499,0.679-0.817,1.192-0.878
			c0.351,0.021,0.568,0.191,0.763,0.484c0.141,0.518,0.104,1.021-0.39,1.418C32.586,133.452,32.113,133.396,31.598,132.952"/>
		<path d="M24.807,168.083c-0.446-0.276-0.577-0.675-0.49-1.267c0.169-0.24,0.41-0.414,0.704-0.475
			c0.058-0.013,0.113-0.021,0.171-0.025c1.377-0.06,2.746-0.328,4.13-0.279c0.285,0.011,0.572-0.04,0.917-0.067
			c0.079,0.04,0.213,0.105,0.308,0.151c0.135,0.186,0.147,0.361,0.148,0.546c0.007,0.747,0.007,0.747-0.198,1.138
			c-0.073,0.023-0.155,0.074-0.238,0.077C28.422,167.938,26.589,168.104,24.807,168.083"/>
		<path d="M73.239,170.95c-0.456-0.276-0.591-0.675-0.501-1.267c0.174-0.24,0.421-0.414,0.722-0.474
			c0.057-0.013,0.115-0.022,0.174-0.026c1.41-0.059,2.812-0.328,4.229-0.279c0.293,0.011,0.587-0.041,0.939-0.066
			c0.082,0.04,0.217,0.104,0.315,0.15c0.136,0.186,0.149,0.361,0.151,0.546c0.004,0.747,0.004,0.747-0.204,1.138
			c-0.073,0.023-0.159,0.074-0.245,0.078C76.941,170.807,75.064,170.971,73.239,170.95"/>
		<path d="M81.786,170.719c-0.456-0.277-0.592-0.675-0.5-1.266c0.172-0.241,0.418-0.414,0.721-0.475
			c0.056-0.014,0.114-0.022,0.173-0.025c1.41-0.059,2.813-0.156,4.229-0.107c0.293,0.012,0.586-0.039,0.938-0.066
			c0.082,0.039,0.217,0.104,0.314,0.15c0.138,0.186,0.15,0.36,0.151,0.547c0.005,0.746,0.005,0.746-0.204,1.135
			c-0.072,0.025-0.157,0.076-0.242,0.08C85.489,170.747,83.611,170.736,81.786,170.719"/>
		<path d="M90.212,170.732c-0.457-0.275-0.59-0.674-0.5-1.267c0.172-0.239,0.418-0.414,0.721-0.473
			c0.056-0.015,0.114-0.024,0.173-0.027c1.41-0.058,2.814-0.018,4.23,0.032c0.293,0.01,0.586-0.04,0.938-0.066
			c0.082,0.038,0.219,0.104,0.315,0.15c0.137,0.186,0.151,0.357,0.153,0.545c0.004,0.748,0.004,0.748-0.205,1.139
			c-0.074,0.023-0.159,0.074-0.244,0.077C93.916,170.9,92.037,170.753,90.212,170.732"/>
		<path d="M32.641,236.913c-0.446-0.277-0.577-0.675-0.488-1.267c0.167-0.24,0.408-0.414,0.702-0.475
			c0.058-0.013,0.112-0.021,0.17-0.025c1.375-0.06,2.743-0.328,4.124-0.279c0.286,0.011,0.572-0.04,0.916-0.067
			c0.08,0.04,0.211,0.104,0.308,0.151c0.134,0.185,0.147,0.361,0.148,0.546c0.005,0.747,0.005,0.747-0.199,1.137
			c-0.071,0.024-0.154,0.075-0.237,0.078C36.252,236.77,34.421,236.934,32.641,236.913"/>
		<path d="M32.869,167.607c-0.022-0.258-0.042-0.5-0.061-0.7c0.313-0.499,0.679-0.817,1.194-0.878
			c0.349,0.021,0.566,0.19,0.761,0.484c0.142,0.518,0.104,1.021-0.388,1.418C33.856,168.107,33.383,168.052,32.869,167.607"/>
		<path d="M36.739,167.607c-0.021-0.258-0.042-0.5-0.059-0.7c0.313-0.499,0.679-0.817,1.194-0.878
			c0.349,0.021,0.566,0.19,0.761,0.484c0.141,0.518,0.104,1.021-0.388,1.418C37.727,168.107,37.253,168.052,36.739,167.607"/>
		<path d="M30.152,203.842c-0.021-0.259-0.041-0.502-0.059-0.701c0.312-0.498,0.679-0.815,1.194-0.877
			c0.349,0.021,0.566,0.191,0.761,0.484c0.141,0.518,0.104,1.021-0.388,1.417C31.14,204.342,30.667,204.285,30.152,203.842"/>
		<path d="M24.438,236.438c-0.021-0.258-0.041-0.5-0.059-0.701c0.312-0.497,0.679-0.815,1.194-0.877
			c0.349,0.021,0.566,0.191,0.761,0.484c0.141,0.518,0.104,1.022-0.39,1.417C25.426,236.938,24.953,236.882,24.438,236.438"/>
		<path d="M28.492,236.438c-0.022-0.258-0.041-0.5-0.061-0.701c0.313-0.497,0.679-0.815,1.194-0.877
			c0.349,0.021,0.566,0.191,0.761,0.484c0.141,0.518,0.104,1.022-0.388,1.417C29.48,236.938,29.007,236.882,28.492,236.438"/>
		<path d="M40.273,236.438c-0.021-0.258-0.041-0.5-0.059-0.701c0.312-0.497,0.679-0.815,1.194-0.877
			c0.349,0.021,0.566,0.191,0.761,0.484c0.141,0.518,0.104,1.022-0.388,1.417C41.261,236.938,40.789,236.882,40.273,236.438"/>
		<path d="M36.356,133.386c-0.441-0.276-0.571-0.676-0.483-1.267c0.167-0.24,0.404-0.414,0.697-0.473
			c0.057-0.014,0.111-0.024,0.173-0.027c1.367-0.059,2.729-0.329,4.104-0.278c0.284,0.011,0.569-0.041,0.911-0.067
			c0.08,0.039,0.211,0.104,0.305,0.15c0.134,0.186,0.148,0.36,0.15,0.547c0.004,0.746,0.004,0.746-0.199,1.137
			c-0.074,0.023-0.154,0.074-0.238,0.078C39.953,133.24,38.13,133.404,36.356,133.386"/>
		<path d="M44.414,132.952c-0.022-0.259-0.042-0.501-0.061-0.701c0.313-0.499,0.681-0.817,1.194-0.878
			c0.349,0.021,0.568,0.191,0.761,0.484c0.143,0.518,0.104,1.021-0.388,1.418C45.402,133.452,44.928,133.396,44.414,132.952"/>
		<path d="M35.026,102.862c-0.021-0.257-0.042-0.501-0.059-0.701c0.312-0.498,0.679-0.817,1.194-0.877
			c0.349,0.02,0.566,0.193,0.761,0.485c0.141,0.517,0.104,1.023-0.388,1.417C36.014,103.363,35.54,103.306,35.026,102.862"/>
		<path d="M39.175,102.862c-0.022-0.257-0.042-0.501-0.059-0.701c0.312-0.498,0.679-0.817,1.192-0.877
			c0.351,0.02,0.568,0.193,0.761,0.485c0.143,0.517,0.104,1.023-0.388,1.417C40.163,103.363,39.689,103.306,39.175,102.862"/>
		<path d="M76.647,136.441c-0.021-0.256-0.041-0.5-0.059-0.7c0.312-0.498,0.679-0.816,1.194-0.877
			c0.349,0.021,0.566,0.192,0.761,0.485c0.141,0.517,0.104,1.021-0.39,1.416C77.635,136.943,77.162,136.887,76.647,136.441"/>
		<path d="M80.464,136.441c-0.022-0.256-0.041-0.5-0.061-0.7c0.313-0.498,0.681-0.816,1.194-0.877
			c0.351,0.021,0.568,0.192,0.761,0.485c0.143,0.517,0.104,1.021-0.388,1.416C81.452,136.943,80.979,136.887,80.464,136.441"/>
		<path d="M68.679,170.477c-0.021-0.258-0.041-0.502-0.059-0.701c0.312-0.498,0.679-0.816,1.192-0.877
			c0.351,0.021,0.568,0.192,0.763,0.484c0.141,0.518,0.104,1.021-0.39,1.417C69.667,170.977,69.194,170.919,68.679,170.477"/>
		<path d="M124.588,170.327c-0.022-0.257-0.041-0.501-0.061-0.701c0.313-0.498,0.681-0.817,1.194-0.877
			c0.349,0.021,0.568,0.192,0.761,0.485c0.143,0.517,0.104,1.021-0.388,1.416C125.576,170.828,125.103,170.771,124.588,170.327"/>
		<path d="M143.956,170.078c-0.022-0.258-0.041-0.501-0.061-0.701c0.313-0.498,0.681-0.816,1.194-0.877
			c0.349,0.02,0.568,0.193,0.761,0.484c0.143,0.518,0.104,1.021-0.388,1.418C144.943,170.579,144.47,170.521,143.956,170.078"/>
		<path d="M126.243,203.402c-0.438-0.277-0.563-0.676-0.479-1.268c0.163-0.238,0.399-0.412,0.688-0.475
			c0.054-0.012,0.108-0.021,0.166-0.024c1.346-0.061,2.77-0.155,4.122-0.104c0.277,0.01,0.559-0.043,0.896-0.067
			c0.079,0.038,0.207,0.104,0.301,0.149c0.13,0.186,0.146,0.361,0.147,0.545c0.004,0.749,0.004,0.749-0.196,1.138
			c-0.071,0.024-0.152,0.075-0.231,0.078C129.863,203.43,127.986,203.421,126.243,203.402"/>
		<path d="M134.306,203.277c-0.437-0.277-0.562-0.676-0.478-1.269c0.164-0.239,0.398-0.414,0.688-0.474
			c0.055-0.014,0.11-0.021,0.167-0.025c1.346-0.06,2.687-0.328,4.037-0.279c0.28,0.013,0.559-0.041,0.897-0.066
			c0.075,0.039,0.207,0.104,0.3,0.15c0.13,0.186,0.145,0.359,0.146,0.545c0.005,0.748,0.005,0.748-0.193,1.137
			c-0.071,0.025-0.152,0.076-0.234,0.079C137.841,203.131,136.049,203.295,134.306,203.277"/>
		<path d="M131.748,235.979c-0.438-0.276-0.564-0.676-0.479-1.268c0.164-0.238,0.4-0.413,0.688-0.475
			c0.055-0.01,0.108-0.021,0.167-0.023c1.346-0.061,2.685-0.329,4.037-0.279c0.278,0.01,0.559-0.041,0.896-0.067
			c0.077,0.038,0.207,0.104,0.3,0.149c0.131,0.187,0.146,0.36,0.146,0.545c0.005,0.748,0.005,0.748-0.195,1.138
			c-0.07,0.024-0.15,0.075-0.232,0.077C135.283,235.831,133.491,235.995,131.748,235.979"/>
		<path d="M146.102,203.025c-0.437-0.278-0.562-0.676-0.478-1.27c0.164-0.238,0.398-0.414,0.688-0.474
			c0.056-0.013,0.11-0.023,0.166-0.025c1.349-0.06,2.687-0.188,4.038-0.138c0.28,0.01,0.561,0.061,0.897,0.031
			c0.077,0.041,0.206,0.104,0.299,0.152c0.131,0.186,0.146,0.359,0.146,0.545c0.004,0.748,0.004,0.748-0.193,1.137
			c-0.072,0.024-0.152,0.076-0.234,0.078C149.637,203.121,147.844,203.042,146.102,203.025"/>
		<path d="M141.963,202.677c-0.022-0.257-0.042-0.501-0.061-0.7c0.313-0.498,0.681-0.815,1.194-0.877
			c0.349,0.021,0.568,0.192,0.761,0.484c0.143,0.518,0.104,1.023-0.388,1.417C142.951,203.178,142.477,203.121,141.963,202.677"/>
		<path d="M85.992,203.132c-0.443-0.276-0.573-0.675-0.485-1.267c0.166-0.24,0.405-0.413,0.697-0.473
			c0.055-0.015,0.11-0.023,0.169-0.027c1.364-0.059,2.725-0.155,4.096-0.106c0.284,0.011,0.568-0.04,0.91-0.067
			c0.079,0.039,0.209,0.105,0.305,0.151c0.132,0.185,0.147,0.36,0.147,0.546c0.006,0.747,0.006,0.747-0.197,1.137
			c-0.073,0.024-0.154,0.076-0.236,0.078C89.578,203.16,87.76,203.15,85.992,203.132"/>
		<path d="M73.193,203.305c-0.441-0.277-0.571-0.675-0.483-1.266c0.166-0.241,0.403-0.414,0.695-0.475
			c0.058-0.014,0.112-0.022,0.172-0.025c1.363-0.059,2.724-0.329,4.095-0.28c0.284,0.011,0.565-0.04,0.91-0.067
			c0.08,0.041,0.21,0.105,0.305,0.151c0.132,0.185,0.147,0.361,0.147,0.546c0.006,0.747,0.006,0.747-0.196,1.137
			c-0.074,0.024-0.155,0.076-0.238,0.078C76.78,203.159,74.96,203.323,73.193,203.305"/>
		<path d="M78.514,236.312c-0.437-0.276-0.562-0.677-0.478-1.268c0.163-0.24,0.397-0.414,0.688-0.473
			c0.054-0.016,0.11-0.024,0.167-0.027c1.347-0.059,2.688-0.329,4.039-0.279c0.28,0.012,0.561-0.039,0.897-0.065
			c0.076,0.039,0.207,0.104,0.3,0.149c0.131,0.187,0.145,0.36,0.146,0.547c0.004,0.746,0.004,0.746-0.193,1.138
			c-0.072,0.022-0.153,0.073-0.234,0.077C82.049,236.167,80.256,236.331,78.514,236.312"/>
		<path d="M81.257,202.829c-0.022-0.257-0.041-0.501-0.059-0.7c0.312-0.498,0.679-0.816,1.192-0.878
			c0.351,0.021,0.568,0.192,0.761,0.485c0.143,0.518,0.104,1.021-0.388,1.416C82.245,203.33,81.772,203.273,81.257,202.829"/>
		<path d="M127.593,235.866c-0.022-0.257-0.041-0.501-0.059-0.7c0.312-0.498,0.679-0.816,1.192-0.877
			c0.351,0.02,0.568,0.191,0.761,0.484c0.143,0.518,0.104,1.021-0.388,1.416C128.581,236.367,128.108,236.311,127.593,235.866"/>
		<path d="M139.347,235.562c-0.021-0.258-0.041-0.502-0.059-0.701c0.312-0.498,0.679-0.817,1.192-0.877
			c0.351,0.02,0.568,0.191,0.763,0.483c0.141,0.519,0.104,1.022-0.39,1.417C140.334,236.062,139.862,236.006,139.347,235.562"/>
		<path d="M182.623,236.864c-0.022-0.257-0.041-0.501-0.062-0.701c0.313-0.498,0.682-0.815,1.194-0.877
			c0.349,0.021,0.568,0.192,0.761,0.485c0.144,0.517,0.104,1.021-0.388,1.416C183.61,237.365,183.138,237.309,182.623,236.864"/>
		<path d="M186.109,236.925c-0.021-0.257-0.041-0.501-0.06-0.7c0.312-0.498,0.68-0.816,1.194-0.877
			c0.349,0.021,0.566,0.191,0.761,0.483c0.142,0.519,0.104,1.022-0.388,1.417C187.098,237.426,186.624,237.368,186.109,236.925"/>
		<path d="M74.104,235.837c-0.021-0.257-0.041-0.501-0.059-0.701c0.312-0.497,0.679-0.817,1.192-0.877
			c0.351,0.021,0.568,0.192,0.763,0.484c0.141,0.518,0.104,1.022-0.39,1.417C75.092,236.338,74.62,236.279,74.104,235.837"/>
		<path d="M86.306,235.837c-0.021-0.257-0.041-0.501-0.059-0.701c0.312-0.497,0.679-0.817,1.192-0.877
			c0.351,0.021,0.568,0.192,0.763,0.484c0.141,0.518,0.104,1.022-0.39,1.417C87.294,236.338,86.821,236.279,86.306,235.837"/>
		<path d="M90.319,235.837c-0.021-0.257-0.042-0.501-0.059-0.701c0.313-0.497,0.679-0.817,1.194-0.877
			c0.349,0.021,0.566,0.192,0.761,0.484c0.141,0.518,0.104,1.022-0.388,1.417C91.307,236.338,90.833,236.279,90.319,235.837"/>
		<path fill="#FBB040" d="M35.515,65.327c-0.056,0.458-0.245,0.722-0.588,0.923c-0.528,0.12-1.087,0.248-1.627,0.373
			c-0.502-0.072-0.797-0.366-1.011-0.771c-0.271-0.516-0.474-1.054-0.599-1.626c-0.133-0.611-0.273-1.223-0.622-1.732
			c-1.006-0.252-1.206-0.25-2.354,0.036c-0.271,0.42-0.394,0.925-0.422,1.462c-0.025,0.435-0.019,0.873-0.075,1.303
			c-0.037,0.276-0.168,0.54-0.24,0.758c-0.151,0.077-0.238,0.154-0.325,0.158c-0.336,0.016-0.673-0.002-1.009,0.019
			c-0.283,0.021-0.563,0.08-0.785,0.112c-0.352-0.14-0.56-0.325-0.674-0.767c0.088-1.127,0.536-2.313,0.745-3.549
			c0.215-1.282,0.572-2.542,0.878-3.81c0.293-1.22,0.599-2.436,0.906-3.68c0.126-0.175,0.268-0.369,0.407-0.559
			c0.083-0.328,0.167-0.652,0.238-0.938c0.624-0.358,0.624-0.358,2.333-0.366c0.105,0.104,0.285,0.214,0.367,0.374
			c0.416,0.815,0.85,1.616,1.082,2.522c0.4,1.542,0.882,3.058,1.529,4.524C34.414,61.772,35.012,63.508,35.515,65.327
			 M29.396,59.338c1.146,0.104,1.146,0.104,1.562-0.124c0-0.048,0.006-0.096-0.002-0.144c-0.155-1.198-0.603-2.33-0.803-3.52
			c-0.019-0.109-0.147-0.231-0.364-0.076c-0.182,1.141-0.366,2.329-0.553,3.517c-0.007,0.046,0.013,0.099,0.028,0.143
			C29.283,59.174,29.313,59.211,29.396,59.338"/>
		<path fill="#FBB040" d="M26.327,86.954c0.187-0.813,0.707-1.223,1.357-1.483c0.913-0.363,1.859-0.496,2.894-0.335
			c0.13,0.056,0.308,0.128,0.481,0.21c1.501,0.698,2.136,2.026,2.514,3.517c0.157,0.624,0.034,1.252-0.266,1.826
			c-0.131,0.253-0.31,0.482-0.483,0.75c0.075,0.114,0.14,0.244,0.234,0.336c0.39,0.361,0.819,0.68,1.174,1.069
			c0.771,0.838,1.104,1.797,0.655,2.922c-0.089,0.222-0.17,0.447-0.252,0.664c-1.19,1.185-2.692,1.673-4.121,2.051
			c-1.224-0.146-2.323-0.278-3.42-0.409c-0.152-0.145-0.288-0.277-0.395-0.377c-0.295-0.675-0.368-1.344-0.409-2.02
			c-0.042-0.673-0.07-1.346-0.119-2.017c-0.05-0.723,0.004-1.438,0.056-2.16c0.097-1.296,0.072-2.601,0.097-3.902
			C26.33,87.354,26.327,87.114,26.327,86.954 M32.57,95.335c0.135-0.287,0.117-0.574-0.033-0.83
			c-0.373-0.626-0.828-1.169-1.549-1.434c-0.523,0-1.049-0.005-1.571,0.005c-0.086,0.002-0.171,0.066-0.258,0.103
			c-0.179,0.125-0.2,0.318-0.208,0.509c-0.027,0.62-0.05,1.24-0.058,1.86c-0.001,0.077,0.091,0.154,0.16,0.263
			c0.302,0.06,0.627,0.125,0.86,0.171c0.667-0.071,1.235-0.128,1.807-0.191C32.065,95.754,32.365,95.628,32.57,95.335
			 M28.562,87.581c-0.144,0.775-0.118,1.634-0.077,2.493c0.009,0.133,0.095,0.262,0.155,0.424c0.978,0.07,1.789-0.171,2.352-1.064
			c0.02-0.521-0.008-1.042-0.14-1.559c-0.409-0.437-0.872-0.751-1.499-0.716C29.059,87.175,28.779,87.227,28.562,87.581"/>
		<path fill="#FBB040" d="M28.777,118.35c0.433-0.286,0.874-0.576,1.323-0.872c0.947-0.182,1.894-0.364,2.857-0.549
			c0.576,0.187,1.263,0.048,1.756,0.661c0.161,0.61,0.157,1.283,0.054,1.949c-0.025,0.173-0.176,0.327-0.239,0.436
			c-0.648,0.316-1.199,0.017-1.792-0.06c-0.446,0.081-0.922,0.166-1.45,0.261c-0.382,0.199-0.807,0.42-1.14,0.594
			c-0.662,0.557-0.628,1.271-0.783,1.914c0.201,0.843,0.081,1.761,0.731,2.55c0.387,0.311,0.838,0.672,1.296,1.037
			c0.609,0.192,1.228,0.233,1.94,0.082c0.217-0.126,0.507-0.295,0.797-0.465c0.35-0.097,0.668-0.074,0.933,0.296
			c0.104,0.627-0.076,1.293-0.041,1.877c-0.194,0.678-0.675,0.917-1.207,1.019c-0.47,0.089-0.958,0.087-1.438,0.102
			c-0.479,0.016-0.959,0.003-1.703,0.003c-1.337-0.332-2.46-1.354-3.297-2.706c-0.541-0.875-0.715-1.881-0.786-2.901
			c-0.061-0.836,0.092-1.611,0.46-2.379C27.692,119.858,27.662,119.844,28.777,118.35"/>
		<path fill="#FBB040" d="M27.946,150.695c-0.129-0.272-0.214-0.444-0.29-0.619c-0.018-0.042-0.008-0.094-0.012-0.143
			c0.036-0.267,0.201-0.441,0.424-0.553c0.945-0.468,1.954-0.546,2.973-0.361c0.903,0.162,1.799,0.396,2.478,1.099
			c0.101,0.104,0.232,0.174,0.354,0.254c1.007,0.669,1.626,1.634,2.079,2.726c0.13,0.312,0.229,0.635,0.356,0.948
			c0.366,0.91,0.58,1.843,0.392,3.024c-0.045,0.133-0.156,0.449-0.264,0.771c-0.408,1.236-1.166,2.212-2.205,2.979
			c-1.021,0.755-2.178,1.248-3.343,1.724c-0.491,0.198-1.005,0.341-1.51,0.509c-0.517,0.174-1.031,0.23-1.56,0.01
			c-0.073-0.125-0.146-0.246-0.206-0.338c-0.055-0.406,0.274-0.646,0.366-1.275c0-0.525-0.001-1.346,0.001-2.166
			c0.002-0.967-0.004-1.934,0.016-2.9c0.019-0.964-0.04-1.924,0.011-2.89C28.051,152.576,27.971,151.654,27.946,150.695
			 M33.102,154.611c-0.384-1.006-1.099-1.743-2.094-2.221c-0.057-0.027-0.159,0.039-0.261,0.063
			c-0.013,0.133-0.041,0.274-0.029,0.414c0.189,2.046,0.404,4.089,0.576,6.138c0.003,0.042,0.051,0.08,0.078,0.117
			c0.201,0.068,0.372-0.021,0.528-0.12c0.476-0.289,0.715-0.762,0.938-1.211C33.244,156.032,33.244,156.032,33.102,154.611"/>
		<path fill="#FBB040" d="M30.067,189.816c-0.059,0.754-0.039,1.475,0.077,2.189c0.039,0.242,0.133,0.461,0.443,0.635
			c0.305-0.022,0.687-0.051,1.065-0.082c0.239-0.02,0.479-0.068,0.717-0.07c0.372-0.004,0.645,0.171,0.795,0.535
			c0.107,0.369,0.044,0.754-0.011,1.134c-0.02,0.139-0.084,0.274-0.144,0.405c-0.04,0.086-0.101,0.164-0.171,0.229
			c-0.104,0.1-0.223,0.18-0.286,0.229c-0.727,0.321-1.512-0.133-2.16,0.334c-0.163,0.494-0.152,0.949,0.16,1.386
			c1.453,0.249,2.908-0.142,4.325,0.129c0.296,0.106,0.525,0.266,0.608,0.563c0.013,0.062,0.032,0.109,0.023,0.152
			c-0.113,0.516-0.229,1.029-0.344,1.529c-0.124,0.111-0.229,0.205-0.32,0.287c-0.446,0.156-0.885,0.104-1.313,0.11
			c-1.11,0.013-2.218-0.013-3.317,0.181c-0.613,0.103-1.244,0.178-1.956-0.006c-0.146-0.146-0.344-0.343-0.559-0.555
			c-0.116-3.822-0.143-7.631,0.013-11.277c0.168-0.457,0.406-0.604,0.695-0.691c0.745-0.229,1.515-0.286,2.288-0.273
			c0.677,0.01,1.346,0.012,2.016-0.136c0.518-0.116,1.057-0.097,1.584-0.002c0.292,0.05,0.555,0.164,0.75,0.506v1.384
			c-0.083,0.231-0.293,0.342-0.521,0.435c-0.364,0.147-0.748,0.179-1.137,0.194c-0.723,0.025-1.446,0.047-2.168,0.09
			C30.839,189.383,30.447,189.411,30.067,189.816"/>
		<path fill="#FBB040" d="M33.908,222.637c0.143,0.178,0.259,0.324,0.358,0.452c-0.012,0.183,0.011,0.338-0.037,0.468
			c-0.233,0.627-0.376,1.288-0.656,1.928c-0.201,0.06-0.382,0.125-0.564,0.156c-0.57,0.099-1.146,0.168-1.715,0.271
			c-0.125,0.021-0.235,0.134-0.36,0.206c0.147,1.399,0.684,2.739,0.465,4.089c-0.161,0.354-0.394,0.52-0.685,0.594
			c-0.419,0.108-0.842,0.2-1.239,0.292c-0.287-0.007-0.481-0.127-0.663-0.435c-0.018-0.248-0.066-0.582-0.059-0.917
			c0.017-0.728-0.021-1.445-0.204-2.151c-0.048-0.188-0.077-0.38-0.096-0.568c-0.116-1.104-0.009-2.222-0.189-3.322
			c-0.174-1.051-0.18-2.11-0.178-3.174c0-0.426-0.099-0.854-0.163-1.396c0.086-0.213,0.217-0.521,0.341-0.816
			c0.832-0.595,1.739-0.862,2.733-0.855c0.771,0.005,1.541,0,2.32,0c0.243,0.08,0.382,0.264,0.473,0.564
			c-0.031,0.473-0.064,0.996-0.101,1.549c-0.114,0.139-0.232,0.283-0.34,0.412c-0.776,0.244-1.577,0.002-2.259,0.221
			c-0.228,0.16-0.3,0.332-0.312,0.531c-0.034,0.576,0.006,1.149,0.037,1.635c0.078,0.128,0.095,0.185,0.127,0.207
			c0.122,0.072,0.253,0.136,0.385,0.207C32.146,222.766,32.949,222.525,33.908,222.637"/>
		<path fill="#FBB040" d="M79.542,61.372c0.062-0.784,0.122-1.547,0.187-2.314c0.004-0.043,0.042-0.083,0.072-0.141
			c0.477-0.47,1.177-0.324,1.75-0.577c0.524-0.229,1.102-0.329,1.584-0.466c0.354,0.06,0.466,0.284,0.627,0.518
			c0.133,0.663,0.374,1.355,0.296,2.093c-0.019,0.192,0.022,0.4-0.041,0.574c-0.32,0.901-0.161,1.816-0.104,2.797
			c-0.151,0.391-0.325,0.837-0.503,1.296c-0.198,0.142-0.395,0.283-0.599,0.43c-0.712,0.11-1.422,0.256-2.142,0.319
			c-1.351,0.122-2.691,0.118-4.025-0.229c-0.952-0.247-1.785-0.712-2.583-1.186c-0.506-0.545-0.704-1.165-0.844-1.846
			c-0.299-1.438-0.281-2.875-0.188-4.232c0.391-0.986,0.741-1.884,1.079-2.743c1.023-1.213,2.32-1.937,3.833-2.53
			c1.196-0.27,2.365,0.204,3.54,0.669c0.235-0.014,0.473-0.029,0.753-0.048c0.12,0.307,0.24,0.619,0.372,0.963
			c-0.168,0.49-0.336,0.989-0.512,1.505c-0.216,0.126-0.418,0.243-0.548,0.322c-0.621-0.019-0.936-0.455-1.406-0.666
			c-0.948-0.305-1.867-0.02-2.771,0.344c-0.272,0.112-0.483,0.322-0.634,0.578c-0.218,0.379-0.402,0.773-0.45,1.214
			c-0.102,0.911-0.195,1.821-0.3,2.785c0.202,0.595,0.423,1.235,0.619,1.815c0.249,0.343,0.57,0.457,0.895,0.556
			c0.274,0.085,0.569,0.115,0.842,0.21c0.937,0.334,1.797,0.188,2.594-0.334c0.229-0.66,0.228-0.663-0.015-1.257
			C80.467,61.791,79.952,62.016,79.542,61.372"/>
		<path fill="#FBB040" d="M76.131,85.659c0.143,1.46-0.096,2.869,0.219,4.23c0.208,0.067,0.338,0.13,0.476,0.149
			c0.189,0.026,0.388,0.034,0.577,0.021c1.155-0.087,2.312-0.177,3.465-0.277c0.239-0.021,0.478-0.081,0.694-0.328
			c0.182-0.507,0.122-1.084-0.027-1.645c-0.204-0.77-0.079-1.527-0.07-2.232c0.56-0.509,1.09-0.808,1.771-0.732
			c0.449,0.049,0.854,0.179,1.12,0.735c0,0.324,0.004,0.756,0,1.189c-0.009,0.918-0.014,1.833,0.198,2.739
			c0.087,0.374,0.104,0.768,0.106,1.153c0.014,1.547,0.014,3.092,0.014,4.639c0,0.191-0.039,0.382-0.062,0.571
			c-0.578,0.802-1.335,1.084-2.252,0.87c-0.404-0.227-0.561-0.578-0.592-0.975c-0.034-0.433-0.019-0.869-0.021-1.304
			c-0.004-0.575,0.016-1.154-0.12-1.634c-0.188-0.25-0.374-0.288-0.57-0.274c-0.24,0.021-0.477,0.069-0.716,0.097
			c-0.866,0.099-1.733,0.145-2.597-0.031c-0.233-0.047-0.479-0.052-0.715-0.075c-0.131,0.091-0.243,0.173-0.355,0.254
			c-0.292,1.17,0.276,2.308,0.072,3.479c-0.2,0.552-0.637,0.793-1.203,0.876c-0.604,0.087-1.148-0.073-1.686-0.366
			c-0.386-0.299-0.59-0.732-0.734-1.153c0.022-1.102,0.055-2.161,0.068-3.22c0.011-0.726-0.051-1.443-0.127-2.166
			c-0.161-1.538-0.149-3.08,0.277-4.617C74.244,85.177,75.136,84.946,76.131,85.659"/>
		<path fill="#FBB040" d="M76.792,120.146c-0.188-0.117-0.391-0.244-0.594-0.373c-0.34-0.454-0.227-1.028-0.41-1.408
			c0.027-0.212,0.023-0.314,0.058-0.403c0.305-0.824,0.554-1.017,1.355-1.041c0.433-0.009,0.862-0.001,1.386-0.001
			c0.044,0.02,0.178,0.075,0.29,0.121c0.454-0.014,0.889-0.051,1.322-0.039c0.403,0.011,0.752,0.17,1.027,0.613
			c0.055,0.386,0.116,0.861,0.183,1.339c-0.112,0.18-0.211,0.338-0.313,0.499c-0.345,0.089-0.671,0.173-0.986,0.254
			c-0.061,0.086-0.155,0.159-0.166,0.241c-0.077,0.819-0.101,1.639,0.062,2.455c0.193,0.957,0.095,1.929,0.129,2.894
			c0.041,1.162,0.246,2.304,0.35,3.457c0.008,0.087,0.09,0.167,0.165,0.306c0.336,0.042,0.709,0.09,1.075,0.137
			c0.1,0.138,0.18,0.253,0.275,0.387c-0.178,0.699-0.354,1.396-0.525,2.083c-0.115,0.12-0.211,0.224-0.354,0.374
			c-0.42,0.102-0.888,0.215-1.318,0.316c-0.375-0.071-0.708-0.133-1.073-0.203c-0.773,0.18-1.584,0.324-2.452,0.021
			c-0.556-0.63-0.78-1.361-0.524-2.146c0.349-0.44,0.802-0.506,1.187-0.691c0.046-0.083,0.13-0.167,0.13-0.252
			c0.007-1.69,0.012-3.384-0.006-5.077c-0.004-0.432-0.071-0.865-0.126-1.465C77.09,121.855,77.216,120.996,76.792,120.146"/>
		<path fill="#FBB040" d="M79.982,154.146c-0.56-0.144-1.138-0.121-1.716-0.096c-0.289,0.016-0.582,0.032-0.867-0.003
			c-0.177-0.021-0.343-0.14-0.456-0.188c-0.34-0.56-0.054-1.118-0.252-1.565c0.158-0.397,0.484-0.54,0.732-0.755
			c0.822-0.325,1.669-0.458,2.551-0.438c0.575,0.016,1.155-0.037,1.731-0.082c0.525-0.041,1.051-0.112,1.581-0.172
			c0.562,0.209,0.977,0.613,1.385,0.976c0.285,0.812,0.285,0.812,0.057,1.543c-0.514,0.569-1.429,0.276-1.949,0.929
			c0.342,2.314,0.104,4.676,0.142,7.059c-0.415,1.728-1.683,2.592-3.271,3.153c-0.9,0.117-1.815,0.072-2.73,0.015
			c-0.342-0.021-0.667-0.112-0.889-0.449c-0.177-0.352-0.113-0.731-0.009-1.104c0.188-0.645,0.393-1.284,0.591-1.942
			c0.128-0.053,0.255-0.105,0.423-0.176c0.298,0.231,0.595,0.467,0.897,0.705c0.141,0.012,0.283,0.025,0.409,0.036
			c0.499-0.151,0.853-0.475,1.193-0.834c0.445-0.712,0.623-1.518,0.658-2.338c0.058-1.251,0.034-2.506,0.04-3.761
			c0-0.096-0.036-0.188-0.057-0.281C80.114,154.301,80.051,154.229,79.982,154.146"/>
		<path fill="#FBB040" d="M76.386,187.268c0.172-0.356,0.433-0.476,0.714-0.562c0.096-0.006,0.203-0.051,0.284-0.016
			c0.547,0.222,1.166,0.022,1.698,0.3c0.08,0.04,0.133,0.135,0.238,0.247c0.074,1.146-0.025,2.365,0.414,3.509
			c0.219,0.073,0.391-0.021,0.539-0.131c0.857-0.625,1.723-1.246,2.561-1.896c0.914-0.711,1.828-1.419,2.744-2.018
			c0.315-0.05,0.553-0.046,0.839,0.315c0.108,0.28,0.281,0.728,0.462,1.194c-0.105,0.174-0.17,0.373-0.309,0.491
			c-0.65,0.57-1.338,1.104-1.985,1.681c-0.723,0.64-1.418,1.306-2.116,1.968c-0.056,0.053-0.052,0.17-0.077,0.256
			c0.062,0.071,0.107,0.178,0.188,0.215c0.903,0.474,1.651,1.164,2.456,1.775c0.961,0.729,1.888,1.5,2.897,2.312
			c0.179,0.247,0.147,0.553-0.138,0.827c-0.138,0.135-0.285,0.26-0.479,0.434c-0.555,0.111-1.102,0.489-1.839,0.354
			c-0.635-0.234-1.147-0.766-1.675-1.25c-0.923-0.857-1.963-1.561-2.973-2.304c-0.152-0.11-0.333-0.19-0.513-0.264
			c-0.07-0.028-0.168,0.006-0.304,0.021c-0.073,0.842,0.4,1.57,0.494,2.325c0.013,0.427-0.188,0.687-0.47,0.896
			c-0.473,0.355-1.023,0.533-1.596,0.693c-0.098,0.209-0.197,0.418-0.308,0.649c-0.131,0.017-0.265,0.032-0.429,0.054
			c-0.167-0.412-0.329-0.808-0.469-1.152c0.109-1.412,0.152-2.758-0.179-4.09c-0.052-1.257-0.366-2.479-0.408-3.74
			c-0.027-0.864-0.179-1.727-0.267-2.592C76.369,187.579,76.386,187.386,76.386,187.268"/>
		<path fill="#FBB040" d="M79.047,221.182c0,0.189,0.008,0.434-0.002,0.674c-0.091,2.08-0.071,2.215,0.199,4.312
			c0.097,0.766,0.1,1.541,0.149,2.312c0.016,0.244,0.071,0.476,0.356,0.674c0.981,0.134,2.041,0.152,3.103,0.103
			c0.388-0.021,0.772-0.062,1.157-0.062c0.245,0.002,0.471,0.096,0.603,0.341c0.021,0.084,0.062,0.177,0.062,0.271
			c-0.008,0.433-0.027,0.861-0.045,1.354c-0.138,0.139-0.303,0.305-0.485,0.485c-0.257,0-0.497,0.018-0.733-0.004
			c-1.542-0.137-3.091-0.026-4.635-0.018c-0.385,0.005-0.775,0.023-1.155-0.021c-0.276-0.037-0.54-0.177-0.829-0.274
			c-0.061-0.202-0.136-0.381-0.158-0.563c-0.138-1.053-0.229-2.105-0.434-3.15c-0.159-0.805-0.174-1.641-0.012-2.452
			c0.232-1.159,0.133-2.296-0.104-3.435c-0.008-0.045,0.009-0.098,0.017-0.174c0.059-0.103,0.128-0.225,0.187-0.322
			c0.639-0.484,1.408-0.383,2.051-0.6C78.688,220.682,78.925,220.818,79.047,221.182"/>
		<path fill="#FBB040" d="M136.972,53.057c0.338,0.117,0.449,0.401,0.631,0.621c0.152,0.184,0.33,0.345,0.452,0.471
			c0.089,0.55,0.161,1.026,0.243,1.5c0.204,1.192,0.457,2.375,0.426,3.592c0.229,0.99,0.182,2.017,0.413,3.009
			c0.185,0.8,0.164,1.625,0.124,2.316c-0.174,0.368-0.399,0.455-0.639,0.542c-0.244,0.074-0.45-0.108-0.686-0.137
			c-0.239-0.028-0.479-0.027-0.72-0.038c-0.248-0.015-0.479-0.066-0.666-0.32c-0.021-0.096-0.079-0.236-0.074-0.374
			c0.018-0.434,0.022-0.862-0.077-1.295c-0.142-0.619-0.108-1.237,0.02-1.868c0.203-1.004,0.098-2.02-0.021-3.027
			c-0.021-0.177-0.128-0.345-0.189-0.503c-0.103,0.016-0.165,0.01-0.195,0.037c-0.482,0.471-0.968,0.94-1.435,1.426
			c-0.668,0.695-1.316,1.411-1.982,2.107c-0.197,0.208-0.431,0.382-0.589,0.521c-0.315,0.117-0.547,0.13-0.778-0.011
			c-0.065-0.057-0.158-0.106-0.209-0.183c-0.162-0.242-0.305-0.493-0.458-0.738c-0.128-0.206-0.228-0.441-0.396-0.603
			c-0.705-0.67-1.236-1.482-1.859-2.22c-0.147-0.178-0.306-0.38-0.635-0.296c-0.114,0.659-0.091,1.336,0.077,1.993
			c0.109,0.426,0.184,0.854,0.176,1.288c-0.015,0.925,0.133,1.828,0.311,2.729c0.036,0.187,0.062,0.378,0.08,0.499
			c-0.047,0.334-0.191,0.532-0.427,0.626c-0.73,0.294-1.477,0.411-2.163,0.15c-0.317-0.263-0.394-0.545-0.398-0.839
			c-0.024-1.303-0.039-2.608-0.05-3.914c-0.003-0.676,0.052-1.354,0.021-2.028c-0.058-1.359,0.155-2.689,0.311-4.017
			c0.511-0.564,1.223-0.611,1.844-0.849c0.158-0.063,0.372,0.008,0.596,0.023c0.112,0.164,0.232,0.311,0.322,0.475
			c0.366,0.688,0.825,1.302,1.403,1.83c0.611,0.557,1.087,1.232,1.58,1.889c0.145,0.189,0.294,0.372,0.449,0.564
			c0.488-0.233,0.824-0.579,1.157-0.928c0.599-0.629,1.199-1.261,1.783-1.905c0.259-0.286,0.493-0.593,0.716-0.909
			c0.307-0.446,0.7-0.798,1.139-1.102C136.708,53.086,136.868,53.084,136.972,53.057"/>
		<path fill="#FBB040" d="M137.67,95.734c-0.442,0.391-0.914,0.204-1.32,0.126c-0.627-0.385-1.2-0.739-1.997-1.229
			c-0.204-0.179-0.512-0.607-0.829-1.037c-0.717-0.97-1.51-1.872-2.468-2.618c-0.387-0.3-0.641-0.716-0.947-1.09
			c-0.235-0.288-0.44-0.635-0.85-0.727c-0.062,0.074-0.162,0.14-0.163,0.21c-0.05,1.544-0.039,3.087,0.24,4.618
			c0.066,0.377,0.073,0.767,0.085,1.153c0.004,0.187-0.046,0.377-0.06,0.463c-0.17,0.334-0.396,0.419-0.67,0.526h-1.979
			c-0.146-0.139-0.28-0.269-0.385-0.368c-0.169-1.881-0.254-3.708-0.169-5.539c0.024-0.579,0.029-1.151,0.143-1.728
			c0.094-0.469,0.052-0.962,0.082-1.444c0.053-0.92,0.433-1.718,1.135-2.412c1.455-0.28,1.579-0.274,2.521,0.146
			c0.354,0.342,0.507,0.812,0.714,1.246c0.312,0.656,0.658,1.287,1.197,1.796c0.209,0.197,0.38,0.436,0.559,0.667
			c0.834,1.068,1.809,1.998,2.834,2.871c0.087-0.058,0.217-0.101,0.219-0.152c0.117-1.878,0.257-3.755-0.019-5.633
			c-0.058-0.375-0.009-0.766-0.009-1.111c0.128-0.339,0.351-0.507,0.66-0.546c0.385-0.048,0.77-0.083,1.247,0.087
			c0.265,0.274,0.595,0.618,0.908,0.949c0.037,0.174,0.091,0.313,0.091,0.454c-0.006,1.208-0.021,2.415-0.03,3.622
			c-0.003,0.339,0.043,0.688-0.026,1.012c-0.298,1.428-0.198,2.886-0.326,4.327C138.015,94.857,137.959,95.333,137.67,95.734"/>
		<path fill="#FBB040" d="M132.71,116.714c0.96,0.191,1.905,0.372,2.846,0.572c0.282,0.06,0.551,0.175,0.829,0.265
			c1.158,0.805,1.869,1.924,2.308,3.238c0.076,0.23,0.126,0.469,0.213,0.691c0.479,1.216,0.488,2.444,0.136,3.69
			c-0.054,0.185-0.099,0.372-0.141,0.538c-0.504,0.979-1.144,1.805-2.038,2.429c-1.337,0.933-2.821,1.22-4.402,0.963
			c-0.514-0.083-0.993-0.356-1.489-0.542c-1.687-0.63-2.593-1.927-3.04-3.601c-0.277-1.033-0.354-2.089-0.239-3.236
			c0.047-0.153,0.126-0.379,0.188-0.612c0.339-1.254,1.119-2.228,1.995-3.137c0.548-0.572,1.19-0.972,1.992-1.091
			C132.105,116.846,132.339,116.789,132.71,116.714 M133.47,127.269c1.206-0.216,1.813-0.998,2.262-1.954
			c0.103-0.219,0.188-0.447,0.271-0.673c0.574-1.576,0.572-3.114-0.289-4.609c-0.33-0.217-0.651-0.427-0.988-0.649
			c-0.58,0.132-1.153,0.133-1.688,0.005c-0.318,0.108-0.593,0.2-0.814,0.276c-0.135,0.212-0.235,0.368-0.333,0.521
			c-0.146-0.038-0.281-0.071-0.456-0.117c-0.674,0.769-1.096,1.673-1.283,2.708c0.054,0.707,0.106,1.429,0.158,2.122
			c0.432,0.951,1.151,1.579,1.935,2.11c0.363,0.088,0.692,0.17,1.021,0.249C133.312,127.268,133.362,127.263,133.47,127.269"/>
		<path fill="#FBB040" d="M133.722,160.709c-0.093,0.174-0.178,0.256-0.176,0.337c0.014,0.726-0.056,1.468,0.091,2.166
			c0.193,0.913,0.111,1.826,0.229,2.619c-0.094,0.438-0.33,0.601-0.609,0.708c-0.558,0.219-1.119,0.283-1.651,0.006
			c-0.515-0.508-0.508-1.159-0.621-1.77c-0.018-0.09,0.041-0.194,0.027-0.287c-0.104-0.717,0.052-1.434-0.073-2.161
			c-0.109-0.658-0.049-1.349-0.062-2.025c-0.016-0.727-0.032-1.448-0.039-2.175c-0.008-0.773-0.036-1.544-0.245-2.22
			c0.176-1,0.722-1.671,1.474-2.152c1.002-0.646,2.095-1.008,3.511-0.657c0.342,0.149,0.871,0.383,1.369,0.604
			c0.799,0.729,1.147,1.708,1.666,2.481c0.213,0.709,0.118,1.322-0.12,1.918c-0.242,0.597-0.615,1.086-1.172,1.438
			c-0.7,0.444-1.434,0.803-2.256,0.954C134.637,160.57,134.208,160.632,133.722,160.709 M136.337,156.887
			c-0.127-0.501-0.312-0.798-0.627-0.937c-0.483-0.207-0.98-0.39-1.486-0.513c-0.332-0.082-0.667,0.022-0.906,0.428
			c-0.139,0.494-0.082,1.068-0.009,1.639c0.024,0.18,0.094,0.355,0.146,0.537c0.771,0.254,1.455-0.079,2.149-0.158
			c0.087-0.013,0.168-0.087,0.325-0.174C136.044,157.477,136.19,157.184,136.337,156.887"/>
		<path fill="#FBB040" d="M126.181,193.741c0.357-1.103,0.721-2.153,1.037-3.216c0.356-1.192,1.193-1.952,2.216-2.562
			c0.122-0.072,0.254-0.146,0.395-0.18c0.714-0.186,1.299-0.617,1.921-1.012c1.444-0.188,2.882-0.111,4.296,0.244
			c2.195,1.5,3.578,4.545,3.174,7.521c-0.322,0.713-0.659,1.459-0.994,2.202c0.125,0.345,0.235,0.659,0.361,1.011
			c-0.067,0.157-0.141,0.331-0.197,0.466c-1.122,0.722-1.122,0.722-1.938,0.688c-0.29-0.242-0.617-0.518-0.963-0.803
			c-0.34,0.121-0.668,0.201-0.965,0.352c-0.747,0.369-1.547,0.554-2.351,0.703c-1.585,0.294-2.94-0.121-4.075-1.313
			c-0.826-0.866-1.331-1.885-1.675-3.003C126.323,194.52,126.276,194.182,126.181,193.741 M132.653,189.408
			c-0.781,0.264-1.424,0.585-1.973,1.076c-0.644,0.578-1.021,1.281-1.029,2.156c-0.006,0.674-0.021,1.351,0.066,2.022
			c0.319,0.61,0.646,1.196,1.381,1.537c0.89,0.09,1.844,0.137,2.758-0.062c0.085-0.13,0.138-0.203,0.201-0.302
			c-0.218-0.356-0.438-0.728-0.654-1.082c0.073-0.174,0.132-0.302,0.198-0.464c0.247-0.111,0.501-0.252,0.772-0.35
			c0.313-0.112,0.642-0.2,0.969-0.276c0.276-0.062,0.582,0.041,0.828-0.168c0.045-0.085,0.119-0.163,0.128-0.249
			c0.048-0.395-0.054-0.758-0.22-1.121c-0.245-0.538-0.612-0.993-1.021-1.396C134.406,190.085,133.687,189.503,132.653,189.408"/>
		<path fill="#FBB040" d="M129.23,231.846c-0.145-0.104-0.26-0.188-0.353-0.257c-0.028-0.073-0.061-0.116-0.062-0.163
			c-0.116-1.343-0.354-2.676-0.487-4.015c-0.111-1.103-0.124-2.216-0.147-3.326c-0.014-0.771-0.109-1.541-0.009-2.313
			c0.024-0.188-0.008-0.388-0.037-0.576c-0.07-0.479-0.148-0.951-0.229-1.426c-0.07-0.427-0.147-0.852-0.227-1.287
			c0.059-0.123,0.121-0.252,0.179-0.373c0.527-0.408,1.139-0.558,1.766-0.612c0.864-0.076,1.729-0.062,2.584,0.14
			c0.28,0.066,0.559,0.149,0.841,0.213c1.438,0.312,2.383,1.209,2.937,2.535c0.166,0.398,0.271,0.821,0.373,1.154
			c-0.122,0.759-0.229,1.424-0.348,2.161c-0.142,0.325-0.314,0.719-0.476,1.086c0.125,0.544,0.437,0.901,0.779,1.247
			c0.479,0.476,0.94,0.972,1.437,1.432c0.459,0.43,0.95,0.818,1.421,1.223c0.144,0.225,0.171,0.449-0.001,0.806
			c-0.268,0.241-0.621,0.562-0.996,0.901c-0.478,0.043-0.95,0.084-1.462,0.131c-0.716-0.641-1.435-1.277-2.151-1.918
			c-0.468-0.42-0.925-0.849-1.405-1.252c-0.289-0.244-0.573-0.523-0.992-0.539c-0.144,0.646-0.144,0.646,0.397,2.854
			c-0.159,0.697-0.695,1.096-1.327,1.377C130.577,231.338,129.895,231.581,129.23,231.846 M133.112,223.266
			c0.022-0.24,0.065-0.524,0.069-0.812c0.004-0.238-0.021-0.478-0.058-0.713c-0.12-0.83-1.087-1.753-1.838-1.802
			c-0.246-0.02-0.478,0.014-0.637,0.271c-0.006,0.12-0.048,0.272-0.012,0.403c0.285,1.062,0.471,2.146,0.619,3.236
			c0.032,0.232,0.139,0.455,0.401,0.644C132.354,224.404,132.782,223.938,133.112,223.266"/>
		<path fill="#FBB040" d="M184.941,68.62c-1.419-0.148-2.552-0.647-3.56-1.532c-0.33-0.533-0.718-1.089-0.888-1.811
			c0.244-0.617,0.592-1.177,1.15-1.522c0.301-0.108,0.521-0.04,0.782,0.168c0.07,0.213,0.166,0.482,0.269,0.783
			c0.009,0.012,0.027,0.069,0.065,0.089c0.743,0.366,1.109,1.208,1.909,1.553c0.729-0.099,1.422-0.252,1.868-1.049
			c0.103-0.542,0.081-1.165-0.014-1.875c-0.176-0.309-0.389-0.685-0.582-1.023c-0.42-0.258-0.797-0.474-1.157-0.715
			c-0.729-0.488-1.366-1.069-1.856-1.807c-0.263-0.402-0.56-0.782-0.963-1.342c-0.052-0.169-0.168-0.533-0.282-0.896
			c0.073-0.253,0.129-0.487,0.206-0.711c0.459-1.31,1.271-2.377,2.306-3.277c0.487-0.423,1.058-0.683,1.654-0.569
			c0.654,0.258,1.234,0.487,1.979,0.782c0.592,0.414,1.088,1.105,1.375,1.882c0.02,0.45-0.19,0.707-0.479,0.91
			c-0.434,0.311-0.925,0.513-1.464,0.708c-0.151-0.082-0.315-0.171-0.499-0.272c-0.079-0.49-0.154-0.959-0.228-1.403
			c-0.305-0.403-0.682-0.357-1.114-0.25c-0.479,0.27-0.836,0.728-1.236,1.183c-0.034,0.172-0.095,0.359-0.101,0.547
			c-0.005,0.238,0.038,0.475,0.062,0.744c0.284,0.262,0.551,0.541,0.853,0.778c0.798,0.626,1.593,1.255,2.418,1.841
			c0.525,0.374,0.94,0.825,1.271,1.369c0.15,0.248,0.288,0.504,0.438,0.75c0.604,0.985,0.604,1.998,0.217,3.06
			c-0.189,0.507-0.448,0.959-0.765,1.387C186.758,68.737,186.639,68.418,184.941,68.62"/>
		<path fill="#FBB040" d="M187.005,96.423c-0.074,0.161-0.133,0.291-0.195,0.423c-0.564,0.436-1.244,0.475-1.91,0.6
			c-0.369-0.354-0.713-0.685-1.081-1.04c0.017-0.424,0.052-0.852,0.039-1.279c-0.01-0.383-0.063-0.766-0.105-1.149
			c-0.041-0.381-0.062-0.77-0.146-1.143c-0.098-0.434-0.137-0.867-0.052-1.294c0.314-1.595,0.132-3.166-0.172-4.785
			c-0.165-0.068-0.333-0.18-0.508-0.199c-0.388-0.041-0.772-0.03-1.157-0.044c-0.385-0.012-0.768-0.028-1.183-0.044
			c-0.175-0.154-0.349-0.309-0.478-0.423c-0.154-0.649,0.037-1.127,0.447-1.514c0.312-0.297,0.639-0.599,1.195-0.648
			c1.101,0.454,2.326,0.585,3.601,0.525c1.154-0.055,2.316-0.013,3.508-0.013c0.433,0.123,0.896,0.245,1.284,0.634
			c0.029,0.585-0.126,1.113-0.556,1.574c-0.912,0.343-1.9,0.202-2.871,0.428c-0.05,0.099-0.165,0.219-0.17,0.345
			c-0.109,2.363-0.19,4.727,0.149,7.08C186.745,95.123,186.887,95.782,187.005,96.423"/>
		<path fill="#FBB040" d="M188.894,129.084c-1.005,0.288-1.907,0.405-2.834,0.373c-1.818-0.06-3.23-1.002-3.974-2.65
			c-0.34-0.757-0.549-1.541-0.66-2.362c-0.162-1.201-0.232-2.403-0.197-3.614c0.019-0.578,0.025-1.158,0.029-1.74
			c0.002-0.439,0.071-0.862,0.192-1.284c0.161-0.564,0.517-0.913,1.086-1.046c0.094-0.023,0.188-0.026,0.354-0.045
			c0.31,0.078,0.684,0.174,0.992,0.253c0.274,0.163,0.46,0.349,0.472,0.594c0.026,0.481,0.046,0.97-0.024,1.441
			c-0.119,0.776-0.089,1.528,0.024,2.304c0.144,0.952,0.198,1.921,0.248,2.886c0.021,0.377-0.075,0.762-0.109,1.065
			c0.089,0.427,0.275,0.702,0.539,0.931c0.59,0.521,1.287,0.834,1.994,1.045c0.444-0.091,0.742-0.327,1.082-0.68
			c0.086-0.334,0.196-0.752,0.269-1.017c0-0.256,0.015-0.357-0.004-0.448c-0.163-0.81-0.226-1.625-0.189-2.45
			c0.021-0.484,0.034-0.968,0.011-1.45c-0.026-0.577-0.062-1.159-0.158-1.727c-0.112-0.626-0.098-1.246-0.098-1.76
			c0.137-0.423,0.396-0.546,0.666-0.661c0.462-0.197,0.927-0.248,1.36-0.034c0.077,0.114,0.158,0.187,0.179,0.275
			c0.19,0.799,0.377,1.597,0.548,2.399c0.062,0.282,0.097,0.574,0.104,0.861c0.037,1.207,0.066,2.414,0.084,3.621
			c0.011,0.773,0.014,1.544-0.223,2.297c-0.086,0.272-0.072,0.573-0.101,0.812C190.251,128.141,189.702,128.721,188.894,129.084"/>
		<path fill="#FBB040" d="M186.634,159.645c0.514-1.434,0.913-2.672,1.292-3.916c0.325-1.062,0.637-2.129,1.087-3.147
			c0.232-0.532,0.402-1.089,0.604-1.633c0.134-0.362,0.272-0.724,0.558-1.009c0.94-0.393,1.803,0.084,2.666,0.166
			c0.109,0.177,0.184,0.295,0.247,0.396c-0.012,0.074-0.008,0.129-0.027,0.168c-0.949,1.861-1.58,3.838-2.148,5.84
			c-0.146,0.51-0.396,0.987-0.569,1.488c-0.458,1.32-0.963,2.629-1.301,3.992c-0.047,0.186-0.121,0.365-0.188,0.548
			c-0.069,0.202-0.113,0.244-0.617,0.589c-0.812,0.025-1.632,0.059-2.451,0.078c-0.675,0.018-1.206-0.247-1.633-0.784
			c-0.364-0.462-0.671-0.96-0.868-1.501c-0.335-0.911-0.836-1.74-1.209-2.633c-0.407-0.98-0.882-1.936-1.319-2.905
			c-0.117-0.264-0.248-0.53-0.306-0.81c-0.202-0.958-0.59-1.844-0.993-2.723c-0.184-0.395-0.357-0.789-0.439-1.271
			c0.092-0.13,0.199-0.281,0.302-0.428c0.444-0.125,0.856-0.271,1.282-0.344c0.377-0.065,0.777-0.086,1.045,0.26
			c0.148,0.261-0.026,0.492-0.002,0.729c0.025,0.094,0.027,0.202,0.078,0.276c0.542,0.743,0.912,1.594,1.388,2.377
			c0.149,0.249,0.259,0.524,0.431,0.758c1.126,1.528,1.888,3.258,2.733,4.938C186.334,159.268,186.43,159.367,186.634,159.645"/>
		<path fill="#FBB040" d="M190.309,195.366c0.116-0.587,0.177-0.966,0.269-1.337c0.374-1.549,0.767-3.094,1.136-4.646
			c0.211-0.893,0.383-1.796,0.579-2.688c0.094-0.424,0.145-0.867,0.526-1.158c0.938-0.18,0.938-0.18,2.329,0.064
			c0.088,0.123,0.192,0.271,0.281,0.401c-0.05,0.539-0.246,0.979-0.396,1.438c-0.354,1.054-0.717,2.104-0.906,3.205
			c-0.125,0.717-0.339,1.412-0.583,2.092c-0.199,0.551-0.345,1.104-0.416,1.687c-0.046,0.382-0.121,0.767-0.236,1.132
			c-0.29,0.92-0.622,1.828-0.774,2.789c-0.047,0.286-0.194,0.547-0.545,0.754c-0.486,0.049-1.062,0.104-1.52,0.148
			c-0.372-0.096-0.53-0.282-0.637-0.502c-0.578-1.174-1.394-2.207-2.022-3.348c-0.443-0.804-1.039-1.5-1.558-2.194
			c-0.298,0.011-0.416,0.167-0.501,0.333c-0.654,1.294-1.371,2.558-1.886,3.919c-0.14,0.36-0.301,0.713-0.475,1.06
			c-0.085,0.166-0.226,0.305-0.344,0.461c-0.578,0.154-1.13,0.322-1.771,0.088c-0.227-0.252-0.489-0.53-0.732-0.828
			c-0.121-0.146-0.259-0.316-0.291-0.495c-0.154-0.812-0.617-1.513-0.777-2.328c-0.166-0.853-0.469-1.675-0.707-2.513
			c-0.171-0.604-0.329-1.209-0.461-1.822c-0.172-0.803-0.458-1.577-0.706-2.361c-0.246-0.781-0.469-1.57-0.514-2.398
			c0.178-0.475,0.171-0.479,0.589-0.824c0.687-0.188,1.4-0.076,2.111,0.061c0.128,0.024,0.232,0.152,0.391,0.262
			c0.023,0.222,0.08,0.457,0.067,0.689c-0.032,0.639,0.078,1.247,0.229,1.861c0.301,1.219,0.567,2.447,0.848,3.671
			c0.053,0.235,0.087,0.476,0.152,0.708c0.277,0.951,0.563,1.9,0.873,2.941c0.215-0.541,0.367-0.998,0.575-1.431
			c0.189-0.392,0.458-0.739,0.659-1.128c0.47-0.896,0.919-1.811,1.394-2.75c0.673-0.355,1.408-0.498,2.185-0.559
			c0.145,0.233,0.26,0.386,0.337,0.555c0.162,0.352,0.303,0.711,0.453,1.066C188.144,192.877,189.004,194.136,190.309,195.366
			 M190.893,197.646l0.029,0.099l0.029-0.097L190.893,197.646z"/>
		<path fill="#FBB040" d="M182.639,217.665c0.354,1.249,0.354,1.249,1.618,3.276c0.239,0.221,0.532,0.475,0.806,0.744
			c0.234,0.234,0.38,0.564,0.781,0.697c1.231-1.336,2.128-2.945,3.171-4.339c0.319-0.221,0.587-0.308,0.893-0.276
			c0.383,0.043,0.77,0.056,1.146,0.113c0.258,0.041,0.419,0.225,0.479,0.562c-0.042,0.115-0.086,0.307-0.179,0.469
			c-0.417,0.763-0.832,1.527-1.282,2.271c-0.304,0.491-0.664,0.946-1.004,1.416c-0.366,0.508-0.752,1.006-1.102,1.523
			c-0.131,0.191-0.188,0.436-0.288,0.677c0.094,0.185,0.146,0.388,0.271,0.513c0.479,0.479,0.909,0.994,1.32,1.535
			c0.292,0.381,0.64,0.723,0.975,1.071c0.299,0.312,0.641,0.591,0.914,0.923c0.334,0.41,0.62,0.861,0.919,1.282
			c0.196,0.748-0.118,1.242-0.738,1.563c-0.383,0.199-0.792,0.344-1.103,0.476c-0.427-0.021-0.647-0.215-0.819-0.449
			c-1.064-1.44-2.385-2.649-3.595-3.959c-0.027-0.026-0.088-0.024-0.132-0.036c-0.864,0.782-1.396,1.49-1.793,2.393
			c-0.155,0.354-0.307,0.711-0.477,1.058c-0.172,0.349-0.393,0.669-0.76,0.884c-0.511,0.193-1.021,0.107-1.518-0.121
			c-0.354-0.285-0.577-0.647-0.746-1.144c0.065-0.167,0.104-0.421,0.243-0.597c0.609-0.765,1.027-1.631,1.481-2.483
			c0.432-0.81,0.916-1.589,1.363-2.356c0.048-0.297-0.105-0.487-0.253-0.68c-0.799-1.038-1.449-2.16-2.002-3.352
			c-0.361-0.785-0.77-1.56-1.161-2.33c-0.091-0.178-0.151-0.352-0.082-0.559c0.253-0.334,0.687-0.312,1.021-0.483
			c0.342-0.179,0.7-0.321,1.082-0.495C182.263,217.518,182.436,217.585,182.639,217.665"/>
		<path fill="#FBB040" d="M236.594,59.907c-0.068,1.316-0.17,2.566,0.098,3.817c0.07,0.326,0.062,0.673,0.07,1.01
			c0.021,0.822,0.059,1.643,0.252,2.448c0.043,0.182,0.006,0.383,0.006,0.601c-0.135,0.454-0.438,0.821-0.77,1.191
			c-0.205,0.032-0.395,0.093-0.58,0.088c-0.969-0.033-1.461-0.456-1.521-1.387c-0.068-1.061-0.088-2.125-0.104-3.187
			c-0.012-1.064,0.006-2.128,0.018-3.192c0.004-0.487-0.062-0.961-0.215-1.426c-0.168-0.518-0.461-0.951-0.84-1.337
			c-0.574-0.585-1.219-1.091-1.771-1.709c-0.537-0.605-1.232-1.076-1.902-1.643c-0.064-0.228-0.123-0.515-0.232-0.775
			c-0.112-0.263-0.273-0.501-0.396-0.709c0.02-0.479,0.318-0.636,0.666-0.69c0.475-0.073,0.955-0.096,1.361-0.135
			c0.373,0.097,0.574,0.315,0.73,0.558c0.502,0.78,1.158,1.418,1.82,2.055c0.559,0.535,1.064,1.122,1.605,1.674
			c0.092,0.092,0.242,0.125,0.357,0.182c0.783-0.72,1.791-1.876,2.199-2.508c0.154-0.245,0.301-0.497,0.479-0.726
			c0.381-0.495,0.777-0.979,1.18-1.484c0.598-0.057,1.16,0.137,1.67,0.069c0.188,0.135,0.314,0.209,0.414,0.307
			c0.064,0.062,0.092,0.166,0.135,0.251c-0.016,0.093,0,0.207-0.049,0.279c-0.324,0.48-0.645,0.964-1,1.418
			c-0.715,0.914-1.457,1.804-2.18,2.712C237.555,58.342,237.078,59.072,236.594,59.907"/>
		<path fill="#FBB040" d="M229.578,94.933c-0.043-0.157-0.064-0.237-0.1-0.365c0.113-0.225,0.229-0.49,0.371-0.744
			c0.246-0.433,0.502-0.863,0.762-1.291c0.107-0.178,0.213-0.363,0.352-0.514c1.27-1.381,2.385-2.89,3.555-4.353
			c0.521-0.648,1.123-1.228,1.684-1.848c0.07-0.081,0.09-0.211,0.15-0.357c-0.521-0.124-1.01-0.164-1.506-0.169
			c-1.168-0.013-2.332-0.035-3.5-0.057c-0.291-0.006-0.586,0.014-0.875-0.192c-0.312-0.446-0.271-0.993-0.312-1.442
			c0.143-0.464,0.439-0.599,0.795-0.615c0.746-0.033,1.498-0.063,2.248-0.056c1,0.005,2.002,0.026,2.998,0.081
			c0.791,0.043,1.572,0.147,2.518,0.238c0.088,0.034,0.324,0.112,0.549,0.219c0.188,0.088,0.354,0.211,0.492,0.297
			c0.027,0.136,0.066,0.22,0.053,0.293c-0.059,0.328-0.137,0.651-0.205,0.973c-0.27,0.538-0.717,0.926-1.09,1.37
			c-0.781,0.921-1.588,1.819-2.346,2.759c-0.443,0.547-0.818,1.152-1.219,1.737c-0.398,0.583-0.791,1.169-1.199,1.773
			c0.041,0.098,0.09,0.207,0.148,0.35c0.277,0.056,0.561,0.141,0.848,0.163c0.623,0.043,1.234,0.13,1.852,0.256
			c1.021,0.21,2.047,0.368,3.072,0.55c0.254,0.042,0.486,0.12,0.709,0.433c0.096,0.418,0.328,0.926-0.014,1.45
			c-0.455,0.383-0.947,0.496-1.521,0.327c-0.354-0.107-0.731-0.207-1.1-0.207c-0.881,0.001-1.74-0.175-2.613-0.226
			c-0.123-0.007-0.252-0.005-0.373-0.028c-1.029-0.188-2.066-0.233-3.111-0.208C231.033,95.546,230.408,95.335,229.578,94.933"/>
		<path fill="#FBB040" d="M292.143,153.936c-0.893-0.019-1.492,0.606-1.541,1.612c-0.033,0.604,0.627,1.25,1.289,1.269
			c0.635,0.017,1.393-0.933,1.441-1.81C293.365,154.419,292.844,153.949,292.143,153.936 M290.625,160.143
			c-0.059,0.418-0.172,0.905-0.186,1.396c-0.014,0.962,0.807,1.553,1.719,1.283c1.137-0.342,1.684-1.619,1.17-2.721
			C292.449,159.846,291.578,159.514,290.625,160.143 M295.699,155.182c0.129,1.023-0.064,1.846-0.824,2.463
			c-0.24,0.192-0.215,0.375-0.047,0.606c0.312,0.429,0.641,0.856,0.895,1.321c0.387,0.707,0.529,1.464,0.252,2.261
			c-0.078,0.224-0.127,0.457-0.176,0.688c-0.199,0.992-0.938,1.558-1.693,2.095c-0.162,0.114-0.4,0.141-0.609,0.157
			c-0.729,0.062-1.457,0.11-2.188,0.143c-1.34,0.057-2.217-0.727-2.934-1.714c-0.316-0.433-0.533-0.947-0.734-1.449
			c-0.393-0.985,0.004-2.035,0.713-2.659c0.125-0.107,0.266-0.199,0.375-0.318c0.32-0.346,0.275-0.467-0.111-0.752
			c-0.236-0.17-0.469-0.399-0.6-0.655c-0.82-1.591-0.42-3.687,1.191-4.49c0.48-0.242,0.926-0.565,1.416-0.792
			c1.039-0.475,2.09-0.203,3.119,0.051c0.631,0.156,0.959,0.74,1.344,1.196C295.549,153.876,295.912,154.499,295.699,155.182"/>
		<path fill="#FBB040" d="M290.275,95.37c-0.02,0.185,0.16,0.675,0.16,0.815c0,0.696,0.553,0.565,1.275,0.656
			c0.604,0.076,1.129-0.57,1.271-1.13c0.191-0.745,0.021-1.104-0.678-1.402c-0.205-0.089-0.412-0.179-0.623-0.253
			c-0.559-0.197-0.811-0.047-1.227,0.499C290.453,94.72,290.252,95.247,290.275,95.37 M292.225,91.548
			c1.455,0.485,2.656,1.155,3.205,2.515c0.338,0.836,0.348,1.77,0.068,2.679c-0.506,1.636-1.504,2.352-3.168,2.688
			c-0.783,0.159-1.641,0.224-2.365-0.06c-0.875-0.341-1.537-0.993-2.154-1.668c-0.52-0.57-0.584-1.308-0.559-2.059
			c0.047-1.535,0.719-2.869,1.377-4.193c0.447-0.899,1.021-1.737,1.559-2.589c0.322-0.513,0.639-1.037,1.027-1.494
			c0.301-0.354,0.697-0.641,1.092-0.897c0.146-0.093,0.412-0.043,0.607,0.008c0.271,0.067,0.504-0.031,0.771,0.056
			c0.127,0.039,0.334,0.077,0.414,0.016c0.361-0.274,0.566,0.285,0.855,0.425C294.117,88.799,292.926,89.747,292.225,91.548"/>
		<path fill="#FBB040" d="M291.014,54.688v2.529c0.289-0.043,0.471-0.068,0.654-0.1c0.844-0.15,1.551,0.144,2.26,0.59
			c0.738,0.463,1.229,1.136,1.635,1.838c0.516,0.888,0.498,1.897,0.213,2.886c-0.354,1.239-1.324,1.91-2.35,2.528
			c-0.26,0.158-0.537,0.329-0.826,0.393c-1.455,0.32-2.764,0.038-3.846-1.041c-0.246-0.248-0.477-0.517-0.717-0.771
			c-0.426-0.447-0.355-0.956-0.162-1.459c0.15-0.397,0.77-0.754,1.238-0.67c0.354,0.062,0.771-0.118,1.061,0.235
			c0.145,0.176,0.32,0.338,0.428,0.536c0.342,0.65,1.201,0.834,1.717,0.296c0.467-0.484,0.779-1.066,0.654-1.788
			c-0.16-0.909-1.09-1.458-1.98-1.192c-0.537,0.159-0.988,0.386-1.104,0.963c-0.424,0.138-0.795,0.262-1.205,0.046
			c-0.623-0.325-0.916-0.974-0.764-1.656c0.143-0.637,0.277-1.283,0.328-1.932c0.09-1.135,0.107-2.273,0.154-3.411
			c0.033-0.801,0.238-0.977,1.027-1.015c1.58-0.073,3.162-0.168,4.74-0.271c0.842-0.055,1.152,0.191,1.25,1.033
			c0.029,0.28,0.1,0.557,0.129,0.838c0.049,0.527-0.252,0.9-0.779,0.851c-0.957-0.089-1.926,0.033-2.875-0.199
			C291.629,54.681,291.34,54.707,291.014,54.688"/>
		<path fill="#FBB040" d="M293.158,187.807c-0.006-0.006-0.668-0.459-0.74-0.486c-0.916-0.36-2.48,0.031-2.475,1.375
			c0.003,0.771,0.592,1.267,1.26,1.623c0.303,0.162,1.08,0.046,1.391-0.432c0.162-0.242,0.373-0.841,0.465-1.126
			C293.154,188.46,293.043,188.246,293.158,187.807 M291.236,192.902c-0.252-0.137-0.904-0.517-1.102-0.574
			c-0.627-0.193-1.088-0.648-1.631-0.963c-0.719-0.415-0.961-1.047-1.186-1.747c-0.182-0.568-0.111-1.136,0.033-1.679
			c0.443-1.638,1.521-2.687,3.129-3.188c0.268-0.083,0.561-0.115,0.843-0.116c0.481-0.002,0.97,0.034,1.452,0.063
			c0.189,0.01,0.408-0.017,0.557,0.071c0.938,0.566,1.982,1.029,2.416,2.166c0.064,0.174,0.113,0.361,0.123,0.547
			c0.07,1.968-0.365,3.787-1.496,5.435c-0.509,0.739-0.881,1.567-1.369,2.324c-0.436,0.672-0.902,1.332-1.426,1.936
			c-0.355,0.409-0.811,0.742-1.447,0.521c-0.238-0.084-0.516-0.06-0.773-0.095c-0.861-0.117-1.131-0.688-0.686-1.438
			c0.412-0.686,1.137-1.275,1.635-1.91C290.648,193.83,290.98,193.422,291.236,192.902"/>
		<path fill="#FBB040" d="M290.225,118.348c1.24,0,2.479,0.004,3.719-0.002c0.506-0.003,1.328-0.175,1.635,0.251
			c0.191,0.271-0.156,0.813-0.219,1.194c-0.285,1.796-1.129,3.37-1.84,4.998c-0.764,1.753-1.617,3.471-2.109,5.33
			c-0.107,0.408-0.311,0.758-0.654,0.977c-0.199,0.125-0.531,0.25-0.693,0.165c-0.361-0.192-0.719-0.177-1.092-0.183
			c-0.844-0.014-1.092-0.43-0.752-1.189c0.453-1.01,0.865-2.039,1.312-3.051c0.483-1.093,0.987-2.178,1.483-3.265
			c0.254-0.559,0.52-1.113,0.77-1.673c0.059-0.129,0.09-0.272,0.109-0.411c0.061-0.381-0.086-0.602-0.459-0.653
			c-0.229-0.033-0.473-0.024-0.709-0.006c-0.682,0.053-1.355,0.126-2.037,0.182c-0.604,0.049-0.984-0.378-0.873-0.97
			c0.062-0.322,0.125-0.647,0.229-0.958c0.047-0.144,0.166-0.296,0.297-0.379C288.916,118.332,289.426,118.227,290.225,118.348"/>
		<path fill="#FBB040" d="M235.904,121.658c-0.578,0.234-1.029,0.42-1.482,0.597c-0.518,0.2-0.84,0.033-1.027-0.477
			c-0.209-0.563-0.193-1.147,0.031-1.66c0.139-0.316,0.498-0.591,0.82-0.758c0.914-0.471,1.857-0.875,2.791-1.308
			c0.109-0.051,0.219-0.113,0.324-0.173c0.955-0.523,1.523-0.06,1.682,0.875c0.209,1.263,0.152,2.541,0.047,3.823
			c-0.098,1.198-0.062,2.408-0.062,3.612c0,1.281,0.021,2.562,0.043,3.843c0.006,0.411-0.066,0.796-0.396,1.065
			c-0.113,0.09-0.312,0.142-0.453,0.113c-0.402-0.079-0.793-0.218-1.191-0.314c-0.738-0.176-0.984-0.438-1-1.225
			c-0.006-0.501,0.092-1.003,0.109-1.505c0.031-0.8,0.062-1.602,0.047-2.403c-0.012-1.053-0.055-2.106-0.104-3.159
			C236.061,122.319,235.973,122.035,235.904,121.658"/>
		<path fill="#FBB040" d="M342.654,129.354c0.025-0.083,0.449-1.063,0.516-1.264c0.156-0.472,0.316-0.939,0.477-1.41
			c0.166-0.506,0.676-0.96,1.121-0.976c0.295-0.01,0.502,0.111,0.73,0.34c0.543,0.556,0.633,1.077,0.189,1.741
			c-0.244,0.366-0.732,1.59-0.91,2.002c-0.203,0.47-0.604,0.732-1.068,0.705C343.246,130.463,342.664,129.904,342.654,129.354"/>
		<path fill="#FBB040" d="M342.35,95.401c0.004,0.029-0.021-0.107-0.033-0.244c-0.1-0.957,0.803-1.669,1.717-1.347
			c0.279,0.1,0.65,0.189,0.791,0.405c0.242,0.386,0.4,0.855,0.48,1.309c0.08,0.442-0.225,0.776-0.623,0.922
			c-0.393,0.145-0.822,0.251-1.238,0.27C342.684,96.75,342.334,96.348,342.35,95.401"/>
		<path fill="#FBB040" d="M343.014,51.378c0.646,0.027,1.203,0.044,1.76,0.074c0.586,0.033,1.018,0.377,1.422,0.749
			c0.471,0.433,0.875,0.9,1.115,1.527c0.48,1.258,0.133,2.28-0.689,3.261c-0.396,0.467-0.846,0.795-1.354,1.113
			c-0.426,0.265-0.938,0.539-0.91,1.238c0.018,0.401-0.688,0.748-1.186,0.705c-0.279-0.024-0.566-0.049-0.838-0.006
			c-0.486,0.077-0.828-0.086-0.877-0.546c-0.084-0.823-0.061-1.634,0.654-2.231c0.385-0.321,0.793-0.616,1.137-0.975
			c0.342-0.354,0.922-0.423,1.229-0.811c0.158-0.198,0.143-1.015,0-1.113c-0.303-0.212-0.543-0.445-0.893-0.513
			c-0.568-0.112-1.217,0.335-1.304,0.922c-0.114,0.792-0.466,0.981-1.222,0.697c-0.217-0.081-0.465-0.097-0.697-0.104
			c-0.607-0.022-0.852-0.396-0.652-0.99c0.162-0.488,0.229-0.986,0.514-1.459C340.898,51.806,341.916,51.467,343.014,51.378"/>
		<path fill="#FBB040" d="M341.867,63.376c0-1.476,0.771-1.565,1.377-1.632c0.742-0.08,1.318,0.48,1.223,1.204
			c-0.078,0.587,0.072,1.237-0.41,1.548C343.289,64.992,341.885,64.281,341.867,63.376"/>
		<path fill="#FBB040" d="M240.438,161.741c0.867,0.261,1.629,0.188,2.391,0.142c0.533-0.031,0.83,0.16,0.816,0.667
			c-0.008,0.382-0.074,0.802-0.252,1.128c-0.285,0.526-0.828,0.65-1.391,0.521c-0.561-0.132-1.104-0.148-1.664-0.019
			c-0.455,0.106-0.908,0.021-1.373-0.021c-0.77-0.063-1.553,0.067-2.332,0.112c-0.359,0.021-0.742,0.117-1.074,0.033
			c-0.631-0.158-0.83-0.996-0.322-1.388c0.393-0.308,0.607-0.7,0.855-1.091c0.527-0.822,1.062-1.645,1.572-2.479
			c0.512-0.838,0.988-1.692,1.494-2.535c0.189-0.314,0.377-0.643,0.619-0.916c0.354-0.396,0.441-0.866,0.449-1.354
			c0.006-0.381-0.092-0.748-0.562-0.833c-0.023-0.005-0.045-0.021-0.064-0.035c-0.379-0.223-0.77-0.562-1.215-0.23
			c-0.459,0.344-0.611,0.892-0.609,1.439c0.002,0.666-0.23,0.934-0.854,0.74c-0.406-0.128-0.783-0.249-1.213-0.122
			c-0.127,0.036-0.289-0.044-0.43-0.08c-0.533-0.136-0.699-0.414-0.475-0.916c0.23-0.513,0.572-0.979,0.781-1.497
			c0.258-0.632,0.762-1.019,1.256-1.402c0.258-0.199,0.607-0.287,0.93-0.393c1.053-0.34,2.096-0.754,3.234-0.449
			c0.703,0.187,1.32,0.521,1.805,1.069c0.229,0.257,0.465,0.513,0.646,0.8c0.424,0.676,0.455,1.418,0.291,2.182
			c-0.127,0.593-0.227,1.19-0.381,1.774c-0.066,0.25-0.234,0.478-0.373,0.701c-0.4,0.646-0.828,1.276-1.207,1.938
			C241.332,160.027,240.914,160.85,240.438,161.741"/>
		<path fill="#FBB040" d="M238.883,186.076c-0.922-0.152-1.666-0.284-2.412-0.396c-0.719-0.109-0.854-0.25-0.855-0.959
			c0-0.022-0.004-0.05,0-0.074c0.016-0.279-0.066-0.644,0.076-0.823c0.195-0.248,0.549-0.442,0.863-0.513
			c0.473-0.101,0.982-0.16,1.453-0.082c1.223,0.199,2.434,0.326,3.68,0.205c0.549-0.054,1.127,0.084,1.682,0.189
			c0.506,0.095,0.639,0.576,0.33,1.007c-0.525,0.736-1.1,1.417-1.818,1.985c-0.354,0.275-0.576,0.718-0.877,1.109
			c0.145,0.156,0.236,0.266,0.334,0.364c0.662,0.681,1.449,1.276,1.949,2.058c0.475,0.736,0.432,0.887,0.709,1.737
			c0.053,0.161,0.152,1.155,0.113,1.349c-0.07,0.354-0.123,0.718-0.207,1.068c-0.133,0.569-0.473,1.02-0.889,1.408
			c-0.387,0.365-0.979,0.598-1.344,0.979c-0.627,0.285-1.99,0.625-3.049,0.33c-1.146-0.315-1.562-0.314-2.395-1.16
			c-0.439-0.446-0.854-0.939-0.885-1.641c-0.01-0.238-0.133-0.47-0.172-0.709c-0.121-0.719,0.352-1.307,1.067-1.351
			c0.75-0.046,1.392,0.214,1.759,0.862c0.262,0.467,0.719,0.771,1.113,0.873c0.666,0.176,1.764-0.533,1.738-1.242
			c-0.006-0.151-0.203-1.01-0.312-1.109c-0.445-0.4-0.85-0.607-1.49-0.432c-0.188,0.052-0.668,0.215-0.861,0.217
			c-0.244,0.002-0.451,0.125-0.576-0.158c-0.012-0.021-0.998-0.798-0.916-1.354c0.092-0.601,0.43-1.186,0.75-1.719
			C237.846,187.434,238.344,186.825,238.883,186.076"/>
		<path fill="#FBB040" d="M236.453,227.05c0.711,0.043,1.375,0.083,2.066,0.126c0.107-1.762,0.207-3.406,0.311-5.054
			c-0.094-0.019-0.188-0.034-0.283-0.054C237.861,223.705,237.174,225.341,236.453,227.05 M241.328,229.805
			c-0.023,2.09-0.113,2.307-0.957,2.364c-1.188,0.081-1.434-0.245-1.764-2.394c-1.188-0.078-2.393-0.17-3.6-0.229
			c-1.191-0.062-1.439-0.255-1.348-1.455c0.053-0.702,0.238-1.423,0.502-2.08c0.727-1.823,1.551-3.606,2.284-5.425
			c0.776-1.928,1.478-2.43,3.567-2.414c0.84,0.005,1.359,0.393,1.367,1.229c0.021,2.078-0.049,4.158-0.068,6.235
			c-0.006,0.666-0.354,1.49,0.805,1.653c0.178,0.023,0.424,0.6,0.387,0.885c-0.062,0.477-0.293,0.944-0.529,1.374
			C241.895,229.693,241.582,229.711,241.328,229.805"/>
		<path fill="#FBB040" d="M294.521,223.664c-0.025-0.003-0.055-0.006-0.082-0.01c0-0.129,0.012-0.258-0.004-0.385
			c-0.09-0.969-0.127-1.944-0.295-2.897c-0.139-0.798-0.836-0.853-1.461-0.731c-0.34,0.064-0.873,0.332-0.91,0.572
			c-0.318,2.045-0.766,4.09-0.504,6.184c0.082,0.651,0.887,1.334,1.576,1.349c0.686,0.014,1.242-0.433,1.354-1.188
			C294.342,225.598,294.418,224.628,294.521,223.664 M288.658,224.229c0.111-1.621,0.184-2.944,0.314-4.264
			c0.033-0.335,0.189-0.729,0.424-0.959c0.574-0.574,1.15-1.234,1.863-1.566c1.516-0.705,4.652-0.164,5.156,2.238
			c0.27,1.287,0.297,2.633,0.355,3.954c0.043,0.918-0.105,1.847-0.051,2.765c0.094,1.553-0.695,2.686-2.365,3.358
			c-1.656,0.667-3.17,0.572-4.5-0.647c-0.354-0.322-0.666-0.82-0.75-1.282C288.877,226.543,288.777,225.236,288.658,224.229"/>
	</g>
</g>
</svg>
