<?xml version="1.0" encoding="utf-8"?>
<!-- Generator: Adobe Illustrator 16.0.0, SVG Export Plug-In . SVG Version: 6.00 Build 0)  -->
<!DOCTYPE svg PUBLIC "-//W3C//DTD SVG 1.1//EN" "http://www.w3.org/Graphics/SVG/1.1/DTD/svg11.dtd">
<svg version="1.1" id="Layer_1" xmlns="http://www.w3.org/2000/svg" xmlns:xlink="http://www.w3.org/1999/xlink" x="0px" y="0px"
	 width="385.512px" height="230px" viewBox="0 0 385.512 230" enable-background="new 0 0 385.512 230" xml:space="preserve">
<rect x="0" y="-14.173" fill="#FFFFFF" width="385.512" height="257.954"/>
<g>
	<g>
		<g enable-background="new    ">
			<path d="M53.5,8.548V19.87h-2.754V8.548H53.5z"/>
			<path d="M58.41,13.426v6.445h-2.754V8.549h2.754l4.131,6.361V8.549h2.752v11.322h-2.752L58.41,13.426z"/>
			<path d="M71.731,10.772v9.099h-2.752v-9.099h-2.614V8.549h7.971v2.223H71.731z"/>
			<path d="M77.654,10.772v2.314h3.732v2.222h-3.732v2.339h3.732v2.223H74.9V8.549h6.486v2.223H77.654z"/>
			<path d="M85.957,15.491v4.38h-2.754V8.549h3.675c1.619,0,2.79,0.334,3.508,1.004c0.697,0.652,1.045,1.548,1.045,2.688
				c0,1.742-0.735,2.894-2.205,3.458l2.505,4.172h-3.294L85.957,15.491z M85.957,13.938h0.879c0.508,0,0.913-0.107,1.211-0.323
				c0.392-0.282,0.589-0.691,0.589-1.227c0-0.448-0.137-0.815-0.407-1.104c-0.287-0.314-0.69-0.472-1.211-0.472h-1.061
				L85.957,13.938L85.957,13.938z"/>
		</g>
		<g enable-background="new    ">
			<path d="M96.075,13.426v6.445h-2.752V8.549h2.752l4.13,6.361V8.549h2.754v11.322h-2.754L96.075,13.426z"/>
		</g>
		<g enable-background="new    ">
			<path d="M111.496,18.229h-4.015l-0.498,1.643h-2.936l3.742-11.322h3.491l3.724,11.322h-3.02L111.496,18.229z M110.806,16.004
				l-1.327-4.214l-1.319,4.214H110.806z"/>
		</g>
		<g enable-background="new    ">
			<path d="M119.778,10.772v9.099h-2.754v-9.099h-2.613V8.549h7.972v2.223H119.778z"/>
			<path d="M126.213,8.548V19.87h-2.753V8.548H126.213z"/>
			<path d="M134.044,8.317c0.83,0,1.614,0.161,2.356,0.485c0.741,0.322,1.391,0.789,1.95,1.396c1.005,1.09,1.51,2.398,1.51,3.924
				c0,0.873-0.178,1.706-0.531,2.496c-0.354,0.791-0.852,1.471-1.494,2.041c-1.088,0.957-2.39,1.436-3.906,1.436
				c-0.879,0-1.719-0.175-2.519-0.522c-0.797-0.349-1.485-0.841-2.06-1.476c-0.984-1.083-1.478-2.377-1.478-3.883
				c0-0.807,0.165-1.583,0.495-2.326c0.328-0.743,0.796-1.406,1.405-1.987C130.89,8.843,132.313,8.317,134.044,8.317z
				 M133.828,10.872c-0.929,0-1.712,0.36-2.347,1.085c-0.537,0.615-0.805,1.37-0.805,2.265c0,0.972,0.324,1.773,0.971,2.404
				c0.629,0.621,1.375,0.929,2.232,0.929c0.934,0,1.719-0.354,2.355-1.061c0.558-0.612,0.837-1.382,0.837-2.305
				c0-1.007-0.349-1.833-1.045-2.48C135.423,11.15,134.691,10.872,133.828,10.872z"/>
		</g>
		<g enable-background="new    ">
			<path d="M144.27,13.426v6.445h-2.754V8.549h2.754l4.129,6.361V8.549h2.754v11.322h-2.754L144.27,13.426z"/>
		</g>
		<g enable-background="new    ">
			<path d="M159.69,18.229h-4.015l-0.498,1.643h-2.936l3.741-11.322h3.492l3.724,11.322h-3.02L159.69,18.229z M159.001,16.004
				l-1.327-4.214l-1.318,4.214H159.001z"/>
			<path d="M167.031,17.646h3.682v2.223h-6.437V8.548h2.754L167.031,17.646L167.031,17.646z"/>
			<path d="M179.977,13.408v6.461h-2.753V8.548h3.219l2.995,6.096l2.986-6.096h3.226V19.87h-2.753v-6.461l-3.459,6.919
				L179.977,13.408z"/>
			<path d="M197.471,8.317c0.83,0,1.615,0.161,2.355,0.485c0.742,0.322,1.391,0.789,1.951,1.396c1.004,1.09,1.51,2.398,1.51,3.924
				c0,0.873-0.18,1.706-0.531,2.496c-0.354,0.791-0.852,1.471-1.494,2.041c-1.09,0.957-2.393,1.436-3.906,1.436
				c-0.881,0-1.719-0.175-2.518-0.522c-0.799-0.349-1.486-0.841-2.06-1.476c-0.985-1.083-1.478-2.377-1.478-3.883
				c0-0.807,0.164-1.583,0.494-2.326c0.328-0.743,0.797-1.406,1.405-1.987C194.319,8.843,195.74,8.317,197.471,8.317z
				 M197.256,10.872c-0.928,0-1.711,0.36-2.348,1.085c-0.537,0.615-0.805,1.37-0.805,2.265c0,0.972,0.324,1.773,0.971,2.404
				c0.629,0.621,1.375,0.929,2.23,0.929c0.936,0,1.719-0.354,2.355-1.061c0.561-0.612,0.84-1.382,0.84-2.305
				c0-1.007-0.35-1.833-1.047-2.48C198.852,11.15,198.119,10.872,197.256,10.872z"/>
			<path d="M207.699,15.491v4.38h-2.754V8.549h3.676c1.619,0,2.789,0.334,3.508,1.004c0.697,0.652,1.045,1.548,1.045,2.688
				c0,1.742-0.734,2.894-2.205,3.458l2.506,4.172h-3.295L207.699,15.491z M207.699,13.938h0.879c0.508,0,0.912-0.107,1.211-0.323
				c0.393-0.282,0.588-0.691,0.588-1.227c0-0.448-0.137-0.815-0.406-1.104c-0.289-0.314-0.691-0.472-1.211-0.472h-1.061V13.938z"/>
			<path d="M214.442,16.437h2.695c-0.004,0.078-0.008,0.144-0.008,0.198c0,0.228,0.08,0.426,0.246,0.597
				c0.291,0.288,0.654,0.432,1.096,0.432c0.365,0,0.664-0.105,0.896-0.315c0.184-0.167,0.275-0.362,0.275-0.589
				c0-0.288-0.152-0.527-0.457-0.722c-0.193-0.133-0.586-0.3-1.178-0.506c-1.084-0.393-1.906-0.833-2.471-1.319
				c-0.66-0.564-0.99-1.346-0.99-2.347c0-1.107,0.377-1.979,1.129-2.613c0.734-0.62,1.666-0.929,2.795-0.929
				c1.096,0,2.002,0.297,2.721,0.888c0.727,0.598,1.168,1.49,1.328,2.679h-2.803c-0.084-0.758-0.506-1.137-1.262-1.137
				c-0.404,0-0.703,0.106-0.896,0.316c-0.154,0.166-0.232,0.358-0.232,0.579c0,0.338,0.174,0.611,0.521,0.822
				c0.172,0.104,0.604,0.292,1.295,0.557c1.16,0.431,1.971,0.855,2.43,1.277c0.635,0.581,0.953,1.338,0.953,2.273
				c0,1.238-0.482,2.172-1.443,2.803c-0.73,0.476-1.604,0.714-2.621,0.714c-0.801,0-1.51-0.151-2.127-0.453
				s-1.092-0.734-1.424-1.298C214.6,17.825,214.442,17.188,214.442,16.437z"/>
			<path d="M226.412,10.772v2.314h3.732v2.222h-3.732v2.339h3.732v2.223h-6.486V8.549h6.486v2.223H226.412z"/>
		</g>
		<g enable-background="new    ">
			<path d="M244.85,16.569l1.627,1.916c-0.598,0.505-1.15,0.867-1.66,1.087c-0.785,0.349-1.643,0.522-2.57,0.522
				c-1.738,0-3.121-0.572-4.156-1.717c-0.492-0.535-0.873-1.167-1.137-1.89c-0.266-0.724-0.398-1.477-0.398-2.257
				c0-0.913,0.176-1.776,0.529-2.591s0.848-1.498,1.477-2.045c0.986-0.844,2.238-1.269,3.758-1.269c0.979,0,1.869,0.188,2.672,0.565
				c0.498,0.232,1.037,0.619,1.615,1.161l-1.758,1.833c-0.779-0.675-1.59-1.01-2.43-1.01c-0.953,0-1.711,0.322-2.281,0.969
				c-0.531,0.609-0.795,1.38-0.795,2.314c0,0.531,0.096,1.026,0.291,1.488s0.463,0.844,0.812,1.148
				c0.586,0.505,1.301,0.755,2.139,0.755c0.465,0,0.902-0.084,1.311-0.258C244.229,17.146,244.547,16.906,244.85,16.569z"/>
		</g>
		<g enable-background="new    ">
			<path d="M253.205,8.317c0.83,0,1.613,0.161,2.355,0.485c0.74,0.322,1.391,0.789,1.947,1.396c1.01,1.09,1.512,2.398,1.512,3.924
				c0,0.873-0.178,1.706-0.531,2.496s-0.852,1.471-1.492,2.041c-1.09,0.957-2.393,1.436-3.908,1.436
				c-0.879,0-1.717-0.175-2.518-0.522c-0.799-0.349-1.486-0.841-2.061-1.476c-0.984-1.083-1.477-2.377-1.477-3.883
				c0-0.807,0.164-1.583,0.494-2.326c0.328-0.743,0.797-1.406,1.406-1.987C250.051,8.843,251.473,8.317,253.205,8.317z
				 M252.989,10.872c-0.928,0-1.711,0.36-2.348,1.085c-0.535,0.615-0.803,1.37-0.803,2.265c0,0.972,0.324,1.773,0.969,2.404
				c0.631,0.621,1.377,0.929,2.232,0.929c0.936,0,1.719-0.354,2.357-1.061c0.557-0.612,0.838-1.382,0.838-2.305
				c0-1.007-0.35-1.833-1.047-2.48C254.584,11.15,253.852,10.872,252.989,10.872z"/>
			<path d="M260.678,19.87V8.548h3.309c1.367,0,2.434,0.191,3.201,0.573c0.953,0.481,1.682,1.199,2.189,2.156
				c0.438,0.83,0.658,1.77,0.658,2.82c0,1.273-0.309,2.405-0.922,3.401c-0.979,1.581-2.584,2.372-4.812,2.372H260.678z
				 M263.432,10.754v6.86h0.424c0.902,0,1.645-0.251,2.23-0.755c0.365-0.314,0.648-0.706,0.854-1.173
				c0.205-0.466,0.307-0.965,0.307-1.498c0-0.708-0.178-1.367-0.529-1.975c-0.316-0.536-0.773-0.929-1.371-1.176
				c-0.453-0.189-0.912-0.284-1.383-0.284H263.432z"/>
			<path d="M273.924,10.772v2.314h3.732v2.222h-3.732v2.339h3.732v2.223h-6.486V8.549h6.486v2.223H273.924z"/>
		</g>
		<g enable-background="new    ">
			<path d="M292.364,16.569l1.623,1.916c-0.596,0.505-1.148,0.867-1.658,1.087c-0.785,0.349-1.643,0.522-2.57,0.522
				c-1.736,0-3.123-0.572-4.156-1.717c-0.494-0.535-0.873-1.167-1.137-1.89c-0.266-0.724-0.398-1.477-0.398-2.257
				c0-0.913,0.178-1.776,0.529-2.591c0.354-0.815,0.848-1.498,1.477-2.045c0.986-0.844,2.238-1.269,3.758-1.269
				c0.98,0,1.869,0.188,2.672,0.565c0.498,0.232,1.035,0.619,1.617,1.161l-1.76,1.833c-0.779-0.675-1.59-1.01-2.43-1.01
				c-0.951,0-1.711,0.322-2.281,0.969c-0.531,0.609-0.795,1.38-0.795,2.314c0,0.531,0.096,1.026,0.289,1.488
				s0.465,0.844,0.814,1.148c0.586,0.505,1.299,0.755,2.139,0.755c0.465,0,0.902-0.084,1.312-0.258
				C291.742,17.146,292.059,16.906,292.364,16.569z"/>
		</g>
		<g enable-background="new    ">
			<path d="M298.155,15.399v4.472h-2.754V8.549h2.754v4.627h3.725V8.549h2.754v11.322h-2.754v-4.472H298.155z"/>
			<path d="M313.151,18.229h-4.014l-0.498,1.643h-2.936l3.74-11.322h3.492l3.725,11.322h-3.021L313.151,18.229z M312.463,16.004
				l-1.328-4.214l-1.32,4.214H312.463z"/>
		</g>
		<g enable-background="new    ">
			<path d="M320.49,15.491v4.38h-2.752V8.549h3.674c1.621,0,2.789,0.334,3.51,1.004c0.695,0.652,1.045,1.548,1.045,2.688
				c0,1.742-0.736,2.894-2.205,3.458l2.504,4.172h-3.293L320.49,15.491z M320.49,13.938h0.879c0.51,0,0.912-0.107,1.213-0.323
				c0.393-0.282,0.588-0.691,0.588-1.227c0-0.448-0.137-0.815-0.406-1.104c-0.289-0.314-0.691-0.472-1.211-0.472h-1.062V13.938z"/>
		</g>
		<g enable-background="new    ">
			<path d="M332.162,10.772v9.099h-2.754v-9.099h-2.613V8.549h7.971v2.223H332.162z"/>
		</g>
	</g>
	<g>
		<path d="M72.609,87.928c-0.021-0.257-0.041-0.501-0.059-0.701c0.312-0.498,0.679-0.817,1.194-0.877
			c0.349,0.02,0.564,0.193,0.761,0.485c0.141,0.517,0.104,1.023-0.388,1.417C73.597,88.429,73.124,88.372,72.609,87.928"/>
		<path d="M76.463,87.928c-0.022-0.257-0.042-0.501-0.062-0.701c0.313-0.498,0.683-0.817,1.194-0.877
			c0.349,0.02,0.568,0.193,0.761,0.485c0.145,0.517,0.104,1.023-0.388,1.417C77.451,88.429,76.977,88.372,76.463,87.928"/>
		<path d="M80.396,87.928c-0.021-0.257-0.041-0.501-0.059-0.701c0.312-0.498,0.679-0.817,1.192-0.877
			c0.351,0.02,0.566,0.193,0.763,0.485c0.141,0.517,0.104,1.023-0.392,1.417C81.383,88.429,80.91,88.372,80.396,87.928"/>
		<path d="M84.351,87.928c-0.021-0.257-0.042-0.501-0.059-0.701c0.312-0.498,0.679-0.817,1.19-0.877
			c0.353,0.02,0.568,0.193,0.765,0.485c0.141,0.517,0.104,1.023-0.392,1.417C85.339,88.429,84.865,88.372,84.351,87.928"/>
		<path d="M190.314,223.228c-0.442-0.277-0.576-0.676-0.485-1.271c0.168-0.237,0.405-0.414,0.699-0.476
			c0.06-0.014,0.113-0.021,0.174-0.023c1.375-0.061,2.738-0.326,4.119-0.277c0.286,0.012,0.572-0.041,0.916-0.066
			c0.08,0.039,0.216,0.104,0.311,0.15c0.134,0.186,0.146,0.356,0.146,0.545c0.01,0.748,0.01,0.748-0.195,1.137
			c-0.073,0.025-0.155,0.076-0.239,0.078C193.924,223.081,192.094,223.245,190.314,223.228"/>
		<path d="M175.194,223.168c-0.442-0.278-0.572-0.676-0.485-1.269c0.168-0.238,0.405-0.412,0.703-0.473
			c0.056-0.015,0.109-0.022,0.17-0.024c1.375-0.062,2.738-0.329,4.123-0.28c0.282,0.012,0.568-0.041,0.916-0.068
			c0.076,0.039,0.213,0.105,0.307,0.151c0.134,0.185,0.146,0.36,0.149,0.545c0.005,0.748,0.005,0.748-0.198,1.136
			c-0.074,0.026-0.156,0.078-0.24,0.08C178.805,223.021,176.974,223.185,175.194,223.168"/>
		<path d="M182.853,188.945c-0.442-0.278-0.576-0.677-0.489-1.269c0.172-0.24,0.409-0.414,0.703-0.477
			c0.06-0.014,0.113-0.021,0.17-0.021c1.375-0.062,2.742-0.201,4.123-0.151c0.286,0.011,0.572,0.161,0.916,0.136
			c0.08,0.039,0.212,0.104,0.311,0.15c0.134,0.185,0.146,0.356,0.146,0.545c0.005,0.748,0.005,0.748-0.195,1.137
			c-0.072,0.025-0.154,0.077-0.238,0.079C186.463,189.13,184.633,188.962,182.853,188.945"/>
		<path d="M190.826,188.785c-0.445-0.278-0.575-0.677-0.488-1.269c0.168-0.238,0.409-0.414,0.703-0.477
			c0.056-0.011,0.108-0.021,0.17-0.021c1.375-0.062,2.543-0.041,3.923,0.009c0.286,0.011,0.572-0.041,0.917-0.068
			c0.079,0.039,0.211,0.104,0.307,0.151c0.137,0.184,0.146,0.359,0.148,0.545c0.006,0.748,0.006,0.748-0.199,1.136
			c-0.072,0.026-0.155,0.077-0.239,0.079C194.236,188.927,192.606,188.802,190.826,188.785"/>
		<path d="M190.405,154.241c-0.442-0.277-0.572-0.676-0.485-1.268c0.168-0.24,0.409-0.414,0.703-0.478
			c0.057-0.011,0.109-0.021,0.17-0.022c1.375-0.062,2.737-0.215,4.122-0.166c0.282,0.012,0.568-0.041,0.916-0.067
			c0.08,0.04,0.212,0.104,0.308,0.151c0.133,0.185,0.148,0.356,0.148,0.545c0.006,0.748,0.006,0.748-0.199,1.137
			c-0.072,0.025-0.154,0.076-0.238,0.078C194.015,154.207,192.186,154.259,190.405,154.241"/>
		<path d="M182.794,87.463c-0.446-0.278-0.576-0.676-0.489-1.267c0.168-0.24,0.409-0.414,0.703-0.474
			c0.056-0.011,0.112-0.023,0.17-0.025c1.375-0.06,2.743-0.156,4.124-0.106c0.286,0.01,0.572-0.042,0.916-0.068
			c0.08,0.039,0.211,0.104,0.307,0.151c0.137,0.184,0.148,0.36,0.149,0.544c0.005,0.749,0.005,0.749-0.199,1.137
			c-0.073,0.026-0.155,0.076-0.239,0.079C186.404,87.489,184.572,87.479,182.794,87.463"/>
		<path d="M251.049,123.076c-0.445-0.278-0.576-0.677-0.488-1.269c0.168-0.238,0.408-0.414,0.703-0.477
			c0.055-0.011,0.113-0.021,0.17-0.021c1.375-0.062,2.742-0.328,4.123-0.279c0.285,0.011,0.572-0.041,0.916-0.068
			c0.08,0.039,0.211,0.105,0.307,0.151c0.137,0.185,0.148,0.36,0.148,0.545c0.006,0.748,0.006,0.748-0.199,1.136
			c-0.068,0.026-0.15,0.077-0.234,0.079C254.66,122.929,252.83,123.093,251.049,123.076"/>
		<path d="M248.566,154.474c-0.443-0.277-0.572-0.676-0.486-1.271c0.168-0.235,0.406-0.413,0.699-0.478
			c0.061-0.01,0.113-0.021,0.174-0.021c1.375-0.062,2.738-0.328,4.119-0.275c0.287,0.01,0.572-0.041,0.916-0.068
			c0.08,0.039,0.217,0.105,0.312,0.15c0.133,0.186,0.146,0.357,0.146,0.545c0.008,0.748,0.008,0.748-0.195,1.137
			c-0.072,0.025-0.154,0.076-0.238,0.078C252.176,154.327,250.346,154.491,248.566,154.474"/>
		<path d="M247.217,187.81c-0.447-0.276-0.576-0.676-0.49-1.27c0.168-0.236,0.41-0.414,0.703-0.475
			c0.057-0.014,0.113-0.022,0.17-0.024c1.375-0.062,2.742-0.325,4.123-0.276c0.287,0.01,0.572-0.041,0.916-0.067
			c0.08,0.039,0.213,0.104,0.307,0.149c0.137,0.187,0.148,0.358,0.15,0.545c0.004,0.748,0.004,0.748-0.199,1.138
			c-0.07,0.024-0.152,0.075-0.236,0.077C250.826,187.664,248.994,187.828,247.217,187.81"/>
		<path d="M242.879,221.861c-0.447-0.278-0.576-0.677-0.49-1.269c0.168-0.24,0.41-0.414,0.703-0.477
			c0.057-0.014,0.113-0.021,0.17-0.021c1.375-0.062,2.742-0.33,4.123-0.279c0.287,0.011,0.572-0.041,0.916-0.068
			c0.08,0.039,0.213,0.104,0.309,0.15c0.137,0.186,0.146,0.361,0.148,0.546c0.004,0.747,0.004,0.747-0.199,1.136
			c-0.072,0.025-0.154,0.077-0.238,0.079C246.488,221.714,244.658,221.878,242.879,221.861"/>
		<path d="M283.473,58.61c-0.021-0.257-0.041-0.501-0.059-0.701c0.312-0.498,0.678-0.817,1.189-0.877
			c0.354,0.02,0.568,0.193,0.766,0.485c0.141,0.517,0.104,1.023-0.393,1.417C284.461,59.111,283.988,59.054,283.473,58.61"/>
		<path d="M309.756,187.724c-0.023-0.258-0.041-0.502-0.062-0.701c0.314-0.498,0.684-0.816,1.195-0.877
			c0.348,0.021,0.568,0.189,0.76,0.481c0.146,0.521,0.105,1.022-0.387,1.418C310.744,188.224,310.27,188.168,309.756,187.724"/>
		<path d="M272.428,221.327c-0.447-0.277-0.576-0.676-0.49-1.268c0.168-0.239,0.41-0.414,0.703-0.478
			c0.061-0.01,0.113-0.021,0.17-0.021c1.375-0.062,2.742-0.33,4.123-0.28c0.287,0.011,0.572-0.041,0.916-0.067
			c0.08,0.038,0.213,0.104,0.311,0.15c0.135,0.186,0.146,0.361,0.146,0.545c0.004,0.748,0.004,0.748-0.199,1.137
			c-0.07,0.025-0.152,0.076-0.236,0.078C276.037,221.181,274.207,221.345,272.428,221.327"/>
		<path d="M280.496,221.327c-0.445-0.277-0.576-0.676-0.488-1.268c0.168-0.239,0.408-0.414,0.703-0.478
			c0.055-0.01,0.113-0.021,0.17-0.021c1.375-0.062,2.742-0.33,4.123-0.28c0.285,0.011,0.572-0.041,0.916-0.067
			c0.08,0.038,0.211,0.104,0.307,0.15c0.133,0.186,0.148,0.361,0.148,0.545c0.006,0.748,0.006,0.748-0.199,1.137
			c-0.072,0.025-0.154,0.076-0.238,0.078C284.105,221.181,282.277,221.345,280.496,221.327"/>
		<path d="M288.943,221.267c-0.441-0.277-0.572-0.676-0.484-1.271c0.168-0.235,0.404-0.414,0.703-0.476
			c0.055-0.012,0.109-0.021,0.17-0.023c1.375-0.062,2.738-0.329,4.123-0.275c0.281,0.01,0.568-0.041,0.916-0.068
			c0.076,0.039,0.211,0.104,0.307,0.15c0.133,0.186,0.146,0.357,0.146,0.545c0.01,0.748,0.01,0.748-0.195,1.137
			c-0.072,0.025-0.154,0.076-0.238,0.078C292.555,221.12,290.723,221.284,288.943,221.267"/>
		<path d="M297.082,221.267c-0.447-0.277-0.576-0.676-0.49-1.271c0.168-0.235,0.41-0.414,0.703-0.476
			c0.057-0.012,0.113-0.021,0.17-0.023c1.375-0.062,2.742-0.329,4.123-0.275c0.287,0.01,0.572,0.162,0.916,0.135
			c0.08,0.039,0.213,0.104,0.307,0.15c0.133,0.186,0.148,0.357,0.15,0.547c0.004,0.746,0.004,0.746-0.199,1.135
			c-0.074,0.022-0.156,0.078-0.24,0.08C300.691,221.324,298.861,221.284,297.082,221.267"/>
		<path d="M305.002,221.267c-0.447-0.277-0.576-0.676-0.49-1.271c0.168-0.235,0.41-0.414,0.703-0.476
			c0.057-0.012,0.113-0.021,0.17-0.023c1.375-0.062,2.742-0.329,4.123-0.275c0.287,0.01,0.572-0.041,0.916-0.068
			c0.08,0.039,0.213,0.104,0.309,0.15c0.137,0.186,0.146,0.357,0.148,0.545c0.004,0.748,0.004,0.748-0.199,1.137
			c-0.072,0.025-0.154,0.076-0.238,0.078C308.611,221.12,306.781,221.284,305.002,221.267"/>
		<path d="M278.654,188.261c-0.441-0.274-0.572-0.677-0.484-1.268c0.168-0.24,0.408-0.414,0.703-0.475
			c0.057-0.012,0.109-0.022,0.17-0.024c1.375-0.062,2.742-0.329,4.123-0.28c0.281,0.012,0.568-0.041,0.916-0.066
			c0.08,0.039,0.211,0.104,0.307,0.15c0.133,0.188,0.148,0.359,0.148,0.545c0.006,0.748,0.006,0.748-0.199,1.137
			c-0.072,0.025-0.154,0.076-0.238,0.078C282.266,188.113,280.434,188.277,278.654,188.261"/>
		<path d="M286.131,188.2c-0.447-0.277-0.576-0.676-0.49-1.268c0.168-0.239,0.41-0.414,0.703-0.478
			c0.057-0.011,0.113-0.021,0.17-0.022c1.375-0.062,2.742-0.328,4.123-0.278c0.287,0.011,0.572-0.041,0.916-0.068
			c0.08,0.039,0.213,0.104,0.307,0.151c0.137,0.186,0.148,0.359,0.15,0.545c0.004,0.748,0.004,0.748-0.199,1.136
			c-0.074,0.026-0.156,0.077-0.24,0.079C289.74,188.054,287.91,188.218,286.131,188.2"/>
		<path d="M294.268,188.2c-0.441-0.277-0.576-0.676-0.488-1.268c0.172-0.239,0.408-0.414,0.703-0.478
			c0.059-0.011,0.111-0.021,0.17-0.022c1.375-0.062,2.742-0.328,4.123-0.278c0.285,0.011,0.57-0.041,0.916-0.068
			c0.08,0.039,0.211,0.104,0.311,0.151c0.133,0.186,0.146,0.359,0.146,0.545c0.006,0.748,0.006,0.748-0.195,1.136
			c-0.072,0.026-0.154,0.077-0.238,0.079C297.877,188.054,296.047,188.218,294.268,188.2"/>
		<path d="M302.188,188.2c-0.441-0.277-0.576-0.676-0.484-1.268c0.168-0.239,0.404-0.414,0.699-0.478
			c0.059-0.011,0.113-0.021,0.174-0.022c1.375-0.062,2.738-0.328,4.119-0.278c0.285,0.011,0.572-0.041,0.916-0.068
			c0.08,0.039,0.211,0.104,0.311,0.151c0.133,0.186,0.146,0.359,0.146,0.545c0.009,0.748,0.009,0.748-0.195,1.136
			c-0.072,0.026-0.154,0.077-0.238,0.079C305.799,188.054,303.967,188.218,302.188,188.2"/>
		<path d="M305.525,155.306c-0.021-0.258-0.041-0.502-0.059-0.701c0.312-0.498,0.678-0.813,1.193-0.877
			c0.35,0.021,0.564,0.193,0.762,0.484c0.141,0.518,0.104,1.021-0.391,1.418C306.514,155.806,306.041,155.749,305.525,155.306"/>
		<path d="M309.352,155.306c-0.021-0.258-0.043-0.502-0.059-0.701c0.312-0.498,0.678-0.813,1.189-0.877
			c0.354,0.021,0.568,0.193,0.766,0.484c0.141,0.518,0.104,1.021-0.393,1.418C310.34,155.806,309.865,155.749,309.352,155.306"/>
		<path d="M281.9,155.781c-0.441-0.278-0.572-0.677-0.484-1.269c0.168-0.24,0.404-0.414,0.697-0.477
			c0.061-0.012,0.113-0.021,0.176-0.021c1.375-0.062,2.736-0.33,4.123-0.279c0.281,0.011,0.566-0.041,0.91-0.068
			c0.08,0.039,0.217,0.104,0.312,0.15c0.133,0.186,0.146,0.361,0.146,0.546c0.01,0.748,0.01,0.748-0.195,1.136
			c-0.072,0.025-0.154,0.077-0.238,0.079C285.51,155.634,283.68,155.798,281.9,155.781"/>
		<path d="M290.037,155.781c-0.445-0.278-0.576-0.677-0.488-1.269c0.168-0.24,0.408-0.414,0.703-0.477
			c0.057-0.012,0.111-0.021,0.17-0.021c1.375-0.062,2.742-0.33,4.123-0.279c0.285,0.011,0.572-0.041,0.916-0.068
			c0.08,0.039,0.211,0.104,0.307,0.15c0.133,0.186,0.148,0.361,0.148,0.546c0.006,0.748,0.006,0.748-0.197,1.136
			c-0.074,0.025-0.156,0.077-0.24,0.079C293.648,155.634,291.818,155.798,290.037,155.781"/>
		<path d="M297.959,155.781c-0.447-0.278-0.576-0.677-0.49-1.269c0.168-0.24,0.41-0.414,0.703-0.477
			c0.057-0.012,0.113-0.021,0.17-0.021c1.375-0.062,2.742-0.33,4.123-0.279c0.287,0.011,0.572-0.041,0.916-0.068
			c0.08,0.039,0.213,0.104,0.307,0.15c0.133,0.186,0.148,0.361,0.15,0.546c0.004,0.748,0.004,0.748-0.199,1.136
			c-0.074,0.025-0.156,0.077-0.24,0.079C301.568,155.634,299.738,155.798,297.959,155.781"/>
		<path d="M299.27,122.599c-0.021-0.256-0.041-0.5-0.061-0.701c0.312-0.496,0.68-0.815,1.191-0.877
			c0.352,0.021,0.566,0.19,0.764,0.486c0.141,0.516,0.104,1.021-0.391,1.413C300.256,123.101,299.783,123.044,299.27,122.599"/>
		<path d="M342.453,122.382c-0.021-0.258-0.041-0.502-0.062-0.701c0.312-0.498,0.684-0.813,1.195-0.877
			c0.348,0.021,0.563,0.192,0.76,0.484c0.145,0.518,0.104,1.023-0.387,1.417C343.441,122.884,342.969,122.825,342.453,122.382"/>
		<path d="M346.055,122.433c-0.021-0.258-0.041-0.502-0.059-0.701c0.312-0.498,0.678-0.817,1.189-0.877
			c0.354,0.02,0.568,0.188,0.766,0.48c0.141,0.521,0.104,1.021-0.393,1.417C347.043,122.933,346.568,122.876,346.055,122.433"/>
		<path d="M302.963,122.599c-0.023-0.256-0.041-0.5-0.062-0.701c0.314-0.496,0.684-0.815,1.195-0.877
			c0.348,0.021,0.568,0.19,0.76,0.486c0.146,0.516,0.105,1.021-0.387,1.413C303.951,123.101,303.477,123.044,302.963,122.599"/>
		<path d="M306.607,122.599c-0.021-0.256-0.041-0.5-0.059-0.701c0.312-0.496,0.678-0.815,1.193-0.877
			c0.35,0.021,0.564,0.19,0.762,0.486c0.141,0.516,0.104,1.021-0.393,1.413C307.596,123.101,307.123,123.044,306.607,122.599"/>
		<path d="M283.781,123.076c-0.443-0.278-0.574-0.677-0.486-1.269c0.168-0.238,0.408-0.414,0.703-0.477
			c0.055-0.011,0.107-0.021,0.17-0.021c1.375-0.062,2.739-0.328,4.123-0.279c0.285,0.011,0.566-0.041,0.916-0.068
			c0.078,0.039,0.211,0.105,0.307,0.151c0.133,0.185,0.146,0.36,0.148,0.545c0.006,0.748,0.006,0.748-0.199,1.136
			c-0.072,0.026-0.154,0.077-0.238,0.079C287.391,122.929,285.561,123.093,283.781,123.076"/>
		<path d="M291.701,123.076c-0.445-0.278-0.576-0.677-0.488-1.269c0.168-0.238,0.408-0.414,0.703-0.477
			c0.055-0.011,0.109-0.021,0.17-0.021c1.375-0.062,2.742-0.328,4.123-0.279c0.285,0.011,0.568-0.041,0.916-0.068
			c0.08,0.039,0.211,0.105,0.307,0.151c0.133,0.185,0.148,0.36,0.148,0.545c0.006,0.748,0.006,0.748-0.199,1.136
			c-0.072,0.026-0.154,0.077-0.238,0.079C295.311,122.929,293.48,123.093,291.701,123.076"/>
		<path d="M339.217,88.801c-0.021-0.257-0.041-0.501-0.059-0.701c0.312-0.498,0.68-0.817,1.189-0.877
			c0.354,0.02,0.568,0.193,0.762,0.485c0.145,0.517,0.104,1.023-0.389,1.417C340.205,89.302,339.73,89.244,339.217,88.801"/>
		<path d="M350.434,88.801c-0.021-0.257-0.041-0.501-0.059-0.701c0.312-0.498,0.678-0.817,1.189-0.877
			c0.354,0.02,0.568,0.193,0.766,0.485c0.141,0.517,0.104,1.023-0.393,1.417C351.422,89.302,350.947,89.244,350.434,88.801"/>
		<path d="M327.674,88.801c-0.021-0.257-0.043-0.501-0.059-0.701c0.312-0.498,0.678-0.817,1.189-0.877
			c0.354,0.02,0.568,0.193,0.762,0.485c0.145,0.517,0.104,1.023-0.389,1.417C328.662,89.302,328.188,89.244,327.674,88.801"/>
		<path d="M289.721,88.973c-0.021-0.257-0.041-0.501-0.061-0.701c0.312-0.498,0.68-0.817,1.191-0.877
			c0.352,0.02,0.568,0.193,0.762,0.485c0.145,0.517,0.104,1.023-0.389,1.417C290.709,89.473,290.234,89.416,289.721,88.973"/>
		<path d="M293.59,88.973c-0.021-0.257-0.041-0.501-0.061-0.701c0.312-0.498,0.68-0.817,1.191-0.877
			c0.354,0.02,0.568,0.193,0.762,0.485c0.145,0.517,0.104,1.023-0.389,1.417C294.578,89.473,294.105,89.416,293.59,88.973"/>
		<path d="M300.834,88.973c-0.021-0.257-0.043-0.501-0.062-0.701c0.312-0.498,0.682-0.817,1.193-0.877
			c0.35,0.02,0.568,0.193,0.762,0.485c0.145,0.517,0.104,1.023-0.389,1.417C301.822,89.473,301.348,89.416,300.834,88.973"/>
		<path d="M297.279,88.973c-0.021-0.257-0.041-0.501-0.059-0.701c0.312-0.498,0.678-0.817,1.193-0.877
			c0.35,0.02,0.564,0.193,0.762,0.485c0.141,0.517,0.104,1.023-0.389,1.417C298.268,89.473,297.795,89.416,297.279,88.973"/>
		<path d="M287.18,58.61c-0.021-0.257-0.041-0.501-0.059-0.701c0.312-0.498,0.678-0.817,1.189-0.877
			c0.354,0.02,0.568,0.193,0.766,0.485c0.141,0.517,0.104,1.023-0.393,1.417C288.168,59.111,287.695,59.054,287.18,58.61"/>
		<path d="M290.84,58.61c-0.021-0.257-0.041-0.501-0.061-0.701c0.312-0.498,0.682-0.817,1.191-0.877
			c0.354,0.02,0.568,0.193,0.762,0.485c0.145,0.517,0.104,1.023-0.389,1.417C291.828,59.111,291.354,59.054,290.84,58.61"/>
		<path d="M355.439,57.612c-0.021-0.257-0.043-0.501-0.059-0.701c0.312-0.498,0.678-0.817,1.191-0.877
			c0.352,0.02,0.566,0.193,0.764,0.485c0.141,0.517,0.104,1.023-0.393,1.417C356.428,58.113,355.953,58.056,355.439,57.612"/>
		<path d="M352.238,57.612c-0.021-0.257-0.037-0.501-0.061-0.701c0.314-0.498,0.68-0.817,1.195-0.877
			c0.348,0.02,0.564,0.193,0.76,0.485c0.143,0.517,0.104,1.023-0.387,1.417C353.225,58.113,352.752,58.056,352.238,57.612"/>
		<path d="M333.014,57.612c-0.021-0.257-0.041-0.501-0.059-0.701c0.312-0.498,0.68-0.817,1.189-0.877
			c0.354,0.02,0.568,0.193,0.766,0.485c0.141,0.517,0.104,1.023-0.393,1.417C334.002,58.113,333.527,58.056,333.014,57.612"/>
		<path d="M329.193,57.612c-0.021-0.257-0.041-0.501-0.059-0.701c0.312-0.498,0.678-0.817,1.193-0.877
			c0.35,0.02,0.564,0.193,0.762,0.485c0.141,0.517,0.104,1.023-0.389,1.417C330.182,58.113,329.709,58.056,329.193,57.612"/>
		<path d="M297.951,58.61c-0.021-0.257-0.041-0.501-0.062-0.701c0.312-0.498,0.678-0.817,1.193-0.877
			c0.35,0.02,0.564,0.193,0.762,0.485c0.141,0.517,0.104,1.023-0.389,1.417C298.939,59.111,298.467,59.054,297.951,58.61"/>
		<path d="M294.285,58.61c-0.021-0.257-0.041-0.501-0.062-0.701c0.312-0.498,0.678-0.817,1.193-0.877
			c0.35,0.02,0.564,0.193,0.762,0.485c0.141,0.517,0.104,1.023-0.389,1.417C295.273,59.111,294.801,59.054,294.285,58.61"/>
		<path d="M228.242,221.694c-0.021-0.258-0.041-0.501-0.062-0.701c0.312-0.498,0.68-0.816,1.195-0.877
			c0.348,0.021,0.562,0.193,0.76,0.484c0.141,0.518,0.104,1.021-0.389,1.418C229.23,222.195,228.758,222.14,228.242,221.694"/>
		<path d="M231.85,221.694c-0.021-0.258-0.041-0.501-0.059-0.701c0.312-0.498,0.68-0.816,1.191-0.877
			c0.352,0.021,0.566,0.193,0.764,0.484c0.141,0.518,0.104,1.021-0.391,1.418C232.838,222.195,232.365,222.14,231.85,221.694"/>
		<path d="M235.361,221.694c-0.021-0.258-0.041-0.501-0.059-0.701c0.312-0.498,0.678-0.816,1.193-0.877
			c0.35,0.021,0.564,0.193,0.762,0.484c0.141,0.518,0.104,1.021-0.389,1.418C236.35,222.195,235.875,222.14,235.361,221.694"/>
		<path d="M238.945,221.694c-0.021-0.258-0.041-0.501-0.059-0.701c0.312-0.498,0.678-0.816,1.193-0.877
			c0.35,0.021,0.564,0.193,0.762,0.484c0.141,0.518,0.104,1.021-0.389,1.418C239.934,222.195,239.459,222.14,238.945,221.694"/>
		<path d="M239.443,187.81c-0.443-0.276-0.572-0.676-0.486-1.27c0.168-0.236,0.406-0.414,0.703-0.475
			c0.057-0.014,0.109-0.022,0.17-0.024c1.375-0.062,2.738-0.325,4.123-0.276c0.283,0.01,0.568,0.162,0.916,0.135
			c0.076,0.039,0.213,0.105,0.307,0.152c0.135,0.185,0.146,0.356,0.147,0.545c0.007,0.748,0.007,0.748-0.196,1.135
			c-0.074,0.027-0.156,0.078-0.24,0.08C243.053,187.868,241.223,187.828,239.443,187.81"/>
		<path d="M228.266,187.644c-0.021-0.258-0.043-0.5-0.061-0.7c0.312-0.498,0.68-0.817,1.191-0.878
			c0.352,0.021,0.566,0.193,0.764,0.484c0.141,0.518,0.104,1.021-0.391,1.418C229.252,188.146,228.779,188.089,228.266,187.644"/>
		<path d="M231.908,187.644c-0.021-0.258-0.041-0.5-0.062-0.7c0.312-0.498,0.68-0.817,1.193-0.878
			c0.35,0.021,0.564,0.193,0.762,0.484c0.141,0.518,0.104,1.021-0.389,1.418C232.896,188.146,232.424,188.089,231.908,187.644"/>
		<path d="M235.51,187.644c-0.023-0.258-0.041-0.5-0.061-0.7c0.312-0.498,0.68-0.817,1.191-0.878
			c0.352,0.021,0.568,0.193,0.76,0.484c0.146,0.518,0.105,1.021-0.387,1.418C236.496,188.146,236.023,188.089,235.51,187.644"/>
		<path d="M240.703,154.474c-0.445-0.277-0.576-0.676-0.488-1.271c0.168-0.235,0.408-0.413,0.703-0.478
			c0.057-0.01,0.111-0.021,0.17-0.021c1.375-0.062,2.742-0.328,4.123-0.275c0.285,0.01,0.572-0.041,0.916-0.068
			c0.08,0.039,0.211,0.105,0.307,0.15c0.133,0.186,0.148,0.357,0.148,0.545c0.006,0.748,0.006,0.748-0.199,1.137
			c-0.072,0.025-0.154,0.076-0.238,0.078C244.314,154.327,242.484,154.491,240.703,154.474"/>
		<path d="M232.93,154.474c-0.445-0.277-0.576-0.676-0.488-1.271c0.168-0.235,0.408-0.413,0.703-0.478
			c0.061-0.01,0.113-0.021,0.17-0.021c1.375-0.062,2.742-0.328,4.123-0.275c0.285,0.01,0.572-0.041,0.916-0.068
			c0.08,0.039,0.211,0.105,0.311,0.15c0.133,0.186,0.146,0.357,0.146,0.545c0.006,0.748,0.006,0.748-0.199,1.137
			c-0.068,0.025-0.15,0.076-0.234,0.078C236.541,154.327,234.711,154.491,232.93,154.474"/>
		<path d="M225.198,154.308c-0.021-0.258-0.039-0.502-0.061-0.701c0.312-0.498,0.678-0.816,1.193-0.877
			c0.35,0.021,0.564,0.189,0.762,0.481c0.141,0.521,0.104,1.021-0.389,1.421C226.186,154.808,225.713,154.752,225.198,154.308"/>
		<path d="M228.863,154.308c-0.021-0.258-0.037-0.502-0.059-0.701c0.312-0.498,0.68-0.816,1.195-0.877
			c0.348,0.021,0.562,0.189,0.76,0.481c0.141,0.521,0.104,1.021-0.387,1.421C229.852,154.808,229.379,154.752,228.863,154.308"/>
		<path d="M243.363,122.767c-0.441-0.278-0.572-0.676-0.484-1.271c0.168-0.236,0.408-0.413,0.703-0.477
			c0.057-0.012,0.109-0.021,0.17-0.022c1.375-0.062,2.742-0.328,4.123-0.276c0.285,0.012,0.568-0.041,0.916-0.067
			c0.08,0.04,0.213,0.104,0.307,0.151c0.133,0.184,0.148,0.356,0.148,0.545c0.006,0.748,0.006,0.748-0.197,1.135
			c-0.074,0.027-0.156,0.078-0.24,0.08C246.975,122.619,245.145,122.783,243.363,122.767"/>
		<path d="M235.768,122.767c-0.447-0.278-0.576-0.676-0.49-1.271c0.168-0.236,0.41-0.413,0.703-0.477
			c0.061-0.012,0.113-0.021,0.17-0.022c1.375-0.062,2.742-0.328,4.123-0.276c0.287,0.012,0.572-0.041,0.916-0.067
			c0.08,0.04,0.213,0.104,0.311,0.151c0.133,0.184,0.146,0.356,0.146,0.545c0.004,0.748,0.004,0.748-0.195,1.135
			c-0.074,0.027-0.156,0.078-0.24,0.08C239.377,122.619,237.547,122.783,235.768,122.767"/>
		<path d="M227.994,122.767c-0.447-0.278-0.576-0.676-0.49-1.271c0.168-0.236,0.41-0.413,0.703-0.477
			c0.057-0.012,0.109-0.021,0.17-0.022c1.375-0.062,2.742-0.328,4.123-0.276c0.287,0.012,0.57-0.041,0.916-0.067
			c0.08,0.04,0.213,0.104,0.307,0.151c0.135,0.184,0.148,0.356,0.15,0.545c0.004,0.748,0.004,0.748-0.199,1.135
			c-0.074,0.027-0.156,0.078-0.24,0.08C231.604,122.619,229.773,122.783,227.994,122.767"/>
		<path d="M188.459,120.507c-0.446-0.277-0.576-0.676-0.489-1.268c0.168-0.239,0.409-0.414,0.703-0.475
			c0.057-0.013,0.113-0.022,0.17-0.024c1.375-0.06,2.742-0.329,4.123-0.278c0.286,0.01,0.572-0.042,0.916-0.068
			c0.08,0.039,0.212,0.104,0.308,0.15c0.137,0.186,0.147,0.36,0.148,0.545c0.005,0.748,0.005,0.748-0.199,1.137
			c-0.072,0.025-0.154,0.076-0.238,0.078C192.069,120.358,190.239,120.522,188.459,120.507"/>
		<path d="M30.208,58.008c-0.446-0.279-0.577-0.676-0.488-1.267c0.167-0.24,0.408-0.414,0.702-0.474
			c0.056-0.011,0.112-0.023,0.17-0.025c1.376-0.06,2.743-0.329,4.124-0.28c0.286,0.011,0.572-0.041,0.916-0.068
			c0.08,0.039,0.212,0.105,0.307,0.151c0.133,0.184,0.148,0.36,0.15,0.545c0.004,0.748,0.004,0.748-0.2,1.136
			c-0.073,0.026-0.155,0.077-0.238,0.079C33.819,57.861,31.989,58.024,30.208,58.008"/>
		<path d="M25.962,57.796c-0.022-0.257-0.041-0.501-0.062-0.701c0.313-0.498,0.683-0.817,1.194-0.877
			c0.349,0.02,0.568,0.193,0.761,0.485c0.145,0.517,0.104,1.023-0.388,1.417C26.95,58.297,26.477,58.241,25.962,57.796"/>
		<path d="M78.776,57.01c-0.458-0.278-0.591-0.676-0.501-1.267c0.172-0.24,0.419-0.414,0.724-0.474
			c0.057-0.011,0.111-0.023,0.174-0.025c1.411-0.06,2.812-0.329,4.229-0.28c0.293,0.011,0.586-0.041,0.94-0.068
			c0.081,0.039,0.215,0.105,0.312,0.151c0.14,0.184,0.152,0.36,0.153,0.545c0.005,0.748,0.005,0.748-0.204,1.136
			c-0.076,0.026-0.159,0.077-0.244,0.079C82.479,56.863,80.602,57.027,78.776,57.01"/>
		<path d="M70.777,57.308c-0.458-0.278-0.591-0.676-0.501-1.267c0.176-0.24,0.419-0.414,0.724-0.474
			c0.057-0.01,0.111-0.023,0.175-0.025c1.41-0.06,2.812-0.329,4.229-0.28c0.293,0.011,0.821,0.163,1.178,0.136
			c0.082,0.039,0.217,0.105,0.312,0.151c0.136,0.185,0.151,0.36,0.153,0.545c0.004,0.748,0.004,0.748-0.204,1.136
			c-0.076,0.026-0.159,0.077-0.245,0.079C74.715,57.365,72.603,57.325,70.777,57.308"/>
		<path d="M134.638,55.599c-0.47-0.278-0.609-0.676-0.516-1.267c0.177-0.24,0.432-0.414,0.741-0.474
			c0.061-0.011,0.117-0.023,0.181-0.025c1.453-0.06,2.896-0.329,4.354-0.28c0.306,0.011,0.604-0.041,0.972-0.068
			c0.084,0.04,0.222,0.105,0.319,0.151c0.146,0.185,0.156,0.36,0.158,0.545c0.005,0.748,0.005,0.748-0.21,1.136
			c-0.078,0.026-0.165,0.077-0.251,0.079C138.452,55.452,136.518,55.616,134.638,55.599"/>
		<path d="M125.651,55.953c-0.471-0.278-0.605-0.676-0.516-1.267c0.177-0.24,0.432-0.414,0.743-0.474
			c0.058-0.011,0.118-0.023,0.179-0.025c1.452-0.06,2.897-0.329,4.356-0.28c0.301,0.011,0.603-0.041,0.968-0.068
			c0.084,0.04,0.222,0.105,0.323,0.151c0.141,0.185,0.152,0.361,0.153,0.545c0.009,0.748,0.009,0.748-0.209,1.136
			c-0.077,0.026-0.165,0.077-0.253,0.079C129.465,55.806,127.531,55.97,125.651,55.953"/>
		<path d="M86.37,56.534c-0.022-0.257-0.041-0.501-0.062-0.701c0.313-0.498,0.683-0.817,1.194-0.877
			c0.349,0.02,0.565,0.193,0.761,0.485c0.145,0.517,0.104,1.023-0.388,1.417C87.357,57.035,86.884,56.977,86.37,56.534"/>
		<path d="M127.877,87.276c-0.439-0.278-0.567-0.676-0.48-1.267c0.164-0.24,0.401-0.414,0.69-0.474
			c0.055-0.01,0.107-0.023,0.168-0.025c1.353-0.06,2.7-0.329,4.058-0.28c0.281,0.011,0.562-0.041,0.902-0.068
			c0.077,0.039,0.208,0.105,0.301,0.151c0.131,0.185,0.146,0.361,0.147,0.545c0.004,0.748,0.004,0.748-0.196,1.136
			c-0.072,0.026-0.153,0.077-0.235,0.079C131.431,87.129,129.63,87.292,127.877,87.276"/>
		<path d="M123.459,120.776c-0.449-0.277-0.581-0.676-0.492-1.268c0.169-0.24,0.412-0.414,0.708-0.477
			c0.056-0.016,0.113-0.021,0.171-0.021c1.386-0.062,2.764-0.33,4.157-0.281c0.287,0.013,0.575-0.041,0.922-0.066
			c0.08,0.039,0.212,0.104,0.308,0.15c0.139,0.186,0.149,0.361,0.15,0.545c0.006,0.748,0.006,0.748-0.199,1.137
			c-0.075,0.025-0.157,0.076-0.241,0.079C127.099,120.63,125.253,120.794,123.459,120.776"/>
		<path d="M131.447,120.776c-0.445-0.277-0.577-0.676-0.488-1.268c0.169-0.24,0.412-0.414,0.708-0.477
			c0.056-0.016,0.109-0.021,0.171-0.021c1.386-0.062,2.764-0.33,4.156-0.281c0.284,0.013,0.572-0.041,0.923-0.066
			c0.081,0.039,0.212,0.104,0.308,0.15c0.136,0.186,0.15,0.361,0.151,0.545c0.006,0.748,0.006,0.748-0.2,1.137
			c-0.074,0.025-0.157,0.076-0.241,0.079C135.086,120.63,133.241,120.794,131.447,120.776"/>
		<path d="M139.645,120.313c-0.449-0.278-0.58-0.676-0.492-1.271c0.169-0.237,0.412-0.411,0.708-0.476
			c0.06-0.014,0.113-0.02,0.175-0.023c1.386-0.062,2.764-0.326,4.152-0.277c0.288,0.012,0.576-0.041,0.923-0.067
			c0.081,0.039,0.217,0.104,0.312,0.151c0.135,0.185,0.146,0.357,0.148,0.545c0.008,0.748,0.008,0.748-0.197,1.136
			c-0.074,0.026-0.157,0.077-0.241,0.079C143.284,120.167,141.439,120.331,139.645,120.313"/>
		<path d="M128.38,156.63c-0.446-0.277-0.576-0.676-0.489-1.267c0.168-0.24,0.409-0.414,0.703-0.474
			c0.056-0.016,0.113-0.023,0.17-0.025c1.375-0.061,2.742-0.329,4.123-0.28c0.286,0.013,0.572-0.041,0.916-0.067
			c0.08,0.041,0.212,0.104,0.307,0.15c0.137,0.186,0.148,0.361,0.149,0.545c0.005,0.748,0.005,0.748-0.199,1.137
			c-0.073,0.025-0.155,0.076-0.239,0.08C131.99,156.483,130.16,156.647,128.38,156.63"/>
		<path d="M136.547,156.208c-0.445-0.277-0.576-0.676-0.488-1.268c0.168-0.239,0.408-0.413,0.702-0.475
			c0.056-0.013,0.113-0.021,0.171-0.025c1.375-0.059,2.646-0.168,4.027-0.118c0.286,0.011,0.567-0.041,0.915-0.067
			c0.08,0.038,0.211,0.104,0.307,0.15c0.133,0.186,0.148,0.359,0.149,0.545c0.005,0.748,0.005,0.748-0.199,1.136
			c-0.074,0.026-0.155,0.077-0.238,0.079C140.061,156.222,138.328,156.224,136.547,156.208"/>
		<path d="M135.668,86.8c-0.022-0.257-0.041-0.501-0.062-0.701c0.313-0.498,0.683-0.817,1.194-0.877
			c0.349,0.02,0.568,0.193,0.761,0.485c0.145,0.517,0.104,1.023-0.388,1.417C136.657,87.301,136.184,87.244,135.668,86.8"/>
		<path d="M180.91,120.146c-0.021-0.256-0.041-0.5-0.062-0.7c0.312-0.498,0.68-0.817,1.194-0.877
			c0.349,0.021,0.563,0.192,0.761,0.485c0.141,0.517,0.104,1.021-0.388,1.416C181.898,120.647,181.426,120.591,180.91,120.146"/>
		<path d="M224.061,122.599c-0.021-0.256-0.041-0.5-0.061-0.701c0.312-0.496,0.68-0.815,1.191-0.877
			c0.352,0.021,0.566,0.19,0.764,0.486c0.141,0.516,0.104,1.021-0.391,1.413C225.047,123.101,224.574,123.044,224.061,122.599"/>
		<path d="M184.299,120.146c-0.022-0.256-0.041-0.5-0.062-0.7c0.313-0.498,0.684-0.817,1.194-0.877
			c0.353,0.021,0.568,0.192,0.761,0.485c0.146,0.517,0.104,1.021-0.388,1.416C185.287,120.647,184.813,120.591,184.299,120.146"/>
		<path d="M344.992,57.915c-0.445-0.279-0.576-0.676-0.488-1.267c0.168-0.24,0.408-0.414,0.703-0.474
			c0.055-0.011,0.107-0.023,0.17-0.025c1.375-0.06,2.391-0.156,3.771-0.106c0.287,0.01,0.572-0.042,0.916-0.069
			c0.08,0.04,0.213,0.105,0.312,0.152c0.133,0.184,0.146,0.36,0.146,0.544c0.004,0.749,0.004,0.749-0.199,1.137
			c-0.068,0.026-0.15,0.076-0.234,0.078C348.252,57.94,346.771,57.932,344.992,57.915"/>
		<path d="M336.957,57.915c-0.445-0.279-0.576-0.676-0.488-1.267c0.168-0.24,0.408-0.414,0.703-0.474
			c0.055-0.011,0.111-0.023,0.17-0.025c1.375-0.06,2.742-0.156,4.123-0.106c0.285,0.01,0.57-0.042,0.916-0.069
			c0.08,0.04,0.211,0.105,0.307,0.152c0.133,0.184,0.148,0.36,0.148,0.544c0.006,0.749,0.006,0.749-0.199,1.137
			c-0.072,0.026-0.154,0.076-0.238,0.078C340.566,57.94,338.736,57.932,336.957,57.915"/>
		<path d="M353.969,89.277c-0.447-0.278-0.576-0.676-0.49-1.267c0.168-0.24,0.41-0.414,0.703-0.474
			c0.061-0.011,0.113-0.023,0.17-0.025c1.375-0.06,2.742-0.329,4.123-0.28c0.287,0.011,0.572-0.041,0.916-0.068
			c0.08,0.039,0.213,0.105,0.312,0.151c0.133,0.185,0.146,0.361,0.146,0.545c0.004,0.748,0.004,0.748-0.199,1.136
			c-0.068,0.026-0.15,0.077-0.234,0.079C357.578,89.13,355.748,89.293,353.969,89.277"/>
		<path d="M343.318,89.277c-0.441-0.278-0.572-0.676-0.484-1.267c0.168-0.24,0.404-0.414,0.703-0.474
			c0.055-0.011,0.107-0.023,0.17-0.025c1.375-0.06,2.736-0.329,4.123-0.28c0.281,0.011,0.566-0.041,0.916-0.068
			c0.076,0.039,0.211,0.105,0.307,0.151c0.133,0.185,0.146,0.361,0.146,0.545c0.01,0.748,0.01,0.748-0.195,1.136
			c-0.072,0.026-0.154,0.077-0.238,0.079C346.928,89.13,345.098,89.293,343.318,89.277"/>
		<path d="M357.877,122.683c-0.447-0.276-0.576-0.676-0.49-1.27c0.168-0.236,0.41-0.414,0.703-0.475
			c0.057-0.014,0.113-0.022,0.17-0.024c1.375-0.062,2.742-0.153,4.123-0.104c0.287,0.012,0.572-0.041,0.916-0.066
			c0.08,0.039,0.213,0.104,0.307,0.15c0.137,0.185,0.148,0.356,0.15,0.543c0.004,0.75,0.004,0.75-0.199,1.139
			c-0.074,0.025-0.156,0.077-0.24,0.079C361.486,122.71,359.656,122.701,357.877,122.683"/>
		<path d="M349.859,122.908c-0.441-0.278-0.572-0.677-0.484-1.267c0.168-0.24,0.404-0.414,0.703-0.479
			c0.055-0.011,0.109-0.021,0.17-0.021c1.375-0.062,2.738-0.328,4.123-0.279c0.281,0.011,0.568-0.041,0.916-0.068
			c0.076,0.039,0.211,0.105,0.307,0.151c0.133,0.185,0.146,0.36,0.146,0.545c0.01,0.748,0.01,0.748-0.195,1.136
			c-0.072,0.026-0.154,0.077-0.238,0.079C353.471,122.763,351.639,122.925,349.859,122.908"/>
		<path d="M334.953,122.856c-0.447-0.277-0.576-0.676-0.49-1.266c0.168-0.24,0.41-0.414,0.703-0.479
			c0.057-0.014,0.109-0.021,0.17-0.021c1.375-0.062,2.742-0.328,4.123-0.279c0.287,0.011,0.354,0.177,0.701,0.147
			c0.078,0.039,0.211,0.104,0.309,0.149c0.133,0.186,0.146,0.357,0.148,0.545c0.004,0.749,0.004,0.749-0.199,1.138
			c-0.074,0.024-0.154,0.075-0.238,0.079C338.348,122.929,336.732,122.874,334.953,122.856"/>
		<path d="M327.102,122.856c-0.441-0.277-0.576-0.676-0.488-1.266c0.172-0.24,0.408-0.414,0.703-0.479
			c0.059-0.014,0.113-0.021,0.17-0.021c1.375-0.062,2.527-0.125,3.908-0.076c0.285,0.012,0.57-0.041,0.916-0.067
			c0.08,0.039,0.211,0.104,0.309,0.151c0.135,0.184,0.146,0.356,0.146,0.545c0.006,0.748,0.006,0.748-0.199,1.136
			c-0.07,0.026-0.152,0.077-0.234,0.079C330.496,122.915,328.881,122.875,327.102,122.856"/>
		<path d="M331.572,89.277c-0.441-0.278-0.572-0.676-0.484-1.267c0.168-0.24,0.408-0.414,0.701-0.474
			c0.057-0.011,0.109-0.023,0.17-0.025c1.375-0.06,2.738-0.329,4.123-0.28c0.286,0.011,0.568-0.041,0.916-0.068
			c0.079,0.039,0.213,0.105,0.309,0.151c0.133,0.185,0.146,0.361,0.148,0.545c0.004,0.748,0.004,0.748-0.199,1.136
			c-0.072,0.026-0.154,0.077-0.238,0.079C335.182,89.13,333.352,89.293,331.572,89.277"/>
		<path d="M282.152,89.449c-0.441-0.278-0.572-0.676-0.484-1.267c0.168-0.24,0.407-0.414,0.703-0.474
			c0.055-0.011,0.109-0.023,0.17-0.025c1.375-0.06,2.738-0.329,4.123-0.28c0.281,0.011,0.568-0.041,0.916-0.068
			c0.079,0.039,0.211,0.105,0.307,0.151c0.133,0.185,0.148,0.361,0.148,0.545c0.006,0.748,0.006,0.748-0.199,1.136
			c-0.072,0.026-0.154,0.077-0.238,0.079C285.764,89.302,283.932,89.465,282.152,89.449"/>
		<path d="M233.252,87.371c-0.445-0.278-0.576-0.676-0.488-1.267c0.168-0.24,0.408-0.414,0.703-0.474
			c0.055-0.011,0.113-0.023,0.17-0.025c1.375-0.06,2.742-0.329,4.123-0.28c0.285,0.011,0.572-0.041,0.916-0.068
			c0.08,0.039,0.211,0.105,0.307,0.151c0.137,0.184,0.148,0.36,0.148,0.545c0.006,0.748,0.006,0.748-0.199,1.136
			c-0.072,0.026-0.154,0.077-0.238,0.079C236.863,87.224,235.031,87.387,233.252,87.371"/>
		<path d="M243.559,58.755c-0.441-0.278-0.576-0.676-0.488-1.267c0.172-0.24,0.408-0.414,0.703-0.474
			c0.059-0.01,0.113-0.023,0.17-0.025c1.375-0.06,2.742-0.329,4.123-0.279c0.285,0.01,0.572-0.042,0.916-0.069
			c0.08,0.04,0.211,0.105,0.311,0.151c0.133,0.185,0.146,0.361,0.146,0.545c0.006,0.748,0.006,0.748-0.195,1.137
			c-0.072,0.025-0.154,0.076-0.238,0.078C247.168,58.607,245.338,58.771,243.559,58.755"/>
		<path d="M235.768,59.086c-0.441-0.278-0.576-0.676-0.488-1.267c0.172-0.24,0.408-0.414,0.703-0.474
			c0.059-0.01,0.113-0.023,0.17-0.025c1.375-0.06,2.742-0.329,4.123-0.279c0.285,0.01,0.572-0.042,0.916-0.069
			c0.08,0.04,0.211,0.105,0.311,0.151c0.133,0.185,0.146,0.361,0.146,0.545c0.006,0.748,0.006,0.748-0.195,1.137
			c-0.072,0.025-0.154,0.076-0.238,0.078C239.377,58.938,237.547,59.103,235.768,59.086"/>
		<path d="M224.012,59.146c-0.447-0.278-0.576-0.676-0.49-1.267c0.168-0.24,0.41-0.414,0.703-0.474
			c0.061-0.011,0.113-0.023,0.17-0.025c1.375-0.06,2.742-0.329,4.123-0.28c0.287,0.011,0.572-0.041,0.916-0.068
			c0.08,0.039,0.213,0.105,0.311,0.151c0.135,0.184,0.146,0.36,0.146,0.545c0.004,0.748,0.004,0.748-0.199,1.136
			c-0.07,0.026-0.15,0.077-0.236,0.079C227.621,59,225.791,59.163,224.012,59.146"/>
		<path d="M225.449,87.308c-0.445-0.278-0.574-0.676-0.488-1.267c0.168-0.24,0.408-0.414,0.703-0.474
			c0.057-0.011,0.109-0.023,0.17-0.025c1.375-0.06,2.523-0.118,3.908-0.068c0.283,0.01,0.568-0.042,0.916-0.069
			c0.076,0.04,0.211,0.105,0.309,0.151c0.133,0.185,0.146,0.361,0.148,0.545c0.004,0.748,0.004,0.748-0.199,1.137
			c-0.074,0.025-0.154,0.076-0.238,0.078C228.846,87.372,227.229,87.326,225.449,87.308"/>
		<path d="M241.076,86.895c-0.021-0.257-0.041-0.501-0.062-0.701c0.312-0.498,0.678-0.817,1.193-0.877
			c0.35,0.021,0.564,0.193,0.762,0.485c0.141,0.517,0.104,1.023-0.389,1.417C242.064,87.396,241.592,87.339,241.076,86.895"/>
		<path d="M244.547,86.895c-0.021-0.257-0.041-0.501-0.062-0.701c0.312-0.498,0.684-0.817,1.193-0.877
			c0.352,0.021,0.568,0.193,0.762,0.485c0.145,0.517,0.104,1.023-0.389,1.417C245.535,87.396,245.062,87.339,244.547,86.895"/>
		<path d="M183.087,153.938c-0.022-0.258-0.042-0.502-0.062-0.701c0.313-0.498,0.683-0.817,1.194-0.877
			c0.349,0.02,0.567,0.193,0.761,0.484c0.145,0.518,0.104,1.021-0.388,1.418C184.074,154.438,183.601,154.382,183.087,153.938"/>
		<path d="M179.313,153.817c-0.021-0.258-0.041-0.502-0.06-0.701c0.312-0.498,0.68-0.816,1.19-0.877
			c0.353,0.02,0.568,0.191,0.765,0.484c0.142,0.518,0.104,1.021-0.392,1.416C180.301,154.318,179.828,154.261,179.313,153.817"/>
		<path d="M178.851,188.597c-0.021-0.256-0.041-0.5-0.06-0.701c0.312-0.498,0.68-0.813,1.191-0.877
			c0.353,0.021,0.567,0.193,0.764,0.486c0.142,0.516,0.104,1.021-0.391,1.416C179.839,189.099,179.365,189.041,178.851,188.597"/>
		<path d="M186.524,153.938c-0.021-0.258-0.042-0.502-0.059-0.701c0.312-0.498,0.679-0.817,1.193-0.877
			c0.35,0.02,0.564,0.193,0.761,0.484c0.142,0.518,0.104,1.021-0.392,1.418C187.513,154.438,187.038,154.382,186.524,153.938"/>
		<path d="M180.454,58.61c-0.022-0.257-0.041-0.501-0.062-0.701c0.314-0.498,0.684-0.817,1.195-0.877
			c0.349,0.02,0.564,0.193,0.76,0.485c0.146,0.517,0.104,1.023-0.387,1.417C181.442,59.111,180.969,59.054,180.454,58.61"/>
		<path d="M184.143,58.61c-0.021-0.257-0.041-0.501-0.06-0.701c0.312-0.498,0.68-0.817,1.19-0.877
			c0.353,0.02,0.568,0.193,0.765,0.485c0.142,0.517,0.104,1.023-0.392,1.417C185.13,59.111,184.657,59.054,184.143,58.61"/>
		<path d="M231.684,58.61c-0.021-0.257-0.043-0.501-0.061-0.701c0.312-0.498,0.68-0.817,1.191-0.877
			c0.352,0.02,0.568,0.193,0.764,0.485c0.143,0.517,0.104,1.023-0.391,1.417C232.672,59.111,232.198,59.054,231.684,58.61"/>
		<path d="M187.874,58.61c-0.021-0.257-0.041-0.501-0.062-0.701c0.312-0.498,0.683-0.817,1.194-0.877
			c0.349,0.02,0.566,0.193,0.761,0.485c0.145,0.517,0.104,1.023-0.389,1.417C188.862,59.111,188.39,59.054,187.874,58.61"/>
		<path d="M22.439,89.165c-0.455-0.278-0.588-0.676-0.498-1.267c0.171-0.24,0.416-0.414,0.721-0.474
			c0.055-0.01,0.109-0.023,0.172-0.025c1.398-0.06,2.796-0.329,4.204-0.279c0.291,0.01,0.583-0.042,0.934-0.069
			c0.082,0.04,0.215,0.105,0.313,0.151c0.135,0.185,0.147,0.361,0.148,0.545c0.004,0.748,0.004,0.748-0.203,1.136
			c-0.075,0.026-0.158,0.077-0.243,0.079C26.119,89.018,24.253,89.182,22.439,89.165"/>
		<path d="M31.092,88.688c-0.022-0.257-0.041-0.501-0.059-0.701c0.312-0.498,0.679-0.817,1.19-0.877
			c0.353,0.02,0.568,0.193,0.761,0.485c0.145,0.517,0.104,1.023-0.388,1.417C32.08,89.189,31.607,89.133,31.092,88.688"/>
		<path d="M23.451,119.255c-0.443-0.277-0.573-0.676-0.486-1.267c0.167-0.241,0.406-0.414,0.7-0.474
			c0.055-0.016,0.108-0.023,0.169-0.026c1.37-0.06,2.729-0.329,4.104-0.28c0.284,0.012,0.569-0.04,0.912-0.066
			c0.079,0.039,0.21,0.104,0.309,0.15c0.135,0.186,0.146,0.361,0.146,0.547c0.005,0.746,0.005,0.746-0.199,1.137
			c-0.068,0.023-0.149,0.074-0.232,0.078C27.046,119.108,25.224,119.272,23.451,119.255"/>
		<path d="M31.598,118.779c-0.021-0.259-0.041-0.501-0.059-0.701c0.312-0.499,0.679-0.817,1.19-0.878
			c0.353,0.021,0.568,0.191,0.765,0.484c0.141,0.518,0.104,1.021-0.392,1.418C32.586,119.279,32.113,119.224,31.598,118.779"/>
		<path d="M24.807,153.91c-0.446-0.276-0.577-0.675-0.49-1.267c0.169-0.24,0.41-0.414,0.704-0.477
			c0.06-0.013,0.113-0.021,0.171-0.023c1.377-0.062,2.746-0.328,4.13-0.279c0.285,0.011,0.572-0.04,0.917-0.066
			c0.079,0.039,0.215,0.104,0.31,0.15c0.135,0.186,0.146,0.361,0.146,0.546c0.009,0.747,0.009,0.747-0.196,1.138
			c-0.073,0.023-0.155,0.074-0.238,0.077C28.422,153.765,26.589,153.931,24.807,153.91"/>
		<path d="M73.239,156.777c-0.454-0.276-0.591-0.675-0.501-1.267c0.176-0.24,0.423-0.414,0.724-0.476
			c0.057-0.015,0.115-0.021,0.174-0.024c1.41-0.061,2.812-0.328,4.229-0.279c0.294,0.011,0.589-0.041,0.939-0.066
			c0.082,0.04,0.217,0.104,0.315,0.15c0.136,0.186,0.147,0.361,0.149,0.546c0.004,0.747,0.004,0.747-0.204,1.138
			c-0.071,0.023-0.159,0.074-0.245,0.078C76.941,156.634,75.064,156.798,73.239,156.777"/>
		<path d="M81.786,156.546c-0.456-0.277-0.594-0.675-0.5-1.266c0.172-0.241,0.418-0.414,0.721-0.475
			c0.056-0.016,0.114-0.022,0.173-0.025c1.41-0.059,2.813-0.156,4.229-0.107c0.293,0.012,0.586-0.039,0.938-0.066
			c0.082,0.039,0.217,0.104,0.314,0.15c0.138,0.188,0.148,0.36,0.149,0.547c0.005,0.746,0.005,0.746-0.204,1.135
			c-0.07,0.025-0.155,0.076-0.24,0.08C85.489,156.574,83.611,156.563,81.786,156.546"/>
		<path d="M90.212,156.56c-0.457-0.275-0.59-0.674-0.5-1.269c0.172-0.237,0.418-0.414,0.721-0.474
			c0.056-0.016,0.114-0.023,0.173-0.026c1.41-0.06,2.814-0.019,4.23,0.032c0.293,0.01,0.586-0.04,0.938-0.064
			c0.082,0.036,0.221,0.104,0.315,0.148c0.137,0.188,0.151,0.355,0.153,0.545c0.004,0.748,0.004,0.748-0.205,1.141
			c-0.074,0.021-0.159,0.072-0.244,0.075C93.916,156.728,92.037,156.58,90.212,156.56"/>
		<path d="M32.641,222.74c-0.446-0.276-0.577-0.675-0.488-1.267c0.167-0.24,0.408-0.414,0.702-0.477
			c0.06-0.014,0.112-0.021,0.17-0.023c1.375-0.062,2.743-0.328,4.124-0.279c0.286,0.011,0.572-0.04,0.916-0.067
			c0.08,0.04,0.211,0.104,0.31,0.151c0.134,0.186,0.146,0.361,0.146,0.546c0.005,0.747,0.005,0.747-0.199,1.137
			c-0.069,0.024-0.152,0.075-0.235,0.078C36.252,222.597,34.421,222.761,32.641,222.74"/>
		<path d="M32.869,153.435c-0.022-0.258-0.042-0.5-0.062-0.701c0.313-0.498,0.679-0.816,1.194-0.877
			c0.349,0.021,0.564,0.188,0.761,0.484c0.142,0.518,0.104,1.021-0.388,1.418C33.856,153.935,33.383,153.88,32.869,153.435"/>
		<path d="M36.739,153.435c-0.021-0.258-0.042-0.5-0.059-0.701c0.313-0.498,0.679-0.816,1.194-0.877
			c0.349,0.021,0.564,0.188,0.761,0.484c0.141,0.518,0.104,1.021-0.388,1.418C37.727,153.935,37.253,153.88,36.739,153.435"/>
		<path d="M30.152,189.669c-0.021-0.259-0.041-0.502-0.059-0.701c0.312-0.498,0.679-0.813,1.194-0.877
			c0.349,0.021,0.564,0.191,0.761,0.484c0.141,0.518,0.104,1.021-0.388,1.417C31.14,190.169,30.667,190.112,30.152,189.669"/>
		<path d="M24.438,222.265c-0.021-0.258-0.041-0.5-0.059-0.701c0.312-0.495,0.679-0.813,1.194-0.877
			c0.349,0.021,0.564,0.191,0.761,0.484c0.141,0.518,0.104,1.022-0.392,1.418C25.426,222.765,24.953,222.709,24.438,222.265"/>
		<path d="M28.492,222.265c-0.022-0.258-0.041-0.5-0.062-0.701c0.313-0.495,0.679-0.813,1.194-0.877
			c0.349,0.021,0.564,0.191,0.761,0.484c0.141,0.518,0.104,1.022-0.388,1.418C29.48,222.765,29.007,222.709,28.492,222.265"/>
		<path d="M40.273,222.265c-0.021-0.258-0.041-0.5-0.059-0.701c0.312-0.495,0.679-0.813,1.194-0.877
			c0.349,0.021,0.564,0.191,0.761,0.484c0.141,0.518,0.104,1.022-0.39,1.418C41.261,222.765,40.789,222.709,40.273,222.265"/>
		<path d="M36.356,119.214c-0.439-0.277-0.569-0.677-0.481-1.268c0.167-0.24,0.402-0.414,0.695-0.473
			c0.059-0.016,0.111-0.024,0.175-0.027c1.365-0.059,2.729-0.329,4.104-0.278c0.284,0.011,0.569-0.041,0.911-0.067
			c0.08,0.039,0.211,0.104,0.305,0.15c0.134,0.186,0.148,0.36,0.15,0.547c0.004,0.746,0.004,0.746-0.199,1.137
			c-0.074,0.023-0.154,0.074-0.238,0.078C39.953,119.067,38.13,119.231,36.356,119.214"/>
		<path d="M44.414,118.779c-0.022-0.259-0.042-0.501-0.062-0.701c0.313-0.499,0.683-0.817,1.194-0.878
			c0.349,0.021,0.567,0.191,0.761,0.484c0.145,0.518,0.104,1.021-0.388,1.418C45.402,119.279,44.928,119.224,44.414,118.779"/>
		<path d="M35.026,88.688c-0.021-0.257-0.042-0.501-0.059-0.701c0.312-0.498,0.679-0.817,1.194-0.877
			c0.349,0.02,0.564,0.193,0.761,0.485c0.141,0.517,0.104,1.023-0.388,1.417C36.014,89.189,35.54,89.133,35.026,88.688"/>
		<path d="M39.175,88.688c-0.022-0.257-0.042-0.501-0.059-0.701c0.312-0.498,0.679-0.817,1.19-0.877
			c0.353,0.02,0.568,0.193,0.761,0.485c0.145,0.517,0.104,1.023-0.388,1.417C40.163,89.189,39.689,89.133,39.175,88.688"/>
		<path d="M76.647,122.269c-0.021-0.256-0.041-0.5-0.059-0.7c0.312-0.498,0.679-0.816,1.194-0.878
			c0.349,0.021,0.564,0.193,0.761,0.486c0.141,0.516,0.104,1.021-0.392,1.416C77.635,122.771,77.162,122.714,76.647,122.269"/>
		<path d="M80.464,122.269c-0.022-0.256-0.041-0.5-0.062-0.7c0.313-0.498,0.683-0.816,1.194-0.878
			c0.351,0.021,0.568,0.193,0.761,0.486c0.145,0.516,0.104,1.021-0.388,1.416C81.452,122.771,80.979,122.714,80.464,122.269"/>
		<path d="M68.679,156.304c-0.021-0.258-0.041-0.502-0.059-0.701c0.312-0.498,0.679-0.814,1.19-0.877
			c0.353,0.021,0.568,0.192,0.765,0.484c0.141,0.518,0.104,1.021-0.392,1.417C69.667,156.804,69.194,156.746,68.679,156.304"/>
		<path d="M124.588,156.154c-0.022-0.257-0.041-0.501-0.062-0.701c0.313-0.498,0.683-0.817,1.194-0.877
			c0.349,0.021,0.568,0.192,0.761,0.485c0.145,0.517,0.104,1.021-0.388,1.416C125.576,156.655,125.103,156.599,124.588,156.154"/>
		<path d="M143.956,155.905c-0.022-0.258-0.041-0.501-0.062-0.701c0.313-0.498,0.683-0.816,1.194-0.877
			c0.349,0.02,0.566,0.193,0.761,0.484c0.145,0.518,0.104,1.021-0.388,1.418C144.943,156.406,144.47,156.349,143.956,155.905"/>
		<path d="M126.243,189.229c-0.438-0.277-0.563-0.676-0.479-1.27c0.163-0.236,0.399-0.41,0.688-0.475
			c0.054-0.014,0.106-0.021,0.166-0.024c1.346-0.062,2.77-0.153,4.122-0.104c0.275,0.011,0.559-0.043,0.896-0.066
			c0.079,0.038,0.207,0.104,0.301,0.148c0.13,0.187,0.146,0.361,0.147,0.545c0.004,0.748,0.004,0.748-0.196,1.139
			c-0.071,0.023-0.152,0.075-0.229,0.078C129.863,189.257,127.986,189.248,126.243,189.229"/>
		<path d="M134.306,189.104c-0.437-0.277-0.562-0.676-0.478-1.271c0.164-0.237,0.396-0.414,0.688-0.474
			c0.055-0.016,0.11-0.021,0.167-0.025c1.346-0.061,2.688-0.326,4.037-0.277c0.28,0.013,0.559-0.041,0.897-0.066
			c0.073,0.039,0.207,0.104,0.3,0.15c0.13,0.186,0.145,0.357,0.146,0.545c0.005,0.748,0.005,0.748-0.191,1.137
			c-0.071,0.025-0.152,0.076-0.234,0.079C137.841,188.958,136.049,189.122,134.306,189.104"/>
		<path d="M131.748,221.806c-0.438-0.274-0.564-0.676-0.479-1.268c0.164-0.238,0.4-0.413,0.688-0.475
			c0.055-0.01,0.106-0.021,0.167-0.023c1.346-0.061,2.685-0.329,4.037-0.279c0.276,0.01,0.559-0.041,0.896-0.065
			c0.077,0.036,0.207,0.104,0.3,0.147c0.131,0.188,0.146,0.36,0.146,0.545c0.005,0.748,0.005,0.748-0.195,1.14
			c-0.07,0.022-0.148,0.073-0.23,0.075C135.283,221.658,133.491,221.822,131.748,221.806"/>
		<path d="M146.102,188.853c-0.437-0.278-0.562-0.676-0.478-1.271c0.164-0.236,0.396-0.414,0.688-0.475
			c0.058-0.014,0.11-0.022,0.166-0.024c1.351-0.062,2.688-0.188,4.038-0.138c0.28,0.01,0.562,0.062,0.897,0.029
			c0.077,0.041,0.206,0.104,0.299,0.152c0.131,0.186,0.146,0.359,0.146,0.545c0.004,0.748,0.004,0.748-0.191,1.137
			c-0.072,0.024-0.152,0.076-0.234,0.078C149.637,188.948,147.844,188.869,146.102,188.853"/>
		<path d="M141.963,188.505c-0.022-0.258-0.042-0.502-0.062-0.701c0.313-0.498,0.683-0.813,1.194-0.877
			c0.349,0.021,0.568,0.192,0.761,0.484c0.145,0.518,0.104,1.023-0.388,1.417C142.951,189.005,142.477,188.948,141.963,188.505"/>
		<path d="M85.992,188.959c-0.443-0.276-0.573-0.675-0.485-1.267c0.166-0.24,0.405-0.413,0.697-0.473
			c0.055-0.017,0.108-0.023,0.169-0.027c1.362-0.059,2.725-0.155,4.096-0.106c0.284,0.011,0.568-0.04,0.91-0.067
			c0.079,0.039,0.209,0.105,0.305,0.152c0.132,0.184,0.147,0.359,0.147,0.545c0.006,0.748,0.006,0.748-0.197,1.137
			c-0.073,0.024-0.154,0.076-0.236,0.078C89.578,188.987,87.76,188.978,85.992,188.959"/>
		<path d="M73.193,189.132c-0.439-0.277-0.569-0.675-0.481-1.266c0.166-0.241,0.401-0.414,0.693-0.475
			c0.06-0.016,0.112-0.022,0.174-0.025c1.361-0.059,2.724-0.329,4.095-0.28c0.284,0.011,0.563-0.04,0.91-0.067
			c0.08,0.041,0.21,0.105,0.305,0.151c0.132,0.185,0.147,0.361,0.147,0.546c0.006,0.748,0.006,0.748-0.196,1.137
			c-0.074,0.024-0.155,0.076-0.238,0.078C76.78,188.986,74.96,189.149,73.193,189.132"/>
		<path d="M78.514,222.14c-0.437-0.276-0.562-0.679-0.478-1.27c0.163-0.238,0.396-0.414,0.688-0.475
			c0.054-0.016,0.11-0.022,0.167-0.025c1.347-0.061,2.688-0.329,4.039-0.277c0.28,0.012,0.562-0.039,0.897-0.065
			c0.074,0.038,0.207,0.104,0.3,0.149c0.131,0.187,0.145,0.358,0.146,0.547c0.004,0.746,0.004,0.746-0.191,1.138
			c-0.072,0.022-0.153,0.073-0.234,0.077C82.049,221.994,80.256,222.158,78.514,222.14"/>
		<path d="M81.257,188.656c-0.022-0.257-0.041-0.501-0.059-0.7c0.312-0.498,0.679-0.816,1.19-0.878
			c0.353,0.021,0.568,0.192,0.761,0.485c0.145,0.518,0.104,1.021-0.388,1.416C82.245,189.157,81.772,189.101,81.257,188.656"/>
		<path d="M127.593,221.693c-0.022-0.257-0.041-0.501-0.059-0.7c0.312-0.498,0.679-0.816,1.19-0.877
			c0.353,0.02,0.568,0.191,0.761,0.484c0.145,0.518,0.104,1.021-0.388,1.416C128.581,222.194,128.108,222.138,127.593,221.693"/>
		<path d="M139.347,221.39c-0.021-0.258-0.041-0.502-0.059-0.701c0.312-0.498,0.679-0.817,1.19-0.877
			c0.353,0.02,0.568,0.189,0.765,0.481c0.141,0.521,0.104,1.021-0.392,1.417C140.334,221.89,139.862,221.833,139.347,221.39"/>
		<path d="M182.623,222.69c-0.022-0.256-0.041-0.5-0.062-0.7c0.313-0.498,0.684-0.815,1.194-0.877
			c0.349,0.021,0.566,0.192,0.761,0.485c0.146,0.517,0.104,1.021-0.388,1.416C183.61,223.192,183.138,223.136,182.623,222.69"/>
		<path d="M186.109,222.752c-0.021-0.257-0.041-0.501-0.06-0.7c0.312-0.498,0.68-0.814,1.194-0.877
			c0.349,0.021,0.564,0.191,0.761,0.483c0.142,0.519,0.104,1.022-0.388,1.417C187.098,223.253,186.624,223.195,186.109,222.752"/>
		<path d="M74.104,221.664c-0.021-0.257-0.041-0.501-0.059-0.7c0.312-0.498,0.679-0.818,1.19-0.878
			c0.353,0.021,0.568,0.192,0.765,0.484c0.141,0.519,0.104,1.022-0.392,1.417C75.092,222.165,74.62,222.106,74.104,221.664"/>
		<path d="M86.306,221.664c-0.021-0.257-0.041-0.501-0.059-0.7c0.312-0.498,0.679-0.818,1.19-0.878
			c0.353,0.021,0.568,0.192,0.765,0.484c0.141,0.519,0.104,1.022-0.392,1.417C87.294,222.165,86.821,222.106,86.306,221.664"/>
		<path d="M90.319,221.664c-0.021-0.257-0.042-0.501-0.059-0.7c0.313-0.498,0.679-0.818,1.194-0.878
			c0.349,0.021,0.564,0.192,0.761,0.484c0.141,0.519,0.104,1.022-0.388,1.417C91.307,222.165,90.833,222.106,90.319,221.664"/>
		<path fill="#FBB040" d="M35.515,51.154c-0.056,0.458-0.245,0.722-0.588,0.923c-0.528,0.12-1.087,0.248-1.627,0.373
			c-0.502-0.072-0.797-0.366-1.011-0.771c-0.271-0.516-0.476-1.054-0.601-1.626c-0.133-0.611-0.271-1.223-0.622-1.732
			c-1.006-0.252-1.206-0.25-2.354,0.036c-0.271,0.42-0.396,0.925-0.422,1.462c-0.025,0.435-0.021,0.873-0.075,1.303
			c-0.037,0.276-0.168,0.54-0.24,0.758c-0.149,0.077-0.238,0.154-0.325,0.158c-0.336,0.016-0.673-0.002-1.009,0.019
			c-0.283,0.021-0.562,0.08-0.785,0.112c-0.352-0.14-0.56-0.325-0.674-0.767c0.088-1.127,0.536-2.313,0.745-3.549
			c0.215-1.282,0.572-2.542,0.878-3.81c0.293-1.22,0.599-2.436,0.906-3.68c0.126-0.175,0.268-0.369,0.407-0.559
			c0.083-0.328,0.167-0.652,0.236-0.938c0.624-0.358,0.624-0.358,2.333-0.366c0.105,0.104,0.285,0.214,0.367,0.374
			c0.416,0.815,0.852,1.616,1.082,2.522c0.4,1.542,0.882,3.058,1.529,4.524C34.414,47.599,35.012,49.334,35.515,51.154
			 M29.396,45.165c1.146,0.104,1.146,0.104,1.562-0.124c0-0.048,0.006-0.096-0.002-0.144c-0.155-1.198-0.604-2.33-0.805-3.52
			c-0.019-0.109-0.146-0.231-0.362-0.076c-0.184,1.141-0.366,2.329-0.555,3.517c-0.007,0.046,0.015,0.099,0.028,0.143
			C29.283,45,29.313,45.038,29.396,45.165"/>
		<path fill="#FBB040" d="M26.327,72.781c0.187-0.813,0.707-1.223,1.355-1.483c0.913-0.363,1.859-0.496,2.896-0.335
			c0.13,0.056,0.308,0.128,0.479,0.21c1.501,0.698,2.136,2.026,2.514,3.517c0.157,0.624,0.034,1.252-0.266,1.826
			c-0.131,0.253-0.31,0.482-0.481,0.75c0.073,0.114,0.14,0.244,0.232,0.336c0.39,0.361,0.819,0.68,1.174,1.069
			c0.771,0.838,1.104,1.797,0.655,2.922c-0.089,0.222-0.17,0.447-0.252,0.664c-1.19,1.185-2.692,1.673-4.121,2.051
			c-1.224-0.146-2.323-0.278-3.42-0.409c-0.152-0.145-0.288-0.277-0.395-0.377c-0.297-0.675-0.368-1.344-0.409-2.02
			c-0.042-0.673-0.07-1.346-0.119-2.017c-0.05-0.723,0.004-1.438,0.056-2.16c0.099-1.296,0.072-2.601,0.099-3.902
			C26.33,73.181,26.327,72.94,26.327,72.781 M32.57,81.162c0.137-0.287,0.117-0.574-0.031-0.83
			c-0.373-0.626-0.828-1.169-1.551-1.434c-0.521,0-1.049-0.005-1.569,0.005c-0.086,0.002-0.171,0.066-0.258,0.103
			c-0.181,0.125-0.2,0.318-0.208,0.509c-0.027,0.62-0.052,1.24-0.06,1.86c-0.001,0.077,0.091,0.154,0.16,0.263
			c0.302,0.06,0.627,0.125,0.86,0.171c0.667-0.071,1.233-0.128,1.807-0.191C32.065,81.581,32.365,81.455,32.57,81.162
			 M28.562,73.408c-0.144,0.775-0.118,1.634-0.077,2.493c0.011,0.133,0.097,0.262,0.155,0.424c0.979,0.07,1.789-0.171,2.354-1.064
			c0.02-0.521-0.01-1.042-0.142-1.559c-0.409-0.437-0.872-0.751-1.499-0.716C29.059,73.001,28.779,73.054,28.562,73.408"/>
		<path fill="#FBB040" d="M28.777,104.176c0.435-0.285,0.874-0.576,1.323-0.871c0.947-0.183,1.896-0.365,2.857-0.549
			c0.576,0.188,1.263,0.047,1.756,0.66c0.161,0.61,0.157,1.283,0.054,1.949c-0.023,0.173-0.176,0.327-0.239,0.436
			c-0.646,0.316-1.197,0.019-1.792-0.06c-0.444,0.081-0.922,0.166-1.448,0.261c-0.384,0.199-0.809,0.42-1.142,0.594
			c-0.662,0.559-0.628,1.271-0.783,1.914c0.201,0.844,0.081,1.762,0.731,2.551c0.387,0.312,0.838,0.672,1.296,1.037
			c0.609,0.191,1.229,0.232,1.94,0.082c0.217-0.127,0.507-0.295,0.797-0.465c0.35-0.098,0.668-0.074,0.933,0.295
			c0.104,0.627-0.076,1.293-0.041,1.877c-0.192,0.678-0.675,0.918-1.207,1.021c-0.47,0.089-0.958,0.087-1.438,0.103
			s-0.959,0.004-1.703,0.004c-1.337-0.332-2.46-1.354-3.297-2.707c-0.541-0.875-0.715-1.881-0.786-2.9
			c-0.062-0.836,0.092-1.611,0.46-2.379C27.692,105.684,27.662,105.67,28.777,104.176"/>
		<path fill="#FBB040" d="M27.946,136.522c-0.129-0.272-0.214-0.444-0.29-0.619c-0.018-0.042-0.008-0.094-0.012-0.143
			c0.036-0.269,0.201-0.441,0.424-0.555c0.945-0.468,1.954-0.546,2.975-0.359c0.901,0.162,1.799,0.396,2.478,1.099
			c0.103,0.104,0.232,0.174,0.354,0.254c1.007,0.669,1.626,1.634,2.079,2.726c0.13,0.312,0.229,0.635,0.354,0.948
			c0.366,0.91,0.58,1.843,0.394,3.024c-0.047,0.133-0.156,0.449-0.266,0.771c-0.408,1.236-1.166,2.212-2.205,2.979
			c-1.021,0.755-2.178,1.248-3.343,1.724c-0.491,0.198-1.005,0.341-1.51,0.509c-0.519,0.174-1.031,0.23-1.562,0.01
			c-0.071-0.125-0.146-0.246-0.206-0.338c-0.055-0.406,0.274-0.646,0.366-1.273c0-0.525-0.001-1.348,0.001-2.166
			c0.002-0.969-0.004-1.936,0.018-2.898c0.019-0.966-0.04-1.926,0.011-2.892C28.051,138.403,27.971,137.481,27.946,136.522
			 M33.102,140.438c-0.384-1.006-1.099-1.743-2.094-2.221c-0.057-0.027-0.159,0.039-0.261,0.062
			c-0.015,0.133-0.041,0.272-0.029,0.414c0.189,2.046,0.404,4.089,0.576,6.138c0.003,0.042,0.051,0.08,0.078,0.117
			c0.201,0.066,0.372-0.021,0.526-0.12c0.478-0.289,0.717-0.763,0.938-1.211C33.244,141.858,33.244,141.858,33.102,140.438"/>
		<path fill="#FBB040" d="M30.067,175.644c-0.059,0.754-0.039,1.475,0.077,2.188c0.039,0.242,0.133,0.461,0.443,0.637
			c0.305-0.022,0.687-0.053,1.063-0.082c0.239-0.021,0.479-0.068,0.719-0.07c0.372-0.004,0.645,0.171,0.795,0.535
			c0.105,0.369,0.044,0.754-0.013,1.133c-0.02,0.14-0.084,0.275-0.144,0.406c-0.04,0.086-0.101,0.164-0.171,0.229
			c-0.104,0.1-0.224,0.18-0.286,0.229c-0.727,0.321-1.512-0.133-2.16,0.334c-0.163,0.494-0.15,0.949,0.16,1.388
			c1.453,0.247,2.908-0.144,4.325,0.129c0.296,0.104,0.523,0.267,0.606,0.562c0.015,0.062,0.032,0.109,0.023,0.152
			c-0.113,0.516-0.229,1.029-0.344,1.529c-0.124,0.111-0.229,0.205-0.32,0.287c-0.446,0.156-0.885,0.104-1.313,0.108
			c-1.108,0.015-2.218-0.013-3.315,0.183c-0.613,0.103-1.244,0.178-1.956-0.006c-0.146-0.146-0.344-0.345-0.56-0.557
			c-0.115-3.82-0.144-7.631,0.014-11.275c0.168-0.457,0.406-0.604,0.694-0.691c0.744-0.229,1.516-0.286,2.287-0.273
			c0.679,0.01,1.348,0.012,2.018-0.136c0.518-0.116,1.057-0.097,1.584-0.002c0.292,0.05,0.555,0.164,0.75,0.506v1.384
			c-0.083,0.231-0.293,0.342-0.521,0.437c-0.362,0.146-0.748,0.179-1.137,0.192c-0.723,0.025-1.446,0.047-2.168,0.09
			C30.839,175.21,30.447,175.238,30.067,175.644"/>
		<path fill="#FBB040" d="M33.908,208.464c0.143,0.178,0.259,0.324,0.356,0.452c-0.012,0.183,0.011,0.339-0.037,0.468
			c-0.231,0.627-0.376,1.289-0.654,1.928c-0.201,0.062-0.384,0.125-0.564,0.156c-0.57,0.101-1.146,0.168-1.715,0.271
			c-0.125,0.021-0.235,0.134-0.36,0.206c0.147,1.399,0.686,2.739,0.465,4.089c-0.161,0.354-0.394,0.52-0.685,0.594
			c-0.419,0.108-0.842,0.2-1.239,0.292c-0.287-0.007-0.479-0.127-0.663-0.435c-0.018-0.248-0.064-0.582-0.059-0.918
			c0.017-0.727-0.021-1.444-0.204-2.15c-0.048-0.188-0.077-0.38-0.096-0.568c-0.116-1.104-0.011-2.222-0.189-3.32
			c-0.174-1.053-0.18-2.11-0.178-3.176c0-0.426-0.101-0.854-0.163-1.396c0.086-0.213,0.217-0.521,0.341-0.815
			c0.832-0.596,1.739-0.861,2.733-0.854c0.771,0.005,1.541,0,2.318,0c0.243,0.08,0.384,0.265,0.475,0.563
			c-0.031,0.474-0.064,0.996-0.103,1.549c-0.112,0.14-0.23,0.283-0.34,0.412c-0.775,0.244-1.577,0.002-2.259,0.222
			c-0.229,0.16-0.3,0.332-0.312,0.53c-0.032,0.576,0.008,1.148,0.037,1.636c0.078,0.128,0.097,0.187,0.127,0.207
			c0.122,0.071,0.253,0.136,0.387,0.207C32.146,208.593,32.949,208.353,33.908,208.464"/>
		<path fill="#FBB040" d="M79.542,47.199c0.062-0.784,0.122-1.547,0.187-2.314c0.004-0.043,0.042-0.083,0.072-0.141
			c0.477-0.47,1.177-0.324,1.75-0.577c0.524-0.229,1.102-0.329,1.584-0.466c0.354,0.06,0.466,0.284,0.627,0.518
			c0.133,0.663,0.374,1.355,0.296,2.093c-0.019,0.192,0.022,0.4-0.041,0.574c-0.32,0.901-0.161,1.816-0.104,2.797
			c-0.151,0.391-0.325,0.837-0.503,1.296c-0.198,0.142-0.396,0.283-0.601,0.43c-0.712,0.11-1.422,0.256-2.142,0.319
			c-1.353,0.122-2.691,0.118-4.025-0.229c-0.952-0.247-1.785-0.712-2.583-1.186c-0.506-0.545-0.704-1.165-0.844-1.846
			c-0.299-1.438-0.281-2.875-0.188-4.232c0.393-0.986,0.741-1.884,1.079-2.743c1.023-1.213,2.32-1.937,3.833-2.53
			c1.196-0.271,2.365,0.204,3.54,0.669c0.235-0.014,0.475-0.029,0.753-0.048c0.12,0.307,0.24,0.619,0.372,0.963
			c-0.168,0.49-0.336,0.989-0.512,1.505c-0.216,0.126-0.418,0.243-0.548,0.322c-0.621-0.019-0.938-0.455-1.406-0.666
			c-0.948-0.305-1.867-0.02-2.771,0.344c-0.272,0.112-0.483,0.322-0.636,0.578c-0.218,0.379-0.4,0.773-0.448,1.214
			c-0.104,0.911-0.195,1.821-0.302,2.785c0.202,0.595,0.425,1.235,0.619,1.815c0.249,0.343,0.57,0.457,0.896,0.556
			c0.272,0.085,0.567,0.115,0.842,0.21c0.937,0.334,1.797,0.188,2.594-0.334c0.229-0.66,0.229-0.663-0.015-1.257
			C80.467,47.618,79.952,47.843,79.542,47.199"/>
		<path fill="#FBB040" d="M76.131,71.486c0.143,1.46-0.096,2.869,0.219,4.23c0.208,0.067,0.338,0.13,0.478,0.149
			c0.188,0.026,0.388,0.034,0.575,0.021c1.155-0.087,2.312-0.177,3.467-0.277c0.237-0.021,0.478-0.081,0.692-0.328
			c0.184-0.507,0.122-1.084-0.025-1.645c-0.204-0.77-0.079-1.527-0.07-2.232c0.56-0.509,1.09-0.808,1.771-0.732
			c0.449,0.049,0.854,0.179,1.12,0.735c0,0.324,0.004,0.756,0,1.189c-0.009,0.918-0.014,1.833,0.198,2.739
			c0.087,0.374,0.104,0.768,0.106,1.153c0.014,1.547,0.014,3.092,0.014,4.639c0,0.191-0.039,0.382-0.062,0.571
			c-0.576,0.802-1.335,1.084-2.252,0.87c-0.402-0.227-0.561-0.578-0.592-0.975c-0.034-0.433-0.019-0.869-0.021-1.304
			c-0.004-0.575,0.016-1.154-0.12-1.634c-0.188-0.25-0.374-0.288-0.57-0.274c-0.24,0.021-0.477,0.069-0.716,0.097
			c-0.866,0.099-1.733,0.145-2.597-0.031c-0.233-0.047-0.479-0.052-0.717-0.075c-0.131,0.091-0.241,0.173-0.354,0.254
			c-0.292,1.17,0.276,2.308,0.072,3.479c-0.2,0.552-0.639,0.793-1.203,0.876c-0.604,0.087-1.148-0.073-1.688-0.366
			c-0.386-0.299-0.59-0.732-0.732-1.153c0.021-1.102,0.055-2.161,0.066-3.22c0.013-0.726-0.051-1.443-0.127-2.166
			c-0.161-1.538-0.147-3.08,0.277-4.617C74.244,71.004,75.136,70.772,76.131,71.486"/>
		<path fill="#FBB040" d="M76.792,105.973c-0.188-0.117-0.393-0.244-0.596-0.373c-0.34-0.455-0.227-1.028-0.408-1.408
			c0.025-0.213,0.021-0.314,0.058-0.403c0.305-0.823,0.554-1.017,1.355-1.041c0.433-0.009,0.86-0.001,1.386-0.001
			c0.044,0.02,0.178,0.075,0.29,0.121c0.454-0.014,0.889-0.051,1.322-0.039c0.401,0.012,0.752,0.17,1.025,0.613
			c0.055,0.386,0.116,0.861,0.185,1.339c-0.112,0.18-0.213,0.338-0.313,0.499c-0.345,0.089-0.671,0.173-0.986,0.254
			c-0.061,0.086-0.153,0.159-0.166,0.24c-0.075,0.82-0.101,1.64,0.062,2.455c0.193,0.957,0.095,1.93,0.129,2.895
			c0.041,1.162,0.246,2.305,0.35,3.457c0.01,0.087,0.092,0.167,0.165,0.307c0.336,0.041,0.709,0.09,1.075,0.137
			c0.102,0.139,0.18,0.254,0.275,0.388c-0.18,0.7-0.354,1.396-0.525,2.083c-0.115,0.12-0.211,0.225-0.354,0.374
			c-0.42,0.103-0.89,0.215-1.318,0.315c-0.375-0.07-0.708-0.133-1.073-0.203c-0.771,0.181-1.584,0.324-2.452,0.021
			c-0.556-0.63-0.778-1.359-0.522-2.146c0.349-0.44,0.802-0.506,1.187-0.691c0.046-0.083,0.13-0.167,0.13-0.252
			c0.009-1.688,0.014-3.384-0.006-5.077c-0.004-0.432-0.069-0.863-0.126-1.465C77.09,107.682,77.216,106.823,76.792,105.973"/>
		<path fill="#FBB040" d="M79.982,139.974c-0.56-0.146-1.138-0.121-1.716-0.098c-0.289,0.018-0.582,0.032-0.867-0.003
			c-0.177-0.021-0.343-0.142-0.456-0.188c-0.34-0.561-0.054-1.117-0.252-1.564c0.158-0.396,0.484-0.54,0.732-0.755
			c0.822-0.325,1.669-0.458,2.551-0.438c0.575,0.016,1.155-0.037,1.731-0.082c0.523-0.041,1.051-0.113,1.581-0.172
			c0.562,0.209,0.977,0.612,1.385,0.975c0.285,0.812,0.285,0.812,0.057,1.543c-0.514,0.57-1.429,0.277-1.949,0.931
			c0.344,2.313,0.104,4.677,0.144,7.06c-0.415,1.729-1.685,2.592-3.271,3.152c-0.898,0.117-1.813,0.072-2.729,0.016
			c-0.342-0.021-0.667-0.111-0.89-0.449c-0.178-0.352-0.112-0.73-0.01-1.104c0.188-0.646,0.395-1.282,0.591-1.94
			c0.13-0.053,0.257-0.105,0.425-0.176c0.298,0.229,0.595,0.467,0.896,0.705c0.143,0.012,0.283,0.023,0.409,0.034
			c0.499-0.149,0.853-0.476,1.193-0.834c0.443-0.712,0.623-1.519,0.656-2.338c0.06-1.251,0.034-2.506,0.04-3.761
			c0-0.098-0.036-0.188-0.057-0.281C80.114,140.128,80.051,140.056,79.982,139.974"/>
		<path fill="#FBB040" d="M76.386,173.095c0.172-0.354,0.433-0.476,0.714-0.562c0.096-0.006,0.203-0.052,0.284-0.017
			c0.547,0.223,1.166,0.021,1.698,0.301c0.08,0.039,0.133,0.135,0.236,0.246c0.074,1.146-0.023,2.365,0.414,3.51
			c0.221,0.072,0.393-0.021,0.539-0.131c0.857-0.625,1.725-1.246,2.562-1.896c0.914-0.711,1.828-1.419,2.744-2.018
			c0.313-0.051,0.553-0.047,0.839,0.314c0.106,0.279,0.279,0.729,0.462,1.193c-0.105,0.174-0.17,0.373-0.311,0.491
			c-0.648,0.569-1.338,1.104-1.983,1.681c-0.725,0.641-1.418,1.307-2.116,1.969c-0.056,0.053-0.052,0.17-0.077,0.256
			c0.062,0.072,0.107,0.179,0.188,0.215c0.901,0.475,1.649,1.164,2.456,1.775c0.961,0.729,1.888,1.5,2.896,2.311
			c0.179,0.246,0.147,0.554-0.138,0.826c-0.139,0.137-0.285,0.262-0.479,0.436c-0.555,0.109-1.102,0.488-1.839,0.354
			c-0.635-0.233-1.146-0.767-1.675-1.25c-0.923-0.856-1.963-1.562-2.973-2.305c-0.152-0.109-0.333-0.189-0.515-0.264
			c-0.068-0.027-0.168,0.006-0.304,0.021c-0.073,0.842,0.4,1.568,0.494,2.323c0.013,0.429-0.188,0.688-0.47,0.896
			c-0.475,0.354-1.023,0.533-1.598,0.693c-0.098,0.209-0.195,0.418-0.308,0.648c-0.131,0.018-0.266,0.031-0.429,0.054
			c-0.167-0.411-0.329-0.808-0.471-1.151c0.109-1.412,0.152-2.758-0.179-4.09c-0.052-1.258-0.366-2.479-0.408-3.74
			c-0.025-0.863-0.179-1.728-0.267-2.592C76.369,173.406,76.386,173.214,76.386,173.095"/>
		<path fill="#FBB040" d="M79.047,207.009c0,0.189,0.008,0.436-0.002,0.674c-0.091,2.08-0.071,2.215,0.199,4.312
			c0.097,0.766,0.1,1.541,0.147,2.312c0.018,0.244,0.071,0.476,0.356,0.674c0.979,0.134,2.041,0.152,3.103,0.103
			c0.39-0.021,0.772-0.062,1.157-0.062c0.245,0.002,0.471,0.096,0.603,0.341c0.021,0.084,0.062,0.177,0.062,0.271
			c-0.008,0.435-0.027,0.861-0.045,1.354c-0.139,0.139-0.303,0.305-0.485,0.485c-0.257,0-0.497,0.018-0.731-0.004
			c-1.542-0.139-3.093-0.026-4.637-0.02c-0.385,0.005-0.773,0.021-1.153-0.021c-0.276-0.037-0.54-0.178-0.829-0.273
			c-0.062-0.202-0.138-0.383-0.158-0.562c-0.138-1.054-0.229-2.104-0.434-3.149c-0.159-0.806-0.176-1.642-0.014-2.452
			c0.232-1.159,0.133-2.296-0.104-3.436c-0.008-0.045,0.009-0.099,0.017-0.174c0.061-0.104,0.128-0.226,0.188-0.322
			c0.639-0.483,1.406-0.383,2.051-0.601C78.688,206.509,78.925,206.646,79.047,207.009"/>
		<path fill="#FBB040" d="M136.972,38.884c0.338,0.117,0.449,0.401,0.631,0.621c0.152,0.184,0.33,0.345,0.452,0.471
			c0.089,0.55,0.161,1.026,0.243,1.5c0.204,1.192,0.457,2.375,0.426,3.592c0.229,0.99,0.182,2.017,0.413,3.009
			c0.185,0.8,0.164,1.625,0.124,2.316c-0.174,0.368-0.399,0.455-0.639,0.542c-0.244,0.074-0.45-0.108-0.688-0.137
			c-0.239-0.028-0.479-0.027-0.72-0.038c-0.248-0.015-0.479-0.066-0.666-0.32c-0.021-0.096-0.079-0.236-0.074-0.374
			c0.02-0.434,0.022-0.862-0.077-1.295c-0.142-0.619-0.106-1.237,0.021-1.868c0.203-1.004,0.098-2.02-0.021-3.027
			c-0.021-0.177-0.128-0.345-0.188-0.503c-0.104,0.016-0.165,0.01-0.195,0.037c-0.482,0.471-0.968,0.94-1.435,1.426
			c-0.668,0.695-1.316,1.411-1.982,2.107c-0.197,0.208-0.431,0.382-0.589,0.521c-0.315,0.117-0.547,0.13-0.778-0.011
			c-0.063-0.057-0.158-0.106-0.209-0.183c-0.162-0.242-0.305-0.493-0.458-0.738c-0.128-0.206-0.228-0.441-0.396-0.603
			c-0.705-0.67-1.236-1.482-1.859-2.22c-0.146-0.178-0.306-0.38-0.635-0.296c-0.114,0.659-0.091,1.336,0.077,1.993
			c0.107,0.426,0.184,0.854,0.176,1.288c-0.015,0.925,0.133,1.828,0.311,2.729c0.036,0.187,0.062,0.378,0.08,0.499
			c-0.047,0.334-0.189,0.532-0.427,0.626c-0.729,0.294-1.477,0.411-2.163,0.15c-0.315-0.263-0.394-0.545-0.396-0.839
			c-0.024-1.303-0.039-2.608-0.052-3.914c-0.003-0.676,0.054-1.354,0.021-2.028c-0.058-1.359,0.155-2.689,0.311-4.017
			c0.513-0.564,1.225-0.611,1.846-0.849c0.156-0.063,0.372,0.008,0.596,0.023c0.112,0.164,0.232,0.311,0.322,0.475
			c0.364,0.688,0.823,1.302,1.401,1.83c0.611,0.557,1.087,1.232,1.58,1.889c0.146,0.189,0.294,0.372,0.449,0.564
			c0.488-0.233,0.824-0.579,1.157-0.928c0.599-0.629,1.199-1.261,1.783-1.905c0.259-0.286,0.491-0.593,0.716-0.909
			c0.307-0.446,0.7-0.798,1.139-1.102C136.708,38.913,136.868,38.911,136.972,38.884"/>
		<path fill="#FBB040" d="M137.67,81.561c-0.442,0.391-0.914,0.204-1.32,0.126c-0.627-0.385-1.2-0.739-1.997-1.229
			c-0.204-0.179-0.512-0.607-0.829-1.037c-0.717-0.97-1.51-1.872-2.468-2.618c-0.387-0.3-0.641-0.716-0.947-1.09
			c-0.233-0.288-0.438-0.635-0.85-0.727c-0.062,0.074-0.162,0.14-0.163,0.21c-0.05,1.544-0.039,3.087,0.24,4.618
			c0.064,0.377,0.073,0.767,0.085,1.153c0.004,0.187-0.046,0.377-0.062,0.463c-0.17,0.334-0.396,0.419-0.67,0.526h-1.979
			c-0.146-0.139-0.28-0.269-0.385-0.368c-0.169-1.881-0.255-3.708-0.169-5.539c0.022-0.579,0.027-1.151,0.143-1.728
			c0.094-0.469,0.052-0.962,0.082-1.444c0.053-0.92,0.433-1.718,1.135-2.412c1.455-0.28,1.579-0.274,2.521,0.146
			c0.354,0.342,0.507,0.812,0.714,1.246c0.312,0.656,0.658,1.287,1.197,1.796c0.209,0.197,0.38,0.436,0.559,0.667
			c0.834,1.068,1.809,1.998,2.834,2.871c0.087-0.058,0.217-0.101,0.219-0.152c0.117-1.878,0.257-3.755-0.019-5.633
			c-0.06-0.375-0.009-0.766-0.009-1.111c0.128-0.339,0.351-0.507,0.658-0.546c0.387-0.048,0.771-0.083,1.247,0.087
			c0.267,0.274,0.597,0.618,0.908,0.949c0.037,0.174,0.091,0.313,0.091,0.454c-0.006,1.208-0.021,2.415-0.028,3.622
			c-0.004,0.339,0.043,0.688-0.026,1.012c-0.298,1.428-0.198,2.886-0.326,4.327C138.015,80.684,137.959,81.16,137.67,81.561"/>
		<path fill="#FBB040" d="M132.71,102.541c0.96,0.19,1.905,0.372,2.846,0.572c0.282,0.06,0.551,0.175,0.829,0.265
			c1.158,0.805,1.869,1.924,2.308,3.238c0.076,0.23,0.126,0.469,0.213,0.691c0.479,1.215,0.488,2.442,0.138,3.688
			c-0.056,0.187-0.101,0.372-0.143,0.538c-0.504,0.979-1.144,1.807-2.038,2.43c-1.337,0.934-2.819,1.221-4.4,0.963
			c-0.516-0.082-0.993-0.355-1.489-0.541c-1.687-0.631-2.593-1.929-3.04-3.603c-0.277-1.033-0.354-2.089-0.239-3.235
			c0.049-0.152,0.126-0.38,0.188-0.611c0.339-1.254,1.119-2.229,1.995-3.137c0.548-0.572,1.188-0.974,1.992-1.093
			C132.105,102.672,132.339,102.616,132.71,102.541 M133.47,113.096c1.206-0.217,1.813-0.998,2.262-1.955
			c0.104-0.219,0.188-0.445,0.271-0.672c0.574-1.576,0.572-3.115-0.289-4.608c-0.33-0.218-0.651-0.429-0.988-0.649
			c-0.58,0.133-1.153,0.135-1.688,0.006c-0.318,0.107-0.595,0.199-0.814,0.275c-0.135,0.212-0.235,0.368-0.333,0.521
			c-0.146-0.037-0.281-0.07-0.456-0.117c-0.674,0.77-1.096,1.674-1.283,2.709c0.056,0.707,0.106,1.429,0.158,2.121
			c0.434,0.951,1.151,1.58,1.937,2.109c0.361,0.09,0.69,0.172,1.021,0.249C133.312,113.094,133.362,113.09,133.47,113.096"/>
		<path fill="#FBB040" d="M133.722,146.536c-0.093,0.174-0.178,0.256-0.176,0.337c0.014,0.726-0.056,1.468,0.091,2.166
			c0.193,0.913,0.111,1.826,0.229,2.619c-0.096,0.438-0.33,0.601-0.609,0.708c-0.558,0.219-1.119,0.283-1.651,0.006
			c-0.515-0.508-0.508-1.158-0.621-1.77c-0.018-0.09,0.041-0.194,0.027-0.287c-0.104-0.717,0.052-1.434-0.073-2.161
			c-0.107-0.658-0.049-1.349-0.062-2.024c-0.018-0.728-0.032-1.449-0.039-2.176c-0.008-0.773-0.036-1.544-0.245-2.221
			c0.176-1,0.722-1.67,1.474-2.151c1.002-0.646,2.097-1.008,3.513-0.657c0.342,0.149,0.871,0.383,1.367,0.604
			c0.801,0.729,1.147,1.708,1.666,2.481c0.215,0.709,0.118,1.32-0.118,1.918c-0.242,0.596-0.615,1.086-1.174,1.438
			c-0.698,0.443-1.434,0.803-2.256,0.954C134.637,146.397,134.208,146.459,133.722,146.536 M136.337,142.714
			c-0.127-0.5-0.312-0.798-0.627-0.937c-0.483-0.207-0.98-0.39-1.486-0.513c-0.332-0.082-0.667,0.021-0.906,0.428
			c-0.139,0.494-0.082,1.068-0.009,1.639c0.024,0.18,0.094,0.355,0.146,0.537c0.771,0.254,1.455-0.079,2.147-0.158
			c0.087-0.013,0.168-0.087,0.325-0.174C136.044,143.304,136.19,143.011,136.337,142.714"/>
		<path fill="#FBB040" d="M126.181,179.568c0.357-1.103,0.721-2.153,1.037-3.216c0.356-1.192,1.193-1.953,2.216-2.562
			c0.122-0.072,0.254-0.146,0.396-0.18c0.714-0.186,1.299-0.617,1.921-1.012c1.442-0.188,2.882-0.111,4.296,0.244
			c2.195,1.5,3.578,4.545,3.174,7.521c-0.322,0.713-0.659,1.459-0.994,2.202c0.125,0.345,0.235,0.658,0.361,1.011
			c-0.067,0.157-0.143,0.331-0.197,0.466c-1.122,0.723-1.122,0.723-1.938,0.688c-0.29-0.24-0.617-0.518-0.965-0.803
			c-0.34,0.121-0.668,0.201-0.965,0.354c-0.747,0.367-1.547,0.554-2.351,0.701c-1.585,0.296-2.94-0.119-4.075-1.311
			c-0.826-0.865-1.331-1.886-1.675-3.004C126.323,180.347,126.276,180.009,126.181,179.568 M132.653,175.235
			c-0.779,0.264-1.424,0.585-1.973,1.076c-0.644,0.578-1.021,1.281-1.029,2.156c-0.006,0.674-0.021,1.351,0.066,2.021
			c0.319,0.608,0.646,1.194,1.381,1.536c0.89,0.091,1.844,0.138,2.758-0.061c0.085-0.131,0.14-0.203,0.201-0.303
			c-0.218-0.355-0.438-0.729-0.654-1.082c0.073-0.174,0.134-0.302,0.198-0.464c0.247-0.11,0.501-0.252,0.772-0.351
			c0.312-0.111,0.642-0.201,0.969-0.275c0.276-0.062,0.582,0.041,0.828-0.168c0.045-0.085,0.119-0.163,0.128-0.249
			c0.048-0.396-0.054-0.759-0.22-1.121c-0.245-0.538-0.612-0.993-1.021-1.396C134.406,175.912,133.687,175.33,132.653,175.235"/>
		<path fill="#FBB040" d="M129.23,217.673c-0.145-0.104-0.26-0.188-0.353-0.257c-0.028-0.073-0.062-0.116-0.062-0.163
			c-0.114-1.343-0.354-2.676-0.485-4.015c-0.111-1.103-0.124-2.216-0.147-3.326c-0.014-0.771-0.108-1.541-0.009-2.313
			c0.022-0.188-0.008-0.388-0.037-0.576c-0.07-0.479-0.148-0.949-0.229-1.426c-0.069-0.427-0.146-0.852-0.228-1.287
			c0.059-0.123,0.121-0.252,0.179-0.373c0.527-0.406,1.141-0.557,1.768-0.61c0.862-0.076,1.729-0.062,2.584,0.142
			c0.278,0.064,0.559,0.147,0.841,0.213c1.438,0.312,2.383,1.209,2.937,2.535c0.166,0.396,0.271,0.819,0.373,1.152
			c-0.122,0.759-0.229,1.424-0.348,2.161c-0.142,0.323-0.313,0.719-0.476,1.086c0.125,0.544,0.437,0.899,0.777,1.247
			c0.479,0.477,0.94,0.972,1.438,1.432c0.459,0.432,0.95,0.818,1.421,1.225c0.144,0.225,0.171,0.449-0.001,0.806
			c-0.27,0.241-0.621,0.562-0.996,0.901c-0.479,0.043-0.95,0.084-1.462,0.131c-0.716-0.641-1.437-1.277-2.151-1.918
			c-0.468-0.42-0.925-0.85-1.403-1.252c-0.289-0.244-0.573-0.523-0.992-0.539c-0.146,0.646-0.146,0.646,0.396,2.854
			c-0.159,0.697-0.693,1.096-1.327,1.377C130.577,217.165,129.895,217.408,129.23,217.673 M133.112,209.093
			c0.022-0.24,0.065-0.522,0.069-0.812c0.004-0.238-0.021-0.478-0.058-0.713c-0.12-0.83-1.087-1.753-1.838-1.802
			c-0.246-0.021-0.479,0.014-0.639,0.271c-0.006,0.12-0.048,0.272-0.012,0.403c0.285,1.062,0.471,2.146,0.619,3.236
			c0.032,0.23,0.139,0.455,0.4,0.644C132.354,210.231,132.782,209.765,133.112,209.093"/>
		<path fill="#FBB040" d="M184.941,54.447c-1.419-0.148-2.552-0.647-3.56-1.532c-0.33-0.533-0.718-1.089-0.888-1.811
			c0.242-0.617,0.592-1.177,1.148-1.522c0.301-0.108,0.521-0.04,0.782,0.168c0.07,0.213,0.166,0.482,0.269,0.783
			c0.011,0.012,0.027,0.069,0.065,0.089c0.743,0.366,1.109,1.208,1.909,1.553c0.729-0.099,1.422-0.252,1.868-1.049
			c0.103-0.542,0.081-1.165-0.016-1.875c-0.176-0.309-0.389-0.685-0.582-1.023c-0.42-0.258-0.797-0.474-1.156-0.715
			c-0.729-0.488-1.365-1.069-1.855-1.807c-0.263-0.402-0.56-0.782-0.963-1.342c-0.052-0.169-0.168-0.533-0.282-0.896
			c0.073-0.253,0.129-0.487,0.206-0.711c0.459-1.31,1.271-2.377,2.306-3.277c0.487-0.423,1.06-0.683,1.654-0.569
			c0.654,0.258,1.234,0.487,1.979,0.782c0.592,0.414,1.088,1.105,1.375,1.882c0.02,0.45-0.19,0.707-0.479,0.91
			c-0.434,0.311-0.925,0.513-1.464,0.708c-0.151-0.082-0.315-0.171-0.499-0.272c-0.079-0.49-0.154-0.959-0.229-1.403
			c-0.305-0.403-0.682-0.357-1.112-0.25c-0.479,0.27-0.836,0.728-1.236,1.183c-0.034,0.172-0.095,0.359-0.101,0.547
			c-0.005,0.238,0.038,0.475,0.062,0.744c0.284,0.262,0.551,0.541,0.854,0.778c0.798,0.626,1.593,1.255,2.418,1.841
			c0.523,0.374,0.938,0.825,1.271,1.369c0.15,0.248,0.288,0.504,0.438,0.75c0.604,0.985,0.604,1.998,0.217,3.06
			c-0.189,0.507-0.448,0.959-0.765,1.387C186.758,54.563,186.639,54.245,184.941,54.447"/>
		<path fill="#FBB040" d="M187.005,82.25c-0.074,0.161-0.133,0.291-0.195,0.423c-0.562,0.436-1.244,0.475-1.91,0.6
			c-0.369-0.354-0.713-0.685-1.081-1.04c0.019-0.424,0.054-0.852,0.039-1.279c-0.01-0.383-0.062-0.766-0.104-1.149
			c-0.041-0.381-0.062-0.77-0.146-1.143c-0.098-0.434-0.137-0.867-0.052-1.294c0.314-1.595,0.132-3.166-0.172-4.785
			c-0.165-0.068-0.333-0.18-0.508-0.199c-0.39-0.041-0.772-0.03-1.157-0.044c-0.385-0.012-0.768-0.028-1.183-0.044
			c-0.177-0.154-0.351-0.309-0.479-0.423c-0.154-0.649,0.037-1.127,0.447-1.514c0.312-0.297,0.639-0.599,1.195-0.648
			c1.101,0.454,2.324,0.585,3.601,0.525c1.154-0.055,2.316-0.013,3.508-0.013c0.435,0.123,0.896,0.245,1.284,0.634
			c0.029,0.585-0.126,1.113-0.556,1.574c-0.912,0.343-1.9,0.202-2.871,0.428c-0.05,0.099-0.165,0.219-0.17,0.345
			c-0.109,2.363-0.19,4.727,0.147,7.08C186.745,80.95,186.887,81.608,187.005,82.25"/>
		<path fill="#FBB040" d="M188.894,114.911c-1.005,0.288-1.907,0.404-2.834,0.373c-1.816-0.061-3.229-1.002-3.974-2.65
			c-0.34-0.757-0.549-1.541-0.66-2.361c-0.162-1.2-0.232-2.402-0.197-3.613c0.021-0.578,0.025-1.158,0.029-1.74
			c0.002-0.438,0.071-0.861,0.192-1.283c0.159-0.563,0.517-0.912,1.086-1.045c0.094-0.023,0.188-0.027,0.354-0.047
			c0.312,0.078,0.686,0.176,0.992,0.254c0.272,0.162,0.46,0.35,0.472,0.594c0.026,0.48,0.046,0.971-0.022,1.44
			c-0.119,0.774-0.089,1.528,0.022,2.306c0.146,0.951,0.198,1.92,0.248,2.885c0.021,0.377-0.075,0.763-0.107,1.066
			c0.089,0.426,0.273,0.7,0.539,0.93c0.59,0.521,1.285,0.834,1.992,1.045c0.444-0.09,0.742-0.326,1.082-0.68
			c0.086-0.334,0.196-0.752,0.271-1.018c0-0.256,0.015-0.355-0.004-0.448c-0.163-0.812-0.228-1.625-0.189-2.448
			c0.021-0.484,0.034-0.97,0.011-1.451c-0.024-0.576-0.062-1.158-0.156-1.728c-0.112-0.626-0.1-1.245-0.1-1.76
			c0.139-0.425,0.396-0.546,0.666-0.661c0.462-0.195,0.929-0.248,1.36-0.033c0.077,0.113,0.158,0.188,0.179,0.274
			c0.19,0.799,0.377,1.597,0.548,2.397c0.062,0.282,0.099,0.574,0.104,0.861c0.037,1.207,0.064,2.414,0.084,3.621
			c0.011,0.773,0.014,1.544-0.223,2.297c-0.088,0.271-0.072,0.573-0.103,0.812C190.251,113.967,189.702,114.547,188.894,114.911"/>
		<path fill="#FBB040" d="M186.634,145.472c0.514-1.434,0.913-2.672,1.292-3.916c0.325-1.062,0.637-2.129,1.087-3.146
			c0.232-0.532,0.402-1.089,0.604-1.633c0.134-0.362,0.271-0.726,0.558-1.011c0.94-0.393,1.803,0.084,2.666,0.166
			c0.109,0.179,0.184,0.295,0.247,0.396c-0.012,0.074-0.008,0.129-0.027,0.168c-0.949,1.861-1.58,3.838-2.146,5.84
			c-0.146,0.51-0.396,0.987-0.569,1.488c-0.458,1.32-0.963,2.629-1.301,3.992c-0.047,0.186-0.121,0.365-0.188,0.548
			c-0.067,0.202-0.111,0.244-0.617,0.589c-0.812,0.025-1.632,0.059-2.449,0.078c-0.677,0.018-1.206-0.247-1.635-0.784
			c-0.362-0.462-0.671-0.96-0.866-1.501c-0.335-0.91-0.836-1.74-1.209-2.633c-0.407-0.98-0.884-1.936-1.319-2.905
			c-0.117-0.264-0.248-0.53-0.306-0.81c-0.202-0.959-0.592-1.844-0.993-2.723c-0.186-0.396-0.357-0.789-0.439-1.271
			c0.092-0.131,0.199-0.281,0.304-0.428c0.442-0.125,0.854-0.271,1.28-0.344c0.377-0.065,0.777-0.086,1.045,0.26
			c0.148,0.261-0.024,0.492-0.002,0.729c0.025,0.094,0.027,0.202,0.078,0.275c0.542,0.744,0.912,1.595,1.389,2.378
			c0.148,0.249,0.26,0.524,0.432,0.758c1.126,1.528,1.888,3.258,2.731,4.938C186.334,145.095,186.43,145.194,186.634,145.472"/>
		<path fill="#FBB040" d="M190.309,181.193c0.116-0.587,0.177-0.966,0.271-1.337c0.374-1.549,0.767-3.094,1.136-4.646
			c0.211-0.893,0.383-1.796,0.579-2.688c0.094-0.424,0.145-0.867,0.524-1.158c0.938-0.18,0.938-0.18,2.329,0.064
			c0.088,0.123,0.192,0.271,0.281,0.399c-0.05,0.539-0.246,0.979-0.396,1.438c-0.354,1.055-0.719,2.104-0.906,3.205
			c-0.125,0.717-0.339,1.412-0.583,2.092c-0.199,0.552-0.345,1.104-0.416,1.688c-0.046,0.383-0.121,0.768-0.236,1.133
			c-0.29,0.92-0.622,1.827-0.772,2.789c-0.049,0.285-0.194,0.547-0.545,0.754c-0.486,0.049-1.062,0.104-1.521,0.147
			c-0.372-0.097-0.53-0.282-0.637-0.502c-0.578-1.175-1.396-2.207-2.022-3.349c-0.441-0.805-1.039-1.5-1.558-2.193
			c-0.298,0.011-0.416,0.167-0.501,0.333c-0.654,1.294-1.371,2.558-1.886,3.919c-0.142,0.359-0.303,0.713-0.477,1.061
			c-0.085,0.166-0.226,0.305-0.344,0.461c-0.578,0.153-1.13,0.321-1.771,0.088c-0.227-0.252-0.487-0.529-0.73-0.828
			c-0.121-0.146-0.259-0.315-0.291-0.496c-0.154-0.811-0.617-1.512-0.777-2.326c-0.166-0.854-0.469-1.676-0.707-2.514
			c-0.171-0.604-0.329-1.209-0.461-1.821c-0.172-0.804-0.458-1.577-0.706-2.361c-0.246-0.78-0.469-1.569-0.514-2.397
			c0.178-0.475,0.171-0.479,0.589-0.823c0.688-0.188,1.4-0.076,2.111,0.062c0.128,0.023,0.23,0.151,0.391,0.262
			c0.023,0.223,0.08,0.457,0.067,0.688c-0.032,0.64,0.078,1.247,0.229,1.86c0.301,1.22,0.567,2.447,0.85,3.672
			c0.053,0.234,0.087,0.477,0.15,0.708c0.277,0.95,0.563,1.899,0.873,2.94c0.215-0.541,0.367-0.998,0.575-1.432
			c0.188-0.393,0.458-0.738,0.659-1.128c0.47-0.896,0.919-1.812,1.394-2.75c0.673-0.354,1.408-0.498,2.187-0.56
			c0.145,0.232,0.26,0.387,0.337,0.556c0.162,0.353,0.303,0.711,0.453,1.065C188.144,178.704,189.004,179.964,190.309,181.193
			 M190.893,183.474l0.029,0.099l0.029-0.097L190.893,183.474z"/>
		<path fill="#FBB040" d="M182.639,203.492c0.354,1.249,0.354,1.249,1.618,3.276c0.239,0.221,0.532,0.475,0.806,0.744
			c0.234,0.232,0.38,0.562,0.781,0.695c1.231-1.336,2.128-2.943,3.171-4.339c0.319-0.222,0.587-0.31,0.895-0.274
			c0.383,0.043,0.77,0.055,1.146,0.111c0.258,0.041,0.419,0.227,0.479,0.562c-0.042,0.115-0.088,0.308-0.181,0.47
			c-0.417,0.763-0.832,1.526-1.282,2.271c-0.304,0.491-0.662,0.946-1.004,1.416c-0.364,0.508-0.752,1.006-1.102,1.523
			c-0.131,0.191-0.188,0.436-0.288,0.677c0.094,0.185,0.146,0.388,0.271,0.513c0.479,0.479,0.907,0.994,1.318,1.535
			c0.292,0.381,0.642,0.723,0.977,1.071c0.299,0.312,0.641,0.591,0.914,0.923c0.334,0.41,0.618,0.861,0.919,1.282
			c0.194,0.748-0.118,1.241-0.738,1.563c-0.383,0.197-0.792,0.344-1.104,0.476c-0.427-0.021-0.646-0.216-0.817-0.449
			c-1.064-1.44-2.385-2.649-3.596-3.959c-0.026-0.026-0.089-0.024-0.133-0.036c-0.862,0.782-1.396,1.49-1.793,2.393
			c-0.153,0.354-0.307,0.711-0.477,1.06c-0.172,0.351-0.395,0.669-0.76,0.886c-0.513,0.191-1.021,0.105-1.52-0.121
			c-0.354-0.285-0.577-0.647-0.746-1.146c0.065-0.167,0.104-0.421,0.243-0.599c0.609-0.765,1.027-1.631,1.481-2.481
			c0.432-0.812,0.916-1.589,1.361-2.354c0.049-0.297-0.104-0.488-0.253-0.682c-0.799-1.038-1.448-2.158-2.002-3.354
			c-0.359-0.783-0.77-1.56-1.161-2.33c-0.091-0.178-0.149-0.352-0.082-0.559c0.253-0.334,0.688-0.312,1.021-0.482
			c0.342-0.18,0.7-0.32,1.082-0.494C182.263,203.345,182.436,203.412,182.639,203.492"/>
		<path fill="#FBB040" d="M236.594,45.733c-0.068,1.316-0.17,2.566,0.098,3.817c0.07,0.326,0.062,0.673,0.07,1.01
			c0.021,0.822,0.059,1.643,0.252,2.448c0.043,0.182,0.006,0.383,0.006,0.601c-0.135,0.454-0.438,0.821-0.77,1.191
			c-0.205,0.032-0.396,0.093-0.58,0.088c-0.969-0.033-1.461-0.456-1.521-1.387c-0.066-1.061-0.088-2.125-0.104-3.187
			c-0.012-1.064,0.006-2.128,0.018-3.192c0.004-0.487-0.062-0.961-0.215-1.426c-0.168-0.518-0.461-0.951-0.84-1.337
			c-0.574-0.585-1.219-1.091-1.771-1.709c-0.535-0.604-1.23-1.076-1.9-1.643c-0.064-0.228-0.123-0.515-0.232-0.775
			c-0.11-0.263-0.271-0.501-0.396-0.709c0.02-0.479,0.316-0.636,0.666-0.69c0.475-0.073,0.955-0.096,1.359-0.135
			c0.373,0.097,0.574,0.315,0.73,0.558c0.502,0.78,1.158,1.418,1.82,2.055c0.559,0.535,1.062,1.122,1.604,1.674
			c0.092,0.092,0.242,0.125,0.357,0.182c0.781-0.72,1.791-1.876,2.197-2.508c0.154-0.245,0.303-0.497,0.479-0.726
			c0.381-0.495,0.777-0.979,1.18-1.484c0.6-0.057,1.16,0.137,1.67,0.069c0.188,0.135,0.314,0.209,0.414,0.307
			c0.064,0.062,0.092,0.166,0.136,0.251c-0.017,0.093,0,0.207-0.05,0.279c-0.322,0.48-0.645,0.964-1,1.418
			c-0.715,0.914-1.457,1.804-2.18,2.712C237.555,44.168,237.078,44.898,236.594,45.733"/>
		<path fill="#FBB040" d="M229.578,80.76c-0.043-0.157-0.064-0.237-0.102-0.365c0.113-0.225,0.229-0.49,0.371-0.744
			c0.246-0.433,0.502-0.863,0.762-1.291c0.107-0.178,0.215-0.363,0.354-0.514c1.27-1.381,2.385-2.89,3.555-4.353
			c0.521-0.648,1.123-1.228,1.686-1.848c0.068-0.081,0.09-0.211,0.148-0.357c-0.521-0.124-1.01-0.164-1.506-0.169
			c-1.168-0.013-2.332-0.035-3.5-0.057c-0.291-0.006-0.586,0.014-0.875-0.192c-0.312-0.446-0.271-0.993-0.312-1.442
			c0.143-0.464,0.438-0.599,0.795-0.615c0.746-0.033,1.498-0.063,2.248-0.056c1,0.005,2.002,0.026,2.998,0.081
			c0.791,0.043,1.57,0.147,2.518,0.238c0.088,0.034,0.324,0.112,0.549,0.219c0.188,0.088,0.354,0.211,0.492,0.297
			c0.027,0.136,0.066,0.22,0.053,0.293c-0.059,0.328-0.137,0.651-0.205,0.973c-0.27,0.538-0.717,0.926-1.09,1.37
			c-0.781,0.921-1.588,1.819-2.346,2.759c-0.443,0.547-0.818,1.152-1.219,1.737c-0.398,0.583-0.791,1.169-1.199,1.773
			c0.041,0.098,0.09,0.207,0.146,0.35c0.277,0.056,0.562,0.141,0.85,0.163c0.623,0.043,1.232,0.13,1.852,0.256
			c1.021,0.21,2.047,0.368,3.072,0.55c0.254,0.042,0.486,0.12,0.709,0.433c0.096,0.418,0.328,0.926-0.014,1.45
			c-0.455,0.383-0.947,0.496-1.521,0.327c-0.354-0.107-0.729-0.207-1.1-0.207c-0.881,0.001-1.74-0.175-2.613-0.226
			c-0.123-0.007-0.252-0.005-0.373-0.028c-1.029-0.188-2.066-0.233-3.111-0.208C231.033,81.373,230.408,81.162,229.578,80.76"/>
		<path fill="#FBB040" d="M292.143,139.763c-0.893-0.019-1.492,0.606-1.541,1.612c-0.033,0.604,0.627,1.25,1.289,1.269
			c0.635,0.019,1.395-0.933,1.441-1.81C293.365,140.246,292.844,139.776,292.143,139.763 M290.625,145.97
			c-0.061,0.418-0.172,0.905-0.188,1.396c-0.014,0.962,0.809,1.553,1.721,1.283c1.137-0.342,1.684-1.619,1.17-2.721
			C292.449,145.673,291.578,145.341,290.625,145.97 M295.699,141.009c0.129,1.023-0.064,1.846-0.824,2.463
			c-0.24,0.192-0.215,0.375-0.047,0.606c0.312,0.429,0.641,0.856,0.895,1.321c0.387,0.707,0.529,1.464,0.252,2.261
			c-0.078,0.224-0.127,0.457-0.176,0.688c-0.199,0.992-0.938,1.558-1.693,2.095c-0.162,0.114-0.398,0.141-0.607,0.157
			c-0.729,0.062-1.457,0.108-2.188,0.143c-1.34,0.057-2.217-0.727-2.934-1.714c-0.316-0.433-0.533-0.947-0.734-1.449
			c-0.393-0.985,0.004-2.034,0.713-2.659c0.125-0.107,0.268-0.199,0.375-0.318c0.32-0.346,0.275-0.467-0.109-0.752
			c-0.236-0.17-0.471-0.397-0.602-0.653c-0.818-1.593-0.42-3.688,1.191-4.49c0.479-0.241,0.926-0.563,1.416-0.792
			c1.039-0.477,2.09-0.203,3.119,0.053c0.631,0.154,0.959,0.738,1.344,1.194C295.549,139.703,295.912,140.326,295.699,141.009"/>
		<path fill="#FBB040" d="M290.275,81.197c-0.02,0.185,0.16,0.675,0.16,0.815c0,0.696,0.553,0.565,1.275,0.656
			c0.604,0.076,1.129-0.57,1.271-1.13c0.191-0.745,0.021-1.104-0.678-1.402c-0.205-0.089-0.412-0.179-0.623-0.253
			c-0.559-0.197-0.811-0.047-1.227,0.499C290.453,80.547,290.252,81.074,290.275,81.197 M292.225,77.375
			c1.455,0.485,2.656,1.155,3.205,2.515c0.338,0.836,0.348,1.77,0.068,2.679c-0.506,1.636-1.504,2.352-3.168,2.688
			c-0.783,0.159-1.643,0.224-2.365-0.06c-0.875-0.341-1.537-0.993-2.154-1.668c-0.52-0.57-0.584-1.308-0.559-2.059
			c0.047-1.535,0.719-2.869,1.377-4.193c0.447-0.899,1.021-1.737,1.559-2.589c0.322-0.513,0.641-1.037,1.027-1.494
			c0.301-0.354,0.697-0.641,1.092-0.897c0.146-0.093,0.412-0.043,0.607,0.008c0.271,0.067,0.504-0.031,0.771,0.056
			c0.127,0.039,0.334,0.077,0.414,0.016c0.361-0.274,0.566,0.285,0.855,0.425C294.117,74.625,292.926,75.574,292.225,77.375"/>
		<path fill="#FBB040" d="M291.014,40.515v2.529c0.289-0.043,0.471-0.068,0.654-0.1c0.844-0.15,1.551,0.144,2.26,0.59
			c0.738,0.463,1.229,1.136,1.635,1.838c0.518,0.888,0.498,1.897,0.213,2.886c-0.354,1.239-1.322,1.91-2.35,2.528
			c-0.26,0.158-0.537,0.329-0.826,0.393c-1.455,0.32-2.764,0.038-3.846-1.041c-0.246-0.248-0.479-0.517-0.717-0.771
			c-0.428-0.447-0.355-0.956-0.162-1.459c0.148-0.397,0.77-0.754,1.236-0.67c0.354,0.062,0.771-0.118,1.062,0.235
			c0.145,0.176,0.32,0.338,0.428,0.536c0.342,0.65,1.201,0.834,1.717,0.296c0.469-0.484,0.779-1.066,0.654-1.788
			c-0.16-0.909-1.09-1.458-1.979-1.192c-0.537,0.159-0.988,0.386-1.104,0.963c-0.424,0.138-0.795,0.262-1.205,0.046
			c-0.623-0.325-0.916-0.974-0.764-1.656c0.143-0.637,0.277-1.283,0.328-1.932c0.09-1.135,0.105-2.273,0.152-3.411
			c0.033-0.801,0.238-0.977,1.027-1.015c1.58-0.073,3.162-0.168,4.74-0.271c0.842-0.055,1.15,0.191,1.25,1.033
			c0.029,0.28,0.1,0.557,0.129,0.838c0.049,0.527-0.252,0.9-0.779,0.851c-0.957-0.089-1.926,0.033-2.875-0.199
			C291.629,40.508,291.34,40.534,291.014,40.515"/>
		<path fill="#FBB040" d="M293.158,173.634c-0.008-0.006-0.67-0.459-0.74-0.486c-0.916-0.358-2.48,0.031-2.477,1.375
			c0.003,0.771,0.594,1.269,1.262,1.623c0.303,0.162,1.079,0.048,1.391-0.432c0.162-0.242,0.373-0.841,0.465-1.125
			C293.154,174.287,293.043,174.073,293.158,173.634 M291.236,178.729c-0.252-0.137-0.902-0.519-1.102-0.574
			c-0.627-0.193-1.088-0.648-1.631-0.963c-0.719-0.415-0.961-1.047-1.188-1.747c-0.182-0.568-0.109-1.136,0.033-1.679
			c0.443-1.64,1.521-2.688,3.129-3.188c0.27-0.083,0.562-0.114,0.843-0.116c0.481-0.002,0.972,0.034,1.452,0.062
			c0.189,0.011,0.408-0.016,0.559,0.072c0.938,0.564,1.98,1.027,2.416,2.166c0.062,0.174,0.111,0.359,0.123,0.547
			c0.068,1.968-0.365,3.787-1.496,5.435c-0.511,0.739-0.883,1.567-1.369,2.324c-0.438,0.672-0.902,1.331-1.426,1.937
			c-0.355,0.408-0.812,0.741-1.447,0.52c-0.238-0.084-0.518-0.059-0.773-0.094c-0.859-0.117-1.131-0.688-0.686-1.438
			c0.412-0.688,1.137-1.273,1.635-1.91C290.648,179.657,290.98,179.249,291.236,178.729"/>
		<path fill="#FBB040" d="M290.225,104.174c1.24,0,2.479,0.004,3.719-0.002c0.508-0.002,1.328-0.175,1.637,0.252
			c0.189,0.271-0.156,0.812-0.221,1.193c-0.283,1.796-1.129,3.37-1.84,4.998c-0.764,1.753-1.617,3.471-2.107,5.331
			c-0.107,0.408-0.312,0.758-0.654,0.977c-0.199,0.125-0.531,0.25-0.693,0.166c-0.359-0.193-0.719-0.178-1.092-0.184
			c-0.844-0.014-1.092-0.43-0.752-1.189c0.453-1.01,0.865-2.04,1.312-3.051c0.481-1.093,0.985-2.178,1.481-3.266
			c0.254-0.559,0.521-1.112,0.771-1.672c0.059-0.129,0.09-0.272,0.107-0.412c0.062-0.381-0.086-0.602-0.459-0.652
			c-0.229-0.033-0.473-0.023-0.709-0.006c-0.682,0.053-1.354,0.126-2.037,0.182c-0.604,0.049-0.982-0.378-0.873-0.97
			c0.062-0.321,0.125-0.647,0.229-0.958c0.047-0.145,0.166-0.296,0.297-0.379C288.916,104.159,289.426,104.053,290.225,104.174"/>
		<path fill="#FBB040" d="M235.904,107.485c-0.576,0.234-1.027,0.42-1.48,0.597c-0.52,0.2-0.84,0.033-1.027-0.478
			c-0.209-0.562-0.191-1.146,0.031-1.659c0.139-0.315,0.498-0.591,0.82-0.759c0.914-0.471,1.855-0.875,2.791-1.307
			c0.107-0.053,0.219-0.113,0.322-0.175c0.955-0.522,1.523-0.062,1.684,0.875c0.209,1.265,0.15,2.541,0.047,3.823
			c-0.098,1.197-0.062,2.406-0.062,3.611c0,1.281,0.021,2.562,0.043,3.842c0.008,0.412-0.064,0.798-0.396,1.066
			c-0.113,0.09-0.312,0.141-0.453,0.112c-0.402-0.079-0.793-0.218-1.189-0.313c-0.738-0.176-0.984-0.438-1-1.226
			c-0.008-0.501,0.092-1.003,0.107-1.505c0.031-0.801,0.062-1.602,0.047-2.402c-0.012-1.054-0.055-2.107-0.104-3.16
			C236.061,108.145,235.973,107.862,235.904,107.485"/>
		<path fill="#FBB040" d="M342.654,115.18c0.025-0.082,0.449-1.062,0.518-1.264c0.156-0.472,0.314-0.939,0.477-1.41
			c0.166-0.506,0.676-0.959,1.121-0.976c0.295-0.011,0.502,0.11,0.73,0.34c0.543,0.556,0.633,1.077,0.188,1.741
			c-0.244,0.365-0.73,1.59-0.91,2.002c-0.203,0.47-0.604,0.732-1.066,0.705C343.246,116.29,342.664,115.731,342.654,115.18"/>
		<path fill="#FBB040" d="M342.35,81.228c0.004,0.029-0.021-0.107-0.033-0.244c-0.1-0.957,0.805-1.669,1.719-1.347
			c0.277,0.1,0.648,0.189,0.791,0.405c0.24,0.386,0.398,0.855,0.479,1.309c0.08,0.442-0.225,0.776-0.623,0.922
			c-0.393,0.145-0.822,0.251-1.238,0.27C342.684,82.577,342.334,82.175,342.35,81.228"/>
		<path fill="#FBB040" d="M343.014,37.205c0.646,0.027,1.203,0.044,1.76,0.074c0.586,0.033,1.02,0.377,1.422,0.749
			c0.473,0.433,0.875,0.9,1.115,1.527c0.48,1.258,0.133,2.28-0.688,3.261c-0.396,0.467-0.848,0.795-1.354,1.113
			c-0.426,0.265-0.938,0.539-0.91,1.238c0.02,0.401-0.688,0.748-1.186,0.705c-0.279-0.024-0.566-0.049-0.838-0.006
			c-0.486,0.077-0.828-0.086-0.877-0.546c-0.084-0.823-0.062-1.634,0.652-2.231c0.387-0.321,0.793-0.616,1.139-0.975
			c0.342-0.354,0.922-0.423,1.229-0.811c0.158-0.198,0.145-1.015,0-1.113c-0.303-0.212-0.543-0.445-0.893-0.513
			c-0.568-0.112-1.218,0.335-1.306,0.922c-0.112,0.792-0.466,0.981-1.222,0.697c-0.217-0.081-0.465-0.097-0.697-0.104
			c-0.605-0.021-0.852-0.396-0.65-0.99c0.162-0.488,0.229-0.986,0.514-1.459C340.898,37.633,341.916,37.293,343.014,37.205"/>
		<path fill="#FBB040" d="M341.867,49.203c0-1.476,0.771-1.565,1.377-1.632c0.74-0.08,1.316,0.48,1.223,1.204
			c-0.078,0.587,0.072,1.237-0.41,1.548C343.289,50.819,341.885,50.107,341.867,49.203"/>
		<path fill="#FBB040" d="M240.438,147.568c0.867,0.261,1.629,0.188,2.393,0.142c0.531-0.031,0.83,0.16,0.814,0.667
			c-0.008,0.382-0.074,0.802-0.252,1.128c-0.285,0.526-0.828,0.65-1.391,0.521c-0.562-0.133-1.104-0.148-1.664-0.02
			c-0.455,0.105-0.908,0.021-1.373-0.021c-0.771-0.062-1.553,0.066-2.332,0.111c-0.359,0.021-0.742,0.117-1.074,0.033
			c-0.631-0.158-0.83-0.996-0.322-1.389c0.395-0.309,0.607-0.7,0.855-1.092c0.527-0.821,1.062-1.645,1.572-2.479
			c0.512-0.838,0.986-1.691,1.494-2.535c0.188-0.312,0.377-0.643,0.617-0.916c0.354-0.396,0.441-0.865,0.449-1.354
			c0.006-0.381-0.092-0.748-0.562-0.833c-0.023-0.005-0.045-0.021-0.064-0.035c-0.379-0.224-0.77-0.562-1.215-0.229
			c-0.459,0.345-0.611,0.893-0.609,1.438c0.002,0.666-0.229,0.935-0.854,0.74c-0.406-0.128-0.783-0.249-1.213-0.122
			c-0.127,0.036-0.289-0.044-0.432-0.08c-0.531-0.137-0.697-0.414-0.475-0.916c0.23-0.514,0.572-0.979,0.781-1.497
			c0.258-0.632,0.762-1.019,1.256-1.401c0.258-0.199,0.606-0.287,0.93-0.394c1.054-0.34,2.098-0.754,3.234-0.448
			c0.703,0.188,1.319,0.521,1.805,1.068c0.229,0.257,0.465,0.514,0.646,0.8c0.424,0.677,0.455,1.418,0.291,2.183
			c-0.127,0.594-0.229,1.189-0.382,1.773c-0.065,0.25-0.233,0.479-0.372,0.701c-0.4,0.646-0.828,1.275-1.207,1.938
			C241.332,145.854,240.914,146.677,240.438,147.568"/>
		<path fill="#FBB040" d="M238.883,171.903c-0.922-0.152-1.666-0.284-2.412-0.396c-0.719-0.109-0.854-0.25-0.854-0.959
			c0-0.021-0.006-0.05,0-0.074c0.016-0.277-0.066-0.644,0.074-0.821c0.195-0.248,0.551-0.442,0.863-0.515
			c0.473-0.101,0.982-0.16,1.453-0.082c1.223,0.199,2.434,0.326,3.68,0.205c0.549-0.054,1.127,0.084,1.684,0.189
			c0.506,0.096,0.639,0.576,0.33,1.007c-0.525,0.735-1.102,1.417-1.818,1.985c-0.354,0.275-0.576,0.718-0.877,1.109
			c0.145,0.154,0.236,0.266,0.334,0.362c0.662,0.683,1.449,1.274,1.949,2.06c0.475,0.734,0.432,0.887,0.709,1.735
			c0.053,0.161,0.15,1.155,0.111,1.351c-0.068,0.354-0.123,0.718-0.207,1.066c-0.133,0.569-0.473,1.021-0.889,1.408
			c-0.387,0.363-0.979,0.6-1.344,0.979c-0.627,0.285-1.99,0.625-3.049,0.33c-1.146-0.314-1.562-0.313-2.396-1.16
			c-0.438-0.445-0.854-0.938-0.885-1.642c-0.01-0.237-0.133-0.47-0.172-0.709c-0.121-0.719,0.352-1.308,1.065-1.351
			c0.75-0.047,1.394,0.214,1.761,0.861c0.262,0.467,0.719,0.771,1.111,0.873c0.666,0.176,1.766-0.533,1.738-1.242
			c-0.006-0.15-0.203-1.01-0.312-1.108c-0.445-0.399-0.852-0.606-1.49-0.433c-0.188,0.053-0.668,0.215-0.861,0.217
			c-0.244,0.003-0.451,0.125-0.576-0.157c-0.012-0.021-0.998-0.798-0.916-1.354c0.094-0.601,0.432-1.186,0.75-1.719
			C237.846,173.261,238.344,172.652,238.883,171.903"/>
		<path fill="#FBB040" d="M236.453,212.877c0.711,0.044,1.375,0.083,2.064,0.126c0.107-1.762,0.207-3.406,0.312-5.054
			c-0.096-0.019-0.188-0.034-0.283-0.054C237.861,209.532,237.174,211.168,236.453,212.877 M241.328,215.632
			c-0.023,2.09-0.113,2.307-0.957,2.364c-1.188,0.081-1.436-0.245-1.766-2.394c-1.188-0.078-2.393-0.17-3.6-0.229
			c-1.191-0.062-1.439-0.255-1.348-1.455c0.053-0.702,0.236-1.423,0.502-2.079c0.727-1.824,1.551-3.607,2.282-5.426
			c0.776-1.928,1.479-2.43,3.567-2.414c0.84,0.006,1.359,0.393,1.367,1.229c0.021,2.078-0.049,4.158-0.068,6.236
			c-0.006,0.666-0.354,1.489,0.807,1.652c0.178,0.023,0.424,0.6,0.387,0.885c-0.062,0.477-0.293,0.944-0.529,1.374
			C241.895,215.521,241.582,215.538,241.328,215.632"/>
		<path fill="#FBB040" d="M294.521,209.491c-0.023-0.003-0.055-0.006-0.082-0.01c0-0.129,0.014-0.258-0.004-0.385
			c-0.09-0.971-0.127-1.944-0.295-2.897c-0.139-0.798-0.836-0.853-1.461-0.731c-0.34,0.064-0.873,0.332-0.91,0.572
			c-0.316,2.045-0.766,4.09-0.504,6.184c0.082,0.651,0.887,1.334,1.576,1.351c0.686,0.015,1.242-0.435,1.354-1.188
			C294.342,211.425,294.418,210.455,294.521,209.491 M288.658,210.056c0.109-1.621,0.184-2.942,0.312-4.264
			c0.033-0.335,0.189-0.729,0.424-0.959c0.574-0.574,1.15-1.234,1.863-1.566c1.516-0.705,4.652-0.164,5.156,2.238
			c0.27,1.287,0.297,2.633,0.354,3.954c0.043,0.918-0.104,1.847-0.051,2.765c0.094,1.555-0.695,2.688-2.365,3.358
			c-1.655,0.667-3.17,0.572-4.5-0.647c-0.354-0.32-0.666-0.818-0.75-1.28C288.877,212.37,288.777,211.063,288.658,210.056"/>
	</g>
</g>
</svg>
