<?xml version="1.0" encoding="utf-8"?>
<!-- Generator: Adobe Illustrator 16.0.0, SVG Export Plug-In . SVG Version: 6.00 Build 0)  -->
<!DOCTYPE svg PUBLIC "-//W3C//DTD SVG 1.1//EN" "http://www.w3.org/Graphics/SVG/1.1/DTD/svg11.dtd">
<svg version="1.1" id="Layer_1" xmlns="http://www.w3.org/2000/svg" xmlns:xlink="http://www.w3.org/1999/xlink" x="0px" y="0px"
	 width="50px" height="50px" viewBox="0 0 50 50" enable-background="new 0 0 50 50" xml:space="preserve">
<rect x="-947" y="-18" fill="#FFFFFF" width="2776" height="88"/>
<path fill="#010101" d="M17.888,39.178c-0.709-0.449-0.916-1.092-0.775-2.047c0.265-0.387,0.647-0.668,1.114-0.764
	c0.089-0.016,0.179-0.037,0.271-0.039c2.184-0.098,4.358-0.533,6.55-0.455c0.454,0.02,0.907-0.066,1.456-0.109
	c0.125,0.064,0.336,0.17,0.486,0.246c0.211,0.297,0.235,0.582,0.237,0.879c0.006,1.207,0.006,1.207-0.317,1.834
	c-0.116,0.041-0.247,0.123-0.379,0.127C23.625,38.939,20.717,39.203,17.888,39.178"/>
<path fill="#010101" d="M30.464,38.408c-0.036-0.414-0.066-0.807-0.096-1.133c0.505-0.803,1.097-1.316,1.928-1.414
	c0.563,0.033,0.917,0.311,1.228,0.783c0.228,0.834,0.168,1.65-0.626,2.287C32.061,39.219,31.297,39.125,30.464,38.408"/>
<path fill="#FBB041" d="M33.696,29.953c-0.713,0.629-1.476,0.328-2.131,0.201c-1.012-0.621-1.937-1.191-3.224-1.982
	c-0.329-0.289-0.827-0.98-1.338-1.676c-1.157-1.564-2.438-3.019-3.983-4.224c-0.625-0.485-1.035-1.156-1.529-1.76
	c-0.382-0.466-0.713-1.025-1.372-1.174c-0.1,0.119-0.261,0.226-0.263,0.34c-0.081,2.492-0.063,4.982,0.387,7.453
	c0.109,0.609,0.118,1.238,0.137,1.863c0.006,0.301-0.074,0.607-0.094,0.746c-0.274,0.541-0.64,0.676-1.082,0.85h-3.198
	c-0.232-0.225-0.452-0.436-0.621-0.596c-0.272-3.035-0.41-5.985-0.272-8.939c0.042-0.936,0.049-1.859,0.23-2.79
	c0.152-0.757,0.084-1.553,0.132-2.331c0.086-1.485,0.699-2.773,1.833-3.893c2.349-0.453,2.549-0.442,4.068,0.235
	c0.575,0.552,0.818,1.31,1.152,2.01c0.507,1.06,1.062,2.077,1.933,2.9c0.337,0.318,0.613,0.703,0.901,1.077
	c1.347,1.723,2.92,3.225,4.575,4.634c0.141-0.093,0.351-0.162,0.354-0.245c0.189-3.031,0.415-6.062-0.031-9.093
	c-0.091-0.605-0.014-1.237-0.014-1.794c0.207-0.547,0.566-0.818,1.068-0.881c0.619-0.078,1.24-0.135,2.013,0.14
	c0.425,0.443,0.958,0.998,1.466,1.532c0.06,0.281,0.146,0.506,0.146,0.733c-0.009,1.95-0.034,3.898-0.051,5.847
	c-0.005,0.547,0.069,1.111-0.043,1.633c-0.48,2.307-0.319,4.658-0.525,6.986C34.253,28.537,34.162,29.305,33.696,29.953"/>
</svg>
