<?xml version="1.0" encoding="utf-8"?>
<!-- Generator: Adobe Illustrator 16.0.0, SVG Export Plug-In . SVG Version: 6.00 Build 0)  -->
<!DOCTYPE svg PUBLIC "-//W3C//DTD SVG 1.1//EN" "http://www.w3.org/Graphics/SVG/1.1/DTD/svg11.dtd">
<svg version="1.1" id="Layer_1" xmlns="http://www.w3.org/2000/svg" xmlns:xlink="http://www.w3.org/1999/xlink" x="0px" y="0px"
	 width="50px" height="50px" viewBox="0 0 50 50" enable-background="new 0 0 50 50" xml:space="preserve">
<rect x="-1017" y="-18" fill="#FFFFFF" width="2776" height="88"/>
<path fill="#010101" d="M7.571,39.717c-0.725-0.447-0.938-1.091-0.794-2.046c0.273-0.388,0.666-0.668,1.143-0.765
	c0.09-0.021,0.183-0.036,0.276-0.039c2.237-0.098,4.461-0.533,6.71-0.454c0.463,0.021,0.929-0.066,1.488-0.107
	c0.129,0.063,0.343,0.167,0.497,0.243c0.218,0.299,0.24,0.583,0.242,0.879c0.01,1.208,0.01,1.208-0.321,1.836
	c-0.122,0.04-0.254,0.122-0.39,0.127C13.447,39.48,10.467,39.745,7.571,39.717"/>
<path fill="#010101" d="M20.465,39.717c-0.725-0.447-0.937-1.091-0.794-2.046c0.273-0.388,0.666-0.668,1.143-0.765
	c0.09-0.021,0.182-0.036,0.276-0.039c2.238-0.098,4.462-0.533,6.709-0.454c0.464,0.021,0.929-0.066,1.49-0.107
	c0.131,0.063,0.342,0.167,0.497,0.243c0.219,0.299,0.242,0.583,0.244,0.879c0.009,1.208,0.009,1.208-0.323,1.836
	c-0.119,0.04-0.253,0.122-0.388,0.127C26.339,39.48,23.361,39.745,20.465,39.717"/>
<path fill="#010101" d="M33.698,38.97c-0.725-0.449-0.936-1.091-0.794-2.046c0.272-0.388,0.665-0.668,1.143-0.766
	c0.09-0.02,0.183-0.035,0.276-0.04c2.237-0.098,4.461-0.531,6.708-0.452c0.465,0.019,0.93-0.066,1.489-0.109
	c0.131,0.063,0.345,0.169,0.498,0.245c0.218,0.298,0.242,0.581,0.245,0.879c0.007,1.208,0.007,1.208-0.324,1.834
	c-0.12,0.042-0.254,0.124-0.39,0.128C39.573,38.733,36.594,38.998,33.698,38.97"/>
<path fill="#FBB041" d="M22.504,10.281c1.549,0.308,3.075,0.602,4.594,0.924c0.455,0.097,0.889,0.282,1.337,0.428
	c1.87,1.299,3.017,3.105,3.726,5.227c0.123,0.373,0.203,0.757,0.343,1.116c0.773,1.962,0.788,3.944,0.217,5.956
	c-0.084,0.299-0.157,0.601-0.225,0.868c-0.813,1.581-1.847,2.915-3.29,3.921c-2.158,1.507-4.557,1.971-7.109,1.554
	c-0.827-0.132-1.603-0.573-2.403-0.873c-2.723-1.019-4.186-3.111-4.907-5.813c-0.447-1.668-0.573-3.372-0.386-5.225
	c0.076-0.245,0.204-0.611,0.304-0.986c0.547-2.024,1.807-3.598,3.221-5.063c0.884-0.924,1.924-1.569,3.215-1.763
	C21.527,10.494,21.905,10.403,22.504,10.281 M23.731,27.32c1.946-0.35,2.927-1.61,3.651-3.155c0.163-0.354,0.303-0.721,0.438-1.085
	c0.927-2.544,0.924-5.028-0.467-7.44c-0.533-0.35-1.05-0.69-1.594-1.048c-0.937,0.213-1.862,0.216-2.725,0.008
	c-0.513,0.175-0.955,0.323-1.314,0.446c-0.218,0.342-0.38,0.594-0.538,0.84c-0.237-0.06-0.454-0.113-0.736-0.189
	c-1.088,1.242-1.77,2.702-2.071,4.373c0.084,1.142,0.171,2.307,0.255,3.424c0.694,1.535,1.858,2.551,3.121,3.406
	c0.588,0.144,1.12,0.276,1.651,0.402C23.476,27.317,23.556,27.312,23.731,27.32"/>
</svg>
