<?xml version="1.0" encoding="utf-8"?>
<!-- Generator: Adobe Illustrator 16.0.0, SVG Export Plug-In . SVG Version: 6.00 Build 0)  -->
<!DOCTYPE svg PUBLIC "-//W3C//DTD SVG 1.1//EN" "http://www.w3.org/Graphics/SVG/1.1/DTD/svg11.dtd">
<svg version="1.1" id="Layer_1" xmlns="http://www.w3.org/2000/svg" xmlns:xlink="http://www.w3.org/1999/xlink" x="0px" y="0px"
	 width="50px" height="50px" viewBox="0 0 50 50" enable-background="new 0 0 50 50" xml:space="preserve">
<rect x="-1087" y="-18" fill="#FFFFFF" width="2776" height="88"/>
<path fill="#010101" d="M13.949,39.399c-0.72-0.448-0.929-1.091-0.789-2.045c0.271-0.388,0.66-0.668,1.135-0.765
	c0.09-0.021,0.182-0.038,0.274-0.041c2.22-0.098,4.426-0.531,6.656-0.452c0.461,0.021,0.923-0.066,1.479-0.108
	c0.128,0.065,0.342,0.168,0.495,0.242c0.215,0.3,0.239,0.583,0.24,0.88c0.009,1.207,0.009,1.207-0.321,1.835
	c-0.118,0.041-0.25,0.123-0.386,0.129C19.777,39.163,16.823,39.428,13.949,39.399"/>
<path fill="#010101" d="M27.132,38.718c-0.718-0.447-0.929-1.091-0.788-2.046c0.271-0.386,0.658-0.667,1.133-0.766
	c0.091-0.016,0.183-0.035,0.277-0.04c2.219-0.096,4.271-0.272,6.5-0.192c0.462,0.018,0.921-0.065,1.477-0.11
	c0.129,0.063,0.34,0.169,0.496,0.245c0.214,0.299,0.239,0.58,0.241,0.879c0.008,1.208,0.008,1.208-0.322,1.834
	c-0.119,0.042-0.25,0.124-0.384,0.127C32.804,38.74,30.007,38.743,27.132,38.718"/>
<path fill="#010101" d="M7.828,38.632c-0.035-0.415-0.066-0.809-0.095-1.132c0.505-0.805,1.096-1.319,1.928-1.416
	c0.563,0.033,0.917,0.311,1.228,0.783c0.228,0.834,0.168,1.649-0.626,2.286C9.423,39.44,8.659,39.349,7.828,38.632"/>
<path fill="#010101" d="M39.092,38.229c-0.036-0.416-0.066-0.809-0.095-1.132c0.505-0.804,1.096-1.317,1.927-1.415
	c0.563,0.031,0.917,0.312,1.229,0.781c0.228,0.836,0.167,1.65-0.626,2.289C40.685,39.038,39.921,38.945,39.092,38.229"/>
<path fill="#FBB041" d="M22.572,23.106c-0.15,0.28-0.288,0.412-0.285,0.543c0.023,1.172-0.09,2.369,0.147,3.497
	c0.312,1.474,0.179,2.947,0.37,4.228c-0.149,0.708-0.533,0.97-0.983,1.143c-0.9,0.354-1.806,0.457-2.665,0.01
	c-0.832-0.82-0.82-1.871-1.002-2.856c-0.029-0.146,0.066-0.313,0.044-0.464c-0.171-1.156,0.083-2.313-0.118-3.488
	c-0.179-1.062-0.079-2.177-0.102-3.27c-0.023-1.173-0.051-2.338-0.063-3.51c-0.013-1.249-0.059-2.492-0.396-3.584
	c0.285-1.613,1.166-2.696,2.38-3.474c1.617-1.042,3.379-1.627,5.665-1.062c0.552,0.241,1.407,0.618,2.212,0.975
	c1.287,1.18,1.852,2.757,2.689,4.007c0.341,1.145,0.19,2.135-0.196,3.097c-0.391,0.961-0.993,1.752-1.89,2.321
	c-1.132,0.718-2.314,1.296-3.641,1.54C24.049,22.882,23.356,22.981,22.572,23.106 M26.793,16.937
	c-0.205-0.809-0.502-1.288-1.012-1.512c-0.779-0.335-1.582-0.629-2.398-0.828c-0.536-0.133-1.077,0.038-1.463,0.69
	c-0.224,0.798-0.132,1.725-0.014,2.646c0.039,0.29,0.151,0.573,0.233,0.867c1.248,0.409,2.349-0.128,3.472-0.256
	c0.14-0.021,0.271-0.141,0.525-0.28C26.32,17.888,26.556,17.415,26.793,16.937"/>
</svg>
