<?xml version="1.0" encoding="utf-8"?>
<!-- Generator: Adobe Illustrator 16.0.0, SVG Export Plug-In . SVG Version: 6.00 Build 0)  -->
<!DOCTYPE svg PUBLIC "-//W3C//DTD SVG 1.1//EN" "http://www.w3.org/Graphics/SVG/1.1/DTD/svg11.dtd">
<svg version="1.1" id="Layer_1" xmlns="http://www.w3.org/2000/svg" xmlns:xlink="http://www.w3.org/1999/xlink" x="0px" y="0px"
	 width="50px" height="50px" viewBox="0 0 50 50" enable-background="new 0 0 50 50" xml:space="preserve">
<rect x="-1157" y="-18" fill="#FFFFFF" width="2776" height="88"/>
<path fill="#010101" d="M4.73,39.49c-0.704-0.448-0.909-1.091-0.77-2.045c0.263-0.386,0.644-0.667,1.111-0.766
	c0.086-0.018,0.177-0.036,0.268-0.04c2.172-0.098,4.472-0.252,6.654-0.17c0.45,0.016,0.901-0.069,1.446-0.109
	c0.127,0.062,0.334,0.169,0.485,0.242c0.209,0.299,0.234,0.583,0.237,0.879c0.006,1.209,0.006,1.209-0.316,1.837
	c-0.115,0.039-0.246,0.121-0.376,0.126C10.573,39.534,7.544,39.52,4.73,39.49"/>
<path fill="#010101" d="M17.746,39.288c-0.706-0.447-0.911-1.091-0.772-2.046c0.265-0.388,0.646-0.669,1.111-0.765
	c0.088-0.021,0.177-0.036,0.27-0.041c2.172-0.096,4.334-0.531,6.517-0.452c0.452,0.021,0.901-0.066,1.448-0.107
	c0.124,0.063,0.334,0.167,0.484,0.243c0.21,0.299,0.234,0.581,0.236,0.879c0.008,1.208,0.008,1.208-0.314,1.835
	c-0.115,0.041-0.246,0.123-0.378,0.128C23.452,39.052,20.559,39.316,17.746,39.288"/>
<path fill="#010101" d="M36.787,38.882c-0.706-0.449-0.91-1.091-0.771-2.048c0.265-0.387,0.646-0.669,1.11-0.765
	c0.087-0.02,0.177-0.038,0.268-0.041c2.175-0.096,4.334-0.303,6.519-0.223c0.451,0.016,0.902,0.097,1.448,0.053
	c0.125,0.065,0.333,0.168,0.482,0.245c0.211,0.298,0.235,0.58,0.237,0.88c0.006,1.208,0.006,1.208-0.314,1.835
	c-0.116,0.039-0.245,0.123-0.377,0.126C42.493,39.036,39.598,38.908,36.787,38.882"/>
<path fill="#010101" d="M30.105,38.318c-0.036-0.414-0.068-0.809-0.096-1.13c0.505-0.804,1.097-1.318,1.928-1.416
	c0.562,0.033,0.917,0.311,1.228,0.782c0.228,0.836,0.167,1.652-0.626,2.287C31.701,39.127,30.935,39.036,30.105,38.318"/>
<path fill="#FBB041" d="M14.421,21.896c0.576-1.78,1.164-3.477,1.673-5.191c0.576-1.925,1.926-3.151,3.578-4.135
	c0.197-0.118,0.41-0.235,0.635-0.29c1.152-0.298,2.096-0.996,3.101-1.632c2.333-0.303,4.652-0.181,6.934,0.395
	c3.544,2.421,5.776,7.336,5.124,12.14c-0.52,1.15-1.063,2.354-1.604,3.555c0.202,0.556,0.379,1.065,0.583,1.631
	c-0.108,0.254-0.225,0.535-0.318,0.752c-1.811,1.164-1.811,1.164-3.128,1.111c-0.468-0.391-0.997-0.833-1.552-1.294
	c-0.548,0.195-1.078,0.325-1.557,0.566c-1.206,0.596-2.497,0.894-3.795,1.135c-2.558,0.475-4.746-0.195-6.577-2.12
	c-1.333-1.4-2.149-3.043-2.705-4.848C14.651,23.151,14.574,22.606,14.421,21.896 M24.868,14.9c-1.264,0.426-2.298,0.944-3.184,1.737
	c-1.04,0.934-1.648,2.068-1.662,3.48c-0.01,1.088-0.034,2.181,0.106,3.267c0.516,0.986,1.042,1.933,2.229,2.481
	c1.436,0.145,2.977,0.221,4.452-0.102c0.137-0.208,0.22-0.327,0.325-0.485c-0.352-0.577-0.708-1.173-1.056-1.746
	c0.118-0.281,0.21-0.487,0.32-0.749c0.398-0.182,0.809-0.406,1.246-0.562c0.508-0.184,1.036-0.325,1.563-0.448
	c0.446-0.101,0.939,0.066,1.337-0.271c0.072-0.138,0.192-0.264,0.207-0.402c0.078-0.636-0.087-1.224-0.354-1.81
	c-0.396-0.869-0.989-1.604-1.647-2.253C27.698,15.993,26.538,15.054,24.868,14.9"/>
</svg>
