<?xml version="1.0" encoding="utf-8"?>
<!-- Generator: Adobe Illustrator 16.0.0, SVG Export Plug-In . SVG Version: 6.00 Build 0)  -->
<!DOCTYPE svg PUBLIC "-//W3C//DTD SVG 1.1//EN" "http://www.w3.org/Graphics/SVG/1.1/DTD/svg11.dtd">
<svg version="1.1" id="Layer_1" xmlns="http://www.w3.org/2000/svg" xmlns:xlink="http://www.w3.org/1999/xlink" x="0px" y="0px"
	 width="50px" height="50px" viewBox="0 0 50 50" enable-background="new 0 0 50 50" xml:space="preserve">
<rect x="-1227" y="-18" fill="#FFFFFF" width="2776" height="88"/>
<path fill="#010101" d="M21.68,39.706c-0.706-0.448-0.911-1.091-0.772-2.046c0.265-0.385,0.646-0.667,1.111-0.767
	c0.089-0.016,0.177-0.034,0.27-0.038c2.173-0.098,4.334-0.531,6.517-0.45c0.452,0.016,0.902-0.066,1.448-0.11
	c0.125,0.062,0.334,0.17,0.484,0.242c0.21,0.3,0.234,0.582,0.235,0.88c0.009,1.208,0.009,1.208-0.314,1.835
	c-0.114,0.041-0.245,0.123-0.377,0.126C27.387,39.468,24.494,39.732,21.68,39.706"/>
<path fill="#010101" d="M14.973,39.524c-0.036-0.414-0.066-0.809-0.095-1.13c0.505-0.804,1.096-1.318,1.927-1.416
	c0.563,0.032,0.917,0.31,1.228,0.782c0.228,0.835,0.168,1.65-0.626,2.286C16.568,40.333,15.804,40.242,14.973,39.524"/>
<path fill="#010101" d="M33.946,39.034c-0.035-0.416-0.066-0.81-0.095-1.132c0.505-0.804,1.096-1.319,1.927-1.415
	c0.563,0.031,0.917,0.311,1.229,0.781c0.227,0.836,0.168,1.65-0.626,2.288C35.54,39.842,34.777,39.75,33.946,39.034"/>
<path fill="#FBB041" d="M17.615,33.035c-0.234-0.171-0.419-0.307-0.57-0.415c-0.045-0.118-0.095-0.188-0.098-0.263
	c-0.19-2.168-0.572-4.319-0.789-6.48c-0.18-1.78-0.2-3.577-0.237-5.369c-0.023-1.244-0.177-2.488-0.015-3.734
	c0.042-0.303-0.013-0.626-0.06-0.931c-0.112-0.772-0.238-1.537-0.369-2.302c-0.116-0.688-0.241-1.374-0.366-2.077
	c0.095-0.198,0.195-0.406,0.289-0.603c0.851-0.66,1.836-0.899,2.848-0.989c1.397-0.123,2.794-0.102,4.171,0.226
	c0.455,0.106,0.902,0.24,1.357,0.342c2.325,0.504,3.847,1.951,4.741,4.094c0.268,0.643,0.434,1.325,0.602,1.863
	c-0.197,1.225-0.37,2.298-0.562,3.488c-0.229,0.526-0.507,1.16-0.768,1.753c0.202,0.878,0.705,1.456,1.26,2.013
	c0.771,0.768,1.517,1.568,2.316,2.312c0.741,0.691,1.534,1.321,2.293,1.972c0.233,0.362,0.276,0.727-0.001,1.301
	c-0.43,0.389-1.002,0.906-1.608,1.455c-0.769,0.069-1.533,0.135-2.36,0.211c-1.155-1.032-2.313-2.062-3.472-3.096
	c-0.756-0.678-1.494-1.368-2.269-2.021c-0.468-0.394-0.928-0.845-1.604-0.87c-0.229,1.042-0.229,1.042,0.644,4.606
	c-0.257,1.125-1.123,1.769-2.142,2.223C19.79,32.215,18.689,32.607,17.615,33.035 M23.881,19.185
	c0.036-0.388,0.105-0.848,0.112-1.31c0.006-0.385-0.037-0.771-0.094-1.15c-0.194-1.34-1.754-2.83-2.967-2.909
	c-0.397-0.029-0.768,0.022-1.025,0.437c-0.009,0.194-0.077,0.44-0.019,0.651c0.459,1.716,0.76,3.464,0.999,5.225
	c0.052,0.376,0.225,0.734,0.648,1.038C22.658,21.023,23.35,20.27,23.881,19.185"/>
</svg>
