<?xml version="1.0" encoding="utf-8"?>
<!-- Generator: Adobe Illustrator 16.0.0, SVG Export Plug-In . SVG Version: 6.00 Build 0)  -->
<!DOCTYPE svg PUBLIC "-//W3C//DTD SVG 1.1//EN" "http://www.w3.org/Graphics/SVG/1.1/DTD/svg11.dtd">
<svg version="1.1" id="Layer_1" xmlns="http://www.w3.org/2000/svg" xmlns:xlink="http://www.w3.org/1999/xlink" x="0px" y="0px"
	 width="50px" height="50px" viewBox="0 0 50 50" enable-background="new 0 0 50 50" xml:space="preserve">
<rect x="-1297" y="-18" fill="#FFFFFF" width="2776" height="88"/>
<path fill="#010101" d="M17.472,40.583c-0.035-0.416-0.066-0.809-0.097-1.132c0.507-0.804,1.098-1.317,1.929-1.415
	c0.563,0.031,0.916,0.312,1.228,0.781c0.229,0.836,0.167,1.652-0.626,2.289C19.066,41.392,18.303,41.299,17.472,40.583"/>
<path fill="#010101" d="M23.427,40.583c-0.035-0.416-0.066-0.809-0.097-1.132c0.505-0.804,1.098-1.317,1.927-1.415
	c0.563,0.031,0.917,0.312,1.229,0.781c0.229,0.836,0.168,1.652-0.627,2.289C25.02,41.392,24.257,41.299,23.427,40.583"/>
<path fill="#010101" d="M29.449,40.583c-0.034-0.416-0.066-0.809-0.096-1.132c0.504-0.804,1.097-1.317,1.927-1.415
	c0.564,0.031,0.916,0.312,1.229,0.781c0.228,0.836,0.168,1.652-0.628,2.289C31.044,41.392,30.282,41.299,29.449,40.583"/>
<path fill="#FBB041" d="M24.715,33.863c-2.291-0.238-4.119-1.045-5.747-2.474c-0.533-0.86-1.158-1.758-1.433-2.922
	c0.396-0.997,0.955-1.901,1.859-2.458c0.485-0.175,0.839-0.064,1.262,0.271c0.113,0.343,0.268,0.778,0.435,1.264
	c0.012,0.019,0.044,0.112,0.104,0.144c1.199,0.591,1.791,1.95,3.082,2.507c1.177-0.159,2.295-0.407,3.016-1.693
	c0.166-0.875,0.131-1.881-0.021-3.026c-0.283-0.498-0.627-1.105-0.939-1.652c-0.678-0.416-1.286-0.765-1.87-1.154
	c-1.174-0.786-2.205-1.725-2.996-2.916c-0.425-0.649-0.903-1.261-1.555-2.166c-0.084-0.272-0.271-0.86-0.455-1.447
	c0.118-0.406,0.208-0.784,0.333-1.147c0.741-2.113,2.052-3.837,3.722-5.29c0.786-0.681,1.705-1.101,2.67-0.917
	c1.056,0.416,1.992,0.784,3.195,1.263c0.955,0.668,1.756,1.782,2.219,3.037c0.032,0.727-0.307,1.142-0.771,1.47
	c-0.7,0.501-1.493,0.827-2.362,1.143c-0.245-0.133-0.51-0.276-0.806-0.44c-0.128-0.791-0.249-1.548-0.368-2.264
	c-0.489-0.65-1.098-0.576-1.799-0.403c-0.773,0.436-1.35,1.175-1.995,1.909c-0.055,0.277-0.153,0.578-0.163,0.883
	c-0.008,0.385,0.062,0.768,0.101,1.201c0.458,0.423,0.889,0.873,1.373,1.257c1.288,1.009,2.571,2.025,3.903,2.971
	c0.851,0.604,1.521,1.332,2.052,2.209c0.242,0.4,0.465,0.814,0.705,1.21c0.976,1.593,0.977,3.226,0.351,4.94
	c-0.306,0.82-0.723,1.548-1.234,2.239C27.647,34.051,27.456,33.537,24.715,33.863"/>
</svg>
