<?xml version="1.0" encoding="utf-8"?>
<!-- Generator: Adobe Illustrator 16.0.0, SVG Export Plug-In . SVG Version: 6.00 Build 0)  -->
<!DOCTYPE svg PUBLIC "-//W3C//DTD SVG 1.1//EN" "http://www.w3.org/Graphics/SVG/1.1/DTD/svg11.dtd">
<svg version="1.1" id="Layer_1" xmlns="http://www.w3.org/2000/svg" xmlns:xlink="http://www.w3.org/1999/xlink" x="0px" y="0px"
	 width="50px" height="50px" viewBox="0 0 50 50" enable-background="new 0 0 50 50" xml:space="preserve">
<rect x="-1367" y="-18" fill="#FFFFFF" width="2776" height="88"/>
<path fill="#010101" d="M21.357,39.316c-0.72-0.449-0.931-1.091-0.789-2.044c0.271-0.388,0.659-0.669,1.134-0.767
	c0.091-0.017,0.182-0.036,0.275-0.039c2.22-0.097,4.427-0.252,6.656-0.172c0.462,0.016,0.924-0.066,1.479-0.11
	c0.129,0.063,0.341,0.169,0.496,0.246c0.215,0.296,0.238,0.58,0.24,0.876c0.009,1.211,0.009,1.211-0.321,1.835
	c-0.118,0.044-0.25,0.123-0.386,0.13C27.185,39.359,24.227,39.344,21.357,39.316"/>
<path fill="#FBB041" d="M28.154,30.902c-0.119,0.26-0.214,0.47-0.314,0.683c-0.913,0.704-2.008,0.766-3.083,0.968
	c-0.596-0.57-1.151-1.105-1.745-1.678c0.024-0.684,0.081-1.374,0.062-2.064c-0.016-0.618-0.104-1.236-0.172-1.854
	c-0.066-0.614-0.099-1.243-0.234-1.846c-0.158-0.701-0.221-1.399-0.084-2.088c0.507-2.576,0.213-5.111-0.277-7.725
	c-0.267-0.11-0.538-0.29-0.82-0.321c-0.623-0.066-1.246-0.048-1.868-0.069c-0.621-0.021-1.238-0.048-1.908-0.073
	c-0.28-0.249-0.561-0.498-0.769-0.683c-0.249-1.048,0.06-1.818,0.721-2.443c0.504-0.48,1.032-0.966,1.93-1.046
	c1.776,0.732,3.757,0.944,5.812,0.848c1.863-0.09,3.739-0.021,5.663-0.021c0.696,0.199,1.446,0.395,2.072,1.021
	c0.048,0.946-0.203,1.797-0.896,2.541c-1.473,0.555-3.067,0.328-4.635,0.692c-0.08,0.159-0.267,0.353-0.274,0.557
	c-0.176,3.814-0.307,7.629,0.244,11.429C27.735,28.804,27.965,29.868,28.154,30.902"/>
</svg>
