<?xml version="1.0" encoding="utf-8"?>
<!-- Generator: Adobe Illustrator 16.0.0, SVG Export Plug-In . SVG Version: 6.00 Build 0)  -->
<!DOCTYPE svg PUBLIC "-//W3C//DTD SVG 1.1//EN" "http://www.w3.org/Graphics/SVG/1.1/DTD/svg11.dtd">
<svg version="1.1" id="Layer_1" xmlns="http://www.w3.org/2000/svg" xmlns:xlink="http://www.w3.org/1999/xlink" x="0px" y="0px"
	 width="50px" height="50px" viewBox="0 0 50 50" enable-background="new 0 0 50 50" xml:space="preserve">
<rect x="-1437" y="-18" fill="#FFFFFF" width="2776" height="88"/>
<path fill="#010101" d="M27.361,38.164c-0.72-0.448-0.931-1.091-0.789-2.046c0.271-0.387,0.659-0.669,1.134-0.767
	c0.093-0.016,0.183-0.036,0.274-0.039c2.22-0.097,4.427-0.531,6.655-0.449c0.462,0.016,0.924-0.068,1.479-0.11
	c0.13,0.062,0.343,0.168,0.498,0.242c0.215,0.3,0.237,0.582,0.238,0.88c0.008,1.208,0.008,1.208-0.32,1.835
	c-0.117,0.041-0.249,0.123-0.385,0.126C33.188,37.926,30.234,38.189,27.361,38.164"/>
<path fill="#010101" d="M15.176,37.581c-0.034-0.413-0.066-0.808-0.096-1.131c0.504-0.804,1.098-1.319,1.928-1.415
	c0.563,0.031,0.915,0.311,1.229,0.783c0.227,0.834,0.168,1.648-0.627,2.286C16.771,38.391,16.008,38.3,15.176,37.581"/>
<path fill="#010101" d="M20.646,37.581c-0.035-0.413-0.065-0.808-0.097-1.131c0.505-0.804,1.098-1.319,1.928-1.415
	c0.563,0.031,0.917,0.311,1.229,0.783c0.229,0.834,0.168,1.648-0.626,2.286C22.241,38.391,21.476,38.3,20.646,37.581"/>
<path fill="#FBB041" d="M29.063,29.132c-1.622,0.465-3.079,0.653-4.575,0.602c-2.938-0.098-5.217-1.617-6.414-4.278
	c-0.549-1.222-0.887-2.487-1.066-3.812c-0.261-1.938-0.374-3.879-0.317-5.834c0.027-0.934,0.04-1.869,0.047-2.809
	c0.003-0.708,0.114-1.393,0.311-2.073c0.262-0.91,0.834-1.473,1.753-1.687c0.151-0.038,0.307-0.045,0.574-0.074
	c0.497,0.126,1.102,0.282,1.601,0.408c0.443,0.263,0.743,0.564,0.763,0.958c0.041,0.777,0.074,1.567-0.042,2.327
	c-0.192,1.253-0.144,2.467,0.042,3.72c0.229,1.536,0.319,3.1,0.4,4.657c0.032,0.608-0.122,1.23-0.18,1.72
	c0.144,0.688,0.447,1.133,0.871,1.502c0.951,0.842,2.079,1.347,3.221,1.687c0.718-0.145,1.198-0.526,1.747-1.097
	c0.139-0.539,0.316-1.214,0.431-1.642c0-0.412,0.024-0.575-0.006-0.723c-0.264-1.308-0.362-2.624-0.306-3.954
	c0.034-0.782,0.055-1.563,0.018-2.343c-0.045-0.93-0.1-1.869-0.258-2.787c-0.181-1.01-0.155-2.011-0.155-2.84
	c0.219-0.683,0.64-0.882,1.075-1.067c0.746-0.317,1.493-0.4,2.195-0.056c0.124,0.185,0.255,0.303,0.289,0.445
	c0.307,1.289,0.608,2.577,0.885,3.871c0.097,0.455,0.153,0.927,0.167,1.391c0.061,1.948,0.109,3.896,0.136,5.845
	c0.019,1.249,0.023,2.492-0.359,3.708c-0.137,0.438-0.116,0.925-0.16,1.312C31.254,27.608,30.368,28.545,29.063,29.132"/>
</svg>
