<?xml version="1.0" encoding="utf-8"?>
<!-- Generator: Adobe Illustrator 16.0.0, SVG Export Plug-In . SVG Version: 6.00 Build 0)  -->
<!DOCTYPE svg PUBLIC "-//W3C//DTD SVG 1.1//EN" "http://www.w3.org/Graphics/SVG/1.1/DTD/svg11.dtd">
<svg version="1.1" id="Layer_1" xmlns="http://www.w3.org/2000/svg" xmlns:xlink="http://www.w3.org/1999/xlink" x="0px" y="0px"
	 width="50px" height="50px" viewBox="0 0 50 50" enable-background="new 0 0 50 50" xml:space="preserve">
<rect x="-1507" y="-18" fill="#FFFFFF" width="2776" height="88"/>
<path fill="#010101" d="M29.755,39.957c-0.72-0.451-0.93-1.092-0.789-2.047c0.271-0.387,0.66-0.668,1.135-0.766
	c0.092-0.018,0.183-0.035,0.274-0.041c2.22-0.098,4.424-0.348,6.654-0.27c0.461,0.02,0.923-0.064,1.479-0.107
	c0.129,0.064,0.342,0.168,0.496,0.244c0.216,0.297,0.24,0.58,0.24,0.879c0.009,1.207,0.009,1.207-0.322,1.836
	c-0.115,0.041-0.248,0.123-0.384,0.125C35.583,39.9,32.63,39.984,29.755,39.957"/>
<path fill="#010101" d="M17.942,39.467c-0.035-0.416-0.067-0.811-0.097-1.131c0.505-0.805,1.096-1.32,1.928-1.416
	c0.562,0.031,0.915,0.312,1.228,0.781c0.229,0.836,0.168,1.65-0.625,2.289C19.536,40.275,18.772,40.184,17.942,39.467"/>
<path fill="#010101" d="M11.851,39.271c-0.036-0.416-0.066-0.809-0.097-1.131c0.505-0.805,1.098-1.318,1.927-1.416
	c0.563,0.031,0.918,0.309,1.229,0.781c0.229,0.836,0.168,1.65-0.626,2.287C13.445,40.08,12.682,39.988,11.851,39.271"/>
<path fill="#010101" d="M23.49,39.467c-0.035-0.416-0.067-0.811-0.095-1.131c0.503-0.805,1.096-1.32,1.926-1.416
	c0.564,0.031,0.917,0.312,1.229,0.781c0.229,0.836,0.167,1.65-0.627,2.289C25.087,40.275,24.32,40.184,23.49,39.467"/>
<path fill="#FBB041" d="M25.668,25.8c0.83-2.314,1.474-4.312,2.085-6.321c0.525-1.715,1.029-3.437,1.756-5.082
	c0.374-0.859,0.648-1.758,0.975-2.636c0.216-0.585,0.442-1.166,0.9-1.627c1.518-0.634,2.91,0.136,4.304,0.269
	c0.176,0.283,0.297,0.476,0.398,0.64c-0.019,0.12-0.013,0.208-0.043,0.271c-1.532,3.004-2.551,6.194-3.471,9.426
	c-0.234,0.823-0.64,1.594-0.919,2.402c-0.739,2.132-1.555,4.245-2.1,6.444c-0.076,0.301-0.195,0.59-0.301,0.885
	c-0.114,0.326-0.185,0.395-0.996,0.951c-1.312,0.041-2.634,0.094-3.959,0.125c-1.087,0.029-1.946-0.398-2.633-1.266
	c-0.591-0.744-1.083-1.549-1.404-2.422c-0.541-1.471-1.35-2.809-1.951-4.25c-0.657-1.582-1.421-3.124-2.13-4.689
	c-0.188-0.426-0.4-0.855-0.493-1.307c-0.327-1.547-0.95-2.977-1.604-4.395c-0.294-0.636-0.576-1.274-0.708-2.051
	c0.147-0.21,0.32-0.454,0.486-0.689c0.718-0.201,1.383-0.439,2.07-0.555c0.608-0.107,1.254-0.139,1.687,0.419
	c0.238,0.42-0.045,0.795-0.003,1.175c0.04,0.149,0.043,0.326,0.126,0.446c0.875,1.201,1.473,2.572,2.24,3.837
	c0.241,0.401,0.415,0.848,0.692,1.223c1.817,2.469,3.048,5.259,4.415,7.974C25.184,25.192,25.339,25.353,25.668,25.8"/>
</svg>
