<?xml version="1.0" encoding="utf-8"?>
<!-- Generator: Adobe Illustrator 16.0.0, SVG Export Plug-In . SVG Version: 6.00 Build 0)  -->
<!DOCTYPE svg PUBLIC "-//W3C//DTD SVG 1.1//EN" "http://www.w3.org/Graphics/SVG/1.1/DTD/svg11.dtd">
<svg version="1.1" id="Layer_1" xmlns="http://www.w3.org/2000/svg" xmlns:xlink="http://www.w3.org/1999/xlink" x="0px" y="0px"
	 width="50px" height="50px" viewBox="0 0 50 50" enable-background="new 0 0 50 50" xml:space="preserve">
<rect x="-1577" y="-18" fill="#FFFFFF" width="2776" height="88"/>
<path fill="#010101" d="M18.858,39.193c-0.719-0.449-0.93-1.093-0.789-2.048c0.271-0.388,0.66-0.668,1.135-0.765
	c0.091-0.019,0.183-0.036,0.274-0.039c2.22-0.098,4.426-0.325,6.655-0.244c0.462,0.017,0.924,0.26,1.479,0.219
	c0.129,0.063,0.342,0.167,0.496,0.243c0.216,0.298,0.238,0.58,0.24,0.879c0.008,1.208,0.008,1.208-0.321,1.835
	c-0.116,0.041-0.249,0.125-0.384,0.128C24.686,39.491,21.731,39.22,18.858,39.193"/>
<path fill="#010101" d="M31.729,38.935c-0.719-0.449-0.928-1.091-0.788-2.048c0.271-0.384,0.661-0.668,1.136-0.765
	c0.09-0.017,0.18-0.036,0.273-0.039c2.22-0.098,4.105-0.066,6.333,0.015c0.462,0.017,0.924-0.066,1.479-0.11
	c0.128,0.062,0.342,0.168,0.496,0.244c0.215,0.296,0.235,0.58,0.239,0.88c0.01,1.207,0.01,1.207-0.321,1.833
	c-0.116,0.043-0.25,0.125-0.386,0.128C37.232,39.163,34.602,38.962,31.729,38.935"/>
<path fill="#010101" d="M12.398,38.631c-0.035-0.413-0.066-0.808-0.097-1.132c0.507-0.805,1.099-1.318,1.929-1.416
	c0.563,0.033,0.916,0.312,1.228,0.783c0.229,0.834,0.168,1.65-0.625,2.288C13.993,39.44,13.229,39.348,12.398,38.631"/>
<path fill="#FBB041" d="M30.895,26.681c0.187-0.948,0.285-1.56,0.431-2.158c0.604-2.5,1.237-4.994,1.834-7.497
	c0.34-1.441,0.618-2.899,0.935-4.342c0.151-0.685,0.234-1.399,0.852-1.869c1.513-0.29,1.513-0.29,3.76,0.104
	c0.142,0.199,0.31,0.44,0.454,0.649c-0.081,0.87-0.397,1.583-0.64,2.32c-0.567,1.701-1.154,3.398-1.463,5.174
	c-0.201,1.157-0.547,2.279-0.94,3.377c-0.321,0.889-0.557,1.781-0.672,2.722c-0.074,0.617-0.195,1.238-0.381,1.827
	c-0.468,1.485-1.004,2.951-1.252,4.502c-0.073,0.462-0.313,0.883-0.879,1.218c-0.786,0.078-1.712,0.168-2.451,0.239
	c-0.601-0.154-0.856-0.456-1.028-0.811c-0.934-1.895-2.247-3.562-3.265-5.403c-0.718-1.296-1.677-2.422-2.515-3.542
	c-0.48,0.018-0.672,0.27-0.809,0.537c-1.056,2.089-2.213,4.129-3.044,6.326c-0.224,0.582-0.483,1.15-0.764,1.71
	c-0.138,0.269-0.365,0.492-0.556,0.744c-0.933,0.249-1.824,0.521-2.855,0.142c-0.366-0.406-0.793-0.857-1.186-1.336
	c-0.195-0.238-0.417-0.513-0.469-0.801c-0.248-1.311-0.996-2.44-1.254-3.759c-0.269-1.374-0.758-2.701-1.142-4.054
	c-0.276-0.977-0.531-1.952-0.744-2.943c-0.277-1.294-0.739-2.546-1.14-3.812c-0.397-1.263-0.757-2.536-0.83-3.873
	C9.17,11.308,9.16,11.3,9.834,10.741c1.105-0.304,2.26-0.123,3.408,0.098c0.206,0.04,0.377,0.246,0.631,0.423
	c0.037,0.356,0.129,0.737,0.107,1.113c-0.052,1.03,0.127,2.013,0.37,3.004c0.485,1.968,0.915,3.95,1.366,5.926
	c0.085,0.38,0.14,0.768,0.248,1.143c0.446,1.536,0.908,3.068,1.409,4.748c0.347-0.873,0.592-1.61,0.928-2.308
	c0.306-0.631,0.739-1.194,1.063-1.82c0.76-1.449,1.483-2.921,2.251-4.439c1.086-0.575,2.272-0.804,3.523-0.9
	c0.234,0.377,0.42,0.621,0.544,0.895c0.262,0.565,0.488,1.147,0.731,1.723C27.399,22.662,28.787,24.694,30.895,26.681
	 M31.837,30.361l0.047,0.159l0.047-0.156L31.837,30.361z"/>
</svg>
