<?xml version="1.0" encoding="utf-8"?>
<!-- Generator: Adobe Illustrator 16.0.0, SVG Export Plug-In . SVG Version: 6.00 Build 0)  -->
<!DOCTYPE svg PUBLIC "-//W3C//DTD SVG 1.1//EN" "http://www.w3.org/Graphics/SVG/1.1/DTD/svg11.dtd">
<svg version="1.1" id="Layer_1" xmlns="http://www.w3.org/2000/svg" xmlns:xlink="http://www.w3.org/1999/xlink" x="0px" y="0px"
	 width="50px" height="50px" viewBox="0 0 50 50" enable-background="new 0 0 50 50" xml:space="preserve">
<rect x="-1647" y="-18" fill="#FFFFFF" width="2776" height="88"/>
<path fill="#010101" d="M33.149,40.098c-0.72-0.447-0.93-1.09-0.789-2.045c0.271-0.389,0.66-0.668,1.134-0.766
	c0.091-0.02,0.184-0.037,0.275-0.041c2.22-0.096,4.426-0.531,6.654-0.451c0.462,0.02,0.924-0.066,1.479-0.107
	c0.129,0.062,0.343,0.166,0.495,0.242c0.217,0.299,0.24,0.58,0.24,0.879c0.011,1.209,0.011,1.209-0.32,1.836
	c-0.118,0.041-0.251,0.123-0.387,0.127C38.977,39.861,36.022,40.127,33.149,40.098"/>
<path fill="#010101" d="M8.742,40.002c-0.719-0.449-0.929-1.09-0.789-2.045c0.271-0.387,0.66-0.668,1.135-0.766
	c0.09-0.02,0.183-0.035,0.275-0.039c2.219-0.1,4.426-0.531,6.654-0.453c0.462,0.02,0.924-0.066,1.479-0.109
	c0.128,0.062,0.344,0.17,0.495,0.244c0.217,0.297,0.238,0.582,0.241,0.879c0.008,1.207,0.008,1.207-0.32,1.834
	c-0.12,0.043-0.252,0.125-0.388,0.129C14.572,39.764,11.616,40.029,8.742,40.002"/>
<path fill="#010101" d="M20.734,39.232c-0.035-0.414-0.065-0.809-0.097-1.131c0.505-0.805,1.098-1.316,1.927-1.416
	c0.563,0.033,0.918,0.311,1.229,0.783c0.229,0.834,0.168,1.65-0.627,2.285C22.327,40.041,21.566,39.949,20.734,39.232"/>
<path fill="#010101" d="M26.361,39.33c-0.035-0.414-0.066-0.809-0.097-1.129c0.505-0.805,1.098-1.32,1.928-1.416
	c0.562,0.031,0.917,0.309,1.229,0.779c0.229,0.838,0.167,1.65-0.626,2.287C27.958,40.139,27.193,40.047,26.361,39.33"/>
<path fill="#FBB041" d="M20.761,8.242c0.568,2.016,0.568,2.016,2.611,5.289c0.386,0.355,0.859,0.766,1.301,1.201
	c0.378,0.38,0.613,0.912,1.262,1.127c1.986-2.156,3.435-4.756,5.118-7.004C31.567,8.499,32,8.36,32.491,8.408
	c0.618,0.068,1.242,0.09,1.853,0.184c0.417,0.066,0.677,0.361,0.773,0.91c-0.067,0.186-0.139,0.493-0.286,0.755
	c-0.673,1.231-1.343,2.467-2.072,3.665c-0.487,0.795-1.071,1.529-1.618,2.285c-0.593,0.82-1.214,1.624-1.778,2.461
	c-0.211,0.311-0.304,0.701-0.465,1.093c0.151,0.296,0.232,0.624,0.438,0.826c0.773,0.773,1.471,1.604,2.134,2.478
	c0.472,0.615,1.03,1.167,1.571,1.731c0.482,0.503,1.034,0.953,1.476,1.49c0.539,0.662,1.002,1.391,1.483,2.068
	c0.318,1.209-0.191,2.006-1.192,2.525c-0.618,0.322-1.278,0.555-1.778,0.768c-0.688-0.031-1.046-0.348-1.324-0.727
	c-1.717-2.326-3.849-4.277-5.802-6.39c-0.045-0.044-0.14-0.041-0.211-0.058c-1.397,1.262-2.253,2.405-2.894,3.86
	c-0.254,0.572-0.495,1.148-0.771,1.707c-0.277,0.562-0.632,1.08-1.227,1.428c-0.822,0.312-1.647,0.172-2.447-0.195
	c-0.571-0.461-0.932-1.047-1.204-1.846c0.104-0.27,0.168-0.68,0.393-0.965c0.982-1.232,1.657-2.631,2.391-4.008
	c0.697-1.307,1.479-2.564,2.202-3.804c0.075-0.479-0.172-0.788-0.408-1.097c-1.289-1.676-2.341-3.488-3.231-5.41
	c-0.585-1.268-1.242-2.516-1.874-3.762c-0.146-0.286-0.246-0.567-0.133-0.901c0.406-0.539,1.107-0.501,1.649-0.78
	c0.552-0.288,1.129-0.519,1.746-0.799C20.153,8.003,20.433,8.113,20.761,8.242"/>
</svg>
