<?xml version="1.0" encoding="utf-8"?>
<!-- Generator: Adobe Illustrator 16.0.0, SVG Export Plug-In . SVG Version: 6.00 Build 0)  -->
<!DOCTYPE svg PUBLIC "-//W3C//DTD SVG 1.1//EN" "http://www.w3.org/Graphics/SVG/1.1/DTD/svg11.dtd">
<svg version="1.1" id="Layer_1" xmlns="http://www.w3.org/2000/svg" xmlns:xlink="http://www.w3.org/1999/xlink" x="0px" y="0px"
	 width="50px" height="50px" viewBox="0 0 50 50" enable-background="new 0 0 50 50" xml:space="preserve">
<rect x="-1717" y="-18" fill="#FFFFFF" width="2776" height="88"/>
<path fill="#010101" d="M36.445,41.078c-0.719-0.447-0.93-1.091-0.789-2.045c0.273-0.388,0.66-0.668,1.137-0.765
	c0.088-0.017,0.182-0.037,0.273-0.04c2.219-0.099,4.426-0.531,6.656-0.451c0.459,0.016,0.924-0.067,1.479-0.11
	c0.129,0.062,0.34,0.169,0.494,0.242c0.215,0.3,0.24,0.584,0.24,0.88c0.01,1.208,0.01,1.208-0.322,1.835
	c-0.115,0.041-0.248,0.123-0.383,0.126C42.271,40.842,39.316,41.106,36.445,41.078"/>
<path fill="#010101" d="M23.869,41.612c-0.717-0.449-0.93-1.091-0.787-2.044c0.271-0.388,0.658-0.669,1.135-0.767
	c0.09-0.016,0.184-0.036,0.273-0.039c2.221-0.097,4.428-0.531,6.656-0.451c0.461,0.018,0.924-0.067,1.479-0.111
	c0.129,0.065,0.34,0.17,0.496,0.244c0.215,0.298,0.238,0.583,0.238,0.879c0.01,1.208,0.01,1.208-0.32,1.837
	c-0.117,0.039-0.25,0.123-0.385,0.126C29.695,41.374,26.742,41.64,23.869,41.612"/>
<path fill="#010101" d="M4.895,41.712c-0.721-0.449-0.93-1.091-0.791-2.046c0.271-0.388,0.662-0.669,1.135-0.765
	c0.092-0.018,0.182-0.036,0.273-0.039c2.219-0.099,4.426-0.533,6.656-0.454c0.463,0.019,0.922-0.066,1.479-0.109
	c0.129,0.063,0.344,0.169,0.494,0.244c0.219,0.297,0.24,0.58,0.242,0.88c0.008,1.208,0.008,1.208-0.32,1.833
	c-0.119,0.043-0.248,0.125-0.387,0.128C10.719,41.474,7.766,41.737,4.895,41.712"/>
<path fill="#010101" d="M17.277,40.845c-0.037-0.416-0.068-0.809-0.098-1.132c0.506-0.804,1.096-1.317,1.928-1.415
	c0.562,0.031,0.918,0.312,1.229,0.781c0.23,0.836,0.168,1.652-0.625,2.289C18.873,41.653,18.105,41.561,17.277,40.845"/>
<path fill="#FBB041" d="M25.203,20.061c-0.109,2.123-0.275,4.142,0.158,6.162c0.113,0.524,0.098,1.085,0.113,1.63
	c0.033,1.327,0.094,2.651,0.406,3.95c0.07,0.295,0.01,0.618,0.01,0.972c-0.219,0.73-0.709,1.323-1.242,1.923
	c-0.332,0.05-0.635,0.147-0.938,0.142c-1.562-0.054-2.357-0.737-2.455-2.24c-0.111-1.712-0.141-3.43-0.168-5.144
	c-0.018-1.718,0.01-3.437,0.029-5.153c0.006-0.786-0.104-1.551-0.346-2.301c-0.271-0.838-0.744-1.535-1.357-2.158
	c-0.926-0.944-1.967-1.763-2.857-2.759c-0.871-0.978-1.992-1.737-3.074-2.651c-0.104-0.369-0.199-0.832-0.375-1.252
	c-0.182-0.426-0.443-0.81-0.639-1.145c0.033-0.773,0.516-1.027,1.076-1.114c0.766-0.118,1.541-0.154,2.199-0.218
	c0.602,0.156,0.926,0.51,1.178,0.9c0.811,1.26,1.869,2.289,2.939,3.316c0.9,0.864,1.721,1.813,2.594,2.704
	c0.148,0.147,0.389,0.201,0.576,0.293c1.264-1.162,2.891-3.028,3.549-4.048c0.252-0.396,0.486-0.803,0.773-1.172
	c0.615-0.801,1.254-1.581,1.904-2.396c0.963-0.092,1.873,0.221,2.695,0.11c0.305,0.219,0.508,0.337,0.668,0.496
	c0.104,0.1,0.146,0.269,0.217,0.405c-0.023,0.149,0,0.334-0.078,0.451c-0.525,0.773-1.041,1.556-1.613,2.288
	c-1.154,1.476-2.352,2.912-3.518,4.378C26.754,17.534,25.984,18.713,25.203,20.061"/>
</svg>
