<?xml version="1.0" encoding="utf-8"?>
<!-- Generator: Adobe Illustrator 16.0.0, SVG Export Plug-In . SVG Version: 6.00 Build 0)  -->
<!DOCTYPE svg PUBLIC "-//W3C//DTD SVG 1.1//EN" "http://www.w3.org/Graphics/SVG/1.1/DTD/svg11.dtd">
<svg version="1.1" id="Layer_1" xmlns="http://www.w3.org/2000/svg" xmlns:xlink="http://www.w3.org/1999/xlink" x="0px" y="0px"
	 width="50px" height="50px" viewBox="0 0 50 50" enable-background="new 0 0 50 50" xml:space="preserve">
<rect x="-1787" y="-18" fill="#FFFFFF" width="2776" height="88"/>
<path fill="#010101" d="M21.008,40.023c-0.719-0.449-0.93-1.091-0.787-2.045c0.271-0.388,0.658-0.668,1.135-0.766
	c0.088-0.018,0.182-0.038,0.273-0.041c2.221-0.097,4.426-0.53,6.656-0.451c0.459,0.018,0.922-0.066,1.479-0.11
	c0.129,0.063,0.34,0.17,0.494,0.244c0.217,0.298,0.24,0.582,0.24,0.88c0.01,1.207,0.01,1.207-0.322,1.833
	c-0.115,0.043-0.248,0.125-0.383,0.128C26.836,39.785,23.879,40.05,21.008,40.023"/>
<path fill="#010101" d="M8.412,39.921c-0.719-0.448-0.926-1.091-0.787-2.045c0.271-0.386,0.658-0.668,1.135-0.765
	c0.092-0.019,0.182-0.037,0.273-0.041c2.221-0.098,4.08-0.188,6.309-0.11c0.463,0.018,0.924-0.065,1.479-0.11
	c0.129,0.064,0.342,0.171,0.498,0.243c0.217,0.3,0.236,0.583,0.24,0.88c0.006,1.207,0.006,1.207-0.322,1.836
	c-0.119,0.039-0.248,0.121-0.385,0.126C13.896,40.024,11.285,39.95,8.412,39.921"/>
<path fill="#010101" d="M33.637,39.256c-0.033-0.417-0.064-0.811-0.094-1.132c0.502-0.805,1.094-1.319,1.924-1.416
	c0.564,0.031,0.916,0.312,1.23,0.782c0.227,0.835,0.168,1.651-0.629,2.289C35.23,40.062,34.471,39.971,33.637,39.256"/>
<path fill="#010101" d="M39.238,39.256c-0.033-0.417-0.066-0.811-0.094-1.132c0.502-0.805,1.098-1.319,1.926-1.416
	c0.564,0.031,0.916,0.312,1.229,0.782c0.229,0.835,0.168,1.651-0.627,2.289C40.834,40.062,40.07,39.971,39.238,39.256"/>
<path fill="#FBB041" d="M15.078,29.353c-0.07-0.255-0.104-0.385-0.158-0.589c0.182-0.364,0.369-0.792,0.598-1.201
	c0.398-0.7,0.811-1.395,1.23-2.084c0.172-0.287,0.342-0.587,0.564-0.83c2.051-2.229,3.85-4.666,5.738-7.027
	c0.842-1.046,1.814-1.982,2.717-2.982c0.115-0.132,0.145-0.34,0.244-0.576c-0.84-0.201-1.631-0.266-2.43-0.273
	c-1.887-0.021-3.766-0.057-5.65-0.093c-0.471-0.01-0.947,0.023-1.412-0.309c-0.508-0.719-0.441-1.604-0.508-2.327
	c0.23-0.75,0.713-0.968,1.283-0.993c1.205-0.054,2.418-0.103,3.629-0.091c1.615,0.009,3.232,0.042,4.84,0.131
	c1.277,0.07,2.541,0.237,4.064,0.384c0.143,0.056,0.523,0.182,0.887,0.354c0.299,0.144,0.568,0.342,0.793,0.48
	c0.045,0.218,0.107,0.354,0.086,0.474c-0.096,0.527-0.221,1.05-0.33,1.569c-0.438,0.867-1.158,1.495-1.76,2.21
	c-1.262,1.488-2.564,2.938-3.787,4.455c-0.715,0.883-1.32,1.86-1.967,2.803c-0.645,0.942-1.277,1.889-1.938,2.863
	c0.066,0.157,0.146,0.334,0.242,0.563c0.447,0.092,0.902,0.229,1.367,0.266c1.006,0.069,1.994,0.208,2.988,0.413
	c1.646,0.337,3.305,0.592,4.959,0.887c0.41,0.068,0.785,0.194,1.145,0.698c0.154,0.675,0.529,1.495-0.021,2.341
	c-0.734,0.618-1.529,0.801-2.455,0.528c-0.574-0.173-1.184-0.334-1.777-0.334c-1.422,0.002-2.809-0.284-4.217-0.366
	c-0.199-0.011-0.408-0.006-0.604-0.044c-1.66-0.304-3.334-0.376-5.021-0.337C17.426,30.341,16.418,30.001,15.078,29.353"/>
</svg>
